<?xml version="1.0" standalone="no"?>
<!DOCTYPE svg PUBLIC "-//W3C//DTD SVG 1.1//EN" "http://www.w3.org/Graphics/SVG/1.1/DTD/svg11.dtd" >
<svg xmlns="http://www.w3.org/2000/svg" xmlns:xlink="http://www.w3.org/1999/xlink" version="1.1">
<metadata>
Created by FontForge 20200314 at Tue Nov  3 19:21:14 2015
 By Unknown
Copyright (c) 2014 by Ulrike Wilhelm. All rights reserved.
</metadata>
<defs>
<font id="LiebeErikaW03-Regular" horiz-adv-x="245" >
  <font-face 
    font-family="LiebeErikaW03-Regular"
    font-weight="400"
    font-stretch="normal"
    units-per-em="1000"
    panose-1="1 0 0 0 0 0 0 0 0 0"
    ascent="800"
    descent="-200"
    x-height="465.5"
    cap-height="682"
    bbox="-69.1333 -266 780 861"
    underline-thickness="50"
    underline-position="-125"
    unicode-range="U+000D-FB02"
  />
<missing-glyph horiz-adv-x="255" 
d="M127 416q30 0 51.5 -21.5t21.5 -51.5q0 -29 -21.5 -50.5t-51.5 -21.5t-51 21t-21 51t21.5 51.5t50.5 21.5zM127 400q-23 0 -39.5 -17t-16.5 -40t16.5 -39.5t39.5 -16.5t40 16.5t17 39.5t-17 40t-40 17z" />
    <glyph glyph-name="uniFB01" unicode="fi" horiz-adv-x="266" 
d="M155 742q41 0 59.5 -40.5t16.5 -102.5q-2 -44 -22 -47q-16 -3 -22.5 9t1 25t25.5 7q2 36 -3.5 66t-18.5 47.5t-36 17.5q-37 0 -57 -50q-12 -32 -12 -91v-118q22 0 74 1t54 -1q4 -2 0 -87v-160t-2 -197q-1 -13 -2.5 -18.5t-7.5 -5.5q-4 0 -6 4.5t-1.5 16.5t0.5 15l2 295
q0 14 1 51.5t0 67.5l-112 1l-1 -277l-1 -156q0 -16 -5.5 -18t-8.5 2q-1 1 -2 11t-1.5 41t0 74.5t0.5 47.5v275q-10 0 -26 -1t-21 0t-6 8q-2 14 53 11q1 24 1.5 78t3.5 89t13 57q12 25 30 38.5t40 13.5z" />
    <glyph glyph-name="uniFB02" unicode="fl" horiz-adv-x="272" 
d="M144 743q17 0 33 -8.5t24.5 -29t11.5 -49.5q3 -23 3 -116l-1 -200l-1 -270q0 -39 4.5 -47.5t9.5 -9.5q13 -2 20 9q6 10 9 11.5t5 0.5q6 -1 5 -8t-4 -12q-12 -18 -32 -18q-8 0 -16.5 4.5t-11.5 11.5q-6 12 -6 74q0 94 1.5 271t-0.5 259q-1 57 -13.5 83.5t-41.5 26.5
q-17 0 -30 -13t-18.5 -40t-7 -55.5t-1.5 -152.5q38 1 53.5 -0.5t15.5 -8.5q0 -5 -9 -7.5t-32 -1.5t-28 1l-1 -251l1 -145l1 -39q-2 -14 -10 -14q-5 0 -8 8.5t-2 31.5t1 28q-1 193 0 382q-5 2 -28.5 0t-24.5 6q-1 6 6 9.5t26.5 2.5t22.5 -1q0 18 -0.5 61.5t0 75.5t5.5 64.5
t21.5 54t47.5 21.5z" />
    <glyph glyph-name="f_j.dlig" unicode="fj" horiz-adv-x="264" 
d="M148 743q39 0 59.5 -38.5t17.5 -104.5q-2 -44 -22 -47q-14 -3 -21.5 8t0 25.5t26.5 8.5q3 30 -3 61t-20 50t-37 19q-60 0 -60 -129l-2 -131h85q3 0 12.5 0.5t16.5 -0.5t10 -4q4 -5 2 -20q-1 -23 -1 -124l1 -286v-168q0 -74 -19 -99q-5 -7 -14 -15t-15 -9q-12 -3 -23 -3
q-16 0 -32.5 8t-26 28.5t-6.5 43.5q4 35 25 68q11 16 15.5 20t8.5 1t4 -7.5t-5.5 -12t-6.5 -8.5q-22 -34 -24 -63q-2 -15 3.5 -31.5t25.5 -26.5q7 -3 19.5 -3t19.5 4q16 8 24.5 30.5t9.5 76.5v129l-2 353v101h-107l-1 -339v-91q0 -22 -8 -23q-3 0 -5 0.5t-3.5 4.5t-1.5 8
v9.5v6.5v272l1 151h-36q-9 -1 -17.5 0.5t-9.5 7.5q0 2 3 5.5t30.5 4t29.5 0.5q0 8 0.5 59.5t2 87.5t5.5 55q16 76 72 76z" />
    <glyph glyph-name="g_j.dlig" unicode="gj" horiz-adv-x="345" 
d="M285 592q8 0 13 -6.5t5 -14.5t-6 -15.5t-15 -7.5q-8 0 -13 6t-5 14q0 9 7 16.5t14 7.5zM188 521q1 -1 3.5 -6.5t0.5 -15.5q-1 -16 -13 -28.5t-25 -17.5q34 -51 35.5 -151.5t-29.5 -159.5q-23 -42 -63 -36l-19 -37q-4 -8 -7 -19t-1 -18q1 -3 7.5 -9.5t20.5 -16.5t16 -11
q21 -15 36.5 -32.5t27.5 -49.5q12 -31 10 -68t-14 -62q19 -30 47 -30q50 0 54 103l2 267l-1 261v43q0 3 -0.5 14.5t1 18.5t7.5 6q8 0 9 -14v-67v-272l-1 -248q0 -119 -61 -127q-16 -2 -34.5 4.5t-31.5 25.5q-10 -14 -26 -23t-35 -9q-23 0 -44 17.5t-29.5 42.5t-8.5 46
q0 25 9 55t28 56t34 36q-13 8 -29 23q-7 7 -10.5 21.5t18.5 61.5l8 17q-22 13 -33.5 46t-14.5 82t4 100q5 40 17.5 71t29.5 44.5t36 13.5q11 0 21 -4q9 0 21.5 12t13.5 23v8.5t1.5 10.5t4 3.5t7.5 -1.5zM113 451q-16 -2 -32 -22.5t-23 -60.5q-11 -62 -7 -137t32 -100
q10 -8 22.5 -8.5t22.5 6.5q17 12 32 60q15 50 14 110t-15 103q-10 31 -21 41t-25 8zM108 -20q-14 -7 -32.5 -32.5t-27.5 -52.5t-9 -47q0 -40 19.5 -67.5t46.5 -27.5q16 0 29 7t24 28q13 26 13 58.5t-7 56.5q-15 47 -56 77z" />
    <glyph glyph-name="j_j.dlig" unicode="jj" horiz-adv-x="241" 
d="M59 548q-8 0 -13 6t-5 14q0 9 7 16.5t14 7.5q8 0 13 -6.5t5 -14.5t-6 -15.5t-15 -7.5zM182 592q8 0 13 -6.5t5 -14.5t-6 -15.5t-15 -7.5q-8 0 -13 6t-5 14q0 24 21 24zM190 449v-67v-269v-77t-0.5 -119.5t-3.5 -84.5t-13 -55t-26 -32.5t-32 -7.5q-20 1 -34 14.5t-21 30.5
q-15 -42 -52 -46q-29 -4 -48 13t-23 47q-2 18 3.5 42.5t21.5 49.5q9 13 12.5 14t6.5 -1t3 -6t-10 -19q-11 -17 -16.5 -39.5t-3.5 -40.5q2 -20 14 -32.5t31 -12.5q23 0 37.5 21.5t15.5 81.5l2 269l-1 258v43q0 3 -0.5 14.5t1 18.5t7.5 6q8 0 9 -14v-67v-269l-1 -250
q0 -29 -3 -56q7 -24 20 -38.5t29 -15.5q19 -2 34 16.5t20 63.5q5 48 5 290l-1 258v43q0 3 -0.5 14.5t1 18.5t7.5 6q8 0 9 -14z" />
    <glyph glyph-name=".notdef" horiz-adv-x="255" 
d="M127 416q30 0 51.5 -21.5t21.5 -51.5q0 -29 -21.5 -50.5t-51.5 -21.5t-51 21t-21 51t21.5 51.5t50.5 21.5zM127 400q-23 0 -39.5 -17t-16.5 -40t16.5 -39.5t39.5 -16.5t40 16.5t17 39.5t-17 40t-40 17z" />
    <glyph glyph-name=".null" horiz-adv-x="0" 
 />
    <glyph glyph-name="uni000D" unicode="&#xd;" horiz-adv-x="115" 
 />
    <glyph glyph-name="space" unicode=" " horiz-adv-x="115" 
 />
    <glyph glyph-name="exclam" unicode="!" horiz-adv-x="156" 
d="M76 716q7 2 10.5 -2t2.5 -33q0 -52 -2 -134.5t0 -154.5v-259q3 -26 -6 -27q-4 0 -7 3t-3 24q-2 46 -1.5 141t0.5 119l1 291q0 2 -0.5 10.5t0.5 14.5t5 7zM61 24q1 7 6.5 11t11.5 4q8 0 15 -6.5t7 -16.5q0 -8 -8 -14.5t-17 -4.5t-13 10.5t-2 16.5z" />
    <glyph glyph-name="quotedbl" unicode="&#x22;" horiz-adv-x="159" 
d="M38 740q9 7 16 -2q5 -7 2 -29q-1 -5 -2 -22.5t-1.5 -62.5t-0.5 -51q0 -4 -0.5 -21t-6.5 -16q-3 0 -5.5 9.5t-3 34t-0.5 27.5l-1 86q-1 23 -1 33t4 14zM128 739q1 -1 2 -5t0 -17t-1 -14l-3 -123v-20t-6 -21q-10 -2 -10 64l-2 94q0 1 -1.5 17t2.5 22q4 4 10 6t9 -3z" />
    <glyph glyph-name="numbersign" unicode="#" horiz-adv-x="365" 
d="M286 677q4 0 6.5 -3t1.5 -12.5t-1 -11.5q0 -24 -5.5 -75t-10.5 -78h56q10 0 15.5 -2t4.5 -9q-1 -3 -5 -4.5t-10.5 -2t-20.5 -0.5h-42l-28 -258h57q12 0 15 -4.5t3 -6.5q0 -4 -9.5 -6.5t-35 -1.5t-31.5 1q-1 -9 -8 -75.5t-11 -92.5q0 -2 -1.5 -14t-4 -17.5t-7.5 -5.5
q-3 0 -4.5 8.5t2.5 43.5l16 153h-107l-24 -196q0 -3 -3 -5t-5 -2q-9 0 -8 12l22 191l-42 1q-19 0 -25.5 2t-6.5 7q0 2 3 5t18 3h56l28 258q-13 1 -32 1h-30q-13 2 -15 4.5t-2 4.5q0 3 4 5.5t28 2.5h49q3 23 10 84.5t8 73.5t2.5 17t7.5 5q7 0 6 -19l-16 -161h105l16 146
q0 3 1 12t3 15.5t7 6.5zM257 479h-105q-2 -11 -5.5 -43.5t-13 -119t-10.5 -95.5h107z" />
    <glyph glyph-name="dollar" unicode="$" horiz-adv-x="258" 
d="M130 752q5 0 8 -4t2.5 -16.5t-0.5 -14.5v-42q10 -1 21.5 -5.5t18.5 -10.5q22 -17 28 -45.5t-2 -63.5q-2 -8 -5.5 -15t-8.5 -8.5t-8 3.5q-2 3 2 14.5t4 12.5q11 56 -18 85q-16 16 -41.5 15.5t-41.5 -18.5q-10 -11 -15 -31t0.5 -51.5t21.5 -72.5t42.5 -94.5t31.5 -65.5
q35 -76 46 -123t10 -85q-2 -62 -31 -91q-4 -4 -16 -13.5t-36 -12.5l1 -40q0 -2 0.5 -12t-1.5 -16.5t-8 -7.5q-4 0 -6.5 5t-2.5 21v20l-1 30q-48 1 -75 48q-17 29 -19 78t14 78q5 13 12 13q5 0 6.5 -4.5t-6.5 -24.5q-8 -22 -9 -53t8 -58q6 -18 22 -36t42 -22.5t50 9.5
q20 11 29.5 38t8.5 59q-1 26 -7.5 63.5t-41.5 116.5q-4 8 -39.5 81.5t-48 109.5t-15.5 57t-3 36t4.5 30.5t15.5 28.5q19 24 51 28l-1 40q0 2 -0.5 12.5t1 17t6.5 7.5z" />
    <glyph glyph-name="percent" unicode="%" horiz-adv-x="336" 
d="M291 688q8 3 9.5 -1.5t-1.5 -16t-16 -40.5t-15 -35q-2 -7 -8.5 -24t-29 -81.5t-48.5 -133.5q-52 -142 -62 -172q-9 -29 -29 -81.5t-27 -76.5q-3 -11 -9.5 -24.5t-13.5 -12.5q-5 1 -6.5 4.5t-0.5 10t9 24.5q15 42 41.5 113t39.5 109q10 30 57.5 159.5t70.5 189.5
q32 87 39 89zM105 680q16 -5 27 -29.5t13 -73t-3 -95.5q-8 -55 -19 -74t-27 -23q-21 -4 -35 8.5t-21 33.5q-6 20 -9 64.5t3 97.5q6 46 24 72.5t47 18.5zM88 663q-9 -1 -17 -13.5t-12 -23.5q-6 -20 -10 -59.5t-1 -85t15 -62.5q6 -9 16.5 -14t20.5 3q19 16 25 79t0 113
q-8 67 -37 63zM246 287q37 4 51 -46q7 -28 8.5 -80t-8.5 -107q-10 -54 -51 -58q-60 -6 -60 128q0 82 15 121t45 42zM263 266q-15 8 -27 -0.5t-17 -22.5q-5 -10 -10 -39.5t-5 -57.5q-1 -53 4 -86.5t22 -42.5q10 -5 22 -1.5t19 13.5q10 16 13.5 61.5t1.5 78.5q-1 35 -6 62.5
t-17 34.5z" />
    <glyph glyph-name="ampersand" unicode="&#x26;" horiz-adv-x="358" 
d="M342 12q1 -1 2.5 -4.5t0.5 -8.5t-9.5 -3.5t-14.5 12.5l-49 97q-22 -46 -51.5 -76t-62.5 -34q-19 -2 -39.5 3t-36.5 18q-40 33 -44 95q-2 28 9 80t91 243q-56 142 -55 214q1 30 11.5 52.5t26.5 32.5q18 11 42 11q19 0 33 -8q12 -8 20 -26.5t9 -38.5q1 -26 -7 -65.5
t-34 -103t-28 -68.5l49 -127l66 -156q33 95 38 147v18.5t2 24t4.5 8.5t5.5 2t6 -4.5t1 -30.5q-3 -45 -16 -95.5t-30 -93.5q35 -79 60 -115zM103 669q-5 -29 5 -78t40 -133q26 65 34.5 88t17.5 55t8 61.5t-12 46.5t-35 17t-39 -18.5t-19 -38.5zM176 18q7 3 23 14.5t31.5 35
t31.5 59.5q-16 34 -76 181l-39 102q-55 -126 -77 -202q-12 -41 -12.5 -78t10.5 -61.5t26 -37.5q14 -12 38.5 -16.5t43.5 3.5z" />
    <glyph glyph-name="quotesingle" unicode="'" horiz-adv-x="91" 
d="M38 739q9 7 16 -2q2 -2 2.5 -6.5t0 -12.5t-0.5 -10q0 -44 -4 -136q0 -4 -0.5 -21t-6.5 -16q-3 0 -5.5 9.5t-3 34t-0.5 27.5l-1 86q-1 23 -1 33t4 14z" />
    <glyph glyph-name="parenleft" unicode="(" horiz-adv-x="171" 
d="M152 733q3 -7 -2.5 -15.5t-6.5 -10.5l-27 -65q-17 -46 -29 -90t-22 -119q-15 -99 -1 -252q7 -62 24.5 -134.5t38.5 -125.5q15 -38 22 -49q6 -11 -4 -14q-4 -1 -10 5.5t-18 38.5q-23 56 -41 124t-25 123q-21 164 0 303q20 135 80 271q6 16 14 16q4 0 7 -6z" />
    <glyph glyph-name="parenright" unicode=")" horiz-adv-x="171" 
d="M26 738q4 1 6.5 0t9.5 -16q6 -10 25 -60.5t28 -81.5q19 -64 28 -152t6 -166t-11 -131q-19 -125 -78 -258q-6 -15 -14 -15q-4 0 -7 5q-3 7 2.5 15.5t6.5 10.5q40 89 62 182q24 98 24 249q0 50 -8.5 121t-21.5 117q-12 39 -31 91.5t-31 74.5q-6 11 4 14z" />
    <glyph glyph-name="asterisk" unicode="*" horiz-adv-x="273" 
d="M136 733q2 0 6 -1.5t5 -9.5q1 -10 0.5 -48t0.5 -59q10 7 74 62q10 9 16.5 8.5t7.5 -6.5q1 -3 -0.5 -6t-7.5 -7t-7 -5l-75 -63q5 -6 32 -28t37 -29q26 -17 23 -24q-6 -11 -23 3l-76 60v-96q0 -2 0.5 -8t-1 -9.5t-4 -4.5t-6.5 0q-7 1 -7 32l1 86l-77 -56q-16 -11 -22 -11
q-3 0 -5.5 3.5t-1.5 7.5t16 14q14 9 44.5 31t36.5 28l-75 54q-23 15 -24 20q-3 10 4 11t13 -4l22 -16l68 -48l-1 75q0 3 -0.5 17t1 20.5t5.5 6.5z" />
    <glyph glyph-name="plus" unicode="+" horiz-adv-x="334" 
d="M305 270q5 0 8.5 -4.5t0.5 -9.5q-1 -2 -7 -3.5t-20.5 -1t-17.5 0.5h-96l-1 -126q0 -1 0.5 -11t-5.5 -12q-3 -1 -6 0t-5 8t-1.5 21.5t0.5 15.5v104h-90q-41 0 -45 6q-3 5 1 9.5t9 3.5q11 -1 125 -1l1 98q0 2 -0.5 13.5t1 19.5t7.5 9q5 1 8 -3t2.5 -17t-0.5 -14l-1 -58v-48
h132z" />
    <glyph glyph-name="comma" unicode="," horiz-adv-x="106" 
d="M55 41q18 -7 20 -37q2 -29 -10 -62.5t-33 -60.5q-4 -6 -11.5 -9.5t-9 -0.5t-1.5 5t13.5 21t18.5 30q16 38 13 65q-11 0 -19.5 6.5t-9.5 18.5q-1 11 8 19.5t21 4.5z" />
    <glyph glyph-name="hyphen" unicode="-" horiz-adv-x="158" 
d="M61 270h55q16 0 21.5 -1t5.5 -7q0 -3 -6 -5.5t-38 -2.5l-59 -1q-23 0 -24 9q0 3 6 5.5t39 2.5z" />
    <glyph glyph-name="period" unicode="." horiz-adv-x="105" 
d="M30 26q2 7 8.5 11.5t13.5 4.5q9 0 16.5 -7t7.5 -18q0 -9 -9 -16t-20 -5q-10 3 -14.5 12t-2.5 18z" />
    <glyph glyph-name="slash" unicode="/" horiz-adv-x="253" 
d="M207 742q18 5 6 -38l-30 -143l-68 -308q-16 -63 -57 -260l-15 -72q0 -2 -1.5 -11.5t-3.5 -16t-7 -7.5q-6 0 -8.5 6t-0.5 13q2 8 7 31t36 173t47 215l52 236l27 126q0 2 3 19t6 26.5t7 10.5z" />
    <glyph glyph-name="zero" unicode="0" horiz-adv-x="290" 
d="M148 687q12 0 26 -10t25.5 -32.5t16.5 -48.5q19 -84 21 -191q1 -80 0.5 -130t-5.5 -100q-11 -104 -32 -142.5t-53 -38.5q-36 0 -59 35.5t-34 122.5q-6 42 -6 141t6 157q14 130 36.5 183.5t57.5 53.5zM144 667q-24 -3 -41.5 -58t-27.5 -147q-6 -59 -7.5 -131t2.5 -132
q9 -102 26.5 -143t49.5 -41q19 0 33 22t20 49t9 47q9 65 10.5 176t-6.5 198q-6 64 -23.5 114t-44.5 46z" />
    <glyph glyph-name="one" unicode="1" horiz-adv-x="256" 
d="M157 684q2 -2 3 -9t0.5 -23.5t-0.5 -19.5l-1 -112l-2 -204v-62v-10.5t-1.5 -108.5t-0.5 -119h59q2 0 13 0.5t19 -1t8 -8.5q0 -4 -6 -6.5t-20 -2t-17 0.5q-24 -1 -80.5 -0.5t-74.5 0.5q-11 0 -15 0.5t-5 4.5q-1 5 3.5 8.5t18.5 3.5h16h62q2 316 6 609q-19 -44 -30 -62
q-8 -16 -25 -39t-32 -39q-11 -12 -17.5 -14t-8.5 6q-1 5 7 15q5 6 18.5 23t23.5 31.5t19 29.5t23 46.5t20 49.5q6 21 17 12z" />
    <glyph glyph-name="two" unicode="2" horiz-adv-x="255" 
d="M209 513q-7 -28 -17 -62t-49 -152l-52 -148l-50 -135q12 0 36 -1t51 0q15 0 40.5 0.5t39.5 1.5q5 0 10.5 -3t4.5 -8t-12 -6q-7 -1 -22 -2t-95 1h-63q-8 1 -11 6t4 22t9 21l40 106q48 135 77 225t43 152q15 67 1 101t-43 34q-23 0 -43 -23t-26 -56q-3 -17 -3 -38t-2 -23.5
t-4 -2.5q-7 -2 -11 1.5t-4 14.5q-1 30 7 61.5t24 52.5q12 15 29.5 23.5t33.5 8.5q25 0 43 -14.5t24 -53t-10 -104.5z" />
    <glyph glyph-name="three" unicode="3" horiz-adv-x="239" 
d="M80 681h92q1 0 10.5 0.5t16.5 -1t8 -5.5q1 -3 0 -7.5t-6.5 -13.5t-6.5 -12q-16 -36 -53.5 -110t-52.5 -109q33 -16 58.5 -41.5t42.5 -71.5q12 -31 17 -85t-2.5 -107t-31.5 -89t-66 -36q-55 0 -80 66q-7 20 -7.5 37t10.5 16q2 0 4 -2t3.5 -17.5t5.5 -26.5q10 -25 27 -40
t37 -15q35 0 55.5 36.5t25.5 96.5t-4 117q-15 87 -77 130q-5 4 -20.5 11.5t-17.5 11.5q-3 7 12 34q46 90 105 216h-112q-17 0 -24.5 1t-8.5 6t4 8.5t20 2.5t16 -1z" />
    <glyph glyph-name="four" unicode="4" horiz-adv-x="267" 
d="M227 305q3 0 12 0.5t14.5 -1t5.5 -6.5t-4 -7.5t-15 -2t-12 0.5h-39l-1 -96v-90t-1 -80q0 -1 -0.5 -8.5t-2.5 -12.5t-7 -5q-3 0 -5.5 2.5t-2 9.5t0.5 8q1 29 1 172l1 100h-125q-2 0 -10 -0.5t-11.5 0.5t-4.5 2q-3 3 -1 10.5t6 16t5 11.5l42 105l44 109l55 141q2 5 6.5 6.5
t6.5 -0.5q5 -4 6 -13t0.5 -21t-0.5 -15q1 -48 -0.5 -179t-1.5 -156zM39 305l133 1q0 29 1.5 121t2 141t-0.5 81l-66 -173z" />
    <glyph glyph-name="five" unicode="5" horiz-adv-x="252" 
d="M192 688q6 1 11.5 -1t5.5 -8q0 -4 -8.5 -6.5t-29 -4t-24.5 -1.5l-45 -4q-6 -40 -12.5 -121t-7.5 -95q38 -13 69 -44.5t44 -72.5q38 -117 13 -232q-10 -47 -33 -75.5t-57 -28.5q-37 0 -63 30q-21 26 -27 68q-1 9 1.5 16t8.5 8q2 0 4 -1.5t4.5 -19t7.5 -32.5
q9 -23 26.5 -36.5t37.5 -13.5q14 0 29.5 10t28 37t18.5 65q4 29 4 66t-6 72t-15 60q-7 21 -21.5 43.5t-31.5 36.5t-31 19q-1 0 -14 4.5t-14 6.5q-3 3 0 29l7 86l11 112q0 1 0.5 8t2.5 9t5.5 2.5t11.5 1t10 0.5z" />
    <glyph glyph-name="six" unicode="6" horiz-adv-x="265" 
d="M209 684q2 -2 3 -5t-16 -18.5t-31 -34.5q-73 -106 -103 -321q13 41 32.5 65.5t55.5 24.5q29 0 48 -25t29 -69t9 -96q-1 -94 -26.5 -152t-71.5 -59q-27 0 -48.5 22t-35 75.5t-12.5 132.5q1 57 12 139t39 162t66 123q22 25 33 33.5t17 2.5zM147 377q-20 1 -40 -20t-33 -68
t-14 -87q-1 -36 6 -81t26.5 -77t45.5 -32q17 0 34.5 17t31.5 68t14 101q0 87 -18 132.5t-53 46.5z" />
    <glyph glyph-name="seven" unicode="7" horiz-adv-x="229" 
d="M182 684q21 0 25 -1.5t5 -4.5q1 -5 -8 -29q-30 -97 -46 -161q-30 -127 -50 -234q-16 -94 -30 -214q0 -2 -1 -13.5t-4.5 -20.5t-8.5 -10q-2 0 -4.5 2t-3.5 7t0 12t2 14.5t1 8.5l7 73q16 116 41 240q31 154 83 313l-132 -1q-24 0 -30 2t-5 9t25 7h70z" />
    <glyph glyph-name="eight" unicode="8" horiz-adv-x="287" 
d="M258 235q7 -25 8.5 -62.5t-2.5 -63.5q-7 -38 -26.5 -66t-45 -38.5t-48.5 -10.5q-41 0 -69 21.5t-42.5 59t-13.5 80.5q1 36 12.5 81.5t32 86t59.5 108.5l11 18q-40 73 -41 138q-1 28 6 53t19.5 35.5t24.5 10.5q21 0 35.5 -15.5t18 -38t2.5 -41.5q-3 -40 -15 -74t-31 -71
l10 -17q47 -77 65.5 -113t29.5 -81zM111 581q3 -59 32 -116q30 54 37 114q3 24 -1.5 46.5t-15 32.5t-20.5 10q-9 0 -17 -11.5t-12 -35t-3 -40.5zM142 13q30 0 55.5 16.5t39 55.5t12.5 84q0 30 -10 68t-29 75t-58 102l-9 15l-9 -16q-60 -99 -79 -160.5t-17 -112.5
q1 -24 11 -53.5t35.5 -51.5t57.5 -22z" />
    <glyph glyph-name="nine" unicode="9" horiz-adv-x="258" 
d="M138 686q33 -5 51 -44.5t23 -130.5q3 -49 1 -105t-15 -150q-10 -67 -30.5 -124.5t-51.5 -91.5q-12 -13 -28.5 -24.5t-25.5 -14.5q-20 -6 -21 4q0 4 4.5 8t15.5 9.5l13 6.5q78 50 105 229q10 60 12.5 82t4.5 54t4 65q-12 -47 -24.5 -66.5t-30.5 -27.5q-16 -7 -34.5 -2
t-32.5 17q-20 18 -31 53.5t-11 80.5q0 33 8.5 76t33 72t60.5 24zM141 665q-19 6 -38.5 -7t-33 -53t-15.5 -83q-1 -38 7.5 -71.5t24 -52t38.5 -17.5q16 1 30 14.5t23.5 41.5t12.5 58q5 50 -7 106t-42 64z" />
    <glyph glyph-name="colon" unicode=":" horiz-adv-x="105" 
d="M53 393q10 0 16.5 -7t6.5 -17q0 -11 -6.5 -17.5t-16.5 -6.5q-9 0 -16.5 10t-6.5 20q1 8 7.5 13t15.5 5zM52 44q10 0 17.5 -9.5t6.5 -20.5q-1 -8 -8.5 -13t-15.5 -5q-9 0 -16 8t-7 15q0 10 7 17.5t16 7.5z" />
    <glyph glyph-name="semicolon" unicode=";" horiz-adv-x="128" 
d="M51 394q10 0 16 -7t6 -16q0 -10 -7.5 -18t-20.5 -6q-10 3 -14.5 12t-2.5 18q2 7 9 12t14 5zM55 41q18 -7 20 -37q2 -29 -10 -62.5t-33 -60.5q-4 -6 -11.5 -9.5t-9 -0.5t-1.5 5t13.5 21t18.5 30q16 38 13 65q-11 0 -19.5 6.5t-9.5 18.5q-1 11 8 19.5t21 4.5z" />
    <glyph glyph-name="less" unicode="&#x3c;" horiz-adv-x="267" 
d="M217 457q2 -3 2 -7.5t-10 -16.5q-11 -14 -46.5 -52.5t-64.5 -67.5l-51 -55q10 -17 47 -56q53 -57 89.5 -103t27.5 -48q-3 -1 -9 2.5t-24 24.5l-70 81q-7 8 -37 42t-37 44t-7 12q0 8 21 29l74 77q31 31 73 80q2 2 6.5 9t8 8.5t7.5 -3.5z" />
    <glyph glyph-name="equal" unicode="=" horiz-adv-x="312" 
d="M137 318l91 -1q54 0 54 -10q0 -4 -6 -6t-20.5 -1.5t-17.5 0.5h-150q-3 0 -19.5 -0.5t-25 0t-11 3t-2.5 4.5q0 4 7 7t40 3zM258 216q12 0 18 -1t6 -7q0 -4 -7 -7t-40 -3l-88 -1l-63 1q-54 0 -54 10q0 4 6 6t20.5 1.5t17.5 -0.5h106z" />
    <glyph glyph-name="greater" unicode="&#x3e;" horiz-adv-x="281" 
d="M52 455q4 2 12 -4t24 -23l134 -132q25 -25 28.5 -30t3.5 -8q0 -8 -61 -79q-4 -4 -37 -42.5t-43 -48.5q-3 -3 -19 -20t-25 -22.5t-13 0.5q-2 3 1 7.5t9 10t8 7.5q11 15 37.5 44.5t30.5 33.5q88 102 90 109q0 2 -30 32l-32 32q-12 13 -49.5 49.5t-45.5 44.5
q-2 2 -12.5 11.5t-14.5 17t4 10.5z" />
    <glyph glyph-name="question" unicode="?" horiz-adv-x="217" 
d="M155 715q19 -12 27 -33q11 -27 10.5 -63.5t-7.5 -68.5q-2 -11 -8 -32t-27 -68t-30 -70q-10 -27 -12.5 -72.5t0.5 -167.5q0 -11 -1.5 -16.5t-6.5 -5.5q-10 -1 -10 23l-2 125q0 40 4 74.5t20 69.5q2 3 12 26t19 44t16 41q10 27 14 67t-2.5 68.5t-20.5 40.5q-13 11 -33.5 11
t-35.5 -16q-13 -15 -16.5 -41.5t10.5 -54.5q2 -5 9 -11t6 -10q-1 -5 -6.5 -6.5t-9.5 1.5q-13 12 -22 38t-1.5 59.5t29.5 47.5q16 11 38 10.5t37 -10.5zM81 24q1 7 6.5 11t11.5 4q8 0 15 -6.5t7 -16.5q0 -8 -8 -14.5t-17 -4.5t-13 10.5t-2 16.5z" />
    <glyph glyph-name="at" unicode="@" horiz-adv-x="522" 
d="M270 574q16 4 37 4q39 0 66 -15q17 -10 34 -32t27.5 -55t14.5 -66q6 -39 3 -92t-11 -92q-22 -104 -55 -145q-14 -18 -30 -18q-7 0 -14 4q-15 9 -23 48t-8 123q-3 -10 -16 -50.5t-22.5 -63.5t-18.5 -36q-15 -24 -33 -24q-8 0 -14 5q-22 17 -23 94.5t10 143.5q12 62 24 92
t26 45q29 29 66 24q9 -1 25.5 -7.5t18.5 -13.5q1 -5 -10 -56q-12 -62 -14 -87q-8 -67 3 -168q5 -36 11 -45t11 -9q21 -2 43.5 58.5t31.5 119.5q8 63 5.5 118.5t-20.5 103.5q-20 50 -52 67q-23 13 -52 13q-24 0 -50.5 -9.5t-43.5 -22.5q-51 -39 -86 -126.5t-40 -182.5
q-2 -64 9.5 -119.5t36.5 -93.5q10 -15 24.5 -28t31 -19t29.5 -7q11 -1 25 1t44 14q16 9 20 1q4 -9 -14 -17.5t-49 -14.5q-85 -8 -128 64q-26 43 -39.5 105t-2.5 165q6 48 21 97t34.5 84t36.5 56q19 22 46 40t54 25zM297 452q-23 -2 -41.5 -21.5t-33.5 -79.5
q-13 -50 -17.5 -112t2.5 -119q5 -36 15 -36q6 0 15.5 11t16.5 29q10 26 40 113q8 26 25.5 110t15.5 91q-1 7 -13 11t-25 3z" />
    <glyph glyph-name="A" unicode="A" horiz-adv-x="270" 
d="M256 23q0 -1 1 -6.5t0.5 -10.5t-5.5 -6q-4 -1 -8 2.5t-8 29.5l-45 248q-12 -2 -40.5 -4t-72.5 1q-4 -21 -13 -70.5t-12 -69.5q-9 -64 -20 -113q-4 -20 -6.5 -23t-6.5 -3q-3 0 -5 1.5t-3 5.5t0 10t3 12t2 7l41 230l26 172q22 130 27 157.5t10 53.5q5 25 8 32t8 7
q4 0 7.5 -3.5t5 -15t2.5 -13.5q11 -53 21 -124.5t12 -87.5q16 -116 28 -190q13 -84 28 -160zM80 295q20 -3 53 -2.5t56 4.5q-3 22 -21.5 151.5t-29.5 190.5q-13 -47 -27 -140z" />
    <glyph glyph-name="B" unicode="B" horiz-adv-x="259" 
d="M80 684q16 2 30 -1t32 -18q33 -28 43 -96q8 -59 -13.5 -101.5t-70.5 -54.5q29 -8 56 -33.5t43 -59.5q33 -69 30 -146q-3 -51 -16 -83q-21 -50 -51.5 -72t-73.5 -22q-22 0 -36 5q-3 1 -6 6.5t-3 32.5l3 127q1 34 1 268q1 37 -1 109.5t-2 88.5q-2 29 1 37q6 10 34 13z
M61 661q1 -35 1.5 -116.5t2.5 -121.5q23 -2 47.5 11t36.5 29q16 20 20 55t-5 72q-4 18 -15.5 38t-23.5 29q-12 8 -26 9.5t-38 -5.5zM65 404l-3 -384q11 -5 26.5 -5.5t27.5 1.5q29 5 50 27.5t33 53.5q16 40 14 93.5t-17 96.5q-23 58 -57 87.5t-74 29.5z" />
    <glyph glyph-name="C" unicode="C" horiz-adv-x="214" 
d="M145 688q47 0 55 -75q5 -39 -6 -38q-4 0 -7 6.5t-4.5 23t-1.5 19.5q-3 24 -12 36.5t-26 11.5q-15 0 -31 -19t-28 -63q-20 -76 -27 -203t2 -219q3 -37 13 -79t26 -61q6 -9 18.5 -14.5t23.5 -2.5q31 9 43 72q0 2 1.5 12t3.5 14t4 5h4.5t4 -3t1.5 -8.5t-1 -13.5t-1 -9
q-4 -29 -14.5 -50t-26 -29.5t-30.5 -8.5q-5 0 -19 4.5t-26 18.5q-22 28 -34.5 98t-12.5 179q0 93 10 188t32 149q10 24 24.5 41.5t41.5 17.5z" />
    <glyph glyph-name="D" unicode="D" horiz-adv-x="283" 
d="M58 684q24 2 52 -9t44 -24q43 -35 67 -121t24 -189q1 -84 -5 -149t-24 -106.5t-43 -61.5q-32 -26 -85 -26l-37 2q-1 0 -2 6t-0.5 19.5t0.5 15.5v152l1 167l-1 308q1 10 2 12.5t7 3.5zM65 665q2 -217 0 -650q66 -6 97 21q11 10 22.5 26t19.5 39.5t12.5 46.5t6.5 41t2.5 32
t1.5 29.5t1 19.5q4 106 -10 196t-44 137q-18 29 -47 46.5t-62 15.5z" />
    <glyph glyph-name="E" unicode="E" horiz-adv-x="216" 
d="M177 682q3 0 15 0.5t16.5 -1.5t4.5 -8q-1 -5 -3.5 -6t-17.5 -1q-104 0 -129 -4l2 -205q35 3 99 1q14 -1 16 -3.5t2 -4.5q0 -6 -10.5 -8t-48.5 -1q-22 1 -57 -1q2 -51 1.5 -147.5t-0.5 -121.5q0 -13 -1.5 -68t-0.5 -88l118 1q21 0 26 -2t6 -6q2 -8 -17 -8l-89 -1
q-55 -3 -58 2q-1 3 -1.5 56.5t0.5 95.5v9.5t1 104.5t-1 143l-3 222q0 3 -1 21t2 21q1 1 5 3t52 5h72z" />
    <glyph glyph-name="F" unicode="F" horiz-adv-x="212" 
d="M92 683q18 1 53.5 0t44.5 -1q27 0 29 -4q1 -4 -3 -8t-28 -4q-9 0 -50.5 0.5t-68.5 -1.5q-1 -36 -1 -232h68q31 2 39 0.5t8 -7.5q0 -5 -8.5 -7.5t-24 -2t-16.5 0.5h-67l1 -362q0 -4 1 -19.5t0 -22.5t-3 -10.5t-8 -3.5q-4 0 -6.5 5.5t-0.5 30.5l-1 472q0 7 1 84.5t4 88.5
q6 2 21 2.5t16 0.5z" />
    <glyph glyph-name="G" unicode="G" horiz-adv-x="267" 
d="M215 605q8 -55 -8 -54q-4 0 -7 5.5t-1 18.5q1 23 -3 45t-13 34t-18 15q-29 8 -55 -34q-16 -26 -29.5 -72t-21.5 -137q-5 -65 -5 -121q2 -205 43 -269q11 -17 27.5 -22.5t30.5 1.5q25 12 39 67q6 22 11 56.5t6 154.5q0 4 0.5 21t-0.5 22.5t-2 6.5q-3 2 -23 3t-29 0
q-24 -2 -32 -0.5t-8 6.5q0 3 1.5 6t16.5 4l51 -1q3 0 12 0.5t13.5 0t5.5 -1.5q4 -2 7 -7t3 -28.5v-31.5q0 -69 -4 -125t-17 -104q-20 -69 -69 -69q-44 0 -66 54q-16 39 -24 103t-10 118q-2 95 7 185q11 84 22.5 122.5t30.5 70.5q9 17 26 28t34 11q45 0 58 -82z" />
    <glyph glyph-name="H" unicode="H" horiz-adv-x="283" 
d="M226 684q4 0 6.5 -8.5t2 -33.5t-0.5 -26l-2 -274l1 -322q3 -20 -7 -20q-5 0 -7.5 5t-2.5 22v22l-2 196v130q-16 1 -146 4v-96l-2 -246v-3v-19.5t-9 -17.5q-9 1 -9 30l2 255l1 147l-1 205v20t2 23.5t6 6.5q6 0 7.5 -5t1.5 -29l1 -112v-142l146 -3l2 244q0 32 1 37t3.5 7.5
t5.5 2.5z" />
    <glyph glyph-name="I" unicode="I" horiz-adv-x="122" 
d="M61 682q10 0 9 -11t-1 -13v-141l-1 -359l-1 -130q0 -15 -1 -22t-6 -8q-10 0 -10 24q2 64 2 343l1 125v168q0 17 2.5 20.5t5.5 3.5z" />
    <glyph glyph-name="J" unicode="J" horiz-adv-x="182" 
d="M82 682q3 0 15.5 0.5t21 -0.5t10.5 -5q2 -3 2 -41v-531q-1 -43 -7.5 -68t-21 -34t-31.5 -9q-20 0 -33 8q-19 12 -25.5 41t3.5 57q6 21 15 18q3 -1 4.5 -4t-1.5 -13q-10 -26 -4.5 -54.5t29.5 -34.5q10 -3 21.5 0t16.5 9q7 7 12.5 25t5.5 88v131q-1 57 0 194t-2 205h-68
q-13 0 -18.5 1t-6.5 6q-1 9 11 11h51z" />
    <glyph glyph-name="K" unicode="K" horiz-adv-x="249" 
d="M68 648v-119q0 -100 -2 -150l55 95l102 198q4 10 11 10q4 0 6.5 -2.5t-6.5 -22.5q-11 -26 -49 -96.5t-54 -99.5l-60 -104q10 -23 35 -72t33 -65l68 -133q12 -27 35 -67q12 -21 -3 -21q-2 0 -5.5 1t-6 7.5t-3.5 8.5q-15 27 -46 89.5t-50 99.5q-45 86 -61 123l-2 -251v-50
q1 -18 -1.5 -23t-9.5 -5q-1 0 -2.5 0.5t-2.5 2.5t-1 5v7v5q1 29 1 170l2 194v111l-1 154q0 2 -0.5 18t10.5 16q3 0 5.5 -4t2.5 -30z" />
    <glyph glyph-name="L" unicode="L" horiz-adv-x="197" 
d="M57 682q5 0 8 -7.5t3 -27.5v-24v-188q-1 -44 -0.5 -123.5t0.5 -117.5q-2 -103 1 -178l65 -2q4 0 23 2t27.5 0.5t9.5 -5.5t-1.5 -7.5t-24.5 -3.5l-75 -1q-2 0 -13 -0.5t-16 0t-7 1.5q-6 4 -6 38q-1 54 -0.5 156.5t0.5 145.5l1 256q0 18 -1.5 47.5t0 34t6.5 4.5z" />
    <glyph glyph-name="M" unicode="M" horiz-adv-x="355" 
d="M287 684q3 1 6.5 -1t5.5 -9.5t3 -20.5t0.5 -37t-0.5 -30l1 -293q-2 -47 -1 -164.5t1 -119.5q-2 -11 -9 -11q-10 0 -8.5 31t0.5 40q-2 38 -0.5 124t0.5 120l-1 321q-9 -40 -31 -121t-27 -102q-18 -75 -32 -121q-9 -23 -16 -24q-11 -1 -18 16q-11 30 -24 83l-37 148
l-31 118v-264l-1 -158v-96.5t1 -89.5q0 -17 -3 -22t-9 -3q-5 1 -5.5 17.5t-0.5 17.5l1 364v247q0 36 8 39q7 2 11.5 -4.5t10.5 -32.5q15 -49 41 -154q28 -113 54 -204q9 26 24.5 92.5t19.5 81.5l50 189q1 3 3 11.5t5 14.5t8 7z" />
    <glyph glyph-name="N" unicode="N" horiz-adv-x="311" 
d="M252 682q2 0 4.5 -2t2 -16.5t-0.5 -17.5q2 -48 0.5 -125t-1.5 -92q3 -145 1 -353l1 -44q0 -2 0.5 -12.5t-1 -17t-6.5 -7.5q-2 0 -6 1t-7 8t-7 23q-1 5 -25.5 89t-34.5 121q-13 47 -46 180q-12 49 -30.5 121t-27.5 100q-1 -36 0 -82.5t1 -65.5v-298l1 -166v-12.5t-2.5 -14
t-6.5 -2.5q-8 1 -8 27l-1 292v160v148q0 3 -0.5 19t0.5 26.5t6 12.5t10.5 -1t13.5 -27q24 -79 32 -115q79 -317 87 -343q2 -8 19.5 -72t21.5 -75l-2 324l1 155q0 9 -0.5 54t0.5 69q0 32 11 31z" />
    <glyph glyph-name="O" unicode="O" horiz-adv-x="309" 
d="M158 688q31 3 50.5 -15t31.5 -52q17 -49 23 -137q7 -88 5 -170q0 -55 -8 -137q-9 -92 -36.5 -138t-71.5 -46q-21 0 -41 13.5t-36 44.5t-22 68q-8 38 -12.5 109.5t-0.5 158.5q9 146 35 218q13 35 35.5 58t47.5 25zM162 670q-51 -8 -71 -71q-7 -21 -16 -58t-16 -124
t-2.5 -180t21.5 -147q9 -27 21.5 -46.5t27 -27t26.5 -7.5q20 0 38.5 16t32 56.5t19.5 91.5q9 85 9 146q0 93 -6.5 177.5t-20.5 118.5q-10 29 -25 42t-38 13z" />
    <glyph glyph-name="P" unicode="P" horiz-adv-x="213" 
d="M82 683q46 -3 83 -40q21 -21 33.5 -58t11.5 -78q-2 -41 -12.5 -76.5t-29.5 -55.5q-33 -32 -100 -29v-274q0 -11 1 -32.5t-0.5 -32t-9.5 -10.5q-2 0 -4 1.5t-3 6t-1 10.5v12.5v7.5l1 129l-1 272v188q0 5 -0.5 22.5t2.5 25.5t11 10q12 2 18 1zM73 664q-2 -1 -2.5 -24
t-0.5 -26l-1 -160q-2 -45 0 -89q49 -5 72 11q32 20 45 81.5t-1 114.5q-10 35 -38 63q-11 12 -32 22t-42 7z" />
    <glyph glyph-name="Q" unicode="Q" horiz-adv-x="310" 
d="M296 -24q4 -1 4.5 -7.5t-1.5 -14.5q-10 -32 -26 -50q-10 -12 -27 -19.5t-34 -7.5q-22 0 -39 10q-18 10 -28.5 32t-10.5 77q-47 8 -70 80q-26 88 -26 250q0 88 17 188q5 36 20.5 80.5t34.5 66.5q15 16 37.5 22t46.5 -2q18 -6 30.5 -26.5t17.5 -39.5q18 -55 26 -176
q3 -43 1 -134q-2 -60 -7 -119t-18 -99t-36 -65t-56 -27q-2 -39 7 -63q7 -18 22 -27.5t31 -9.5q26 0 44.5 18t26.5 52q1 5 4.5 8.5t8.5 2.5zM61 180q8 -66 20.5 -104.5t34.5 -54.5q17 -12 39 -9t36 16q14 11 29 39t26 126q17 188 -4 346q-5 37 -17 74q-9 30 -27 45t-44 11
q-15 -3 -28 -16t-21 -29q-25 -47 -39 -141q-10 -67 -11.5 -152t6.5 -151z" />
    <glyph glyph-name="R" unicode="R" horiz-adv-x="249" 
d="M62 682l20 2q22 0 45 -11t38 -28q19 -21 32 -59t13 -78q0 -85 -41 -125q-34 -32 -94 -32l51 -107l85 -171q20 -38 29 -52q5 -7 5.5 -13.5t-6.5 -7.5q-6 0 -9 2.5t-5 7.5t-3 6q-51 94 -106 211q-22 43 -51 111q4 -75 4 -260q0 -5 -0.5 -27t1.5 -36q1 -7 -2 -11.5t-8 -4.5
q-2 0 -7 2t-3 17t2 19v133l-2 270v183q0 4 -1 22t2 26.5t11 10.5zM71 665q-5 -1 -5 -50l1 -156l1 -90q19 -2 39.5 2.5t34.5 12.5q18 10 31 32.5t18 65t-8 91.5q-9 32 -28.5 56t-42 31.5t-41.5 4.5z" />
    <glyph glyph-name="S" unicode="S" 
d="M141 686q16 -3 32 -17.5t24.5 -42t6.5 -58.5q0 -3 -0.5 -11.5t-1.5 -12t-3 -5.5q-3 -3 -8.5 -2.5t-6.5 4.5q-2 5 1 22q3 33 -5 60.5t-26 38.5q-14 9 -32 9q-12 0 -24 -6q-24 -14 -30.5 -41t-3 -51t8.5 -41q3 -11 9.5 -29.5t52.5 -132.5q2 -4 4 -9t25.5 -64t37.5 -107.5
t15 -82.5q1 -27 -5.5 -50t-20 -36.5t-26.5 -20.5q-18 -9 -39 -9q-20 0 -40 9t-32 22q-41 51 -21 137q0 1 1.5 8.5t4 12.5t7.5 5q6 -1 7 -8t-1 -14q-7 -21 -7.5 -52t7.5 -49q10 -27 33 -41.5t55 -10.5q22 3 36.5 19.5t20.5 44t0 61.5q-11 65 -78 227l-42 106
q-15 40 -23.5 70.5t-6.5 66.5q1 19 10.5 39t21.5 29q20 15 46 15z" />
    <glyph glyph-name="T" unicode="T" horiz-adv-x="218" 
d="M183 682q14 1 21.5 0.5t8.5 -6.5q0 -3 -1.5 -5.5t-7 -4t-13 -2t-15.5 0t-9 0.5h-50l1 -361v-275q0 -1 0.5 -9.5t-1 -15t-6.5 -6.5q-4 0 -7 4t-3 26q-1 22 -0.5 64.5t0.5 59.5l-2 513q-6 1 -41 1q-5 0 -22.5 -0.5t-23.5 1t-7 4.5q0 2 1.5 6.5t7.5 4.5l56 -1z" />
    <glyph glyph-name="U" unicode="U" horiz-adv-x="296" 
d="M60 682q5 -1 7.5 -4.5t1 -13.5t-1.5 -11q-1 -23 -1.5 -59t0 -98.5t0.5 -81.5v-14.5t1 -146t4 -169.5q6 -51 40 -68q22 -11 51 -7q63 6 68 141q1 30 0.5 231.5t-1.5 217.5q-2 53 -1.5 60.5t2.5 12t5 5.5q5 1 7.5 -3t2 -16t-0.5 -13l3 -429q0 -125 -16 -164t-41 -51
q-16 -9 -41 -9q-16 0 -32.5 4.5t-25.5 12.5q-36 26 -39 97q-2 51 -3 325v222q0 22 2 26t9 3z" />
    <glyph glyph-name="V" unicode="V" horiz-adv-x="246" 
d="M232 685q7 0 8.5 -7.5t-3.5 -31.5q-10 -57 -25.5 -162.5t-23.5 -155.5q-40 -250 -51 -305q-4 -24 -7.5 -30t-10.5 -5q-3 1 -5.5 7.5t-4 13.5t-2.5 13t-1 8q-8 44 -19.5 125.5t-17.5 121.5l-53 327l-10 56q-1 7 1 16.5t10 4.5q3 -2 5.5 -10t6 -32.5l4.5 -31.5
q5 -26 11.5 -62.5t16 -101.5t12.5 -83l33 -215q8 -52 16 -121l55 337q21 123 37 247q4 44 7.5 60.5t10.5 16.5z" />
    <glyph glyph-name="W" unicode="W" horiz-adv-x="405" 
d="M367 683q2 -4 3 -9.5t-0.5 -16.5t-1.5 -14l-35 -500l-10 -113q-5 -29 -10 -32q-4 -2 -9.5 0.5t-8.5 21.5q-21 96 -44 245l-23 143l-23 141l-22 -119q-3 -17 -18 -103.5t-29 -163.5q-23 -125 -29 -144q-5 -20 -11 -21q-17 -6 -21 60l-10 158l-11 160q0 2 -0.5 8.5t-4 66.5
t-6.5 83l-10 118q-3 23 -0.5 26.5t7.5 3.5q3 0 5.5 -4.5t3 -15t0.5 -12.5l11 -121q3 -29 7 -89t5 -66q0 -5 1 -19.5t9 -143.5t13 -173q2 8 7.5 34t17 91t12.5 68q6 38 40 235l20 109q0 1 1.5 11.5t7.5 11.5q2 0 5.5 -1t4.5 -3.5t5 -23.5q12 -56 23 -126l22 -137
q8 -50 26 -151t21 -121l8 115q4 45 6.5 94.5t5.5 79.5l22 304q2 40 3.5 46t4.5 8q1 1 4 1.5t5 -0.5z" />
    <glyph glyph-name="X" unicode="X" horiz-adv-x="287" 
d="M252 683q6 1 8.5 -1.5t2 -7t-3 -10.5t-5.5 -12.5t-4 -9.5q-16 -36 -52 -138l-44 -117l43 -128l31 -92q8 -27 24 -71t24 -76q8 -26 -5 -24q-2 0 -4 2t-7 18l-43 131q-45 129 -72 216l-75 -226l-35 -107q-1 -2 -3.5 -12.5t-5 -15.5t-5.5 -5q-7 -1 -10 3t-1.5 12t6.5 18.5
t5 11.5l33 101l49 145q16 50 34 99l-28 72q-43 122 -69 185q0 1 -1.5 4.5t-9 19.5t6.5 16q7 0 17 -25l48 -126q37 -103 43 -125l34 89q6 18 30 82.5t28 72.5q1 3 5 16.5t11 14.5z" />
    <glyph glyph-name="Y" unicode="Y" horiz-adv-x="263" 
d="M254 683q9 -2 1 -21q-9 -23 -30 -96.5t-26 -89.5q-31 -99 -58 -175v-84v-8.5t-1 -74.5t0 -109q0 -13 -1 -19.5t-7 -7.5q-5 0 -7.5 7t-1.5 24.5t1 19.5q-1 37 -0.5 107.5t0.5 84.5v56l-52 169q-7 28 -25 87.5t-32 99.5q-7 20 -6.5 23.5t1.5 4.5q6 4 12 1t11 -22.5t6 -23.5
l39 -131q21 -77 55 -176q29 85 42 130q1 3 4.5 14t29.5 98t30 97q6 17 15 15z" />
    <glyph glyph-name="Z" unicode="Z" horiz-adv-x="216" 
d="M167 16q37 3 35 -9q0 -3 -3 -5t-12.5 -2h-12.5l-76 -2l-31 1h-23.5t-29.5 7q-1 1 -1.5 6.5t2.5 18.5t6.5 25.5t6.5 23t3 11.5l66 239q5 16 16.5 59t39 151.5t31.5 123.5q-47 4 -113 -1q-10 -1 -20.5 1t-11.5 8q0 5 4 7.5t17 1.5t16 -1l91 3q34 -1 37 -6q1 -3 0.5 -9
t-4 -17t-4.5 -14l-35 -136q0 -2 -2.5 -11t-24.5 -93t-38 -136l-45 -162l-22 -83q59 -6 138 0z" />
    <glyph glyph-name="bracketleft" unicode="[" horiz-adv-x="173" 
d="M85 741h41q2 0 9.5 0.5t12 -0.5t4.5 -7q0 -5 -4 -8t-16 -2.5t-13 0.5l-46 -1q1 -32 1 -97v-88q1 -41 1.5 -226.5t-0.5 -236.5l-1 -190q7 -1 43 -1q2 0 11 0.5t15.5 -1t7.5 -6.5q0 -5 -6 -8t-40 -2q-46 0 -48 3t1 313v159l-1 358q0 3 -1 19.5t2 19.5q1 1 5 2t12 0.5
t10 -0.5z" />
    <glyph glyph-name="backslash" unicode="\" horiz-adv-x="257" 
d="M39 743q5 3 9.5 -1.5t6.5 -11.5l91 -413q57 -258 77 -363l5.5 -22t5 -25.5t-1.5 -9.5q-7 -6 -12 1.5t-9 30.5l-67 310l-65 298l-37 169q-1 2 -3.5 11.5t-3 16.5t3.5 9z" />
    <glyph glyph-name="bracketright" unicode="]" horiz-adv-x="185" 
d="M60 742q39 1 54.5 0t15.5 -7v-196l-1 -159l-1 -300v-14t-1 -100t-2 -96q-1 -3 -37 -1.5t-48 0.5q-20 -2 -19 9q1 9 18 9h72l2 255v218q3 164 1 365q-11 2 -52 0q-2 0 -13.5 -1t-16 1t-5.5 5q-1 4 3.5 8t29.5 4z" />
    <glyph glyph-name="asciicircum" unicode="^" horiz-adv-x="348" 
d="M181 679q8 -1 22 -32l64 -142l35 -75q10 -18 10 -25t-6 -10q-4 -2 -9.5 2.5t-11 19t-6.5 15.5l-58 131l-26 58l-15 32l-41 -81q-2 -3 -38 -78q-2 -4 -17.5 -37.5t-23.5 -46.5t-12 -13q-7 0 -8 7t5 19l22 42q11 23 20 42.5t24.5 49.5t33.5 67q28 56 36 55z" />
    <glyph glyph-name="underscore" unicode="_" horiz-adv-x="315" 
d="M112 -46q101 0 144 -2q54 0 54 -10q0 -4 -6 -6.5t-21 -1.5t-17 1l-167 1h-70q-12 0 -18 1t-6 7q0 4 7 7t40 3h60z" />
    <glyph glyph-name="grave" unicode="`" horiz-adv-x="157" 
d="M21 678q3 5 9 3t13 -10l61 -93q22 -30 14 -36q-6 -5 -19 15l-66 95q-1 2 -5.5 8t-6 10.5t-0.5 7.5z" />
    <glyph glyph-name="a" unicode="a" horiz-adv-x="218" 
d="M106 472q21 1 36 -9t23 -25q17 -33 13 -106q-5 -97 -5 -160l1 -161q0 -13 -8 -13q-4 0 -6.5 3.5t-2.5 27.5q-1 52 1 143l-3 -9t-22 -61t-37 -82t-32 -27q-9 0 -16.5 6.5t-11.5 15.5q-9 20 -13 57.5t0.5 84t11.5 70.5q28 96 126 78q3 48 1 76.5t-11.5 48.5t-31.5 25
q-20 5 -34.5 -7.5t-14.5 -34.5q0 -1 1 -10t-0.5 -13.5t-5.5 -4.5q-5 -1 -8.5 9.5t-2.5 26.5q1 10 6.5 21.5t18 20t27.5 9.5zM161 288q-59 10 -87 -18q-13 -15 -23 -50t-12.5 -85t2.5 -80q1 -5 5 -19t9.5 -19.5t9.5 -5.5q6 0 22.5 31.5t41 94.5t27.5 75q5 22 5 76z" />
    <glyph glyph-name="b" unicode="b" horiz-adv-x="238" 
d="M60 740q4 1 7 -3t3 -27l-2 -313l-2 -104q24 94 46.5 138t46.5 42q8 -1 16.5 -8t15.5 -40t11.5 -93.5t0.5 -123.5q-8 -125 -34.5 -168t-81.5 -43q-30 0 -37 8q-3 4 -4 33t0.5 104.5t1.5 81.5q3 108 3 334l1 146q-2 24 -0.5 30t8.5 6zM152 453q-12 -4 -29 -39t-36.5 -101
t-20.5 -88q-2 -28 -3 -95t0 -113q68 -11 90 30q15 28 25 84t8.5 142.5t-13.5 153.5q-2 10 -7.5 19.5t-13.5 6.5z" />
    <glyph glyph-name="c" unicode="c" horiz-adv-x="186" 
d="M110 472q28 2 43.5 -24t13.5 -66q-1 -10 -4 -17t-8 -7q-4 0 -6 3t-0.5 11t1.5 10q2 34 -8 53t-24 21q-24 2 -42 -38.5t-24 -98.5q-10 -85 -5 -174q7 -134 60 -134q9 0 21 9.5t20 33t4 50.5q-2 13 5 15q15 3 12 -35q-3 -46 -21 -70q-7 -9 -18.5 -15t-23.5 -6
q-32 0 -52 36.5t-24 106.5q-4 62 -1.5 108.5t9.5 97.5q4 31 14.5 63t25.5 49t32 18z" />
    <glyph glyph-name="d" unicode="d" horiz-adv-x="256" 
d="M208 739q4 -1 6 -9.5t1.5 -30.5t-0.5 -24l-6 -209l-2 -113v-123l-1 -209q0 -2 0.5 -8.5t-0.5 -10.5t-6 -4q-4 0 -7.5 3.5t-3.5 27.5q-1 53 0 134t1 109q-7 -36 -13.5 -64.5t-33.5 -120.5q-20 -72 -41 -88q-16 -11 -28.5 -4.5t-22 30t-16 75t-5.5 119.5q3 92 22 151.5
t50 83.5q16 12 41 14.5t49 -6.5q0 80 4 236q0 45 12 41zM191 440q-18 15 -46.5 10t-44.5 -23q-20 -22 -34.5 -73t-17.5 -125q-2 -48 2.5 -101.5t14 -85.5t22.5 -30q18 2 45 98q39 135 54 225q6 45 5 105z" />
    <glyph glyph-name="e" unicode="e" horiz-adv-x="210" 
d="M160 447q8 -15 16 -55.5t9 -100.5q1 -17 0.5 -28t-6.5 -14q-5 -3 -37 -3q-75 0 -96 -2q-3 -66 4.5 -120.5t23.5 -83.5t38 -29q10 0 21.5 9.5t18.5 29.5t7 36q0 3 -1 12.5t6 10.5q6 1 9.5 -8.5t1.5 -26.5q-3 -23 -12.5 -43t-24 -28.5t-27.5 -8.5q-64 0 -78 133
q-13 131 19 245q14 47 31 73q8 12 19.5 19t22.5 7q10 0 19.5 -6.5t15.5 -17.5zM140 445q-7 8 -16 8q-5 0 -14 -5t-18 -21q-15 -27 -25.5 -64.5t-18.5 -100.5q17 1 57.5 1t61.5 2q2 42 -4.5 102t-22.5 78z" />
    <glyph glyph-name="f" unicode="f" horiz-adv-x="168" 
d="M131 744q32 3 48.5 -26.5t14.5 -67.5q0 -27 -6.5 -42.5t-14.5 -9.5q-4 2 0.5 26t3.5 46q-1 25 -13 41.5t-26 16.5q-32 0 -46 -40q-5 -16 -8 -44.5t-3.5 -58t0 -51.5t1 -43.5t0.5 -25.5h68q1 0 6.5 0.5t9.5 -0.5t4 -5q1 -5 -3.5 -8.5t-18.5 -3t-16 0.5h-49l1 -110l1 -294
q0 -28 -1 -39t-9 -10q-3 0 -5 3t-3 11.5t-0.5 22.5t0.5 15q1 136 0 288l-1 112q-29 0 -37.5 1.5t-8.5 4.5q0 5 5.5 7.5t21 2t18.5 0.5q-2 120 0.5 161.5t10.5 67.5q17 47 55 51z" />
    <glyph glyph-name="g" unicode="g" horiz-adv-x="226" 
d="M117 1q20 -15 39.5 -40.5t28 -60t5.5 -67.5q-3 -29 -15 -53t-31 -34t-37 -10q-33 0 -57.5 31t-24.5 79q0 25 9 55.5t28 57t34 36.5l-29 20q-7 5 -10.5 13t-1 19.5t19.5 47.5l8 17q-18 11 -31.5 41.5t-16.5 83.5t4 105q5 38 17 68.5t30 46.5t42 14q7 0 11 -3q10 2 22.5 13
t13.5 22v9.5t2.5 11t10.5 0.5q1 -1 3.5 -6.5t0.5 -15.5q-1 -15 -12.5 -27t-24.5 -18q13 -14 25 -50t13 -91.5t-6.5 -99.5t-23.5 -74q-23 -42 -63 -36l-23 -46q-10 -19 -4 -27q3 -4 22.5 -17t21.5 -15zM52 260q1 -42 9 -78t25 -51q24 -20 44.5 -1t32.5 59q15 50 14 111
t-15 104q-10 31 -21 41t-25 8q-32 -4 -48.5 -58.5t-15.5 -134.5zM161 -212q25 50 8 109.5t-58 88.5q-14 -8 -32.5 -33.5t-27.5 -53t-9 -47.5t6.5 -43.5t23 -39.5t36.5 -16q16 0 29 7t24 28z" />
    <glyph glyph-name="h" unicode="h" horiz-adv-x="251" 
d="M65 740q4 -1 5.5 -5t1.5 -21l-1 -70q0 -26 -2 -82.5t-1 -84.5q0 -147 -4 -185q19 68 28.5 95.5t20.5 46t23 28.5t26 10q21 0 31.5 -16.5t10.5 -74.5v-125q-1 -23 -1 -57.5t1.5 -95.5t1.5 -81q0 -18 -1.5 -21t-3.5 -4q-3 0 -6 1.5t-5 9.5t-2 21.5v15.5l-1 193v116
q0 64 -4.5 79.5t-10.5 19t-11 2.5q-11 -1 -26 -21t-32 -70q-18 -53 -26.5 -82t-9.5 -48t-1 -90v-92q0 -37 -1 -43.5t-4 -9t-7 -2.5q-3 0 -5 4.5t-1.5 15t0.5 11.5v195l4 337l2 150q-1 20 1 26t10 4z" />
    <glyph glyph-name="i" unicode="i" horiz-adv-x="121" 
d="M37 568q0 10 6.5 16t13.5 6q8 0 14.5 -6.5t6.5 -16.5q0 -8 -7 -13.5t-16 -5.5q-8 0 -13 6.5t-5 13.5zM57 465q10 3 12 -23l-1 -110q0 -211 2 -317q0 -20 -10 -18q-2 0 -4 2.5t-3 8t-1 13v16v9.5v279v110v2t-1 9.5t1 13t5 5.5z" />
    <glyph glyph-name="j" unicode="j" horiz-adv-x="112" 
d="M35 571q0 10 7.5 16.5t14.5 6.5t12 -7t5 -17q0 -8 -6 -14t-14 -6t-13.5 7t-5.5 14zM56 465q8 0 9 -14v-67v-90v-179l-1 -252q0 -66 -17 -97.5t-54 -31.5q-26 0 -44 19.5t-18 53.5q0 18 7.5 40.5t18.5 40.5q9 13 12.5 14t6.5 -1l3 -6q0 -3 -10 -19q-21 -37 -21 -67
q0 -26 12.5 -42t33.5 -16q23 0 37.5 21.5t15.5 81.5l1 103l1 168v88l-2 234q0 19 9 18z" />
    <glyph glyph-name="k" unicode="k" horiz-adv-x="213" 
d="M53 738q6 4 9 1t3.5 -9.5t0.5 -12v-11v-7.5l1 -253l1 -153q3 5 50 70q3 4 27.5 38.5t32.5 49.5q9 15 18 15q2 0 3.5 -1.5t1.5 -3.5q0 -5 -15 -29q-15 -23 -41.5 -59.5t-32.5 -44.5l-40 -57l35 -71q5 -10 16.5 -32.5t38.5 -72t41 -77.5q5 -9 5.5 -14t-6.5 -6
q-5 0 -8.5 3.5t-6.5 11t-5 10.5l-28 51l-46 87q-28 57 -42 89q2 -152 1 -228q0 -13 -1 -18.5t-7 -5.5q-3 0 -5.5 2.5t-3.5 11t0 22t1 14.5v37t-0.5 124t0.5 146l-1 321q0 4 -1 23.5t0.5 28t3.5 10.5z" />
    <glyph glyph-name="l" unicode="l" horiz-adv-x="123" 
d="M68 690q-1 -101 -1 -624q0 -32 2.5 -42t9.5 -12q8 -2 17.5 4.5t13 6t4.5 -1.5q9 -7 -3 -16t-25 -10q-11 -1 -18 3t-11 11t-5.5 17t-1.5 53v260l2 371q0 20 1 23.5t3 5t4 1.5q5 0 7.5 -6t1.5 -23t-1 -21z" />
    <glyph glyph-name="m" unicode="m" horiz-adv-x="350" 
d="M160 472q11 1 18.5 -6.5t9 -25t0.5 -51.5l-3 -78q11 35 28 72.5t32.5 61t28.5 26.5q15 3 24 -9.5t8 -68.5t-1 -62l-3 -223l-1 -88q0 -19 -9 -18q-2 0 -5.5 3.5t-4 14t1.5 34.5q2 36 1.5 88t0.5 80q5 155 4.5 178t-3 38t-6.5 16q-7 2 -21.5 -18.5t-34 -64.5t-29.5 -72
q-11 -31 -11 -57l-2 -106l-1 -114q0 -2 1 -8.5t0 -11.5t-6 -5q-8 0 -11 9t-2 26.5t1 19.5l6 306q0 8 0.5 34t-0.5 42.5t-6 18.5q-11 4 -29 -26t-41 -95.5t-27 -91.5q-2 -24 -5 -219q0 -11 -1 -17t-7 -7q-4 0 -7 8t-1 46l1 173q1 43 1 219q0 22 9 22q5 0 7 -8t1.5 -23.5
t-0.5 -17.5l-2 -128q25 83 50 132t46 52z" />
    <glyph glyph-name="n" unicode="n" horiz-adv-x="256" 
d="M181 473q15 0 22 -12t8 -26q1 -18 0.5 -172.5t-1.5 -221.5q0 -5 1 -18t-1.5 -19t-12.5 -5q-4 1 -5.5 6t0 22t1.5 22l1 315v44q0 20 -3 33.5t-14 13.5q-10 0 -28.5 -21.5t-42.5 -71.5t-36 -95q-6 -21 -6 -243q0 -17 -2.5 -21.5t-8.5 -4.5q-4 0 -6 7.5t-1.5 28t0.5 22.5
l1 166l1 220q0 23 8 23q4 0 7 -4t2.5 -16t-0.5 -13q0 -94 -2 -133q9 33 27 73t44 70.5t47 30.5z" />
    <glyph glyph-name="o" unicode="o" horiz-adv-x="236" 
d="M122 471q23 0 42 -21t28 -69q13 -66 13 -161q0 -101 -14.5 -147.5t-36.5 -65.5q-16 -13 -39 -13q-57 0 -75 90q-10 56 -10 121.5t6 110.5q8 71 30 113t56 42zM57 343q-15 -116 -6 -220q13 -113 65 -113q26 0 44 32q24 38 28 134.5t-8 178.5q-14 100 -60 100
q-24 0 -40.5 -35.5t-22.5 -76.5z" />
    <glyph glyph-name="p" unicode="p" horiz-adv-x="251" 
d="M178 469q43 -23 43 -218q0 -91 -20 -168q-23 -88 -82 -88q-26 0 -55 16l2 -220q0 -3 0.5 -17t-1 -22.5t-4 -10.5t-6.5 -1q-2 1 -4 5.5t-2 24.5l-2 214q0 28 1 111t0 146l1 176q0 2 -1 17.5t2 23t10 6.5q10 -1 8 -53q-1 -28 -2 -60t-1.5 -87.5t-0.5 -81.5q12 66 20.5 106
t18.5 79q17 63 30.5 84.5t29.5 21.5q8 0 15 -4zM163 453q-6 0 -14.5 -13t-14.5 -32q-20 -62 -56 -229q-8 -32 -11 -73q-2 -27 -2 -77q32 -14 42.5 -15.5t16.5 -1.5q42 3 60 76q5 18 13 68.5t5 144.5q-2 68 -12.5 110.5t-26.5 41.5z" />
    <glyph glyph-name="q" unicode="q" horiz-adv-x="248" 
d="M199 459q2 -3 3 -28t-0.5 -88t-1.5 -70v-109l-1 -148q0 -13 0.5 -68t0 -79t-0.5 -32v-78q0 -10 -2.5 -15t-10.5 -1q-2 1 -3 4t-1 19l1 276q-1 54 1 217q-40 -155 -47 -176t-14 -39t-17 -34t-21 -16q-17 0 -31 31t-19 100.5t0 127.5q3 38 11.5 83t21 73.5t25.5 39.5
q9 9 30 14.5t40 5.5q29 0 36 -10zM186 445q-18 7 -43 5.5t-39 -13.5q-16 -16 -32 -69t-21 -128q-2 -31 -0.5 -82.5t10.5 -97t22 -47.5q10 -1 27 46.5t38 128.5t22 83q10 34 14 81t2 93z" />
    <glyph glyph-name="r" unicode="r" horiz-adv-x="188" 
d="M138 471q17 1 29.5 -9.5t14.5 -35.5t-4 -52q-1 -3 -2.5 -12.5t-4 -16t-7.5 -6.5q-4 0 -5.5 3.5t-1 9t2.5 14t2 9.5q5 18 5 37t-7.5 33t-26.5 9q-23 -6 -47 -96q-10 -36 -15 -64.5t-5 -83.5v-164q0 -28 -2.5 -38.5t-9.5 -10.5q-10 1 -8 25q1 11 1.5 31.5t0.5 175.5l1 118
v92q0 24 9 24q4 0 6 -3t4 -24q0 -5 -2 -41.5t-1 -61.5q15 64 26 91t23 36.5t24 10.5z" />
    <glyph glyph-name="s" unicode="s" horiz-adv-x="175" 
d="M84 470q17 1 33.5 -7.5t25 -31t8.5 -48.5q0 -32 -15 -29q-4 1 -5 4.5t1.5 12t2.5 10.5q1 31 -12 53.5t-38 19.5q-7 -1 -15.5 -8t-11.5 -14q-5 -10 -6.5 -25t3.5 -38.5t16.5 -49t25.5 -52t17 -32.5q20 -40 31 -70q5 -17 9.5 -39t5 -44t-6 -42t-22.5 -33t-41 -13
q-17 0 -35 12t-27 40.5t-3 59.5q1 11 6.5 22.5t9.5 12t6 -0.5q3 -1 3 -5t-4 -13.5t-4 -11.5q-5 -26 1 -51.5t20 -37t28 -11.5q19 0 32 13t16.5 35t1.5 43q-3 27 -11.5 54.5t-37.5 84.5l-3 6t-22 41.5t-28.5 72t-1.5 62.5q5 16 16.5 31t30.5 17z" />
    <glyph glyph-name="t" unicode="t" horiz-adv-x="170" 
d="M79 591q5 -3 3.5 -59t-1.5 -67q35 -2 72 0q1 0 8 0.5t11.5 -1t4.5 -5.5q0 -2 -1.5 -4.5t-6 -4t-11.5 -2t-14.5 0t-9.5 0.5l-53 -1l-1 -313q0 -6 -0.5 -38t1.5 -51q1 -13 8.5 -24.5t18.5 -11.5q9 0 16.5 6.5t9.5 28t7 22.5t7.5 -7.5t0.5 -26.5q-2 -15 -11.5 -26.5
t-28.5 -11.5q-25 0 -36 21q-5 11 -7 24t-3 71q-2 62 -0.5 176.5t1.5 160.5q-3 1 -22 0t-26 1.5t-7 7.5t4.5 6.5t11 1t8.5 -0.5l31 1l1 100q0 36 14 26z" />
    <glyph glyph-name="u" unicode="u" horiz-adv-x="259" 
d="M204 466q2 0 4 -0.5t3.5 -3t1.5 -6v-9v-6.5l-1 -162l-1 -135v-113q0 -1 0.5 -10.5t-1.5 -15.5t-7 -6t-8 4t-2.5 20t0.5 21l4 158q-1 -4 -4 -12.5t-16 -53t-38 -92.5q-9 -17 -24 -33.5t-31 -16.5q-8 0 -15.5 6t-13 23.5t-7.5 43.5t-2.5 59.5t-0.5 40.5v190l1 83q0 23 6 25
q16 4 12 -41l-1 -141q0 -4 -0.5 -84t2.5 -127q4 -34 8.5 -45.5t12.5 -11.5q25 -2 64 98q14 37 27 82t16 73l3 161q0 3 -0.5 15t2 17t6.5 5z" />
    <glyph glyph-name="v" unicode="v" horiz-adv-x="229" 
d="M206 466q5 -2 5 -8t-2 -13t-2 -8l-36 -206q0 -3 -2 -13t-18.5 -96.5t-22.5 -104.5q-1 -7 -4.5 -15t-7.5 -9q-7 -1 -11 6.5t-6.5 24.5t-3.5 20l-57 306l-16 84q0 1 -2 9.5t-1.5 14t2.5 7t4 1.5q4 0 9.5 -14t19.5 -90q19 -102 20 -111l40 -217q6 22 13.5 64t8.5 47l55 301
q4 22 15 20z" />
    <glyph glyph-name="w" unicode="w" horiz-adv-x="349" 
d="M316 466q5 0 6.5 -7.5t-2 -29.5t-4.5 -26q-7 -63 -18.5 -138t-15.5 -102q-7 -58 -25 -140q0 -1 -1.5 -10.5t-5 -14t-11.5 -0.5q-6 2 -12 37l-8 37q-1 3 -3.5 16.5t-9 56.5t-7.5 52q-2 10 -9.5 65.5t-9.5 59.5l-15 -85q-3 -16 -8 -44t-16 -79.5t-17 -82.5q-1 -2 -3 -13.5
t-5 -16t-6 -4.5q-10 -2 -14 20q-8 34 -16.5 80.5t-22 129t-18.5 113.5l-16 94q-2 22 -1 26.5t4 5.5q4 1 8.5 -2t6.5 -15q1 -3 3.5 -25.5t3.5 -29.5q4 -32 22 -132l9 -63q5 -23 14 -76.5t15 -76.5q12 39 37 176l23 133q0 2 2 15t5 19t6 6t5.5 -4.5t4.5 -16t2 -13.5l6 -40
q4 -24 19.5 -126t24.5 -152q3 15 7 37t10 62t8 50l28 183l9 71q1 2 2.5 11t8.5 9z" />
    <glyph glyph-name="x" unicode="x" horiz-adv-x="209" 
d="M175 465q1 0 2.5 0.5t5 -0.5t3.5 -6.5t-4.5 -15t-4.5 -10.5q-9 -31 -34 -105t-26 -79l26 -85q2 -7 23 -70.5t24 -75.5q1 -8 0 -13t-7 -6q-3 0 -5.5 2.5t-7.5 20.5l-64 198l-23 -70l-41 -118q-8 -21 -11.5 -27.5t-8.5 -6.5t-6.5 5.5t4 18t5.5 13.5l31 90q1 2 3 8.5
t17 48.5t21 67l-10 31q-6 18 -21 62.5t-21.5 66t-10.5 36.5q-1 5 -0.5 13t7.5 7q1 0 3.5 -1t7.5 -20l15 -45q3 -9 18 -54.5t23 -71.5q4 12 21 65.5t26 78.5l7 24q5 23 13 24z" />
    <glyph glyph-name="y" unicode="y" horiz-adv-x="221" 
d="M190 466h2.5t5 -1.5t3.5 -10.5t-2.5 -20t-2.5 -12q-5 -38 -17.5 -107.5t-18.5 -109.5l-36 -188l-40 -190q-10 -44 -16 -64q-5 -18 -7.5 -20t-5.5 -2q-11 1 -5 22l9 36q28 111 40 192q-8 38 -20.5 122.5t-13.5 91.5q-24 155 -35 208q0 1 -3.5 13.5t-4 19t-0.5 11t2 7
t6 2.5q5 -1 8.5 -6t5 -17.5t1.5 -14.5l17 -97q8 -45 24 -152t24 -153q8 36 21 114t20 110q0 1 1.5 7.5t10.5 61.5t17 111q0 2 1.5 14t3.5 17t5 5z" />
    <glyph glyph-name="z" unicode="z" horiz-adv-x="173" 
d="M105 466q10 1 33.5 0t25.5 -4q1 -1 1.5 -5.5t-5 -19.5t-5.5 -16l-76 -242l-49 -164q24 -1 104 2q23 3 25 -3q7 -15 -34 -15h-80q-2 0 -9.5 -0.5t-13 0.5t-7.5 5q-2 3 -1.5 11.5t12.5 46.5l51 165l69 221q-33 3 -88 1q-18 -2 -20.5 0.5t-2.5 6.5q0 2 3.5 4.5t15 4t30 1.5
h21.5z" />
    <glyph glyph-name="braceleft" unicode="{" horiz-adv-x="173" 
d="M137 730q-1 -4 -11 -3.5t-14 0.5q-24 -2 -35.5 -23.5t-12.5 -61t13 -124t14 -101.5v-4t-0.5 -12.5t-4 -22t-8 -21.5t-9.5 -15.5t-10 -12t-10 -10.5l-6 -6q22 -14 35 -33.5t15 -65.5q0 -52 -14 -116t-18 -91q-11 -67 -2.5 -93t29.5 -32q10 -3 25.5 -1.5t18 -0.5t2.5 -3
q1 -5 -3.5 -9t-17 -4.5t-17.5 0.5q-42 4 -51.5 43t0.5 103q2 14 14 70.5t15.5 91t1.5 59.5q0 16 -9 34.5t-30 32.5q-1 1 -7 3.5t-8 5t-2 4.5q0 4 8 11t9 8q19 20 29 38.5t9 45.5q-2 29 -15 112.5t-12 124.5q2 53 28 77q3 2 14 8t29 6q9 0 14.5 -3.5t3.5 -8.5z" />
    <glyph glyph-name="bar" unicode="|" horiz-adv-x="128" 
d="M65 737q6 0 10 -6.5t2 -40.5v-56l-1 -332q0 -47 -2 -163t-1 -178q0 -3 2.5 -52.5t-11.5 -48.5q-5 0 -7.5 9t-0.5 40l1 167q4 295 3 443v168q0 3 -1 25t6 25z" />
    <glyph glyph-name="braceright" unicode="}" horiz-adv-x="188" 
d="M91 736q48 -14 51 -83q0 -9 -1 -37t-13 -93t-14 -81q-9 -67 19 -99q6 -7 20 -15.5t14 -12.5q0 -2 -1.5 -6.5t-13 -14t-12.5 -10.5q-19 -20 -28.5 -47.5t-4.5 -77.5q2 -21 14.5 -79t14.5 -86q10 -95 -35 -122q-14 -8 -36 -8q-12 0 -20.5 3.5t-7.5 9.5q1 4 3.5 5t16 -1
t23.5 1q49 12 38 118q-3 24 -20.5 110t-0.5 138q5 16 19 34t28 30q-53 34 -50 102q2 33 13 88.5t14 81.5q9 66 1 95t-30 38q-5 2 -15.5 5t-24 2.5t-15 1t-1.5 2.5q0 7 7.5 10t17.5 3q15 0 30 -5z" />
    <glyph glyph-name="asciitilde" unicode="~" horiz-adv-x="322" 
d="M95 318q25 0 60.5 -30.5t49.5 -35.5t23 -5q34 0 43 39q1 2 2.5 13t7.5 12q10 1 10 -15t-8 -34q-6 -14 -21.5 -23.5t-32.5 -9.5q-31 0 -67 30.5t-47.5 35.5t-19.5 5q-20 0 -32.5 -12t-15.5 -33q-2 -15 -4 -17.5t-5 -2.5q-9 0 -6 26q3 25 20.5 41t42.5 16z" />
    <glyph glyph-name="uni00A0" unicode="&#xa0;" horiz-adv-x="115" 
 />
    <glyph glyph-name="exclamdown" unicode="&#xa1;" horiz-adv-x="150" 
d="M61 514q-2 8 2 16.5t13 10.5t17 -4.5t8 -14.5q0 -10 -7 -16.5t-15 -6.5q-6 0 -11.5 4t-6.5 11zM76 -178q-4 1 -5 7t-0.5 14.5t0.5 10.5l-1 291q0 24 -0.5 119t1.5 141q0 13 1.5 20.5t8.5 6.5q9 -1 6 -27v-259q-2 -72 0 -154.5t2 -134.5q1 -28 -2.5 -33t-10.5 -2z" />
    <glyph glyph-name="cent" unicode="&#xa2;" horiz-adv-x="209" 
d="M118 688q5 1 8 -2t3 -14v-12l-1 -79q40 -10 45 -71q1 -14 -2.5 -29t-11.5 -13q-2 0 -4 4.5t1 19.5q4 22 -7 47t-26 25q-34 0 -53 -72t-19 -183q0 -102 18.5 -153t54.5 -37q17 7 26.5 30t8.5 56v2t-1.5 11t1 14.5t7.5 4.5q8 1 10.5 -16.5t0.5 -32.5q-10 -82 -59 -88v-74
q1 -21 -1 -28t-7 -7t-7.5 4t-2.5 16v15v75q-38 7 -54.5 75t-10.5 180q12 208 76 223l1 83q0 24 6 26z" />
    <glyph glyph-name="sterling" unicode="&#xa3;" horiz-adv-x="270" 
d="M252 32q11 -1 6 -11t-11 -14q-21 -16 -43 -16q-13 0 -41.5 10t-47.5 11q-14 1 -40.5 -9.5t-30.5 -6.5q-2 2 -2 6.5t4.5 12t4.5 8.5q17 56 27 143t8 176q-14 -2 -31.5 -1.5t-18.5 5.5t5.5 10t43.5 3q-2 31 -13 115.5t-6.5 120t19.5 58.5q9 12 25.5 23t39.5 10
q27 -1 45 -21t23 -46.5t3 -48.5q-1 -19 -9 -40.5t-16 -21.5q-5 0 -7 4.5t6 23.5q13 33 4.5 75t-32.5 53q-16 8 -34.5 2.5t-28.5 -18.5q-8 -9 -15 -28.5t-6.5 -55.5t9.5 -105.5t11 -100.5l79 1q2 0 8 1t10.5 0t5.5 -6q1 -7 -6.5 -9.5t-23.5 -2t-17 0.5l-55 -1
q6 -178 -35 -323q19 7 27.5 9.5t20.5 2.5q13 0 48 -11.5t48.5 -8t20.5 8.5q1 1 7 6.5t11 5.5z" />
    <glyph glyph-name="currency" unicode="&#xa4;" horiz-adv-x="411" 
d="M345 474q10 0 8.5 -7.5t-9.5 -16.5q-5 -7 -26.5 -38.5t-33.5 -45.5q18 -12 30 -37t15 -46q3 -22 -0.5 -50.5t-19 -55t-37.5 -39.5q3 -5 18 -32t24 -39q0 -1 5.5 -7.5t7 -10.5t0.5 -6q-3 -8 -9 -6t-13 12q-12 18 -29 47t-20 33q-20 -10 -53 -10.5t-54 5.5q-3 -6 -22 -34.5
t-26 -40.5q-1 -1 -5 -9t-7 -11t-6 -3q-6 0 -8 5t12 28l44 70q-33 21 -51 57t-14 84q3 25 16 50t29 41q-10 14 -29 49.5t-20 37.5q-6 8 -5.5 14t7.5 6q3 0 7.5 -4.5t10 -15.5l6.5 -13q5 -11 13.5 -24t16 -25t8.5 -13q36 18 74 18t66 -14l55 69q2 2 7.5 11.5t9.5 13t7 3.5z
M204 372q-50 -3 -72.5 -19t-34.5 -39q-20 -39 -12.5 -83t37.5 -72q12 -11 34.5 -19t53.5 -5.5t51 14.5q25 15 39.5 50.5t10.5 74.5q-4 44 -32 72t-75 26z" />
    <glyph glyph-name="yen" unicode="&#xa5;" horiz-adv-x="301" 
d="M276 683q4 4 8.5 0.5t3.5 -7.5q-3 -12 -15.5 -46.5t-17.5 -48.5q-25 -77 -52 -147l-45 -120l1 -28h65q13 1 27 -0.5t15 -6.5q0 -4 -2 -7t-17 -3h-192q-12 0 -17.5 1t-6.5 6q0 4 4.5 7t31.5 3h73v28l-49 139l-17 51l-55 152q-3 6 -3.5 14.5t4.5 11.5q4 2 8.5 -2t13.5 -36
q1 -4 5.5 -16.5t49.5 -140.5t52 -150l38 101l64 182q15 48 19 54.5t6 8.5zM78 200h111q37 0 57 -1t20 -8q0 -8 -26 -8q-8 0 -37 -1t-46 0q-1 -26 -1 -136q0 -2 0.5 -15.5t-1 -23t-7.5 -9.5q-4 0 -7 6.5t-3 39.5q1 33 1 74.5v63.5l-65 1q-1 0 -13.5 -0.5t-21 1t-9.5 6.5
q0 2 2 5.5t7 4t39 0.5z" />
    <glyph glyph-name="brokenbar" unicode="&#xa6;" horiz-adv-x="129" 
d="M69 738q4 1 7 -1.5t3 -24.5q0 -11 0.5 -37.5t0.5 -41.5t-1 -26q-1 -27 -2 -87.5t-2 -82.5q0 -2 0.5 -14.5t-2 -17.5t-8.5 -5q-2 0 -4 2.5t-3 7.5t-0.5 12.5t1.5 15.5t1 9l1 229v2t-1.5 21t1.5 29.5t8 9.5zM65 227q10 1 9.5 -18t-0.5 -20q0 -29 0.5 -104t0.5 -116.5
t-1 -70.5v-14.5t-2.5 -16t-8.5 -4.5q-4 0 -6 5t-1.5 18t0.5 15l1 108v200q0 9 1 13t7 5z" />
    <glyph glyph-name="section" unicode="&#xa7;" horiz-adv-x="303" 
d="M168 431l56 -140q29 -71 35.5 -90t9 -36.5t1.5 -37.5t-14.5 -41.5t-46.5 -37.5q30 -77 26 -125q-2 -21 -12.5 -43t-32.5 -35t-47 -13q-27 0 -49 14q-36 22 -45 76.5t18 86.5q4 4 10.5 5t10.5 -4q3 -4 -2.5 -10t-8.5 -10t-5 -9t-4 -12q-7 -33 5 -62.5t31 -41.5
q19 -13 41 -13q25 0 45.5 18t24.5 48q3 26 -2 53.5t-39 109.5q-2 4 -8 19t-40 97.5t-63 161.5q-26 75 -13 116q7 22 22.5 37t38.5 16q-26 69 -31 103.5t2 60.5q7 23 26.5 38t41.5 15q25 0 42 -18q19 -21 23 -52t-4 -60q-1 -4 -3 -10t-9 -4q-3 1 -4 5t3 23q10 51 -15 84
q-13 16 -33 16q-18 0 -33 -13t-20 -35q-9 -41 29 -143q10 -29 42 -107zM202 65q12 6 25 17.5t19 22.5q6 13 7 32.5t-5 39t-19 55.5l-41 101q-8 20 -33 81.5t-37 94.5q-27 1 -42 -20t-13 -54q1 -42 77 -224q14 -34 26 -63t36 -83z" />
    <glyph glyph-name="dieresis" unicode="&#xa8;" horiz-adv-x="238" 
d="M94 568q0 -9 -6.5 -14t-15.5 -5q-8 0 -13 5.5t-5 14.5t7 14.5t15 5.5t13 -6.5t5 -14.5zM163 589q9 0 15.5 -6t6.5 -15q0 -8 -5.5 -13.5t-14.5 -5.5t-14 6.5t-5 14.5q0 6 5.5 12.5t11.5 6.5z" />
    <glyph glyph-name="copyright" unicode="&#xa9;" horiz-adv-x="532" 
d="M203 624q33 17 73 17q43 0 79 -21q22 -14 45 -41t39 -69t21 -89q7 -62 2 -134t-24 -122q-15 -39 -38 -72t-57.5 -50.5t-71.5 -17.5q-56 0 -98 28.5t-69.5 83.5t-34.5 136q-5 62 3 125.5t30 113.5q36 79 101 112zM266 621q-26 -2 -53.5 -14t-51 -37.5t-42 -65t-27.5 -90.5
q-7 -41 -6.5 -92.5t10 -98t30 -87t51.5 -64.5q18 -14 42 -21t47 -7q53 0 95.5 36.5t64.5 108.5q6 21 11.5 58.5t6.5 86t-2 78.5q-13 106 -59 159t-117 50zM267 536q15 3 29 -2t21 -22.5t6 -39.5q1 -7 -1 -15t-7 -8q-4 0 -7 3.5t-2.5 12.5t0.5 10q1 25 -10.5 36.5t-30.5 5.5
q-14 -4 -27 -24t-21.5 -56.5t-11.5 -72.5q-4 -74 6.5 -132.5t32.5 -71.5q12 -7 27 -5.5t26 15.5q3 4 7.5 14.5t5.5 28.5t3.5 20t4.5 2q6 -1 8 -17t-4 -36q-13 -40 -47 -46q-19 -3 -37.5 7t-29.5 35q-19 40 -21 132q-1 26 2.5 66.5t9.5 63.5q10 38 27.5 65t40.5 31z" />
    <glyph glyph-name="ordfeminine" unicode="&#xaa;" horiz-adv-x="209" 
d="M108 687q20 1 31 -12t13.5 -36t-3.5 -84q-5 -48 -6.5 -91t6.5 -86q4 -14 3 -20t-8 -6q-3 0 -5.5 3t-5.5 22q-1 3 -1.5 10.5t-1.5 36.5t-1 32q-2 -5 -10.5 -29.5t-12.5 -33.5q-16 -38 -30 -41q-21 -6 -29 35q-6 39 1 82.5t19 64.5q24 43 65 29q0 3 2.5 23t3 36.5t-3 27
t-7.5 13.5t-6 4q-10 5 -20.5 0.5t-12.5 -13.5q-2 -7 0 -19t-3 -13q-6 -2 -10.5 4t-4.5 22q1 18 11.5 28.5t26.5 10.5zM94 543q-17 -12 -27 -60.5t-4 -88.5q3 -22 9 -24q5 -1 18 25.5t23 57.5q7 16 12 45.5t5 40.5q0 8 -13.5 9.5t-22.5 -5.5zM76 300h63q14 0 20.5 -2t6.5 -8
q0 -3 -6 -5.5t-38 -2.5l-67 -1q-23 0 -24 9q-1 10 45 10z" />
    <glyph glyph-name="guillemotleft" unicode="&#xab;" horiz-adv-x="291" 
d="M146 418q3 1 6 -1.5t3 -5.5q0 -1 -2.5 -7t-18 -31.5t-17.5 -29.5l-56 -95l18 -34l65 -113q8 -14 10 -19t0.5 -7t-3.5 -3t-7.5 1.5t-17 21t-30.5 53t-30 53.5q-2 3 -10 17t-11 21t-3 9t33 57t48 82q16 28 23 31zM229 418q4 2 6.5 -2.5t-2.5 -13.5l-33 -58l-56 -96l18 -36
q8 -14 44.5 -73.5t27.5 -65.5q-3 -3 -8 0t-7 8q-16 28 -55 94t-39 73q0 2 26.5 46t31.5 53q26 46 33 57.5t13 13.5z" />
    <glyph glyph-name="logicalnot" unicode="&#xac;" horiz-adv-x="330" 
d="M149 301h82q2 0 21 0.5t28.5 -0.5t11.5 -4q1 -1 1.5 -3t0.5 -37v-61q0 -2 0.5 -11t-1 -15t-6.5 -6q-4 0 -7 2.5t-3 20.5q1 29 -1 98q-87 -3 -215 -3q-3 0 -16 -0.5t-18.5 0.5t-6.5 3q-3 4 -1 7.5t12 5t15 1.5z" />
    <glyph glyph-name="registered" unicode="&#xae;" horiz-adv-x="384" 
d="M178 743q25 3 53 -6t47 -32t32.5 -64t15 -83.5t-3.5 -74.5q-6 -34 -22.5 -63t-38.5 -41q-30 -19 -68 -19q-24 0 -44 9q-37 18 -59 54t-27.5 74.5t-4.5 67.5q3 79 34 124q17 25 36 37.5t50 16.5zM179 726q-33 -3 -55 -24.5t-34.5 -56.5t-14.5 -74q-2 -44 8.5 -87t30.5 -68
q15 -20 37 -29t43 -9q19 0 39 7.5t33 18.5q19 17 31.5 54t12.5 87q0 31 -9 67t-22 61q-32 59 -100 53zM172 689q25 0 43 -16t21 -43q2 -17 -2 -34t-14 -26.5t-22 -12.5q14 -16 26 -62.5t20 -57.5q10 0 12 -2q5 -6 -1 -11t-14 -3q-13 3 -23 32q-1 4 -8.5 33.5t-14 44.5
t-13.5 22h-11l-1 -113q2 -20 -8 -20q-5 0 -7.5 6t-2 20.5t0.5 17.5q2 96 1 151q-4 60 1 71q2 3 17 3zM170 671l1 -101q29 -2 40.5 14t8.5 43q-2 13 -8.5 24t-18 16t-23.5 4z" />
    <glyph glyph-name="macron" unicode="&#xaf;" horiz-adv-x="229" 
d="M84 563l88 -1q12 0 17.5 -1.5t5.5 -7.5q0 -4 -6 -6.5t-21 -1.5t-17 1h-90q-24 0 -24 9q0 5 8 7t23 1.5t16 -0.5z" />
    <glyph glyph-name="degree" unicode="&#xb0;" horiz-adv-x="187" 
d="M92 741q14 1 29 -6t23 -28.5t8 -52.5q0 -23 -7 -45t-16 -32q-7 -8 -16.5 -12.5t-18.5 -4.5q-11 0 -22 7t-19 18q-9 13 -14 35.5t-1 48.5t12 41q15 28 42 31zM78 717q-10 -8 -17.5 -30t-4 -53.5t16.5 -44.5q8 -8 19 -9t20 6q9 8 16 27t7 41q0 18 -4 35.5t-14 26.5
q-8 7 -19 7.5t-20 -6.5z" />
    <glyph glyph-name="plusminus" unicode="&#xb1;" horiz-adv-x="344" 
d="M160 271h-90q-41 0 -45 6q-3 5 1 9.5t9 3.5q11 -1 125 -1l1 98q0 2 -0.5 13.5t1 19.5t7.5 9q5 1 8 -3t2.5 -17t-0.5 -14l-1 -58v-48h132q5 0 8.5 -4.5t0.5 -9.5q-1 -2 -7 -3.5t-20.5 -1t-17.5 0.5h-96l-1 -126q0 -1 0.5 -11t-5.5 -12q-3 -1 -6 0t-5 8t-1.5 21.5t0.5 15.5
v104zM150 19l144 -2q15 0 21.5 -1.5t6.5 -7.5q-1 -4 -8 -6t-23.5 -1.5t-20.5 0.5h-178q-3 0 -24.5 -0.5t-33 1t-11.5 6.5q0 4 8.5 7t47.5 3z" />
    <glyph glyph-name="uni00B2" unicode="&#xb2;" horiz-adv-x="202" 
d="M152 667q-4 -27 -15 -60q-39 -117 -88 -213q20 7 48.5 -1.5t34.5 -6.5t16 9.5t16 4.5q7 -4 -1 -15t-19 -15q-9 -3 -16 -2.5t-32.5 8t-42.5 3.5q-2 0 -11 -5.5t-13 -3.5q-6 2 -5 8t9 20q13 25 36.5 79t44.5 113q19 51 21 85q2 22 -5.5 37.5t-26.5 13.5q-13 -1 -21.5 -11
t-10.5 -24q-1 -4 0 -20.5t-6 -18.5q-6 -2 -10.5 5t-2.5 22q1 18 8.5 33.5t19.5 24.5q11 8 27 8q22 0 36 -22t9 -56z" />
    <glyph glyph-name="uni00B3" unicode="&#xb3;" horiz-adv-x="226" 
d="M87 733q24 2 53 2t35 -5q3 -3 3.5 -8t-8.5 -23l-63 -119q31 -11 49 -34t22.5 -46.5t3.5 -40.5q-1 -19 -7 -38.5t-17 -33.5t-28 -21t-33 -7q-25 0 -41 11q-14 9 -18 18t7 12q5 1 13 -7t15 -12q10 -5 22 -5q26 0 44 17q10 9 18.5 31t6.5 53.5t-15 50.5q-9 12 -20.5 20.5
t-26 14.5t-14.5 10q0 3 7 18.5t34 66.5t31 59q-19 2 -63 0q-2 0 -15 -1t-20.5 1t-8.5 7q0 2 1 6t15 3.5t18 -0.5z" />
    <glyph glyph-name="acute" unicode="&#xb4;" horiz-adv-x="156" 
d="M125 679q2 -2 2 -5.5t0.5 -3t-11.5 -18.5l-66 -95q-8 -10 -11.5 -14t-7.5 -1q-2 2 -1.5 5.5t3 8.5t7.5 13t6 9l42 64l19 28q4 7 9 10t9 -1z" />
    <glyph glyph-name="uni00B5" unicode="&#xb5;" horiz-adv-x="266" 
d="M205 466q4 0 6.5 -5.5t2.5 -36.5v-82v-286q0 -38 6 -41q4 -2 9 1.5t12 14t10 10.5q6 -1 7 -7.5t-2 -11.5q-14 -26 -36 -25q-9 0 -16 7.5t-7.5 31.5t-0.5 26q-1 27 1 76t2 75q-43 -216 -88 -220q-33 -4 -47 63v-68.5t1.5 -119.5t1.5 -101q0 -13 -2 -20t-8 -7q-2 0 -4.5 2
t-3 6.5t-0.5 27.5v163l-2 175l-1 175v155q1 12 3.5 18.5t10.5 0.5q4 -4 3.5 -57.5t-0.5 -58.5v-7t-0.5 -47.5t1 -90.5t5 -81t7.5 -52q4 -17 13 -37.5t19 -20.5q12 0 28 37.5t34 108.5q18 78 26 125v152q0 18 2 25t7 7z" />
    <glyph glyph-name="paragraph" unicode="&#xb6;" horiz-adv-x="311" 
d="M167 681q1 -7 2 -55t-1 -120q-1 -16 -0.5 -81t0.5 -77q0 -4 1 -27t0 -41.5t-6 -18.5q-14 0 -31 10t-32 28q-24 26 -36.5 72t-13.5 105t13 107q8 27 23.5 50.5t37 38.5t43.5 9zM202 683h40q32 3 35 -6q3 -12 -11 -11.5t-15 0.5l-34 -1q-2 -26 -1.5 -80.5t-0.5 -75.5
q-1 -10 -1 -56.5t2 -79.5q1 -37 1 -106t-1 -90q0 -21 0.5 -91.5t-0.5 -92.5q0 -50 -4 -54q-4 -3 -25.5 -2.5t-23.5 0.5t-9.5 -0.5t-13 0.5t-7.5 5q-2 5 2 8.5t19 4t18 0.5q2 0 11.5 -0.5t12.5 2.5q5 5 2 38q0 39 0.5 140.5t-0.5 152.5q-2 158 0 312q1 6 0 38t1 38.5t3 6.5z
" />
    <glyph glyph-name="periodcentered" unicode="&#xb7;" horiz-adv-x="102" 
d="M51 313q10 0 16 -7t6 -16q0 -10 -7.5 -18t-20.5 -6q-10 3 -14.5 12t-2.5 18q2 7 9 12t14 5z" />
    <glyph glyph-name="cedilla" unicode="&#xb8;" horiz-adv-x="167" 
d="M97 3l18 -3q-21 -43 -21 -51q30 -49 37.5 -67.5t7.5 -35.5q0 -24 -14 -38.5t-32 -14.5t-32 12q-11 10 -17 27q-3 9 -4 21t3 17t10 3t5 -11t-1 -11q2 -13 8.5 -24.5t18.5 -14.5q21 -4 31 10.5t6 37.5q-3 21 -44 83q-2 3 -1.5 8t21.5 52z" />
    <glyph glyph-name="uni00B9" unicode="&#xb9;" horiz-adv-x="187" 
d="M113 743q4 -2 7 -8.5t1 -33.5l-1 -152q-5 -125 -5 -166q3 -1 21 -1t24.5 -2.5t5.5 -7.5q-2 -9 -43 -5q-5 0 -30.5 -1t-36.5 0t-12 3q-2 5 2 8.5t24 4t27 1.5q0 5 0.5 20t3 142.5t4.5 165.5q-8 -8 -29.5 -36t-27.5 -34q-12 -15 -14.5 -15.5t-3.5 -0.5q-5 1 -6.5 6t1.5 9
l49 60q2 2 11 15t16.5 21.5t11.5 6.5z" />
    <glyph glyph-name="ordmasculine" unicode="&#xba;" horiz-adv-x="199" 
d="M103 687q14 0 28.5 -10.5t21.5 -63.5q4 -31 4 -80t-4 -83q-6 -79 -30 -95q-9 -6 -25 -6.5t-26 9.5q-8 8 -15.5 28t-11.5 85q-1 27 1 68t6 69q12 79 51 79zM102 670q-18 0 -28 -42q-5 -16 -8.5 -55.5t-2.5 -86.5q2 -120 37 -120q15 0 23.5 20t12.5 66q4 44 3.5 99.5
t-7.5 87.5q-8 31 -30 31zM76 298h63q16 0 21.5 -1t5.5 -7q0 -4 -5 -7t-19 -2.5t-15 0.5l-72 1q-2 0 -8 -1t-11 0.5t-5 8.5q0 4 6 7t22 2t17 -1z" />
    <glyph glyph-name="guillemotright" unicode="&#xbb;" horiz-adv-x="290" 
d="M140 418q3 3 10.5 -3.5t28.5 -46.5l46 -79q23 -43 23 -47q0 -3 -26.5 -47t-31.5 -52q-13 -25 -40 -65q-5 -7 -10.5 -5t-4.5 7t17.5 32.5t20.5 34.5q5 9 30.5 51t25.5 44q0 3 -11 23t-39.5 69t-31.5 55q-11 21 -9.5 24.5t2.5 4.5zM57 416q2 4 7.5 1t7.5 -8l23 -41l54 -94
q16 -27 16 -32q0 -2 -9 -18.5t-17 -27.5q-4 -7 -38 -65t-40 -59q-4 -1 -5.5 4.5t1.5 11.5l33 58l57 96q0 5 -57 100q-22 37 -29 52t-4 22z" />
    <glyph glyph-name="onequarter" unicode="&#xbc;" horiz-adv-x="383" 
d="M358 686q7 0 6 -10.5t-9 -29.5q-11 -27 -76.5 -168t-66.5 -143l-31 -69l-58 -130q-17 -43 -52 -115q-1 -2 -5.5 -14.5t-8.5 -17t-7 -3.5q-6 0 -6.5 6t2.5 12q14 32 68.5 157t81.5 181q26 53 70.5 150.5t54.5 118.5q5 10 17.5 42.5t19.5 32.5zM110 683q5 1 8 -3t3 -17v-16
l-1 -105v-140q3 0 12.5 0.5t12 -1.5t2.5 -7q0 -2 -3 -5.5t-24 -3t-26 0.5q-20 -2 -20 7q0 2 1.5 6t12.5 3.5t14 -0.5q-1 40 0.5 126.5t1.5 115.5q-15 -20 -32 -44.5t-21 -28.5q-1 -1 -6.5 -4.5t-9 -2t-4.5 5.5q0 3 1 5.5t4 5.5l4 4q15 18 49 68q1 2 6.5 11.5t8.5 13.5t6 5z
M290 300q4 4 9.5 1.5t6.5 -7.5q3 -17 1.5 -95.5t-1.5 -89.5h16t17 -1.5t4 -4.5q-1 -5 -5 -8t-16 -4t-15 -1q-4 -55 -3 -75q0 -2 0.5 -8t-0.5 -9t-4 -5q-3 -1 -5.5 -1.5t-4.5 1t-3 5t-1 7.5v8v10v8l1 59h-58q-1 0 -10.5 -0.5t-15.5 1.5t-7 7v4.5t6.5 16t6.5 13.5l39 85
q1 3 15 31t20 39.5t7 12.5zM292 274q-1 -2 -4.5 -10.5t-31 -71t-39.5 -83.5q15 -1 36.5 -1t34.5 1q0 8 1.5 55.5t2 72.5t0.5 37z" />
    <glyph glyph-name="onehalf" unicode="&#xbd;" horiz-adv-x="383" 
d="M362 686q7 0 6 -10.5t-9 -29.5q-11 -27 -76.5 -168t-66.5 -143l-31 -69l-58 -130q-17 -43 -52 -115q-1 -2 -5.5 -14.5t-8.5 -17t-7 -3.5q-6 0 -6.5 6t2.5 12q14 32 68.5 157t81.5 181q26 53 70.5 150.5t54.5 118.5q5 10 17.5 42.5t19.5 32.5zM110 683q5 1 8 -3t3 -17v-16
l-1 -105q-2 -70 0 -140q3 -1 19 0t22 -1t6 -7t-10.5 -7.5t-35.5 -1.5t-27 1q-27 0 -36 1.5t-9 5.5t7 6.5t24.5 2t21.5 0.5q-1 40 0.5 126.5t1.5 115.5q-30 -50 -53 -73q-4 -4 -11.5 -6t-8.5 5q0 3 1 5.5t4 5.5l4 4q34 40 49 68q13 23 15.5 26t5.5 4zM310 295q14 -7 20 -24.5
t1 -45.5t-16 -54q-17 -38 -46 -87.5t-33 -57.5q17 6 42.5 -2.5t35.5 -8.5t16 8t10 8q6 0 8.5 -4t-2.5 -12.5t-11 -11.5q-12 -6 -23 -6t-35.5 8.5t-36.5 5.5q-1 0 -10.5 -5.5t-13.5 -3.5q-11 5 4 28l70 126q14 27 22 62.5t0 50t-26 12.5q-10 -1 -18 -11.5t-10 -24.5
q-1 -4 0 -20.5t-6 -18.5q-6 -2 -10.5 5t-2.5 22q4 44 29 60q7 4 20.5 5t21.5 -3z" />
    <glyph glyph-name="threequarters" unicode="&#xbe;" horiz-adv-x="395" 
d="M360 686q7 0 6 -10.5t-9 -29.5q-11 -27 -76.5 -168t-66.5 -143l-31 -69l-58 -130q-17 -43 -52 -115q-1 -2 -5.5 -14.5t-8.5 -17t-7 -3.5q-6 0 -6.5 6t2.5 12q14 32 68.5 157t81.5 181q26 53 70.5 150.5t54.5 118.5q5 10 17.5 42.5t19.5 32.5zM78 676q35 1 51 0t19 -5
q4 -7 -5 -28q-7 -15 -21.5 -40t-20.5 -37q19 -7 32 -22t19 -36t2 -49.5t-12.5 -43.5t-14.5 -21q-10 -10 -27.5 -16t-33 -3t-25.5 11q-8 6 -10.5 16.5t6.5 11.5q5 1 18 -14q7 -6 21.5 -7t31.5 9q10 6 19 24t9.5 47.5t-12.5 51.5q-8 14 -25.5 21t-17.5 11q0 7 14 35
q29 51 31 55t4 10q-21 4 -45 2q-17 -1 -23 0.5t-7 6.5q-1 4 1.5 7t21.5 3zM302 300q4 4 9.5 1.5t6.5 -7.5q3 -17 1.5 -95.5t-1.5 -89.5h16t17 -1.5t4 -4.5q-1 -5 -5 -8t-16 -4t-15 -1q-4 -55 -3 -75q0 -2 0.5 -8t-0.5 -9t-4 -5q-5 -2 -8 -1t-4.5 6.5t-1.5 18v14.5l1 59h-58
q-1 0 -10.5 -0.5t-15.5 1.5t-7 7v4.5t6.5 16t6.5 13.5l39 85q1 3 15 31t20 39.5t7 12.5zM304 274q-10 -25 -38 -87t-37 -78q15 -1 36.5 -1t34.5 1q0 8 1.5 55.5t2 72.5t0.5 37z" />
    <glyph glyph-name="questiondown" unicode="&#xbf;" horiz-adv-x="217" 
d="M145 506q-1 -7 -6.5 -11t-11.5 -4q-8 0 -15 6.5t-7 16.5q0 8 8 14.5t17 4.5t13 -10.5t2 -16.5zM71 -185q-19 12 -27 33q-11 27 -10.5 63.5t7.5 68.5q2 11 8 32t27 68t30 70q10 27 12.5 72.5t-0.5 167.5q0 11 1.5 16.5t6.5 5.5q10 1 10 -23l2 -125q0 -40 -4 -74.5
t-20 -69.5q-2 -3 -12 -26t-19 -44t-16 -41q-10 -27 -14 -67t2.5 -68.5t20.5 -40.5q13 -11 33.5 -11t35.5 16q13 15 16.5 41.5t-10.5 54.5q-2 5 -9 11t-6 10q1 5 6.5 6.5t9.5 -1.5q13 -12 22 -38t1.5 -59.5t-29.5 -47.5q-16 -11 -38 -10.5t-37 10.5z" />
    <glyph glyph-name="Agrave" unicode="&#xc0;" horiz-adv-x="270" 
d="M78 776q-1 1 -8 6t-7 11q0 4 2.5 7t6.5 3q1 0 4 -1t26 -24l11 -11t42 -36q16 -16 10 -21q-1 -1 -4.5 0t-9 5t-12 9t-7.5 6q-6 5 -24.5 21.5t-29.5 24.5zM256 23q0 -1 1 -6.5t0.5 -10.5t-5.5 -6q-4 -1 -8 2.5t-8 29.5l-45 248q-12 -2 -40.5 -4t-72.5 1q-4 -21 -13 -70.5
t-12 -69.5q-9 -64 -20 -113q-4 -20 -6.5 -23t-6.5 -3q-3 0 -5 1.5t-3 5.5t0 10t3 12t2 7l41 230l26 172q22 130 27 157.5t10 53.5q5 25 8 32t8 7q4 0 7.5 -3.5t5 -15t2.5 -13.5q11 -53 21 -124.5t12 -87.5q16 -116 28 -190q13 -84 28 -160zM80 295q20 -3 53 -2.5t56 4.5
q-3 22 -21.5 151.5t-29.5 190.5q-13 -47 -27 -140z" />
    <glyph glyph-name="Aacute" unicode="&#xc1;" horiz-adv-x="270" 
d="M111 710q-6 5 10 21q5 4 21.5 17.5t31.5 29.5q20 20 23.5 22.5t6.5 2.5q4 0 6.5 -3t2.5 -7q0 -2 -1.5 -5t-13.5 -12q-11 -8 -29.5 -24.5t-24.5 -21.5q-18 -15 -24.5 -18.5t-8.5 -1.5zM256 23q0 -1 1 -6.5t0.5 -10.5t-5.5 -6q-4 -1 -8 2.5t-8 29.5l-45 248
q-12 -2 -40.5 -4t-72.5 1q-4 -21 -13 -70.5t-12 -69.5q-9 -64 -20 -113q-4 -20 -6.5 -23t-6.5 -3q-3 0 -5 1.5t-3 5.5t0 10t3 12t2 7l41 230l26 172q22 130 27 157.5t10 53.5q5 25 8 32t8 7q4 0 7.5 -3.5t5 -15t2.5 -13.5q11 -53 21 -124.5t12 -87.5q16 -116 28 -190
q13 -84 28 -160zM80 295q20 -3 53 -2.5t56 4.5q-3 22 -21.5 151.5t-29.5 190.5q-13 -47 -27 -140z" />
    <glyph glyph-name="Acircumflex" unicode="&#xc2;" horiz-adv-x="270" 
d="M64 695q-12 -12 -19 -6q-3 3 -1 8t20 20q25 24 47 40q21 16 24 16q5 0 30 -20l55 -46q15 -13 6 -19q-5 -4 -29 17q-39 34 -47 40t-14 9q-14 -7 -36 -26zM256 23q0 -1 1 -6.5t0.5 -10.5t-5.5 -6q-4 -1 -8 2.5t-8 29.5l-45 248q-12 -2 -40.5 -4t-72.5 1q-4 -21 -13 -70.5
t-12 -69.5q-9 -64 -20 -113q-4 -20 -6.5 -23t-6.5 -3q-3 0 -5 1.5t-3 5.5t0 10t3 12t2 7l41 230l26 172q22 130 27 157.5t10 53.5q5 25 8 32t8 7q4 0 7.5 -3.5t5 -15t2.5 -13.5q11 -53 21 -124.5t12 -87.5q16 -116 28 -190q13 -84 28 -160zM80 295q20 -3 53 -2.5t56 4.5
q-3 22 -21.5 151.5t-29.5 190.5q-13 -47 -27 -140z" />
    <glyph glyph-name="Atilde" unicode="&#xc3;" horiz-adv-x="270" 
d="M73 712q-8 0 -7 12q4 39 7.5 50.5t11 19.5t18.5 8q8 0 17 -8t26 -38.5t26 -29.5q8 1 14.5 19.5t6.5 51.5q0 3 2.5 5.5t5.5 2.5q8 0 7 -13q-1 -48 -10.5 -65.5t-27.5 -17.5q-11 0 -20.5 11t-24.5 38t-22 27t-13.5 -14.5t-7.5 -47.5q0 -2 -2 -6.5t-7 -4.5zM256 23
q0 -1 1 -6.5t0.5 -10.5t-5.5 -6q-4 -1 -8 2.5t-8 29.5l-45 248q-12 -2 -40.5 -4t-72.5 1q-4 -21 -13 -70.5t-12 -69.5q-9 -64 -20 -113q-4 -20 -6.5 -23t-6.5 -3q-3 0 -5 1.5t-3 5.5t0 10t3 12t2 7l41 230l26 172q22 130 27 157.5t10 53.5q5 25 8 32t8 7q4 0 7.5 -3.5t5 -15
t2.5 -13.5q11 -53 21 -124.5t12 -87.5q16 -116 28 -190q13 -84 28 -160zM80 295q20 -3 53 -2.5t56 4.5q-3 22 -21.5 151.5t-29.5 190.5q-13 -47 -27 -140z" />
    <glyph glyph-name="Adieresis" unicode="&#xc4;" horiz-adv-x="270" 
d="M89 712q-8 0 -13 5.5t-5 14.5t7 14.5t15 5.5t13 -6.5t5 -14.5q0 -9 -6.5 -14t-15.5 -5zM182 712q-9 0 -14 6.5t-5 14.5q0 6 5.5 12.5t11.5 6.5q9 0 15.5 -6t6.5 -15q0 -8 -5.5 -13.5t-14.5 -5.5zM256 23q0 -1 1 -6.5t0.5 -10.5t-5.5 -6q-4 -1 -8 2.5t-8 29.5l-45 248
q-12 -2 -40.5 -4t-72.5 1q-4 -21 -13 -70.5t-12 -69.5q-9 -64 -20 -113q-4 -20 -6.5 -23t-6.5 -3q-3 0 -5 1.5t-3 5.5t0 10t3 12t2 7l41 230l26 172q22 130 27 157.5t10 53.5q5 25 8 32t8 7q4 0 7.5 -3.5t5 -15t2.5 -13.5q11 -53 21 -124.5t12 -87.5q16 -116 28 -190
q13 -84 28 -160zM80 295q20 -3 53 -2.5t56 4.5q-3 22 -21.5 151.5t-29.5 190.5q-13 -47 -27 -140z" />
    <glyph glyph-name="Aring" unicode="&#xc5;" horiz-adv-x="270" 
d="M136 703q-18 0 -29 17t-11 41q0 20 13 36t30 16q11 0 21 -6t15 -19.5t5 -28.5q0 -25 -10.5 -40.5t-33.5 -15.5zM127 793q-13 -10 -14.5 -29t5.5 -32t21 -13q11 0 17 9q8 13 8 33t-10 30q-6 6 -15 6q-6 0 -12 -4zM256 23q0 -1 1 -6.5t0.5 -10.5t-5.5 -6q-4 -1 -8 2.5
t-8 29.5l-45 248q-12 -2 -40.5 -4t-72.5 1q-4 -21 -13 -70.5t-12 -69.5q-9 -64 -20 -113q-4 -20 -6.5 -23t-6.5 -3q-3 0 -5 1.5t-3 5.5t0 10t3 12t2 7l41 230l26 172q22 130 27 157.5t10 53.5q5 25 8 32t8 7q4 0 7.5 -3.5t5 -15t2.5 -13.5q11 -53 21 -124.5t12 -87.5
q16 -116 28 -190q13 -84 28 -160zM80 295q20 -3 53 -2.5t56 4.5q-3 22 -21.5 151.5t-29.5 190.5q-13 -47 -27 -140z" />
    <glyph glyph-name="AE" unicode="&#xc6;" horiz-adv-x="367" 
d="M343 664q-97 3 -118 2q-3 -62 -5 -225h93q12 0 17 -1t5 -8q0 -9 -23 -9l-92 -1l-4 -211l-4 -193q34 -1 116 1q13 0 21.5 -1.5t9.5 -8.5q0 -4 -4.5 -6.5t-30.5 -2.5h-89q-3 0 -13.5 -0.5t-18 0t-9.5 3.5q-1 1 -1.5 3t-0.5 34q0 31 7 240h-106l-40 -124l-42 -132
q-7 -20 -10.5 -23t-8.5 -3q-3 0 -5 3t0 14q5 19 23 72.5t25 75.5l66 204l42 131l43 137q9 28 16 37t16 10q13 2 40.5 1t33.5 -1q55 0 62.5 -1t9.5 -3q4 -5 -0.5 -9.5t-20.5 -4.5zM206 641l-107 -344l100 1z" />
    <glyph glyph-name="Ccedilla" unicode="&#xc7;" horiz-adv-x="214" 
d="M192 114h4.5t4 -3t1.5 -8.5t-1 -13.5t-1 -9q-5 -34 -18.5 -57t-36.5 -29q-20 -43 -20 -49q30 -49 37.5 -67.5t7.5 -35.5q0 -24 -14 -38.5t-32 -14.5t-32 12q-11 10 -17 27q-3 9 -4 21t3 17t10 3t5 -11t-1 -11q2 -13 8.5 -24.5t18.5 -14.5q21 -4 31 10.5t6 37.5
q-3 21 -44 83q-4 6 5.5 27.5t11.5 25.5q-5 1 -18 6t-23 17q-22 28 -34.5 98t-12.5 179q0 93 10 188t32 149q10 24 24.5 41.5t41.5 17.5q47 0 55 -75q5 -39 -6 -38q-4 0 -7 6.5t-4.5 23t-1.5 19.5q-3 24 -12 36.5t-26 11.5q-15 0 -31 -19t-28 -63q-20 -76 -27 -203t2 -219
q3 -37 13 -79t26 -61q6 -9 18.5 -14.5t23.5 -2.5q31 9 43 72q0 2 1.5 12t3.5 14t4 5z" />
    <glyph glyph-name="Egrave" unicode="&#xc8;" horiz-adv-x="216" 
d="M65 803q1 0 4 -1t26 -24l11 -11t42 -36q16 -16 10 -21q-1 -1 -4.5 0t-9 5t-12 9t-7.5 6q-6 5 -24.5 21.5t-29.5 24.5q-1 1 -8 6t-7 11q0 4 2.5 7t6.5 3zM177 682q3 0 15 0.5t16.5 -1.5t4.5 -8q-1 -5 -3.5 -6t-17.5 -1q-104 0 -129 -4l2 -205q35 3 99 1q14 -1 16 -3.5
t2 -4.5q0 -6 -10.5 -8t-48.5 -1q-22 1 -57 -1q2 -51 1.5 -147.5t-0.5 -121.5q0 -13 -1.5 -68t-0.5 -88l118 1q21 0 26 -2t6 -6q2 -8 -17 -8l-89 -1q-55 -3 -58 2q-1 3 -1.5 56.5t0.5 95.5v9.5t1 104.5t-1 143l-3 222q0 3 -1 21t2 21q1 1 5 3t52 5h72z" />
    <glyph glyph-name="Eacute" unicode="&#xc9;" horiz-adv-x="216" 
d="M197 803q4 0 6.5 -3t2.5 -7q0 -2 -1.5 -5t-13.5 -12q-11 -8 -29.5 -24.5t-24.5 -21.5q-18 -15 -24.5 -18.5t-8.5 -1.5q-6 5 10 21q5 4 21.5 17.5t31.5 29.5q20 20 23.5 22.5t6.5 2.5zM177 682q3 0 15 0.5t16.5 -1.5t4.5 -8q-1 -5 -3.5 -6t-17.5 -1q-104 0 -129 -4l2 -205
q35 3 99 1q14 -1 16 -3.5t2 -4.5q0 -6 -10.5 -8t-48.5 -1q-22 1 -57 -1q2 -51 1.5 -147.5t-0.5 -121.5q0 -13 -1.5 -68t-0.5 -88l118 1q21 0 26 -2t6 -6q2 -8 -17 -8l-89 -1q-55 -3 -58 2q-1 3 -1.5 56.5t0.5 95.5v9.5t1 104.5t-1 143l-3 222q0 3 -1 21t2 21q1 1 5 3t52 5
h72z" />
    <glyph glyph-name="Ecircumflex" unicode="&#xca;" horiz-adv-x="216" 
d="M128 795q5 0 30 -20l55 -46q15 -13 6 -19q-5 -4 -29 17q-39 34 -47 40t-14 9q-14 -7 -36 -26l-36 -33q-12 -12 -19 -6q-3 3 -1 8t20 20q25 24 47 40q21 16 24 16zM177 682q3 0 15 0.5t16.5 -1.5t4.5 -8q-1 -5 -3.5 -6t-17.5 -1q-104 0 -129 -4l2 -205q35 3 99 1
q14 -1 16 -3.5t2 -4.5q0 -6 -10.5 -8t-48.5 -1q-22 1 -57 -1q2 -51 1.5 -147.5t-0.5 -121.5q0 -13 -1.5 -68t-0.5 -88l118 1q21 0 26 -2t6 -6q2 -8 -17 -8l-89 -1q-55 -3 -58 2q-1 3 -1.5 56.5t0.5 95.5v9.5t1 104.5t-1 143l-3 222q0 3 -1 21t2 21q1 1 5 3t52 5h72z" />
    <glyph glyph-name="Edieresis" unicode="&#xcb;" horiz-adv-x="216" 
d="M104 746q0 -9 -6.5 -14t-15.5 -5q-8 0 -13 5.5t-5 14.5t7 14.5t15 5.5t13 -6.5t5 -14.5zM173 767q9 0 15.5 -6t6.5 -15q0 -8 -5.5 -13.5t-14.5 -5.5t-14 6.5t-5 14.5q0 6 5.5 12.5t11.5 6.5zM177 682q3 0 15 0.5t16.5 -1.5t4.5 -8q-1 -5 -3.5 -6t-17.5 -1q-104 0 -129 -4
l2 -205q35 3 99 1q14 -1 16 -3.5t2 -4.5q0 -6 -10.5 -8t-48.5 -1q-22 1 -57 -1q2 -51 1.5 -147.5t-0.5 -121.5q0 -13 -1.5 -68t-0.5 -88l118 1q21 0 26 -2t6 -6q2 -8 -17 -8l-89 -1q-55 -3 -58 2q-1 3 -1.5 56.5t0.5 95.5v9.5t1 104.5t-1 143l-3 222q0 3 -1 21t2 21q1 1 5 3
t52 5h72z" />
    <glyph glyph-name="Igrave" unicode="&#xcc;" horiz-adv-x="122" 
d="M-2 803q1 0 4 -1t26 -24l11 -11t42 -36q16 -16 10 -21q-1 -1 -4.5 0t-9 5t-12 9t-7.5 6q-6 5 -24.5 21.5t-29.5 24.5q-1 1 -8 6t-7 11q0 4 2.5 7t6.5 3zM61 682q10 0 9 -11t-1 -13v-141l-1 -359l-1 -130q0 -15 -1 -22t-6 -8q-10 0 -10 24q2 64 2 343l1 125v168
q0 17 2.5 20.5t5.5 3.5z" />
    <glyph glyph-name="Iacute" unicode="&#xcd;" horiz-adv-x="122" 
d="M130 803q4 0 6.5 -3t2.5 -7q0 -2 -1.5 -5t-13.5 -12q-11 -8 -29.5 -24.5t-24.5 -21.5q-18 -15 -24.5 -18.5t-8.5 -1.5q-6 5 10 21q5 4 21.5 17.5t31.5 29.5q20 20 23.5 22.5t6.5 2.5zM61 682q10 0 9 -11t-1 -13v-141l-1 -359l-1 -130q0 -15 -1 -22t-6 -8q-10 0 -10 24
q2 64 2 343l1 125v168q0 17 2.5 20.5t5.5 3.5z" />
    <glyph glyph-name="Icircumflex" unicode="&#xce;" horiz-adv-x="122" 
d="M61 773q5 0 30 -20l55 -46q15 -13 6 -19q-5 -4 -29 17q-39 34 -47 40t-14 9q-14 -7 -36 -26l-36 -33q-12 -12 -19 -6q-3 3 -1 8t20 20q25 24 47 40q21 16 24 16zM61 682q10 0 9 -11t-1 -13v-141l-1 -359l-1 -130q0 -15 -1 -22t-6 -8q-10 0 -10 24q2 64 2 343l1 125v168
q0 17 2.5 20.5t5.5 3.5z" />
    <glyph glyph-name="Idieresis" unicode="&#xcf;" horiz-adv-x="122" 
d="M37 727q0 -9 -6.5 -14t-15.5 -5q-8 0 -13 5.5t-5 14.5t7 14.5t15 5.5t13 -6.5t5 -14.5zM106 748q9 0 15.5 -6t6.5 -15q0 -8 -5.5 -13.5t-14.5 -5.5t-14 6.5t-5 14.5q0 6 5.5 12.5t11.5 6.5zM61 682q10 0 9 -11t-1 -13v-141l-1 -359l-1 -130q0 -15 -1 -22t-6 -8
q-10 0 -10 24q2 64 2 343l1 125v168q0 17 2.5 20.5t5.5 3.5z" />
    <glyph glyph-name="Eth" unicode="&#xd0;" horiz-adv-x="293" 
d="M255 341q1 -84 -5 -149t-24 -106.5t-43 -61.5q-32 -26 -85 -26l-37 2q-1 0 -2 6t-0.5 19.5t0.5 15.5v152l1 158q-31 -1 -40 -0.5t-9 5.5q0 3 2.5 6.5t19.5 4.5l27 1l-1 300q1 10 2 12.5t7 3.5q24 2 52 -9t44 -24q43 -35 67 -121t24 -189zM238 270q4 106 -10 196t-44 137
q-18 29 -47 46.5t-62 15.5l1 -298h3q6 1 13 1.5t56 0.5h12t13.5 -2.5t2.5 -6.5q0 -4 -6 -6.5t-20.5 -1.5t-16.5 1l-55 -2h-2l-1 -336q66 -6 97 21q11 10 22.5 26t19.5 39.5t12.5 46.5t6.5 41t2.5 32t1.5 29.5t1 19.5z" />
    <glyph glyph-name="Ntilde" unicode="&#xd1;" horiz-adv-x="311" 
d="M124 788q8 0 17 -8t26 -38.5t26 -29.5q8 1 14.5 19.5t6.5 51.5q0 3 2.5 5.5t5.5 2.5q8 0 7 -13q-1 -48 -10.5 -65.5t-27.5 -17.5q-11 0 -20.5 11t-24.5 38t-22 27t-13.5 -14.5t-7.5 -47.5q0 -2 -2 -6.5t-7 -4.5q-8 0 -7 12q4 39 7.5 50.5t11 19.5t18.5 8zM252 682
q2 0 4.5 -2t2 -16.5t-0.5 -17.5q2 -48 0.5 -125t-1.5 -92q3 -145 1 -353l1 -44q0 -2 0.5 -12.5t-1 -17t-6.5 -7.5q-2 0 -6 1t-7 8t-7 23q-1 5 -25.5 89t-34.5 121q-13 47 -46 180q-12 49 -30.5 121t-27.5 100q-1 -36 0 -82.5t1 -65.5v-298l1 -166v-12.5t-2.5 -14t-6.5 -2.5
q-8 1 -8 27l-1 292v160v148q0 3 -0.5 19t0.5 26.5t6 12.5t10.5 -1t13.5 -27q24 -79 32 -115q79 -317 87 -343q2 -8 19.5 -72t21.5 -75l-2 324l1 155q0 9 -0.5 54t0.5 69q0 32 11 31z" />
    <glyph glyph-name="Ograve" unicode="&#xd2;" horiz-adv-x="309" 
d="M101 803q1 0 4 -1t26 -24l11 -11t42 -36q16 -16 10 -21q-1 -1 -4.5 0t-9 5t-12 9t-7.5 6q-6 5 -24.5 21.5t-29.5 24.5q-1 1 -8 6t-7 11q0 4 2.5 7t6.5 3zM158 688q31 3 50.5 -15t31.5 -52q17 -49 23 -137q7 -88 5 -170q0 -55 -8 -137q-9 -92 -36.5 -138t-71.5 -46
q-21 0 -41 13.5t-36 44.5t-22 68q-8 38 -12.5 109.5t-0.5 158.5q9 146 35 218q13 35 35.5 58t47.5 25zM162 670q-51 -8 -71 -71q-7 -21 -16 -58t-16 -124t-2.5 -180t21.5 -147q9 -27 21.5 -46.5t27 -27t26.5 -7.5q20 0 38.5 16t32 56.5t19.5 91.5q9 85 9 146
q0 93 -6.5 177.5t-20.5 118.5q-10 29 -25 42t-38 13z" />
    <glyph glyph-name="Oacute" unicode="&#xd3;" horiz-adv-x="309" 
d="M233 803q4 0 6.5 -3t2.5 -7q0 -2 -1.5 -5t-13.5 -12q-11 -8 -29.5 -24.5t-24.5 -21.5q-18 -15 -24.5 -18.5t-8.5 -1.5q-6 5 10 21q5 4 21.5 17.5t31.5 29.5q20 20 23.5 22.5t6.5 2.5zM158 688q31 3 50.5 -15t31.5 -52q17 -49 23 -137q7 -88 5 -170q0 -55 -8 -137
q-9 -92 -36.5 -138t-71.5 -46q-21 0 -41 13.5t-36 44.5t-22 68q-8 38 -12.5 109.5t-0.5 158.5q9 146 35 218q13 35 35.5 58t47.5 25zM162 670q-51 -8 -71 -71q-7 -21 -16 -58t-16 -124t-2.5 -180t21.5 -147q9 -27 21.5 -46.5t27 -27t26.5 -7.5q20 0 38.5 16t32 56.5
t19.5 91.5q9 85 9 146q0 93 -6.5 177.5t-20.5 118.5q-10 29 -25 42t-38 13z" />
    <glyph glyph-name="Ocircumflex" unicode="&#xd4;" horiz-adv-x="309" 
d="M162 778q5 0 30 -20l55 -46q15 -13 6 -19q-5 -4 -29 17q-39 34 -47 40t-14 9q-14 -7 -36 -26l-36 -33q-12 -12 -19 -6q-3 3 -1 8t20 20q25 24 47 40q21 16 24 16zM158 688q31 3 50.5 -15t31.5 -52q17 -49 23 -137q7 -88 5 -170q0 -55 -8 -137q-9 -92 -36.5 -138
t-71.5 -46q-21 0 -41 13.5t-36 44.5t-22 68q-8 38 -12.5 109.5t-0.5 158.5q9 146 35 218q13 35 35.5 58t47.5 25zM162 670q-51 -8 -71 -71q-7 -21 -16 -58t-16 -124t-2.5 -180t21.5 -147q9 -27 21.5 -46.5t27 -27t26.5 -7.5q20 0 38.5 16t32 56.5t19.5 91.5q9 85 9 146
q0 93 -6.5 177.5t-20.5 118.5q-10 29 -25 42t-38 13z" />
    <glyph glyph-name="Otilde" unicode="&#xd5;" horiz-adv-x="309" 
d="M132 802q8 0 17 -8t26 -38.5t26 -29.5q8 1 14.5 19.5t6.5 51.5q0 3 2.5 5.5t5.5 2.5q8 0 7 -13q-1 -48 -10.5 -65.5t-27.5 -17.5q-11 0 -20.5 11t-24.5 38t-22 27t-13.5 -14.5t-7.5 -47.5q0 -2 -2 -6.5t-7 -4.5q-8 0 -7 12q4 39 7.5 50.5t11 19.5t18.5 8zM158 688
q31 3 50.5 -15t31.5 -52q17 -49 23 -137q7 -88 5 -170q0 -55 -8 -137q-9 -92 -36.5 -138t-71.5 -46q-21 0 -41 13.5t-36 44.5t-22 68q-8 38 -12.5 109.5t-0.5 158.5q9 146 35 218q13 35 35.5 58t47.5 25zM162 670q-51 -8 -71 -71q-7 -21 -16 -58t-16 -124t-2.5 -180
t21.5 -147q9 -27 21.5 -46.5t27 -27t26.5 -7.5q20 0 38.5 16t32 56.5t19.5 91.5q9 85 9 146q0 93 -6.5 177.5t-20.5 118.5q-10 29 -25 42t-38 13z" />
    <glyph glyph-name="Odieresis" unicode="&#xd6;" horiz-adv-x="309" 
d="M138 742q0 -9 -6.5 -14t-15.5 -5q-8 0 -13 5.5t-5 14.5t7 14.5t15 5.5t13 -6.5t5 -14.5zM207 763q9 0 15.5 -6t6.5 -15q0 -8 -5.5 -13.5t-14.5 -5.5t-14 6.5t-5 14.5q0 6 5.5 12.5t11.5 6.5zM158 688q31 3 50.5 -15t31.5 -52q17 -49 23 -137q7 -88 5 -170q0 -55 -8 -137
q-9 -92 -36.5 -138t-71.5 -46q-21 0 -41 13.5t-36 44.5t-22 68q-8 38 -12.5 109.5t-0.5 158.5q9 146 35 218q13 35 35.5 58t47.5 25zM162 670q-51 -8 -71 -71q-7 -21 -16 -58t-16 -124t-2.5 -180t21.5 -147q9 -27 21.5 -46.5t27 -27t26.5 -7.5q20 0 38.5 16t32 56.5
t19.5 91.5q9 85 9 146q0 93 -6.5 177.5t-20.5 118.5q-10 29 -25 42t-38 13z" />
    <glyph glyph-name="multiply" unicode="&#xd7;" horiz-adv-x="335" 
d="M274 368q4 -3 3.5 -8t-10 -13.5t-10.5 -9.5l-75 -74q74 -73 93 -94q3 -3 2.5 -8.5t-6.5 -7.5q-2 -1 -5.5 1t-9 7.5t-12 12.5t-7.5 8l-68 68q-15 -17 -45.5 -46t-44.5 -42q-2 -2 -6 -6.5t-7.5 -6.5t-6.5 0q-5 3 -4 9.5t28 30.5l73 74l-64 63q-26 28 -26.5 31.5t-0.5 4.5
q1 7 7 7t9 -5l88 -89l70 69q17 19 23.5 23t11.5 1z" />
    <glyph glyph-name="Oslash" unicode="&#xd8;" horiz-adv-x="317" 
d="M268 484q7 -88 5 -170q0 -55 -8 -137q-9 -92 -36.5 -138t-71.5 -46q-27 0 -49 19q-10 -63 -22 -62q-2 0 -4.5 2t-2.5 7.5t2 13.5t2 9l11 45q-12 16 -22 41.5t-14 50.5q-8 38 -12.5 109.5t-0.5 158.5q9 146 35 218q13 35 35.5 58t47.5 25q30 3 51 -15q1 5 4.5 26.5t7 29.5
t7.5 9q7 2 9 -3t0 -16.5t-2 -12.5l-12 -49q8 -13 17 -36q17 -49 23 -137zM64 417q-7 -87 -2.5 -180t21.5 -147q5 -18 16 -38l55 301l25 140l31 160q-16 17 -43 17q-51 -8 -71 -71q-7 -21 -16 -58t-16 -124zM248 173q9 85 9 146q0 93 -6.5 177.5t-20.5 118.5l-7 17l-29 -152
q-10 -49 -27.5 -151t-24.5 -141l-21 -109l-9 -47q20 -23 46 -23q20 0 38.5 16t32 56.5t19.5 91.5z" />
    <glyph glyph-name="Ugrave" unicode="&#xd9;" horiz-adv-x="296" 
d="M82 803q1 0 4 -1t26 -24l11 -11t42 -36q16 -16 10 -21q-1 -1 -4.5 0t-9 5t-12 9t-7.5 6q-6 5 -24.5 21.5t-29.5 24.5q-1 1 -8 6t-7 11q0 4 2.5 7t6.5 3zM60 682q5 -1 7.5 -4.5t1 -13.5t-1.5 -11q-1 -23 -1.5 -59t0 -98.5t0.5 -81.5v-14.5t1 -146t4 -169.5q6 -51 40 -68
q22 -11 51 -7q63 6 68 141q1 30 0.5 231.5t-1.5 217.5q-2 53 -1.5 60.5t2.5 12t5 5.5q5 1 7.5 -3t2 -16t-0.5 -13l3 -429q0 -125 -16 -164t-41 -51q-16 -9 -41 -9q-16 0 -32.5 4.5t-25.5 12.5q-36 26 -39 97q-2 51 -3 325v222q0 22 2 26t9 3z" />
    <glyph glyph-name="Uacute" unicode="&#xda;" horiz-adv-x="296" 
d="M214 803q4 0 6.5 -3t2.5 -7q0 -2 -1.5 -5t-13.5 -12q-11 -8 -29.5 -24.5t-24.5 -21.5q-18 -15 -24.5 -18.5t-8.5 -1.5q-6 5 10 21q5 4 21.5 17.5t31.5 29.5q20 20 23.5 22.5t6.5 2.5zM60 682q5 -1 7.5 -4.5t1 -13.5t-1.5 -11q-1 -23 -1.5 -59t0 -98.5t0.5 -81.5v-14.5
t1 -146t4 -169.5q6 -51 40 -68q22 -11 51 -7q63 6 68 141q1 30 0.5 231.5t-1.5 217.5q-2 53 -1.5 60.5t2.5 12t5 5.5q5 1 7.5 -3t2 -16t-0.5 -13l3 -429q0 -125 -16 -164t-41 -51q-16 -9 -41 -9q-16 0 -32.5 4.5t-25.5 12.5q-36 26 -39 97q-2 51 -3 325v222q0 22 2 26t9 3z
" />
    <glyph glyph-name="Ucircumflex" unicode="&#xdb;" horiz-adv-x="296" 
d="M145 793q5 0 30 -20l55 -46q15 -13 6 -19q-5 -4 -29 17q-39 34 -47 40t-14 9q-14 -7 -36 -26l-36 -33q-12 -12 -19 -6q-3 3 -1 8t20 20q25 24 47 40q21 16 24 16zM60 682q5 -1 7.5 -4.5t1 -13.5t-1.5 -11q-1 -23 -1.5 -59t0 -98.5t0.5 -81.5v-14.5t1 -146t4 -169.5
q6 -51 40 -68q22 -11 51 -7q63 6 68 141q1 30 0.5 231.5t-1.5 217.5q-2 53 -1.5 60.5t2.5 12t5 5.5q5 1 7.5 -3t2 -16t-0.5 -13l3 -429q0 -125 -16 -164t-41 -51q-16 -9 -41 -9q-16 0 -32.5 4.5t-25.5 12.5q-36 26 -39 97q-2 51 -3 325v222q0 22 2 26t9 3z" />
    <glyph glyph-name="Udieresis" unicode="&#xdc;" horiz-adv-x="296" 
d="M121 731q0 -9 -6.5 -14t-15.5 -5q-8 0 -13 5.5t-5 14.5t7 14.5t15 5.5t13 -6.5t5 -14.5zM190 752q9 0 15.5 -6t6.5 -15q0 -8 -5.5 -13.5t-14.5 -5.5t-14 6.5t-5 14.5q0 6 5.5 12.5t11.5 6.5zM60 682q5 -1 7.5 -4.5t1 -13.5t-1.5 -11q-1 -23 -1.5 -59t0 -98.5t0.5 -81.5
v-14.5t1 -146t4 -169.5q6 -51 40 -68q22 -11 51 -7q63 6 68 141q1 30 0.5 231.5t-1.5 217.5q-2 53 -1.5 60.5t2.5 12t5 5.5q5 1 7.5 -3t2 -16t-0.5 -13l3 -429q0 -125 -16 -164t-41 -51q-16 -9 -41 -9q-16 0 -32.5 4.5t-25.5 12.5q-36 26 -39 97q-2 51 -3 325v222q0 22 2 26
t9 3z" />
    <glyph glyph-name="Yacute" unicode="&#xdd;" horiz-adv-x="263" 
d="M201 783q4 0 6.5 -3t2.5 -7q0 -2 -1.5 -5t-13.5 -12q-11 -8 -29.5 -24.5t-24.5 -21.5q-18 -15 -24.5 -18.5t-8.5 -1.5q-6 5 10 21q5 4 21.5 17.5t31.5 29.5q20 20 23.5 22.5t6.5 2.5zM254 683q9 -2 1 -21q-9 -23 -30 -96.5t-26 -89.5q-31 -99 -58 -175v-84v-8.5t-1 -74.5
t0 -109q0 -13 -1 -19.5t-7 -7.5q-5 0 -7.5 7t-1.5 24.5t1 19.5q-1 37 -0.5 107.5t0.5 84.5v56l-52 169q-7 28 -25 87.5t-32 99.5q-7 20 -6.5 23.5t1.5 4.5q6 4 12 1t11 -22.5t6 -23.5l39 -131q21 -77 55 -176q29 85 42 130q1 3 4.5 14t29.5 98t30 97q6 17 15 15z" />
    <glyph glyph-name="Thorn" unicode="&#xde;" horiz-adv-x="215" 
d="M178 462q14 -29 19.5 -68t1.5 -79q-5 -43 -21.5 -72t-43 -43t-66.5 -14l-2 -149l1 -28q0 -5 -4.5 -8t-8.5 -2q-3 1 -4.5 6t-1 18.5t0.5 15.5l3 296q1 31 -1 90t-2 80v136q0 5 -1 19t1 19.5t9 5.5q3 0 4.5 -3.5t2.5 -9t1.5 -13.5t0.5 -9q0 -98 1 -112q45 0 76 -31
q23 -23 34 -45zM154 240q17 23 24 65t3 77t-12 56q-6 15 -17 32t-21 26t-31 16.5t-32 6.5q0 -23 1 -120t-2 -194q60 0 87 35z" />
    <glyph glyph-name="germandbls" unicode="&#xdf;" horiz-adv-x="248" 
d="M136 743q39 0 56.5 -42t17.5 -105q0 -50 -31.5 -101t-36 -70t-4.5 -32q0 -17 5.5 -42t36.5 -93q30 -65 41.5 -103t12.5 -63.5t0 -35.5q-2 -27 -19 -45t-44 -18q-17 0 -35 9t-26 26q-4 8 -4.5 15.5t4.5 8.5q2 1 4.5 -0.5t10.5 -15.5q6 -11 19 -18.5t26 -7.5
q20 0 32.5 13.5t14.5 38.5q3 29 -7 71t-49 127q-25 54 -32 81t-7 53q0 15 4.5 36t28.5 59.5t30.5 60t6.5 43.5q0 46 -7.5 75t-21 43.5t-30.5 14.5t-31 -9.5t-23 -35t-11 -122.5l-2 -246l1 -280q0 -1 0.5 -10t-1 -16t-7.5 -8q-2 0 -4 1.5t-3.5 5.5t-1.5 10v13v8v308
q0 231 3 277q3 41 10 66t24.5 40t48.5 15z" />
    <glyph glyph-name="agrave" unicode="&#xe0;" horiz-adv-x="218" 
d="M46 678q3 5 9 3t13 -10l61 -93q22 -30 14 -36q-6 -5 -19 15l-66 95q-1 2 -5.5 8t-6 10.5t-0.5 7.5zM106 472q21 1 36 -9t23 -25q17 -33 13 -106q-5 -97 -5 -160l1 -161q0 -13 -8 -13q-4 0 -6.5 3.5t-2.5 27.5q-1 52 1 143l-3 -9t-22 -61t-37 -82t-32 -27q-9 0 -16.5 6.5
t-11.5 15.5q-9 20 -13 57.5t0.5 84t11.5 70.5q28 96 126 78q3 48 1 76.5t-11.5 48.5t-31.5 25q-20 5 -34.5 -7.5t-14.5 -34.5q0 -1 1 -10t-0.5 -13.5t-5.5 -4.5q-5 -1 -8.5 9.5t-2.5 26.5q1 10 6.5 21.5t18 20t27.5 9.5zM161 288q-59 10 -87 -18q-13 -15 -23 -50t-12.5 -85
t2.5 -80q1 -5 5 -19t9.5 -19.5t9.5 -5.5q6 0 22.5 31.5t41 94.5t27.5 75q5 22 5 76z" />
    <glyph glyph-name="aacute" unicode="&#xe1;" horiz-adv-x="218" 
d="M180 679q2 -2 2 -5.5t0.5 -3t-11.5 -18.5l-66 -95q-8 -10 -11.5 -14t-7.5 -1q-2 2 -1.5 5.5t3 8.5t7.5 13t6 9l42 64l19 28q4 7 9 10t9 -1zM106 472q21 1 36 -9t23 -25q17 -33 13 -106q-5 -97 -5 -160l1 -161q0 -13 -8 -13q-4 0 -6.5 3.5t-2.5 27.5q-1 52 1 143l-3 -9
t-22 -61t-37 -82t-32 -27q-9 0 -16.5 6.5t-11.5 15.5q-9 20 -13 57.5t0.5 84t11.5 70.5q28 96 126 78q3 48 1 76.5t-11.5 48.5t-31.5 25q-20 5 -34.5 -7.5t-14.5 -34.5q0 -1 1 -10t-0.5 -13.5t-5.5 -4.5q-5 -1 -8.5 9.5t-2.5 26.5q1 10 6.5 21.5t18 20t27.5 9.5zM161 288
q-59 10 -87 -18q-13 -15 -23 -50t-12.5 -85t2.5 -80q1 -5 5 -19t9.5 -19.5t9.5 -5.5q6 0 22.5 31.5t41 94.5t27.5 75q5 22 5 76z" />
    <glyph glyph-name="acircumflex" unicode="&#xe2;" horiz-adv-x="218" 
d="M111 654q4 0 9 -6t9.5 -13t4.5 -8q7 -11 27 -47t25 -43q4 -6 6 -13t-2 -10q-3 -2 -6.5 -1t-7 8t-4.5 8l-38 66l-25 39q-2 -3 -9.5 -14.5t-24.5 -43.5t-18 -34t-5 -10.5t-8 -13.5t-8 -4q-5 1 -4.5 8.5t4.5 15.5l49 88q16 28 26 28zM106 472q21 1 36 -9t23 -25
q17 -33 13 -106q-5 -97 -5 -160l1 -161q0 -13 -8 -13q-4 0 -6.5 3.5t-2.5 27.5q-1 52 1 143l-3 -9t-22 -61t-37 -82t-32 -27q-9 0 -16.5 6.5t-11.5 15.5q-9 20 -13 57.5t0.5 84t11.5 70.5q28 96 126 78q3 48 1 76.5t-11.5 48.5t-31.5 25q-20 5 -34.5 -7.5t-14.5 -34.5
q0 -1 1 -10t-0.5 -13.5t-5.5 -4.5q-5 -1 -8.5 9.5t-2.5 26.5q1 10 6.5 21.5t18 20t27.5 9.5zM161 288q-59 10 -87 -18q-13 -15 -23 -50t-12.5 -85t2.5 -80q1 -5 5 -19t9.5 -19.5t9.5 -5.5q6 0 22.5 31.5t41 94.5t27.5 75q5 22 5 76z" />
    <glyph glyph-name="atilde" unicode="&#xe3;" horiz-adv-x="218" 
d="M79 653q10 0 19.5 -14t25 -52t24.5 -37q8 1 14.5 29t6.5 69q0 3 2.5 5.5t5.5 2.5q8 0 7 -13q-2 -59 -9 -79.5t-15 -25.5t-14 -5q-11 0 -20.5 15t-24.5 51.5t-22 36.5q-9 0 -14.5 -29.5t-6.5 -59.5q0 -2 -2 -6.5t-7 -4.5q-8 0 -7 12q0 2 1.5 18t3 29t5.5 27.5t11 22.5
t16 8zM106 472q21 1 36 -9t23 -25q17 -33 13 -106q-5 -97 -5 -160l1 -161q0 -13 -8 -13q-4 0 -6.5 3.5t-2.5 27.5q-1 52 1 143l-3 -9t-22 -61t-37 -82t-32 -27q-9 0 -16.5 6.5t-11.5 15.5q-9 20 -13 57.5t0.5 84t11.5 70.5q28 96 126 78q3 48 1 76.5t-11.5 48.5t-31.5 25
q-20 5 -34.5 -7.5t-14.5 -34.5q0 -1 1 -10t-0.5 -13.5t-5.5 -4.5q-5 -1 -8.5 9.5t-2.5 26.5q1 10 6.5 21.5t18 20t27.5 9.5zM161 288q-59 10 -87 -18q-13 -15 -23 -50t-12.5 -85t2.5 -80q1 -5 5 -19t9.5 -19.5t9.5 -5.5q6 0 22.5 31.5t41 94.5t27.5 75q5 22 5 76z" />
    <glyph glyph-name="adieresis" unicode="&#xe4;" horiz-adv-x="218" 
d="M86 568q0 -9 -6.5 -14t-15.5 -5q-8 0 -13 5.5t-5 14.5t7 14.5t15 5.5t13 -6.5t5 -14.5zM155 589q9 0 15.5 -6t6.5 -15q0 -8 -5.5 -13.5t-14.5 -5.5t-14 6.5t-5 14.5q0 6 5.5 12.5t11.5 6.5zM106 472q21 1 36 -9t23 -25q17 -33 13 -106q-5 -97 -5 -160l1 -161
q0 -13 -8 -13q-4 0 -6.5 3.5t-2.5 27.5q-1 52 1 143l-3 -9t-22 -61t-37 -82t-32 -27q-9 0 -16.5 6.5t-11.5 15.5q-9 20 -13 57.5t0.5 84t11.5 70.5q28 96 126 78q3 48 1 76.5t-11.5 48.5t-31.5 25q-20 5 -34.5 -7.5t-14.5 -34.5q0 -1 1 -10t-0.5 -13.5t-5.5 -4.5
q-5 -1 -8.5 9.5t-2.5 26.5q1 10 6.5 21.5t18 20t27.5 9.5zM161 288q-59 10 -87 -18q-13 -15 -23 -50t-12.5 -85t2.5 -80q1 -5 5 -19t9.5 -19.5t9.5 -5.5q6 0 22.5 31.5t41 94.5t27.5 75q5 22 5 76z" />
    <glyph glyph-name="aring" unicode="&#xe5;" horiz-adv-x="218" 
d="M115 687q34 0 39 -62q1 -22 -1.5 -44.5t-9.5 -33.5q-4 -8 -12.5 -14t-19.5 -6t-20 7t-13 16q-9 19 -8.5 52.5t7.5 52.5q11 32 38 32zM103 669q-14 -10 -17 -53.5t7 -60.5q7 -12 17.5 -12.5t17.5 9.5q11 15 11 57q0 17 -3.5 34t-8.5 23t-12.5 6t-11.5 -3zM106 472
q21 1 36 -9t23 -25q17 -33 13 -106q-5 -97 -5 -160l1 -161q0 -13 -8 -13q-4 0 -6.5 3.5t-2.5 27.5q-1 52 1 143l-3 -9t-22 -61t-37 -82t-32 -27q-9 0 -16.5 6.5t-11.5 15.5q-9 20 -13 57.5t0.5 84t11.5 70.5q28 96 126 78q3 48 1 76.5t-11.5 48.5t-31.5 25q-20 5 -34.5 -7.5
t-14.5 -34.5q0 -1 1 -10t-0.5 -13.5t-5.5 -4.5q-5 -1 -8.5 9.5t-2.5 26.5q1 10 6.5 21.5t18 20t27.5 9.5zM161 288q-59 10 -87 -18q-13 -15 -23 -50t-12.5 -85t2.5 -80q1 -5 5 -19t9.5 -19.5t9.5 -5.5q6 0 22.5 31.5t41 94.5t27.5 75q5 22 5 76z" />
    <glyph glyph-name="ae" unicode="&#xe6;" horiz-adv-x="338" 
d="M116 470q16 0 31 -10.5t21 -24.5q12 -29 10 -110q7 35 18 66.5t22 49.5q8 13 21 21t24 8q27 0 40.5 -36t13.5 -140q0 -32 -4 -36q-3 -3 -67 -3l-61 2q-6 -73 4 -140q3 -28 13.5 -55t22.5 -38.5t22 -11.5q11 0 23 11.5t16 27.5q1 5 2.5 21.5t3.5 21.5t7 6t8 -4.5t-3 -42.5
q-4 -27 -20.5 -42t-36.5 -15q-15 0 -31 12.5t-28 42t-17 65.5q-4 32 -4 72q-3 -10 -12 -41t-16.5 -52.5t-16.5 -41.5q-15 -33 -26 -45.5t-30 -12.5q-17 0 -26.5 17.5t-12.5 65.5q-1 38 4.5 77t19.5 66q12 24 36.5 37.5t77.5 13.5q0 116 -7 140q-4 16 -14.5 28.5t-27.5 12.5
q-20 0 -32.5 -12.5t-11.5 -34.5q0 -3 3 -14t1 -15.5t-7 -5.5q-4 0 -8 3.5t-6 25.5q-2 33 17 51.5t44 18.5zM262 453q-20 0 -36 -30.5t-27 -76t-13 -73.5q90 -1 113 0q2 69 -7 124.5t-30 55.5zM165 256q-62 0 -85 -24q-20 -20 -29.5 -73t-4.5 -103q5 -42 19 -43q6 0 12 2.5
t10.5 9t12.5 23.5q15 33 33.5 86.5t26.5 84.5q6 21 5 37z" />
    <glyph glyph-name="ccedilla" unicode="&#xe7;" horiz-adv-x="186" 
d="M157 119q15 3 12 -35q-3 -46 -21 -70q-11 -14 -28 -19q-19 -38 -19 -46q30 -49 37.5 -67.5t7.5 -35.5q0 -24 -14 -38.5t-32 -14.5t-32 12q-11 10 -17 27q-3 9 -4 21t3 17t10 3t5 -11t-1 -11q2 -13 8.5 -24.5t18.5 -14.5q21 -4 31 10.5t6 37.5q-3 21 -44 83q-3 5 0 13.5
t8.5 20.5t7.5 16q-61 8 -70 143q-4 62 -1.5 108.5t9.5 97.5q4 31 14.5 63t25.5 49t32 18q28 2 43.5 -24t13.5 -66q-1 -10 -4 -17t-8 -7q-4 0 -6 3t-0.5 11t1.5 10q2 34 -8 53t-24 21q-24 2 -42 -38.5t-24 -98.5q-10 -85 -5 -174q7 -134 60 -134q9 0 21 9.5t20 33t4 50.5
q-2 13 5 15z" />
    <glyph glyph-name="egrave" unicode="&#xe8;" horiz-adv-x="210" 
d="M58 678q3 5 9 3t13 -10l61 -93q22 -30 14 -36q-6 -5 -19 15l-66 95q-1 2 -5.5 8t-6 10.5t-0.5 7.5zM160 447q8 -15 16 -55.5t9 -100.5q1 -17 0.5 -28t-6.5 -14q-5 -3 -37 -3q-75 0 -96 -2q-3 -66 4.5 -120.5t23.5 -83.5t38 -29q10 0 21.5 9.5t18.5 29.5t7 36q0 3 -1 12.5
t6 10.5q6 1 9.5 -8.5t1.5 -26.5q-3 -23 -12.5 -43t-24 -28.5t-27.5 -8.5q-64 0 -78 133q-13 131 19 245q14 47 31 73q8 12 19.5 19t22.5 7q10 0 19.5 -6.5t15.5 -17.5zM140 445q-7 8 -16 8q-5 0 -14 -5t-18 -21q-15 -27 -25.5 -64.5t-18.5 -100.5q17 1 57.5 1t61.5 2
q2 42 -4.5 102t-22.5 78z" />
    <glyph glyph-name="eacute" unicode="&#xe9;" horiz-adv-x="210" 
d="M192 679q2 -2 2 -5.5t0.5 -3t-11.5 -18.5l-66 -95q-8 -10 -11.5 -14t-7.5 -1q-2 2 -1.5 5.5t3 8.5t7.5 13t6 9l42 64l19 28q4 7 9 10t9 -1zM160 447q8 -15 16 -55.5t9 -100.5q1 -17 0.5 -28t-6.5 -14q-5 -3 -37 -3q-75 0 -96 -2q-3 -66 4.5 -120.5t23.5 -83.5t38 -29
q10 0 21.5 9.5t18.5 29.5t7 36q0 3 -1 12.5t6 10.5q6 1 9.5 -8.5t1.5 -26.5q-3 -23 -12.5 -43t-24 -28.5t-27.5 -8.5q-64 0 -78 133q-13 131 19 245q14 47 31 73q8 12 19.5 19t22.5 7q10 0 19.5 -6.5t15.5 -17.5zM140 445q-7 8 -16 8q-5 0 -14 -5t-18 -21
q-15 -27 -25.5 -64.5t-18.5 -100.5q17 1 57.5 1t61.5 2q2 42 -4.5 102t-22.5 78z" />
    <glyph glyph-name="ecircumflex" unicode="&#xea;" horiz-adv-x="210" 
d="M123 654q4 0 9 -6t9.5 -13t4.5 -8q7 -11 27 -47t25 -43q4 -6 6 -13t-2 -10q-3 -2 -6.5 -1t-7 8t-4.5 8l-38 66l-25 39q-2 -3 -9.5 -14.5t-24.5 -43.5t-18 -34t-5 -10.5t-8 -13.5t-8 -4q-5 1 -4.5 8.5t4.5 15.5l49 88q16 28 26 28zM160 447q8 -15 16 -55.5t9 -100.5
q1 -17 0.5 -28t-6.5 -14q-5 -3 -37 -3q-75 0 -96 -2q-3 -66 4.5 -120.5t23.5 -83.5t38 -29q10 0 21.5 9.5t18.5 29.5t7 36q0 3 -1 12.5t6 10.5q6 1 9.5 -8.5t1.5 -26.5q-3 -23 -12.5 -43t-24 -28.5t-27.5 -8.5q-64 0 -78 133q-13 131 19 245q14 47 31 73q8 12 19.5 19
t22.5 7q10 0 19.5 -6.5t15.5 -17.5zM140 445q-7 8 -16 8q-5 0 -14 -5t-18 -21q-15 -27 -25.5 -64.5t-18.5 -100.5q17 1 57.5 1t61.5 2q2 42 -4.5 102t-22.5 78z" />
    <glyph glyph-name="edieresis" unicode="&#xeb;" horiz-adv-x="210" 
d="M98 568q0 -9 -6.5 -14t-15.5 -5q-8 0 -13 5.5t-5 14.5t7 14.5t15 5.5t13 -6.5t5 -14.5zM167 589q9 0 15.5 -6t6.5 -15q0 -8 -5.5 -13.5t-14.5 -5.5t-14 6.5t-5 14.5q0 6 5.5 12.5t11.5 6.5zM160 447q8 -15 16 -55.5t9 -100.5q1 -17 0.5 -28t-6.5 -14q-5 -3 -37 -3
q-75 0 -96 -2q-3 -66 4.5 -120.5t23.5 -83.5t38 -29q10 0 21.5 9.5t18.5 29.5t7 36q0 3 -1 12.5t6 10.5q6 1 9.5 -8.5t1.5 -26.5q-3 -23 -12.5 -43t-24 -28.5t-27.5 -8.5q-64 0 -78 133q-13 131 19 245q14 47 31 73q8 12 19.5 19t22.5 7q10 0 19.5 -6.5t15.5 -17.5zM140 445
q-7 8 -16 8q-5 0 -14 -5t-18 -21q-15 -27 -25.5 -64.5t-18.5 -100.5q17 1 57.5 1t61.5 2q2 42 -4.5 102t-22.5 78z" />
    <glyph glyph-name="igrave" unicode="&#xec;" horiz-adv-x="121" 
d="M-6 678q3 5 9 3t13 -10l61 -93q22 -30 14 -36q-6 -5 -19 15l-66 95q-1 2 -5.5 8t-6 10.5t-0.5 7.5zM57 465q10 3 12 -23l-1 -110q0 -211 2 -317q0 -20 -10 -18q-2 0 -4 2.5t-3 8t-1 13v16v9.5v279v110v2t-1 9.5t1 13t5 5.5z" />
    <glyph glyph-name="iacute" unicode="&#xed;" horiz-adv-x="121" 
d="M128 679q2 -2 2 -5.5t0.5 -3t-11.5 -18.5l-66 -95q-8 -10 -11.5 -14t-7.5 -1q-2 2 -1.5 5.5t3 8.5t7.5 13t6 9l42 64l19 28q4 7 9 10t9 -1zM57 465q10 3 12 -23l-1 -110q0 -211 2 -317q0 -20 -10 -18q-2 0 -4 2.5t-3 8t-1 13v16v9.5v279v110v2t-1 9.5t1 13t5 5.5z" />
    <glyph glyph-name="icircumflex" unicode="&#xee;" horiz-adv-x="121" 
d="M59 654q4 0 9 -6t9.5 -13t4.5 -8q7 -11 27 -47t25 -43q4 -6 6 -13t-2 -10q-3 -2 -6.5 -1t-7 8t-4.5 8l-38 66l-25 39q-2 -3 -9.5 -14.5t-24.5 -43.5t-18 -34t-5 -10.5t-8 -13.5t-8 -4q-5 1 -4.5 8.5t4.5 15.5l49 88q16 28 26 28zM57 465q10 3 12 -23l-1 -110
q0 -211 2 -317q0 -20 -10 -18q-2 0 -4 2.5t-3 8t-1 13v16v9.5v279v110v2t-1 9.5t1 13t5 5.5z" />
    <glyph glyph-name="idieresis" unicode="&#xef;" horiz-adv-x="121" 
d="M34 568q0 -9 -6.5 -14t-15.5 -5q-8 0 -13 5.5t-5 14.5t7 14.5t15 5.5t13 -6.5t5 -14.5zM103 589q9 0 15.5 -6t6.5 -15q0 -8 -5.5 -13.5t-14.5 -5.5t-14 6.5t-5 14.5q0 6 5.5 12.5t11.5 6.5zM57 465q10 3 12 -23l-1 -110q0 -211 2 -317q0 -20 -10 -18q-2 0 -4 2.5t-3 8
t-1 13v16v9.5v279v110v2t-1 9.5t1 13t5 5.5z" />
    <glyph glyph-name="eth" unicode="&#xf0;" horiz-adv-x="239" 
d="M205 258q0 -84 -2 -111q-4 -63 -25 -106t-58 -46q-21 -2 -36 7t-25 25q-23 37 -27 125t5 157q14 98 39 133.5t63 25.5q6 -2 15.5 -10t18.5 -22q-18 99 -66 192l-39 -24q-26 -16 -30 -16.5t-5 1.5q-6 10 15 21l51 32q-19 35 -39 61q-1 1 -7.5 9.5t-8.5 14t5 6.5
q4 1 8.5 -2.5t8.5 -9t5 -6.5q23 -30 42 -65l47 30q19 13 24.5 15.5t8 -1t3.5 -5.5q1 -4 -8 -9.5t-12 -7.5l-55 -36q30 -58 44.5 -104t22.5 -94q16 -93 17 -180zM188 241q0 212 -66 212q-26 0 -43 -38t-26 -114q-8 -70 -5 -143q4 -85 28 -125q10 -16 27 -21t31 4q28 18 41 64
t13 161z" />
    <glyph glyph-name="ntilde" unicode="&#xf1;" horiz-adv-x="256" 
d="M91 653q10 0 19.5 -14t25 -52t24.5 -37q8 1 14.5 29t6.5 69q0 3 2.5 5.5t5.5 2.5q8 0 7 -13q-2 -59 -9 -79.5t-15 -25.5t-14 -5q-11 0 -20.5 15t-24.5 51.5t-22 36.5q-9 0 -14.5 -29.5t-6.5 -59.5q0 -2 -2 -6.5t-7 -4.5q-8 0 -7 12q0 2 1.5 18t3 29t5.5 27.5t11 22.5
t16 8zM181 473q15 0 22 -12t8 -26q1 -18 0.5 -172.5t-1.5 -221.5q0 -5 1 -18t-1.5 -19t-12.5 -5q-4 1 -5.5 6t0 22t1.5 22l1 315v44q0 20 -3 33.5t-14 13.5q-10 0 -28.5 -21.5t-42.5 -71.5t-36 -95q-6 -21 -6 -243q0 -17 -2.5 -21.5t-8.5 -4.5q-4 0 -6 7.5t-1.5 28t0.5 22.5
l1 166l1 220q0 23 8 23q4 0 7 -4t2.5 -16t-0.5 -13q0 -94 -2 -133q9 33 27 73t44 70.5t47 30.5z" />
    <glyph glyph-name="ograve" unicode="&#xf2;" horiz-adv-x="236" 
d="M55 678q3 5 9 3t13 -10l61 -93q22 -30 14 -36q-6 -5 -19 15l-66 95q-1 2 -5.5 8t-6 10.5t-0.5 7.5zM122 471q23 0 42 -21t28 -69q13 -66 13 -161q0 -101 -14.5 -147.5t-36.5 -65.5q-16 -13 -39 -13q-57 0 -75 90q-10 56 -10 121.5t6 110.5q8 71 30 113t56 42zM57 343
q-15 -116 -6 -220q13 -113 65 -113q26 0 44 32q24 38 28 134.5t-8 178.5q-14 100 -60 100q-24 0 -40.5 -35.5t-22.5 -76.5z" />
    <glyph glyph-name="oacute" unicode="&#xf3;" horiz-adv-x="236" 
d="M189 679q2 -2 2 -5.5t0.5 -3t-11.5 -18.5l-66 -95q-8 -10 -11.5 -14t-7.5 -1q-2 2 -1.5 5.5t3 8.5t7.5 13t6 9l42 64l19 28q4 7 9 10t9 -1zM122 471q23 0 42 -21t28 -69q13 -66 13 -161q0 -101 -14.5 -147.5t-36.5 -65.5q-16 -13 -39 -13q-57 0 -75 90q-10 56 -10 121.5
t6 110.5q8 71 30 113t56 42zM57 343q-15 -116 -6 -220q13 -113 65 -113q26 0 44 32q24 38 28 134.5t-8 178.5q-14 100 -60 100q-24 0 -40.5 -35.5t-22.5 -76.5z" />
    <glyph glyph-name="ocircumflex" unicode="&#xf4;" horiz-adv-x="236" 
d="M120 654q4 0 9 -6t9.5 -13t4.5 -8q7 -11 27 -47t25 -43q4 -6 6 -13t-2 -10q-3 -2 -6.5 -1t-7 8t-4.5 8l-38 66l-25 39q-2 -3 -9.5 -14.5t-24.5 -43.5t-18 -34t-5 -10.5t-8 -13.5t-8 -4q-5 1 -4.5 8.5t4.5 15.5l49 88q16 28 26 28zM122 471q23 0 42 -21t28 -69
q13 -66 13 -161q0 -101 -14.5 -147.5t-36.5 -65.5q-16 -13 -39 -13q-57 0 -75 90q-10 56 -10 121.5t6 110.5q8 71 30 113t56 42zM57 343q-15 -116 -6 -220q13 -113 65 -113q26 0 44 32q24 38 28 134.5t-8 178.5q-14 100 -60 100q-24 0 -40.5 -35.5t-22.5 -76.5z" />
    <glyph glyph-name="otilde" unicode="&#xf5;" horiz-adv-x="236" 
d="M88 653q10 0 19.5 -14t25 -52t24.5 -37q8 1 14.5 29t6.5 69q0 3 2.5 5.5t5.5 2.5q8 0 7 -13q-2 -59 -9 -79.5t-15 -25.5t-14 -5q-11 0 -20.5 15t-24.5 51.5t-22 36.5q-9 0 -14.5 -29.5t-6.5 -59.5q0 -2 -2 -6.5t-7 -4.5q-8 0 -7 12q0 2 1.5 18t3 29t5.5 27.5t11 22.5
t16 8zM122 471q23 0 42 -21t28 -69q13 -66 13 -161q0 -101 -14.5 -147.5t-36.5 -65.5q-16 -13 -39 -13q-57 0 -75 90q-10 56 -10 121.5t6 110.5q8 71 30 113t56 42zM57 343q-15 -116 -6 -220q13 -113 65 -113q26 0 44 32q24 38 28 134.5t-8 178.5q-14 100 -60 100
q-24 0 -40.5 -35.5t-22.5 -76.5z" />
    <glyph glyph-name="odieresis" unicode="&#xf6;" horiz-adv-x="236" 
d="M95 568q0 -9 -6.5 -14t-15.5 -5q-8 0 -13 5.5t-5 14.5t7 14.5t15 5.5t13 -6.5t5 -14.5zM164 589q9 0 15.5 -6t6.5 -15q0 -8 -5.5 -13.5t-14.5 -5.5t-14 6.5t-5 14.5q0 6 5.5 12.5t11.5 6.5zM122 471q23 0 42 -21t28 -69q13 -66 13 -161q0 -101 -14.5 -147.5t-36.5 -65.5
q-16 -13 -39 -13q-57 0 -75 90q-10 56 -10 121.5t6 110.5q8 71 30 113t56 42zM57 343q-15 -116 -6 -220q13 -113 65 -113q26 0 44 32q24 38 28 134.5t-8 178.5q-14 100 -60 100q-24 0 -40.5 -35.5t-22.5 -76.5z" />
    <glyph glyph-name="divide" unicode="&#xf7;" horiz-adv-x="323" 
d="M161 417q10 0 16.5 -7.5t6.5 -18.5q0 -9 -9 -16t-20 -5q-10 3 -14.5 12t-2.5 18q1 7 8.5 12t14.5 5zM138 271l126 -1q19 0 25 -1.5t6 -5.5q0 -5 -2.5 -7.5t-18.5 -2.5l-65 -1l-112 1q-1 0 -18 -0.5t-32.5 0t-16.5 3.5q-3 7 2.5 10.5t14.5 3.5zM151 146q6 3 14.5 1
t13.5 -7q6 -8 4.5 -18t-9.5 -17q-7 -6 -18.5 -3.5t-16.5 11.5q-5 10 -0.5 19.5t12.5 13.5z" />
    <glyph glyph-name="oslash" unicode="&#xf8;" horiz-adv-x="240" 
d="M194 381q13 -66 13 -161q0 -101 -14.5 -147.5t-36.5 -65.5q-16 -13 -39 -13q-21 0 -34 10l-11 -50q-1 -4 -5 -5q-4 0 -7 5.5t-1 13.5l10 48q-17 21 -27 68q-10 56 -10 121.5t6 110.5q8 71 30 113t56 42q16 0 31 -10q5 29 8.5 41.5t10.5 13.5q6 1 6.5 -5t-2.5 -21l-4 -20
l-5 -23q17 -23 25 -66zM53 123q6 -52 21 -82l77 401q-11 13 -29 13q-24 0 -40.5 -35.5t-22.5 -76.5q-15 -116 -6 -220zM162 42q24 38 28 134.5t-8 178.5q-6 47 -17 68l-78 -399q14 -14 31 -14q26 0 44 32z" />
    <glyph glyph-name="ugrave" unicode="&#xf9;" horiz-adv-x="259" 
d="M61 678q3 5 9 3t13 -10l61 -93q22 -30 14 -36q-6 -5 -19 15l-66 95q-1 2 -5.5 8t-6 10.5t-0.5 7.5zM204 466q2 0 4 -0.5t3.5 -3t1.5 -6v-9v-6.5l-1 -162l-1 -135v-113q0 -1 0.5 -10.5t-1.5 -15.5t-7 -6t-8 4t-2.5 20t0.5 21l4 158q-1 -4 -4 -12.5t-16 -53t-38 -92.5
q-9 -17 -24 -33.5t-31 -16.5q-8 0 -15.5 6t-13 23.5t-7.5 43.5t-2.5 59.5t-0.5 40.5v190l1 83q0 23 6 25q16 4 12 -41l-1 -141q0 -4 -0.5 -84t2.5 -127q4 -34 8.5 -45.5t12.5 -11.5q25 -2 64 98q14 37 27 82t16 73l3 161q0 3 -0.5 15t2 17t6.5 5z" />
    <glyph glyph-name="uacute" unicode="&#xfa;" horiz-adv-x="259" 
d="M195 679q2 -2 2 -5.5t0.5 -3t-11.5 -18.5l-66 -95q-8 -10 -11.5 -14t-7.5 -1q-2 2 -1.5 5.5t3 8.5t7.5 13t6 9l42 64l19 28q4 7 9 10t9 -1zM204 466q2 0 4 -0.5t3.5 -3t1.5 -6v-9v-6.5l-1 -162l-1 -135v-113q0 -1 0.5 -10.5t-1.5 -15.5t-7 -6t-8 4t-2.5 20t0.5 21l4 158
q-1 -4 -4 -12.5t-16 -53t-38 -92.5q-9 -17 -24 -33.5t-31 -16.5q-8 0 -15.5 6t-13 23.5t-7.5 43.5t-2.5 59.5t-0.5 40.5v190l1 83q0 23 6 25q16 4 12 -41l-1 -141q0 -4 -0.5 -84t2.5 -127q4 -34 8.5 -45.5t12.5 -11.5q25 -2 64 98q14 37 27 82t16 73l3 161q0 3 -0.5 15t2 17
t6.5 5z" />
    <glyph glyph-name="ucircumflex" unicode="&#xfb;" horiz-adv-x="259" 
d="M126 654q4 0 9 -6t9.5 -13t4.5 -8q7 -11 27 -47t25 -43q4 -6 6 -13t-2 -10q-3 -2 -6.5 -1t-7 8t-4.5 8l-38 66l-25 39q-2 -3 -9.5 -14.5t-24.5 -43.5t-18 -34t-5 -10.5t-8 -13.5t-8 -4q-5 1 -4.5 8.5t4.5 15.5l49 88q16 28 26 28zM204 466q2 0 4 -0.5t3.5 -3t1.5 -6v-9
v-6.5l-1 -162l-1 -135v-113q0 -1 0.5 -10.5t-1.5 -15.5t-7 -6t-8 4t-2.5 20t0.5 21l4 158q-1 -4 -4 -12.5t-16 -53t-38 -92.5q-9 -17 -24 -33.5t-31 -16.5q-8 0 -15.5 6t-13 23.5t-7.5 43.5t-2.5 59.5t-0.5 40.5v190l1 83q0 23 6 25q16 4 12 -41l-1 -141q0 -4 -0.5 -84
t2.5 -127q4 -34 8.5 -45.5t12.5 -11.5q25 -2 64 98q14 37 27 82t16 73l3 161q0 3 -0.5 15t2 17t6.5 5z" />
    <glyph glyph-name="udieresis" unicode="&#xfc;" horiz-adv-x="259" 
d="M101 568q0 -9 -6.5 -14t-15.5 -5q-8 0 -13 5.5t-5 14.5t7 14.5t15 5.5t13 -6.5t5 -14.5zM170 589q9 0 15.5 -6t6.5 -15q0 -8 -5.5 -13.5t-14.5 -5.5t-14 6.5t-5 14.5q0 6 5.5 12.5t11.5 6.5zM204 466q2 0 4 -0.5t3.5 -3t1.5 -6v-9v-6.5l-1 -162l-1 -135v-113
q0 -1 0.5 -10.5t-1.5 -15.5t-7 -6t-8 4t-2.5 20t0.5 21l4 158q-1 -4 -4 -12.5t-16 -53t-38 -92.5q-9 -17 -24 -33.5t-31 -16.5q-8 0 -15.5 6t-13 23.5t-7.5 43.5t-2.5 59.5t-0.5 40.5v190l1 83q0 23 6 25q16 4 12 -41l-1 -141q0 -4 -0.5 -84t2.5 -127q4 -34 8.5 -45.5
t12.5 -11.5q25 -2 64 98q14 37 27 82t16 73l3 161q0 3 -0.5 15t2 17t6.5 5z" />
    <glyph glyph-name="yacute" unicode="&#xfd;" horiz-adv-x="221" 
d="M176 679q2 -2 2 -5.5t0.5 -3t-11.5 -18.5l-66 -95q-8 -10 -11.5 -14t-7.5 -1q-2 2 -1.5 5.5t3 8.5t7.5 13t6 9l42 64l19 28q4 7 9 10t9 -1zM190 466h2.5t5 -1.5t3.5 -10.5t-2.5 -20t-2.5 -12q-5 -38 -17.5 -107.5t-18.5 -109.5l-36 -188l-40 -190q-10 -44 -16 -64
q-5 -18 -7.5 -20t-5.5 -2q-11 1 -5 22l9 36q28 111 40 192q-8 38 -20.5 122.5t-13.5 91.5q-24 155 -35 208q0 1 -3.5 13.5t-4 19t-0.5 11t2 7t6 2.5q5 -1 8.5 -6t5 -17.5t1.5 -14.5l17 -97q8 -45 24 -152t24 -153q8 36 21 114t20 110q0 1 1.5 7.5t10.5 61.5t17 111
q0 2 1.5 14t3.5 17t5 5z" />
    <glyph glyph-name="thorn" unicode="&#xfe;" horiz-adv-x="254" 
d="M59 740q4 0 6.5 -3t3 -14.5t0.5 -12.5l1 -94q1 -37 -3 -158l-1 -226q5 30 22.5 92t25.5 81q20 49 32 57.5t21 8.5q44 0 54 -125q5 -61 1.5 -127.5t-12.5 -110.5q-25 -113 -96 -113q-21 0 -44 7l-3 -206q0 -3 0.5 -19.5t-1 -25t-7.5 -8.5t-9 7t-1.5 25.5t1.5 20.5
q3 67 1 205t-2 155l1 112v52t1.5 101.5t1.5 112.5l-1 177q0 3 -0.5 11.5t0.5 13t7 4.5zM165 454q-6 -1 -14 -11.5t-25 -55.5q-9 -24 -27.5 -91t-21.5 -85q-8 -37 -9 -48q-3 -27 -1 -75.5t2 -63.5q17 -12 43 -12q22 0 35 9q22 15 38 69.5t20 146.5q3 86 -8.5 152t-31.5 65z
" />
    <glyph glyph-name="ydieresis" unicode="&#xff;" horiz-adv-x="221" 
d="M82 568q0 -9 -6.5 -14t-15.5 -5q-8 0 -13 5.5t-5 14.5t7 14.5t15 5.5t13 -6.5t5 -14.5zM151 589q9 0 15.5 -6t6.5 -15q0 -8 -5.5 -13.5t-14.5 -5.5t-14 6.5t-5 14.5q0 6 5.5 12.5t11.5 6.5zM190 466h2.5t5 -1.5t3.5 -10.5t-2.5 -20t-2.5 -12q-5 -38 -17.5 -107.5
t-18.5 -109.5l-36 -188l-40 -190q-10 -44 -16 -64q-5 -18 -7.5 -20t-5.5 -2q-11 1 -5 22l9 36q28 111 40 192q-8 38 -20.5 122.5t-13.5 91.5q-24 155 -35 208q0 1 -3.5 13.5t-4 19t-0.5 11t2 7t6 2.5q5 -1 8.5 -6t5 -17.5t1.5 -14.5l17 -97q8 -45 24 -152t24 -153
q8 36 21 114t20 110q0 1 1.5 7.5t10.5 61.5t17 111q0 2 1.5 14t3.5 17t5 5z" />
    <glyph glyph-name="Amacron" unicode="&#x100;" horiz-adv-x="270" 
d="M82 721q-24 0 -24 9q0 5 8 7t23 1.5t16 -0.5l88 -1q12 0 17.5 -1.5t5.5 -7.5q0 -4 -6 -6.5t-21 -1.5t-17 1h-90zM256 23q0 -1 1 -6.5t0.5 -10.5t-5.5 -6q-4 -1 -8 2.5t-8 29.5l-45 248q-12 -2 -40.5 -4t-72.5 1q-4 -21 -13 -70.5t-12 -69.5q-9 -64 -20 -113
q-4 -20 -6.5 -23t-6.5 -3q-3 0 -5 1.5t-3 5.5t0 10t3 12t2 7l41 230l26 172q22 130 27 157.5t10 53.5q5 25 8 32t8 7q4 0 7.5 -3.5t5 -15t2.5 -13.5q11 -53 21 -124.5t12 -87.5q16 -116 28 -190q13 -84 28 -160zM80 295q20 -3 53 -2.5t56 4.5q-3 22 -21.5 151.5t-29.5 190.5
q-13 -47 -27 -140z" />
    <glyph glyph-name="amacron" unicode="&#x101;" horiz-adv-x="218" 
d="M80 563l88 -1q12 0 17.5 -1.5t5.5 -7.5q0 -4 -6 -6.5t-21 -1.5t-17 1h-90q-24 0 -24 9q0 5 8 7t23 1.5t16 -0.5zM106 472q21 1 36 -9t23 -25q17 -33 13 -106q-5 -97 -5 -160l1 -161q0 -13 -8 -13q-4 0 -6.5 3.5t-2.5 27.5q-1 52 1 143l-3 -9t-22 -61t-37 -82t-32 -27
q-9 0 -16.5 6.5t-11.5 15.5q-9 20 -13 57.5t0.5 84t11.5 70.5q28 96 126 78q3 48 1 76.5t-11.5 48.5t-31.5 25q-20 5 -34.5 -7.5t-14.5 -34.5q0 -1 1 -10t-0.5 -13.5t-5.5 -4.5q-5 -1 -8.5 9.5t-2.5 26.5q1 10 6.5 21.5t18 20t27.5 9.5zM161 288q-59 10 -87 -18
q-13 -15 -23 -50t-12.5 -85t2.5 -80q1 -5 5 -19t9.5 -19.5t9.5 -5.5q6 0 22.5 31.5t41 94.5t27.5 75q5 22 5 76z" />
    <glyph glyph-name="Abreve" unicode="&#x102;" horiz-adv-x="270" 
d="M94 724q-21 17 -31 51q-3 10 -1 16.5t8 6.5q4 0 6.5 -11t3.5 -14q7 -23 22.5 -35t33.5 -12q16 0 30 11t22 32q1 3 3.5 15t5 13.5t3.5 1.5q8 0 7.5 -13.5t-5.5 -24.5q-6 -16 -17 -28.5t-22 -17.5q-13 -5 -27 -5q-24 0 -42 14zM256 23q0 -1 1 -6.5t0.5 -10.5t-5.5 -6
q-4 -1 -8 2.5t-8 29.5l-45 248q-12 -2 -40.5 -4t-72.5 1q-4 -21 -13 -70.5t-12 -69.5q-9 -64 -20 -113q-4 -20 -6.5 -23t-6.5 -3q-3 0 -5 1.5t-3 5.5t0 10t3 12t2 7l41 230l26 172q22 130 27 157.5t10 53.5q5 25 8 32t8 7q4 0 7.5 -3.5t5 -15t2.5 -13.5q11 -53 21 -124.5
t12 -87.5q16 -116 28 -190q13 -84 28 -160zM80 295q20 -3 53 -2.5t56 4.5q-3 22 -21.5 151.5t-29.5 190.5q-13 -47 -27 -140z" />
    <glyph glyph-name="abreve" unicode="&#x103;" horiz-adv-x="218" 
d="M163 672q4 0 7 -5.5t3 -40.5q-1 -44 -18 -70.5t-46 -26.5q-26 0 -41 21t-19 46t-4 42q0 38 12 33q3 -1 4 -8t0.5 -16t-0.5 -12q0 -22 6.5 -45.5t18.5 -34t24 -10.5t23.5 9.5t18 32t6.5 50.5q0 3 -0.5 12.5t0.5 16t5 6.5zM106 472q21 1 36 -9t23 -25q17 -33 13 -106
q-5 -97 -5 -160l1 -161q0 -13 -8 -13q-4 0 -6.5 3.5t-2.5 27.5q-1 52 1 143l-3 -9t-22 -61t-37 -82t-32 -27q-9 0 -16.5 6.5t-11.5 15.5q-9 20 -13 57.5t0.5 84t11.5 70.5q28 96 126 78q3 48 1 76.5t-11.5 48.5t-31.5 25q-20 5 -34.5 -7.5t-14.5 -34.5q0 -1 1 -10
t-0.5 -13.5t-5.5 -4.5q-5 -1 -8.5 9.5t-2.5 26.5q1 10 6.5 21.5t18 20t27.5 9.5zM161 288q-59 10 -87 -18q-13 -15 -23 -50t-12.5 -85t2.5 -80q1 -5 5 -19t9.5 -19.5t9.5 -5.5q6 0 22.5 31.5t41 94.5t27.5 75q5 22 5 76z" />
    <glyph glyph-name="Aogonek" unicode="&#x104;" horiz-adv-x="270" 
d="M246 -116q5 2 9 -2.5t4.5 -17t-4.5 -24.5q-7 -18 -20.5 -26.5t-27.5 -8.5q-17 0 -31 12t-16 32q-2 14 2.5 35.5t37.5 68.5q3 5 11.5 16.5t18 23.5t10.5 13l1 1q-2 5 -5 25l-45 248q-12 -2 -40.5 -4t-72.5 1q-4 -21 -13 -70.5t-12 -69.5q-9 -64 -20 -113q-4 -20 -6.5 -23
t-6.5 -3q-3 0 -5 1.5t-3 5.5t0 10t3 12t2 7l41 230l26 172q22 130 27 157.5t10 53.5q5 25 8 32t8 7q4 0 7.5 -3.5t5 -15t2.5 -13.5q11 -53 21 -124.5t12 -87.5q16 -116 28 -190q13 -84 28 -160l15 -69q0 -2 1 -8.5t0 -10.5q0 -1 -4.5 -7.5t-23.5 -31.5t-20 -27
q-27 -40 -31 -67q-3 -16 2 -29t15 -17t20 -2t18 13t9 26q0 2 -1 11t5 11zM80 295q20 -3 53 -2.5t56 4.5q-3 22 -21.5 151.5t-29.5 190.5q-13 -47 -27 -140z" />
    <glyph glyph-name="aogonek" unicode="&#x105;" horiz-adv-x="218" 
d="M165 438q17 -33 13 -106q-5 -97 -5 -160l1 -161l-1 -8q-1 -1 -3 -5t-17 -24t-28 -39q-26 -38 -31 -67q-3 -16 2 -29t15 -17t20 -2t18 13t9 26q0 2 -1 11t5 11q5 2 9 -2.5t4.5 -17t-4.5 -24.5q-7 -18 -20.5 -26.5t-27.5 -8.5q-17 0 -31 12t-16 32q-3 21 5.5 45.5
t34.5 60.5q3 4 11.5 16t19 24.5t11.5 14.5q-1 3 -1 22q-1 52 1 143l-3 -9t-22 -61t-37 -82t-32 -27q-9 0 -16.5 6.5t-11.5 15.5q-9 20 -13 57.5t0.5 84t11.5 70.5q28 96 126 78q3 48 1 76.5t-11.5 48.5t-31.5 25q-20 5 -34.5 -7.5t-14.5 -34.5q0 -1 1 -10t-0.5 -13.5
t-5.5 -4.5q-5 -1 -8.5 9.5t-2.5 26.5q1 10 6.5 21.5t18 20t27.5 9.5q21 1 36 -9t23 -25zM156 212q5 22 5 76q-59 10 -87 -18q-13 -15 -23 -50t-12.5 -85t2.5 -80q1 -5 5 -19t9.5 -19.5t9.5 -5.5q6 0 22.5 31.5t41 94.5t27.5 75z" />
    <glyph glyph-name="Cacute" unicode="&#x106;" horiz-adv-x="214" 
d="M213 803q4 0 6.5 -3t2.5 -7q0 -2 -1.5 -5t-13.5 -12q-11 -8 -29.5 -24.5t-24.5 -21.5q-18 -15 -24.5 -18.5t-8.5 -1.5q-6 5 10 21q5 4 21.5 17.5t31.5 29.5q20 20 23.5 22.5t6.5 2.5zM145 688q47 0 55 -75q5 -39 -6 -38q-4 0 -7 6.5t-4.5 23t-1.5 19.5q-3 24 -12 36.5
t-26 11.5q-15 0 -31 -19t-28 -63q-20 -76 -27 -203t2 -219q3 -37 13 -79t26 -61q6 -9 18.5 -14.5t23.5 -2.5q31 9 43 72q0 2 1.5 12t3.5 14t4 5h4.5t4 -3t1.5 -8.5t-1 -13.5t-1 -9q-4 -29 -14.5 -50t-26 -29.5t-30.5 -8.5q-5 0 -19 4.5t-26 18.5q-22 28 -34.5 98t-12.5 179
q0 93 10 188t32 149q10 24 24.5 41.5t41.5 17.5z" />
    <glyph glyph-name="cacute" unicode="&#x107;" horiz-adv-x="186" 
d="M183 679q2 -2 2 -5.5t0.5 -3t-11.5 -18.5l-66 -95q-8 -10 -11.5 -14t-7.5 -1q-2 2 -1.5 5.5t3 8.5t7.5 13t6 9l42 64l19 28q4 7 9 10t9 -1zM110 472q28 2 43.5 -24t13.5 -66q-1 -10 -4 -17t-8 -7q-4 0 -6 3t-0.5 11t1.5 10q2 34 -8 53t-24 21q-24 2 -42 -38.5t-24 -98.5
q-10 -85 -5 -174q7 -134 60 -134q9 0 21 9.5t20 33t4 50.5q-2 13 5 15q15 3 12 -35q-3 -46 -21 -70q-7 -9 -18.5 -15t-23.5 -6q-32 0 -52 36.5t-24 106.5q-4 62 -1.5 108.5t9.5 97.5q4 31 14.5 63t25.5 49t32 18z" />
    <glyph glyph-name="Ccircumflex" unicode="&#x108;" horiz-adv-x="214" 
d="M144 773q5 0 30 -20l55 -46q15 -13 6 -19q-5 -4 -29 17q-39 34 -47 40t-14 9q-14 -7 -36 -26l-36 -33q-12 -12 -19 -6q-3 3 -1 8t20 20q25 24 47 40q21 16 24 16zM145 688q47 0 55 -75q5 -39 -6 -38q-4 0 -7 6.5t-4.5 23t-1.5 19.5q-3 24 -12 36.5t-26 11.5
q-15 0 -31 -19t-28 -63q-20 -76 -27 -203t2 -219q3 -37 13 -79t26 -61q6 -9 18.5 -14.5t23.5 -2.5q31 9 43 72q0 2 1.5 12t3.5 14t4 5h4.5t4 -3t1.5 -8.5t-1 -13.5t-1 -9q-4 -29 -14.5 -50t-26 -29.5t-30.5 -8.5q-5 0 -19 4.5t-26 18.5q-22 28 -34.5 98t-12.5 179
q0 93 10 188t32 149q10 24 24.5 41.5t41.5 17.5z" />
    <glyph glyph-name="ccircumflex" unicode="&#x109;" horiz-adv-x="186" 
d="M114 654q4 0 9 -6t9.5 -13t4.5 -8q7 -11 27 -47t25 -43q4 -6 6 -13t-2 -10q-3 -2 -6.5 -1t-7 8t-4.5 8l-38 66l-25 39q-2 -3 -9.5 -14.5t-24.5 -43.5t-18 -34t-5 -10.5t-8 -13.5t-8 -4q-5 1 -4.5 8.5t4.5 15.5l49 88q16 28 26 28zM110 472q28 2 43.5 -24t13.5 -66
q-1 -10 -4 -17t-8 -7q-4 0 -6 3t-0.5 11t1.5 10q2 34 -8 53t-24 21q-24 2 -42 -38.5t-24 -98.5q-10 -85 -5 -174q7 -134 60 -134q9 0 21 9.5t20 33t4 50.5q-2 13 5 15q15 3 12 -35q-3 -46 -21 -70q-7 -9 -18.5 -15t-23.5 -6q-32 0 -52 36.5t-24 106.5q-4 62 -1.5 108.5
t9.5 97.5q4 31 14.5 63t25.5 49t32 18z" />
    <glyph glyph-name="Cdotaccent" unicode="&#x10a;" horiz-adv-x="214" 
d="M124 740q0 10 6.5 16t13.5 6q8 0 14.5 -6.5t6.5 -16.5q0 -8 -7 -13.5t-16 -5.5q-8 0 -13 6.5t-5 13.5zM145 688q47 0 55 -75q5 -39 -6 -38q-4 0 -7 6.5t-4.5 23t-1.5 19.5q-3 24 -12 36.5t-26 11.5q-15 0 -31 -19t-28 -63q-20 -76 -27 -203t2 -219q3 -37 13 -79t26 -61
q6 -9 18.5 -14.5t23.5 -2.5q31 9 43 72q0 2 1.5 12t3.5 14t4 5h4.5t4 -3t1.5 -8.5t-1 -13.5t-1 -9q-4 -29 -14.5 -50t-26 -29.5t-30.5 -8.5q-5 0 -19 4.5t-26 18.5q-22 28 -34.5 98t-12.5 179q0 93 10 188t32 149q10 24 24.5 41.5t41.5 17.5z" />
    <glyph glyph-name="cdotaccent" unicode="&#x10b;" horiz-adv-x="186" 
d="M92 568q0 10 6.5 16t13.5 6q8 0 14.5 -6.5t6.5 -16.5q0 -8 -7 -13.5t-16 -5.5q-8 0 -13 6.5t-5 13.5zM110 472q28 2 43.5 -24t13.5 -66q-1 -10 -4 -17t-8 -7q-4 0 -6 3t-0.5 11t1.5 10q2 34 -8 53t-24 21q-24 2 -42 -38.5t-24 -98.5q-10 -85 -5 -174q7 -134 60 -134
q9 0 21 9.5t20 33t4 50.5q-2 13 5 15q15 3 12 -35q-3 -46 -21 -70q-7 -9 -18.5 -15t-23.5 -6q-32 0 -52 36.5t-24 106.5q-4 62 -1.5 108.5t9.5 97.5q4 31 14.5 63t25.5 49t32 18z" />
    <glyph glyph-name="Ccaron" unicode="&#x10c;" horiz-adv-x="214" 
d="M236 795q9 -6 -6 -19l-55 -46q-25 -20 -30 -20q-3 0 -26 17.5t-45 38.5q-2 1 -9 7.5t-10 12t0 8.5q1 1 5.5 2t13.5 -8l36 -33q22 -19 36 -26q6 3 14 9t47 40q24 21 29 17zM145 688q47 0 55 -75q5 -39 -6 -38q-4 0 -7 6.5t-4.5 23t-1.5 19.5q-3 24 -12 36.5t-26 11.5
q-15 0 -31 -19t-28 -63q-20 -76 -27 -203t2 -219q3 -37 13 -79t26 -61q6 -9 18.5 -14.5t23.5 -2.5q31 9 43 72q0 2 1.5 12t3.5 14t4 5h4.5t4 -3t1.5 -8.5t-1 -13.5t-1 -9q-4 -29 -14.5 -50t-26 -29.5t-30.5 -8.5q-5 0 -19 4.5t-26 18.5q-22 28 -34.5 98t-12.5 179
q0 93 10 188t32 149q10 24 24.5 41.5t41.5 17.5z" />
    <glyph glyph-name="ccaron" unicode="&#x10d;" horiz-adv-x="186" 
d="M185 672q5 -1 4.5 -8.5t-4.5 -15.5l-46 -87q-17 -29 -25 -29q-7 0 -24 26q-7 9 -29 47t-26 44t-6 13t2 10q3 2 6 1.5t12 -15.5l40 -68l26 -38q9 13 29 51.5t20 39.5q13 25 15.5 27.5t5.5 1.5zM110 472q28 2 43.5 -24t13.5 -66q-1 -10 -4 -17t-8 -7q-4 0 -6 3t-0.5 11
t1.5 10q2 34 -8 53t-24 21q-24 2 -42 -38.5t-24 -98.5q-10 -85 -5 -174q7 -134 60 -134q9 0 21 9.5t20 33t4 50.5q-2 13 5 15q15 3 12 -35q-3 -46 -21 -70q-7 -9 -18.5 -15t-23.5 -6q-32 0 -52 36.5t-24 106.5q-4 62 -1.5 108.5t9.5 97.5q4 31 14.5 63t25.5 49t32 18z" />
    <glyph glyph-name="Dcaron" unicode="&#x10e;" horiz-adv-x="283" 
d="M197 795q9 -6 -6 -19l-55 -46q-25 -20 -30 -20q-3 0 -26 17.5t-45 38.5q-2 1 -9 7.5t-10 12t0 8.5q1 1 5.5 2t13.5 -8l36 -33q22 -19 36 -26q6 3 14 9t47 40q24 21 29 17zM58 684q24 2 52 -9t44 -24q43 -35 67 -121t24 -189q1 -84 -5 -149t-24 -106.5t-43 -61.5
q-32 -26 -85 -26l-37 2q-1 0 -2 6t-0.5 19.5t0.5 15.5v152l1 167l-1 308q1 10 2 12.5t7 3.5zM65 665q2 -217 0 -650q66 -6 97 21q11 10 22.5 26t19.5 39.5t12.5 46.5t6.5 41t2.5 32t1.5 29.5t1 19.5q4 106 -10 196t-44 137q-18 29 -47 46.5t-62 15.5z" />
    <glyph glyph-name="dcaron" unicode="&#x10f;" horiz-adv-x="256" 
d="M208 739q4 -1 6 -9.5t1.5 -30.5t-0.5 -24l-6 -209l-2 -113v-123l-1 -209q0 -2 0.5 -8.5t-0.5 -10.5t-6 -4q-4 0 -7.5 3.5t-3.5 27.5q-1 53 0 134t1 109q-7 -36 -13.5 -64.5t-33.5 -120.5q-20 -72 -41 -88q-16 -11 -28.5 -4.5t-22 30t-16 75t-5.5 119.5q3 92 22 151.5
t50 83.5q16 12 41 14.5t49 -6.5q0 80 4 236q0 45 12 41zM278 733q2 1 6 0.5t5 -3.5t2 -7.5t-4 -24.5l-17 -74q-2 -8 -5.5 -15t-6.5 -6q-11 1 0 40l8 50l2 24q2 10 10 16zM191 440q-18 15 -46.5 10t-44.5 -23q-20 -22 -34.5 -73t-17.5 -125q-2 -48 2.5 -101.5t14 -85.5
t22.5 -30q18 2 45 98q39 135 54 225q6 45 5 105z" />
    <glyph glyph-name="Dcroat" unicode="&#x110;" horiz-adv-x="293" 
d="M255 341q1 -84 -5 -149t-24 -106.5t-43 -61.5q-32 -26 -85 -26l-37 2q-1 0 -2 6t-0.5 19.5t0.5 15.5v152l1 158q-31 -1 -40 -0.5t-9 5.5q0 3 2.5 6.5t19.5 4.5l27 1l-1 300q1 10 2 12.5t7 3.5q24 2 52 -9t44 -24q43 -35 67 -121t24 -189zM238 270q4 106 -10 196t-44 137
q-18 29 -47 46.5t-62 15.5l1 -298h3q6 1 13 1.5t56 0.5h12t13.5 -2.5t2.5 -6.5q0 -4 -6 -6.5t-20.5 -1.5t-16.5 1l-55 -2h-2l-1 -336q66 -6 97 21q11 10 22.5 26t19.5 39.5t12.5 46.5t6.5 41t2.5 32t1.5 29.5t1 19.5z" />
    <glyph glyph-name="dcroat" unicode="&#x111;" horiz-adv-x="256" 
d="M214 623q5 0 25.5 2t28 -1t7.5 -9q0 -5 -9 -9t-54 -2l-3 -138l-2 -113v-123l-1 -209q0 -2 0.5 -8.5t-0.5 -10.5t-6 -4q-4 0 -7.5 3.5t-3.5 27.5q-1 53 0 134t1 109q-7 -36 -13.5 -64.5t-33.5 -120.5q-20 -72 -41 -88q-16 -11 -28.5 -4.5t-22 30t-16 75t-5.5 119.5
q3 92 22 151.5t50 83.5q16 12 41 14.5t49 -6.5l2 143l-75 -2q-16 0 -20 2t-4 9q1 9 21 6q9 -1 78 2l2 76q0 45 12 41q4 -1 6 -9.5t1.5 -30.5t-0.5 -24l-2 -52h1zM186 335q6 45 5 105q-18 15 -46.5 10t-44.5 -23q-20 -22 -34.5 -73t-17.5 -125q-2 -48 2.5 -101.5t14 -85.5
t22.5 -30q18 2 45 98q39 135 54 225z" />
    <glyph glyph-name="Emacron" unicode="&#x112;" horiz-adv-x="216" 
d="M98 748l88 -1q12 0 17.5 -1.5t5.5 -7.5q0 -4 -6 -6.5t-21 -1.5t-17 1h-90q-24 0 -24 9q0 5 8 7t23 1.5t16 -0.5zM177 682q3 0 15 0.5t16.5 -1.5t4.5 -8q-1 -5 -3.5 -6t-17.5 -1q-104 0 -129 -4l2 -205q35 3 99 1q14 -1 16 -3.5t2 -4.5q0 -6 -10.5 -8t-48.5 -1
q-22 1 -57 -1q2 -51 1.5 -147.5t-0.5 -121.5q0 -13 -1.5 -68t-0.5 -88l118 1q21 0 26 -2t6 -6q2 -8 -17 -8l-89 -1q-55 -3 -58 2q-1 3 -1.5 56.5t0.5 95.5v9.5t1 104.5t-1 143l-3 222q0 3 -1 21t2 21q1 1 5 3t52 5h72z" />
    <glyph glyph-name="emacron" unicode="&#x113;" horiz-adv-x="210" 
d="M92 563l88 -1q12 0 17.5 -1.5t5.5 -7.5q0 -4 -6 -6.5t-21 -1.5t-17 1h-90q-24 0 -24 9q0 5 8 7t23 1.5t16 -0.5zM160 447q8 -15 16 -55.5t9 -100.5q1 -17 0.5 -28t-6.5 -14q-5 -3 -37 -3q-75 0 -96 -2q-3 -66 4.5 -120.5t23.5 -83.5t38 -29q10 0 21.5 9.5t18.5 29.5t7 36
q0 3 -1 12.5t6 10.5q6 1 9.5 -8.5t1.5 -26.5q-3 -23 -12.5 -43t-24 -28.5t-27.5 -8.5q-64 0 -78 133q-13 131 19 245q14 47 31 73q8 12 19.5 19t22.5 7q10 0 19.5 -6.5t15.5 -17.5zM140 445q-7 8 -16 8q-5 0 -14 -5t-18 -21q-15 -27 -25.5 -64.5t-18.5 -100.5q17 1 57.5 1
t61.5 2q2 42 -4.5 102t-22.5 78z" />
    <glyph glyph-name="Ebreve" unicode="&#x114;" horiz-adv-x="216" 
d="M193 799q8 0 7.5 -13.5t-5.5 -24.5q-6 -16 -17 -28.5t-22 -17.5q-13 -5 -27 -5q-24 0 -42 14q-21 17 -31 51q-3 10 -1 16.5t8 6.5q4 0 6.5 -11t3.5 -14q7 -23 22.5 -35t33.5 -12q16 0 30 11t22 32q1 3 3.5 15t5 13.5t3.5 1.5zM177 682q3 0 15 0.5t16.5 -1.5t4.5 -8
q-1 -5 -3.5 -6t-17.5 -1q-104 0 -129 -4l2 -205q35 3 99 1q14 -1 16 -3.5t2 -4.5q0 -6 -10.5 -8t-48.5 -1q-22 1 -57 -1q2 -51 1.5 -147.5t-0.5 -121.5q0 -13 -1.5 -68t-0.5 -88l118 1q21 0 26 -2t6 -6q2 -8 -17 -8l-89 -1q-55 -3 -58 2q-1 3 -1.5 56.5t0.5 95.5v9.5
t1 104.5t-1 143l-3 222q0 3 -1 21t2 21q1 1 5 3t52 5h72z" />
    <glyph glyph-name="ebreve" unicode="&#x115;" horiz-adv-x="210" 
d="M175 672q4 0 7 -5.5t3 -40.5q-1 -44 -18 -70.5t-46 -26.5q-26 0 -41 21t-19 46t-4 42q0 38 12 33q3 -1 4 -8t0.5 -16t-0.5 -12q0 -22 6.5 -45.5t18.5 -34t24 -10.5t23.5 9.5t18 32t6.5 50.5q0 3 -0.5 12.5t0.5 16t5 6.5zM160 447q8 -15 16 -55.5t9 -100.5q1 -17 0.5 -28
t-6.5 -14q-5 -3 -37 -3q-75 0 -96 -2q-3 -66 4.5 -120.5t23.5 -83.5t38 -29q10 0 21.5 9.5t18.5 29.5t7 36q0 3 -1 12.5t6 10.5q6 1 9.5 -8.5t1.5 -26.5q-3 -23 -12.5 -43t-24 -28.5t-27.5 -8.5q-64 0 -78 133q-13 131 19 245q14 47 31 73q8 12 19.5 19t22.5 7
q10 0 19.5 -6.5t15.5 -17.5zM140 445q-7 8 -16 8q-5 0 -14 -5t-18 -21q-15 -27 -25.5 -64.5t-18.5 -100.5q17 1 57.5 1t61.5 2q2 42 -4.5 102t-22.5 78z" />
    <glyph glyph-name="Edotaccent" unicode="&#x116;" horiz-adv-x="216" 
d="M107 746q0 10 6.5 16t13.5 6q8 0 14.5 -6.5t6.5 -16.5q0 -8 -7 -13.5t-16 -5.5q-8 0 -13 6.5t-5 13.5zM177 682q3 0 15 0.5t16.5 -1.5t4.5 -8q-1 -5 -3.5 -6t-17.5 -1q-104 0 -129 -4l2 -205q35 3 99 1q14 -1 16 -3.5t2 -4.5q0 -6 -10.5 -8t-48.5 -1q-22 1 -57 -1
q2 -51 1.5 -147.5t-0.5 -121.5q0 -13 -1.5 -68t-0.5 -88l118 1q21 0 26 -2t6 -6q2 -8 -17 -8l-89 -1q-55 -3 -58 2q-1 3 -1.5 56.5t0.5 95.5v9.5t1 104.5t-1 143l-3 222q0 3 -1 21t2 21q1 1 5 3t52 5h72z" />
    <glyph glyph-name="edotaccent" unicode="&#x117;" horiz-adv-x="210" 
d="M101 568q0 10 6.5 16t13.5 6q8 0 14.5 -6.5t6.5 -16.5q0 -8 -7 -13.5t-16 -5.5q-8 0 -13 6.5t-5 13.5zM160 447q8 -15 16 -55.5t9 -100.5q1 -17 0.5 -28t-6.5 -14q-5 -3 -37 -3q-75 0 -96 -2q-3 -66 4.5 -120.5t23.5 -83.5t38 -29q10 0 21.5 9.5t18.5 29.5t7 36
q0 3 -1 12.5t6 10.5q6 1 9.5 -8.5t1.5 -26.5q-3 -23 -12.5 -43t-24 -28.5t-27.5 -8.5q-64 0 -78 133q-13 131 19 245q14 47 31 73q8 12 19.5 19t22.5 7q10 0 19.5 -6.5t15.5 -17.5zM140 445q-7 8 -16 8q-5 0 -14 -5t-18 -21q-15 -27 -25.5 -64.5t-18.5 -100.5q17 1 57.5 1
t61.5 2q2 42 -4.5 102t-22.5 78z" />
    <glyph glyph-name="Eogonek" unicode="&#x118;" horiz-adv-x="216" 
d="M203 -121q5 2 9 -2.5t4.5 -17t-4.5 -24.5q-7 -18 -20.5 -26.5t-27.5 -8.5q-17 0 -31 12t-16 32q-2 14 2.5 35.5t37.5 68.5q30 43 39 52l-87 -1q-55 -3 -58 2q-1 3 -1.5 56.5t0.5 95.5v9.5t1 104.5t-1 143l-3 222q0 3 -1 21t2 21q1 1 5 3t52 5h72q3 0 15 0.5t16.5 -1.5
t4.5 -8q-1 -5 -3.5 -6t-17.5 -1q-104 0 -129 -4l2 -205q35 3 99 1q14 -1 16 -3.5t2 -4.5q0 -6 -10.5 -8t-48.5 -1q-22 1 -57 -1q2 -51 1.5 -147.5t-0.5 -121.5q0 -13 -1.5 -68t-0.5 -88l118 1q21 0 26 -2t6 -6v-4l-1 -2l-48 -69q-27 -40 -31 -67q-3 -16 2 -29t15 -17t20 -2
t18 13t9 26q0 2 -1 11t5 11z" />
    <glyph glyph-name="eogonek" unicode="&#x119;" horiz-adv-x="210" 
d="M185 291q1 -17 0.5 -28t-6.5 -14q-5 -3 -37 -3q-75 0 -96 -2q-3 -66 4.5 -120.5t23.5 -83.5t38 -29q10 0 21.5 9.5t18.5 29.5t7 36q0 3 -1 12.5t6 10.5q6 1 9.5 -8.5t1.5 -26.5q-5 -36 -20 -56l-1 -2l-49 -71q-27 -40 -31 -67q-4 -20 4.5 -34.5t25.5 -14.5q13 0 22.5 10
t11.5 30q0 2 -1 11t5 11q5 2 9 -2.5t4.5 -17t-4.5 -24.5q-7 -18 -20.5 -26.5t-27.5 -8.5q-17 0 -31 12t-16 32q-2 14 3 36.5t39 71.5l24 31l-11 -1q-64 0 -78 133q-13 131 19 245q14 47 31 73q8 12 19.5 19t22.5 7q10 0 19.5 -6.5t15.5 -17.5q8 -15 16 -55.5t9 -100.5z
M167 265q2 42 -4.5 102t-22.5 78q-7 8 -16 8q-5 0 -14 -5t-18 -21q-15 -27 -25.5 -64.5t-18.5 -100.5q17 1 57.5 1t61.5 2z" />
    <glyph glyph-name="Ecaron" unicode="&#x11a;" horiz-adv-x="216" 
d="M220 795q9 -6 -6 -19l-55 -46q-25 -20 -30 -20q-3 0 -26 17.5t-45 38.5q-2 1 -9 7.5t-10 12t0 8.5q1 1 5.5 2t13.5 -8l36 -33q22 -19 36 -26q6 3 14 9t47 40q24 21 29 17zM177 682q3 0 15 0.5t16.5 -1.5t4.5 -8q-1 -5 -3.5 -6t-17.5 -1q-104 0 -129 -4l2 -205q35 3 99 1
q14 -1 16 -3.5t2 -4.5q0 -6 -10.5 -8t-48.5 -1q-22 1 -57 -1q2 -51 1.5 -147.5t-0.5 -121.5q0 -13 -1.5 -68t-0.5 -88l118 1q21 0 26 -2t6 -6q2 -8 -17 -8l-89 -1q-55 -3 -58 2q-1 3 -1.5 56.5t0.5 95.5v9.5t1 104.5t-1 143l-3 222q0 3 -1 21t2 21q1 1 5 3t52 5h72z" />
    <glyph glyph-name="ecaron" unicode="&#x11b;" horiz-adv-x="210" 
d="M194 672q5 -1 4.5 -8.5t-4.5 -15.5l-46 -87q-17 -29 -25 -29q-7 0 -24 26q-7 9 -29 47t-26 44t-6 13t2 10q3 2 6 1.5t12 -15.5l40 -68l26 -38q9 13 29 51.5t20 39.5q13 25 15.5 27.5t5.5 1.5zM160 447q8 -15 16 -55.5t9 -100.5q1 -17 0.5 -28t-6.5 -14q-5 -3 -37 -3
q-75 0 -96 -2q-3 -66 4.5 -120.5t23.5 -83.5t38 -29q10 0 21.5 9.5t18.5 29.5t7 36q0 3 -1 12.5t6 10.5q6 1 9.5 -8.5t1.5 -26.5q-3 -23 -12.5 -43t-24 -28.5t-27.5 -8.5q-64 0 -78 133q-13 131 19 245q14 47 31 73q8 12 19.5 19t22.5 7q10 0 19.5 -6.5t15.5 -17.5zM140 445
q-7 8 -16 8q-5 0 -14 -5t-18 -21q-15 -27 -25.5 -64.5t-18.5 -100.5q17 1 57.5 1t61.5 2q2 42 -4.5 102t-22.5 78z" />
    <glyph glyph-name="Gcircumflex" unicode="&#x11c;" horiz-adv-x="267" 
d="M152 781q5 0 30 -20l55 -46q15 -13 6 -19q-5 -4 -29 17q-39 34 -47 40t-14 9q-14 -7 -36 -26l-36 -33q-12 -12 -19 -6q-3 3 -1 8t20 20q25 24 47 40q21 16 24 16zM215 605q8 -55 -8 -54q-4 0 -7 5.5t-1 18.5q1 23 -3 45t-13 34t-18 15q-29 8 -55 -34q-16 -26 -29.5 -72
t-21.5 -137q-5 -65 -5 -121q2 -205 43 -269q11 -17 27.5 -22.5t30.5 1.5q25 12 39 67q6 22 11 56.5t6 154.5q0 4 0.5 21t-0.5 22.5t-2 6.5q-3 2 -23 3t-29 0q-24 -2 -32 -0.5t-8 6.5q0 3 1.5 6t16.5 4l51 -1q3 0 12 0.5t13.5 0t5.5 -1.5q4 -2 7 -7t3 -28.5v-31.5
q0 -69 -4 -125t-17 -104q-20 -69 -69 -69q-44 0 -66 54q-16 39 -24 103t-10 118q-2 95 7 185q11 84 22.5 122.5t30.5 70.5q9 17 26 28t34 11q45 0 58 -82z" />
    <glyph glyph-name="gcircumflex" unicode="&#x11d;" horiz-adv-x="226" 
d="M192 537q4 -6 6 -13t-2 -10q-3 -2 -6.5 -1t-7 8t-4.5 8l-38 66l-25 39q-2 -3 -9.5 -14.5t-24.5 -43.5t-18 -34t-5 -10.5t-8 -13.5t-8 -4q-5 1 -4.5 8.5t4.5 15.5l49 88q16 28 26 28q4 0 9 -6t9.5 -13t4.5 -8q7 -11 27 -47t25 -43zM100 106l-23 -46q-10 -19 -4 -27
q3 -4 22.5 -17t21.5 -15q20 -15 39.5 -40.5t28 -60t5.5 -67.5q-3 -29 -15 -53t-31 -34t-37 -10q-33 0 -57.5 31t-24.5 79q0 25 9 55.5t28 57t34 36.5l-29 20q-7 5 -10.5 13t-1 19.5t19.5 47.5l8 17q-18 11 -31.5 41.5t-16.5 83.5t4 105q5 38 17 68.5t30 46.5t42 14
q12 -1 26 -14.5t24 -44.5t14 -78t-3.5 -102t-25.5 -90q-23 -42 -63 -36zM52 260q1 -42 9 -78t25 -51q24 -20 44.5 -1t32.5 59q15 50 14 111t-15 104q-10 31 -21 41t-25 8q-32 -4 -48.5 -58.5t-15.5 -134.5zM161 -212q25 50 8 109.5t-58 88.5q-14 -8 -32.5 -33.5t-27.5 -53
t-9 -47.5t6.5 -43.5t23 -39.5t36.5 -16q16 0 29 7t24 28z" />
    <glyph glyph-name="Gbreve" unicode="&#x11e;" horiz-adv-x="267" 
d="M217 799q8 0 7.5 -13.5t-5.5 -24.5q-6 -16 -17 -28.5t-22 -17.5q-13 -5 -27 -5q-24 0 -42 14q-21 17 -31 51q-3 10 -1 16.5t8 6.5q4 0 6.5 -11t3.5 -14q7 -23 22.5 -35t33.5 -12q16 0 30 11t22 32q1 3 3.5 15t5 13.5t3.5 1.5zM215 605q8 -55 -8 -54q-4 0 -7 5.5t-1 18.5
q1 23 -3 45t-13 34t-18 15q-29 8 -55 -34q-16 -26 -29.5 -72t-21.5 -137q-5 -65 -5 -121q2 -205 43 -269q11 -17 27.5 -22.5t30.5 1.5q25 12 39 67q6 22 11 56.5t6 154.5q0 4 0.5 21t-0.5 22.5t-2 6.5q-3 2 -23 3t-29 0q-24 -2 -32 -0.5t-8 6.5q0 3 1.5 6t16.5 4l51 -1
q3 0 12 0.5t13.5 0t5.5 -1.5q4 -2 7 -7t3 -28.5v-31.5q0 -69 -4 -125t-17 -104q-20 -69 -69 -69q-44 0 -66 54q-16 39 -24 103t-10 118q-2 95 7 185q11 84 22.5 122.5t30.5 70.5q9 17 26 28t34 11q45 0 58 -82z" />
    <glyph glyph-name="gbreve" unicode="&#x11f;" horiz-adv-x="226" 
d="M112 529q-26 0 -41 21t-19 46t-4 42q0 38 12 33q3 -1 4 -8t0.5 -16t-0.5 -12q0 -22 6.5 -45.5t18.5 -34t24 -10.5t23.5 9.5t18 32t6.5 50.5q0 3 -0.5 12.5t0.5 16t5 6.5t7 -5.5t3 -40.5q-1 -44 -18 -70.5t-46 -26.5zM117 1q20 -15 39.5 -40.5t28 -60t5.5 -67.5
q-3 -29 -15 -53t-31 -34t-37 -10q-33 0 -57.5 31t-24.5 79q0 25 9 55.5t28 57t34 36.5l-29 20q-7 5 -10.5 13t-1 19.5t19.5 47.5l8 17q-18 11 -31.5 41.5t-16.5 83.5t4 105q5 38 17 68.5t30 46.5t42 14q12 -1 26 -14.5t24 -44.5t14 -78t-3.5 -102t-25.5 -90q-23 -42 -63 -36
l-23 -46q-10 -19 -4 -27q3 -4 22.5 -17t21.5 -15zM52 260q1 -42 9 -78t25 -51q24 -20 44.5 -1t32.5 59q15 50 14 111t-15 104q-10 31 -21 41t-25 8q-32 -4 -48.5 -58.5t-15.5 -134.5zM161 -212q25 50 8 109.5t-58 88.5q-14 -8 -32.5 -33.5t-27.5 -53t-9 -47.5t6.5 -43.5
t23 -39.5t36.5 -16q16 0 29 7t24 28z" />
    <glyph glyph-name="Gdotaccent" unicode="&#x120;" horiz-adv-x="267" 
d="M134 739q0 10 6.5 16t13.5 6q8 0 14.5 -6.5t6.5 -16.5q0 -8 -7 -13.5t-16 -5.5q-8 0 -13 6.5t-5 13.5zM215 605q8 -55 -8 -54q-4 0 -7 5.5t-1 18.5q1 23 -3 45t-13 34t-18 15q-29 8 -55 -34q-16 -26 -29.5 -72t-21.5 -137q-5 -65 -5 -121q2 -205 43 -269
q11 -17 27.5 -22.5t30.5 1.5q25 12 39 67q6 22 11 56.5t6 154.5q0 4 0.5 21t-0.5 22.5t-2 6.5q-3 2 -23 3t-29 0q-24 -2 -32 -0.5t-8 6.5q0 3 1.5 6t16.5 4l51 -1q3 0 12 0.5t13.5 0t5.5 -1.5q4 -2 7 -7t3 -28.5v-31.5q0 -69 -4 -125t-17 -104q-20 -69 -69 -69q-44 0 -66 54
q-16 39 -24 103t-10 118q-2 95 7 185q11 84 22.5 122.5t30.5 70.5q9 17 26 28t34 11q45 0 58 -82z" />
    <glyph glyph-name="gdotaccent" unicode="&#x121;" horiz-adv-x="226" 
d="M109 548q-8 0 -13 6.5t-5 13.5q0 10 6.5 16t13.5 6q8 0 14.5 -6.5t6.5 -16.5q0 -8 -7 -13.5t-16 -5.5zM117 1q20 -15 39.5 -40.5t28 -60t5.5 -67.5q-3 -29 -15 -53t-31 -34t-37 -10q-33 0 -57.5 31t-24.5 79q0 25 9 55.5t28 57t34 36.5l-29 20q-7 5 -10.5 13t-1 19.5
t19.5 47.5l8 17q-18 11 -31.5 41.5t-16.5 83.5t4 105q5 38 17 68.5t30 46.5t42 14q7 0 11 -3q10 2 22.5 13t13.5 22v9.5t2.5 11t10.5 0.5q1 -1 3.5 -6.5t0.5 -15.5q-1 -15 -12.5 -27t-24.5 -18q13 -14 25 -50t13 -91.5t-6.5 -99.5t-23.5 -74q-23 -42 -63 -36l-23 -46
q-10 -19 -4 -27q3 -4 22.5 -17t21.5 -15zM52 260q1 -42 9 -78t25 -51q24 -20 44.5 -1t32.5 59q15 50 14 111t-15 104q-10 31 -21 41t-25 8q-32 -4 -48.5 -58.5t-15.5 -134.5zM161 -212q25 50 8 109.5t-58 88.5q-14 -8 -32.5 -33.5t-27.5 -53t-9 -47.5t6.5 -43.5t23 -39.5
t36.5 -16q16 0 29 7t24 28z" />
    <glyph glyph-name="Gcommaaccent" unicode="&#x122;" horiz-adv-x="267" 
d="M215 605q8 -55 -8 -54q-4 0 -7 5.5t-1 18.5q1 23 -3 45t-13 34t-18 15q-29 8 -55 -34q-16 -26 -29.5 -72t-21.5 -137q-5 -65 -5 -121q2 -205 43 -269q11 -17 27.5 -22.5t30.5 1.5q25 12 39 67q6 22 11 56.5t6 154.5q0 4 0.5 21t-0.5 22.5t-2 6.5q-3 2 -23 3t-29 0
q-24 -2 -32 -0.5t-8 6.5q0 3 1.5 6t16.5 4l51 -1q3 0 12 0.5t13.5 0t5.5 -1.5q4 -2 7 -7t3 -28.5v-31.5q0 -69 -4 -125t-17 -104q-20 -69 -69 -69q-44 0 -66 54q-16 39 -24 103t-10 118q-2 95 7 185q11 84 22.5 122.5t30.5 70.5q9 17 26 28t34 11q45 0 58 -82zM133 -36
q2 1 6 0.5t5 -3.5t2 -7.5t-4 -24.5l-20 -86q-2 -8 -5.5 -15t-6.5 -6q-1 0 -4 2.5t2 35.5l17 88q2 12 8 16z" />
    <glyph glyph-name="gcommaaccent" unicode="&#x123;" horiz-adv-x="226" 
d="M132 531q-2 -1 -6 -0.5t-5 3.5t-2 7.5t4 24.5l20 86q2 8 5.5 15t6.5 6q1 0 4 -2.5t-2 -35.5l-17 -88q-2 -12 -8 -16zM117 1q20 -15 39.5 -40.5t28 -60t5.5 -67.5q-3 -29 -15 -53t-31 -34t-37 -10q-33 0 -57.5 31t-24.5 79q0 25 9 55.5t28 57t34 36.5l-29 20
q-7 5 -10.5 13t-1 19.5t19.5 47.5l8 17q-18 11 -31.5 41.5t-16.5 83.5t4 105q5 38 17 68.5t30 46.5t42 14q12 -1 26 -14.5t24 -44.5t14 -78t-3.5 -102t-25.5 -90q-23 -42 -63 -36l-23 -46q-10 -19 -4 -27q3 -4 22.5 -17t21.5 -15zM52 260q1 -42 9 -78t25 -51q24 -20 44.5 -1
t32.5 59q15 50 14 111t-15 104q-10 31 -21 41t-25 8q-32 -4 -48.5 -58.5t-15.5 -134.5zM161 -212q25 50 8 109.5t-58 88.5q-14 -8 -32.5 -33.5t-27.5 -53t-9 -47.5t6.5 -43.5t23 -39.5t36.5 -16q16 0 29 7t24 28z" />
    <glyph glyph-name="Hcircumflex" unicode="&#x124;" horiz-adv-x="283" 
d="M71 713q-12 -12 -19 -6q-3 3 -1 8t20 20q25 24 47 40q21 16 24 16q5 0 30 -20l55 -46q15 -13 6 -19q-5 -4 -29 17q-39 34 -47 40t-14 9q-14 -7 -36 -26zM226 684q4 0 6.5 -8.5t2 -33.5t-0.5 -26l-2 -274l1 -322q3 -20 -7 -20q-5 0 -7.5 5t-2.5 22v22l-2 196v130
q-16 1 -146 4v-96l-2 -246v-3v-19.5t-9 -17.5q-9 1 -9 30l2 255l1 147l-1 205v20t2 23.5t6 6.5q6 0 7.5 -5t1.5 -29l1 -112v-142l146 -3l2 244q0 32 1 37t3.5 7.5t5.5 2.5z" />
    <glyph glyph-name="hcircumflex" unicode="&#x125;" horiz-adv-x="252" 
d="M63 798q5 0 30 -20l55 -46q15 -13 6 -19q-5 -4 -29 17q-39 34 -47 40t-14 9q-14 -7 -36 -26l-36 -33q-12 -12 -19 -6q-3 3 -1 8t20 20q25 24 47 40q21 16 24 16zM65 740q4 -1 5.5 -5t1.5 -21l-1 -70q0 -26 -2 -82.5t-1 -84.5q0 -147 -4 -185q19 68 28.5 95.5t20.5 46
t23 28.5t26 10q21 0 31.5 -16.5t10.5 -74.5v-125q-1 -23 -1 -57.5t1.5 -95.5t1.5 -81q0 -18 -1.5 -21t-3.5 -4q-3 0 -6 1.5t-5 9.5t-2 21.5v15.5l-1 193v116q0 64 -4.5 79.5t-10.5 19t-11 2.5q-11 -1 -26 -21t-32 -70q-18 -53 -26.5 -82t-9.5 -48t-1 -90v-92q0 -37 -1 -43.5
t-4 -9t-7 -2.5q-3 0 -5 4.5t-1.5 15t0.5 11.5v195l4 337l2 150q-1 20 1 26t10 4z" />
    <glyph glyph-name="Hbar" unicode="&#x126;" horiz-adv-x="302" 
d="M244 540h27q12 0 17.5 -1.5t5.5 -7.5q0 -4 -6 -6.5t-21 -1.5t-17 1l-7 -1l-1 -181l1 -322q3 -20 -7 -20q-5 0 -7.5 5t-2.5 22v22l-2 196v130q-16 1 -146 4v-96l-2 -246v-3v-19.5t-9 -17.5q-9 1 -9 30l2 255l1 147v96l-36 -1q-9 0 -13 1t-4 7q0 2 1.5 4t6 3.5t11.5 1.5h15
h9h9v93v20t2 23.5t6 6.5q6 0 7.5 -5t1.5 -29l1 -109h5l142 -1l1 97q0 32 1 37t3.5 7.5t5.5 2.5q4 0 6.5 -8.5t2 -33.5t-0.5 -26v-76zM78 525v-129l146 -3l1 130l-96 2h-47h-4z" />
    <glyph glyph-name="hbar" unicode="&#x127;" horiz-adv-x="251" 
d="M206 22q0 -18 -1.5 -21t-3.5 -4q-3 0 -6 1.5t-5 9.5t-2 21.5v15.5l-1 193v116q0 64 -4.5 79.5t-10.5 19t-11 2.5q-11 -1 -26 -21t-32 -70q-18 -53 -26.5 -82t-9.5 -48t-1 -90v-92q0 -37 -1 -43.5t-4 -9t-7 -2.5q-3 0 -5 4.5t-1.5 15t0.5 11.5v195l4 337v29
q-1 0 -18.5 -0.5t-25.5 2t-8 8.5q0 8 22 8h30l2 103q-1 20 1 26t10 4q4 -1 5.5 -5t1.5 -21l-1 -70v-37l86 1q12 0 17 -1t6 -6q0 -4 -2.5 -7t-16.5 -3l-91 -2q-2 -81 -2 -91.5v-20.5q0 -147 -4 -185q19 68 28.5 95.5t20.5 46t23 28.5t26 10q21 0 31.5 -16.5t10.5 -74.5v-125
q-1 -23 -1 -57.5t1.5 -95.5t1.5 -81z" />
    <glyph glyph-name="Itilde" unicode="&#x128;" horiz-adv-x="122" 
d="M29 802q8 0 17 -8t26 -38.5t26 -29.5q8 1 14.5 19.5t6.5 51.5q0 3 2.5 5.5t5.5 2.5q8 0 7 -13q-1 -48 -10.5 -65.5t-27.5 -17.5q-11 0 -20.5 11t-24.5 38t-22 27t-13.5 -14.5t-7.5 -47.5q0 -2 -2 -6.5t-7 -4.5q-8 0 -7 12q4 39 7.5 50.5t11 19.5t18.5 8zM61 682
q10 0 9 -11t-1 -13v-141l-1 -359l-1 -130q0 -15 -1 -22t-6 -8q-10 0 -10 24q2 64 2 343l1 125v168q0 17 2.5 20.5t5.5 3.5z" />
    <glyph glyph-name="itilde" unicode="&#x129;" horiz-adv-x="121" 
d="M27 653q10 0 19.5 -14t25 -52t24.5 -37q8 1 14.5 29t6.5 69q0 3 2.5 5.5t5.5 2.5q8 0 7 -13q-2 -59 -9 -79.5t-15 -25.5t-14 -5q-11 0 -20.5 15t-24.5 51.5t-22 36.5q-9 0 -14.5 -29.5t-6.5 -59.5q0 -2 -2 -6.5t-7 -4.5q-8 0 -7 12q0 2 1.5 18t3 29t5.5 27.5t11 22.5
t16 8zM57 465q10 3 12 -23l-1 -110q0 -211 2 -317q0 -20 -10 -18q-2 0 -4 2.5t-3 8t-1 13v16v9.5v279v110v2t-1 9.5t1 13t5 5.5z" />
    <glyph glyph-name="Imacron" unicode="&#x12a;" horiz-adv-x="122" 
d="M31 749l88 -1q12 0 17.5 -1.5t5.5 -7.5q0 -4 -6 -6.5t-21 -1.5t-17 1h-90q-24 0 -24 9q0 5 8 7t23 1.5t16 -0.5zM61 682q10 0 9 -11t-1 -13v-141l-1 -359l-1 -130q0 -15 -1 -22t-6 -8q-10 0 -10 24q2 64 2 343l1 125v168q0 17 2.5 20.5t5.5 3.5z" />
    <glyph glyph-name="imacron" unicode="&#x12b;" horiz-adv-x="121" 
d="M28 563l88 -1q12 0 17.5 -1.5t5.5 -7.5q0 -4 -6 -6.5t-21 -1.5t-17 1h-90q-24 0 -24 9q0 5 8 7t23 1.5t16 -0.5zM57 465q10 3 12 -23l-1 -110q0 -211 2 -317q0 -20 -10 -18q-2 0 -4 2.5t-3 8t-1 13v16v9.5v279v110v2t-1 9.5t1 13t5 5.5z" />
    <glyph glyph-name="Ibreve" unicode="&#x12c;" horiz-adv-x="122" 
d="M126 799q8 0 7.5 -13.5t-5.5 -24.5q-6 -16 -17 -28.5t-22 -17.5q-13 -5 -27 -5q-24 0 -42 14q-21 17 -31 51q-3 10 -1 16.5t8 6.5q4 0 6.5 -11t3.5 -14q7 -23 22.5 -35t33.5 -12q16 0 30 11t22 32q1 3 3.5 15t5 13.5t3.5 1.5zM61 682q10 0 9 -11t-1 -13v-141l-1 -359
l-1 -130q0 -15 -1 -22t-6 -8q-10 0 -10 24q2 64 2 343l1 125v168q0 17 2.5 20.5t5.5 3.5z" />
    <glyph glyph-name="ibreve" unicode="&#x12d;" horiz-adv-x="121" 
d="M111 672q4 0 7 -5.5t3 -40.5q-1 -44 -18 -70.5t-46 -26.5q-26 0 -41 21t-19 46t-4 42q0 38 12 33q3 -1 4 -8t0.5 -16t-0.5 -12q0 -22 6.5 -45.5t18.5 -34t24 -10.5t23.5 9.5t18 32t6.5 50.5q0 3 -0.5 12.5t0.5 16t5 6.5zM57 465q10 3 12 -23l-1 -110q0 -211 2 -317
q0 -20 -10 -18q-2 0 -4 2.5t-3 8t-1 13v16v9.5v279v110v2t-1 9.5t1 13t5 5.5z" />
    <glyph glyph-name="Iogonek" unicode="&#x12e;" horiz-adv-x="122" 
d="M61 682q10 0 9 -11t-1 -13v-141l-1 -359l-1 -130q0 -23 -3 -28l-46 -66q-27 -40 -31 -67q-4 -20 4.5 -34.5t25.5 -14.5q13 0 22.5 10t11.5 30q0 2 -1 11t5 11q5 2 9 -2.5t4.5 -17t-4.5 -24.5q-7 -18 -20.5 -26.5t-27.5 -8.5q-17 0 -31 12t-16 32q-2 14 2.5 35.5
t37.5 68.5q6 8 17 24t17 24.5t7 12.5v1v11q2 64 2 343l1 125v168q0 17 2.5 20.5t5.5 3.5z" />
    <glyph glyph-name="iogonek" unicode="&#x12f;" horiz-adv-x="121" 
d="M57 590q8 0 14.5 -6.5t6.5 -16.5q0 -8 -7 -13.5t-16 -5.5q-8 0 -13 6.5t-5 13.5q0 10 6.5 16t13.5 6zM59 -119q5 2 9 -2.5t4.5 -17t-4.5 -24.5q-7 -18 -20.5 -26.5t-27.5 -8.5q-17 0 -31 12t-16 32q-2 14 2.5 35.5t37.5 70.5l40 57q-1 6 -1 37v279v110v2t-1 9.5t1 13
t5 5.5q10 3 12 -23l-1 -110q0 -211 2 -317l-1 -12l-1 -2v-1l-46 -65q-13 -20 -20.5 -35.5t-10.5 -31.5t2 -29t15 -17t20 -2t18 13t9 26q0 2 -1 11t5 11z" />
    <glyph glyph-name="Idotaccent" unicode="&#x130;" horiz-adv-x="122" 
d="M40 736q0 10 6.5 16t13.5 6q8 0 14.5 -6.5t6.5 -16.5q0 -8 -7 -13.5t-16 -5.5q-8 0 -13 6.5t-5 13.5zM61 682q10 0 9 -11t-1 -13v-141l-1 -359l-1 -130q0 -15 -1 -22t-6 -8q-10 0 -10 24q2 64 2 343l1 125v168q0 17 2.5 20.5t5.5 3.5z" />
    <glyph glyph-name="dotlessi" unicode="&#x131;" horiz-adv-x="121" 
d="M57 465q10 3 12 -23l-1 -110q0 -211 2 -317q0 -20 -10 -18q-2 0 -4 2.5t-3 8t-1 13v16v9.5v279v110v2t-1 9.5t1 13t5 5.5z" />
    <glyph glyph-name="Jcircumflex" unicode="&#x134;" horiz-adv-x="182" 
d="M77 773q5 0 30 -20l55 -46q15 -13 6 -19q-5 -4 -29 17q-39 34 -47 40t-14 9q-14 -7 -36 -26l-36 -33q-12 -12 -19 -6q-3 3 -1 8t20 20q25 24 47 40q21 16 24 16zM82 682q3 0 15.5 0.5t21 -0.5t10.5 -5q2 -3 2 -41v-531q-1 -43 -7.5 -68t-21 -34t-31.5 -9q-20 0 -33 8
q-19 12 -25.5 41t3.5 57q6 21 15 18q3 -1 4.5 -4t-1.5 -13q-10 -26 -4.5 -54.5t29.5 -34.5q10 -3 21.5 0t16.5 9q7 7 12.5 25t5.5 88v131q-1 57 0 194t-2 205h-68q-13 0 -18.5 1t-6.5 6q-1 9 11 11h51z" />
    <glyph glyph-name="jcircumflex" unicode="&#x135;" horiz-adv-x="112" 
d="M56 654q4 0 9 -6t9.5 -13t4.5 -8q7 -11 27 -47t25 -43q4 -6 6 -13t-2 -10q-3 -2 -6.5 -1t-7 8t-4.5 8l-38 66l-25 39q-2 -3 -9.5 -14.5t-24.5 -43.5t-18 -34t-5 -10.5t-8 -13.5t-8 -4q-5 1 -4.5 8.5t4.5 15.5l49 88q16 28 26 28zM56 465q8 0 9 -14v-67v-269l-1 -251
q0 -62 -14 -92.5t-46 -34.5t-51.5 15.5t-21.5 53.5q-1 15 5.5 38.5t20.5 44.5q9 13 12.5 14t6.5 -1t3 -5t-10 -20q-25 -44 -20 -80q3 -21 15 -33t30 -12q23 0 37.5 21.5t15.5 81.5l2 270l-1 301q0 3 -0.5 14.5t1 18.5t7.5 6z" />
    <glyph glyph-name="Kcommaaccent" unicode="&#x136;" horiz-adv-x="249" 
d="M68 648v-119q0 -100 -2 -150l55 95l102 198q4 10 11 10q4 0 6.5 -2.5t-6.5 -22.5q-11 -26 -49 -96.5t-54 -99.5l-60 -104q10 -23 35 -72t33 -65l68 -133q12 -27 35 -67q12 -21 -3 -21q-2 0 -5.5 1t-6 7.5t-3.5 8.5q-15 27 -46 89.5t-50 99.5q-45 86 -61 123l-2 -251v-50
q1 -18 -1.5 -23t-9.5 -5q-1 0 -2.5 0.5t-2.5 2.5t-1 5v7v5q1 29 1 170l2 194v111l-1 154q0 2 -0.5 18t10.5 16q3 0 5.5 -4t2.5 -30zM139 -21q2 1 6 0.5t5 -3.5t2 -7.5t-4 -24.5l-20 -86q-2 -8 -5.5 -15t-6.5 -6q-1 0 -4 2.5t2 35.5l17 88q2 12 8 16z" />
    <glyph glyph-name="kcommaaccent" unicode="&#x137;" horiz-adv-x="213" 
d="M53 738q6 4 9 1t3.5 -9.5t0.5 -12v-11v-7.5l1 -253l1 -153q3 5 50 70q3 4 27.5 38.5t32.5 49.5q9 15 18 15q2 0 3.5 -1.5t1.5 -3.5q0 -5 -15 -29q-15 -23 -41.5 -59.5t-32.5 -44.5l-40 -57l35 -71q5 -10 16.5 -32.5t38.5 -72t41 -77.5q5 -9 5.5 -14t-6.5 -6
q-5 0 -8.5 3.5t-6.5 11t-5 10.5l-28 51l-46 87q-28 57 -42 89q2 -152 1 -228q0 -13 -1 -18.5t-7 -5.5q-3 0 -5.5 2.5t-3.5 11t0 22t1 14.5v37t-0.5 124t0.5 146l-1 321q0 4 -1 23.5t0.5 28t3.5 10.5zM116 -36q2 1 6 0.5t5 -3.5t2 -7.5t-4 -24.5l-20 -86q-2 -8 -5.5 -15
t-6.5 -6q-1 0 -4 2.5t2 35.5l17 88q2 12 8 16z" />
    <glyph glyph-name="kgreenlandic" unicode="&#x138;" horiz-adv-x="208" 
d="M51 464q6 4 9 1t4 -9.5t1 -12v-11.5v-7l-1 -154l52 81q4 7 31.5 50.5t29.5 48.5q6 12 14 12q6 0 6 -6q0 -4 -12 -25q-1 -1 -3 -4t-41.5 -68t-69.5 -109q72 -132 87 -163l36 -70q4 -6 5 -12.5t-6 -7.5q-2 0 -5 0.5t-5 3.5t-11 21l-41 81q-7 14 -32 60t-34 66
q4 -139 3 -208q0 -12 -1 -17.5t-7 -6.5q-4 0 -6.5 7.5t-2.5 42.5l-2 183l-2 171v24.5t1 27.5t3 10z" />
    <glyph glyph-name="Lacute" unicode="&#x139;" horiz-adv-x="197" 
d="M126 803q4 0 6.5 -3t2.5 -7q0 -2 -1.5 -5t-13.5 -12q-11 -8 -29.5 -24.5t-24.5 -21.5q-18 -15 -24.5 -18.5t-8.5 -1.5q-6 5 10 21q5 4 21.5 17.5t31.5 29.5q20 20 23.5 22.5t6.5 2.5zM57 682q5 0 8 -7.5t3 -27.5v-24v-188q-1 -44 -0.5 -123.5t0.5 -117.5q-2 -103 1 -178
l65 -2q4 0 23 2t27.5 0.5t9.5 -5.5t-1.5 -7.5t-24.5 -3.5l-75 -1q-2 0 -13 -0.5t-16 0t-7 1.5q-6 4 -6 38q-1 54 -0.5 156.5t0.5 145.5l1 256q0 18 -1.5 47.5t0 34t6.5 4.5z" />
    <glyph glyph-name="lacute" unicode="&#x13a;" horiz-adv-x="123" 
d="M129 861q4 0 6.5 -3t2.5 -7q0 -2 -1.5 -5t-13.5 -12q-11 -8 -29.5 -24.5t-24.5 -21.5q-18 -15 -24.5 -18.5t-8.5 -1.5q-6 5 10 21q5 4 21.5 17.5t31.5 29.5q20 20 23.5 22.5t6.5 2.5zM68 690q-1 -101 -1 -624q0 -32 2.5 -42t9.5 -12q8 -2 17.5 4.5t13 6t4.5 -1.5
q9 -7 -3 -16t-25 -10q-11 -1 -18 3t-11 11t-5.5 17t-1.5 53v260l2 371q0 20 1 23.5t3 5t4 1.5q5 0 7.5 -6t1.5 -23t-1 -21z" />
    <glyph glyph-name="Lcommaaccent" unicode="&#x13b;" horiz-adv-x="197" 
d="M57 682q5 0 8 -7.5t3 -27.5v-24v-188q-1 -44 -0.5 -123.5t0.5 -117.5q-2 -103 1 -178l65 -2q4 0 23 2t27.5 0.5t9.5 -5.5t-1.5 -7.5t-24.5 -3.5l-75 -1q-2 0 -13 -0.5t-16 0t-7 1.5q-6 4 -6 38q-1 54 -0.5 156.5t0.5 145.5l1 256q0 18 -1.5 47.5t0 34t6.5 4.5zM113 -36
q2 1 6 0.5t5 -3.5t2 -7.5t-4 -24.5l-20 -86q-2 -8 -5.5 -15t-6.5 -6q-1 0 -4 2.5t2 35.5l17 88q2 12 8 16z" />
    <glyph glyph-name="lcommaaccent" unicode="&#x13c;" horiz-adv-x="123" 
d="M68 690q-1 -101 -1 -624q0 -32 2.5 -42t9.5 -12q8 -2 17.5 4.5t13 6t4.5 -1.5q9 -7 -3 -16t-25 -10q-11 -1 -18 3t-11 11t-5.5 17t-1.5 53v260l2 371q0 20 1 23.5t3 5t4 1.5q5 0 7.5 -6t1.5 -23t-1 -21zM72 -36q2 1 6 0.5t5 -3.5t2 -7.5t-4 -24.5l-20 -86q-2 -8 -5.5 -15
t-6.5 -6q-1 0 -4 2.5t2 35.5l17 88q2 12 8 16z" />
    <glyph glyph-name="Lcaron" unicode="&#x13d;" horiz-adv-x="197" 
d="M142 697q2 1 6 0.5t5 -3.5t2 -7.5t-4 -24.5l-17 -74q-2 -8 -5.5 -15t-6.5 -6q-11 1 0 40l8 50l2 24q2 10 10 16zM57 682q5 0 8 -7.5t3 -27.5v-24v-188q-1 -44 -0.5 -123.5t0.5 -117.5q-2 -103 1 -178l65 -2q4 0 23 2t27.5 0.5t9.5 -5.5t-1.5 -7.5t-24.5 -3.5l-75 -1
q-2 0 -13 -0.5t-16 0t-7 1.5q-6 4 -6 38q-1 54 -0.5 156.5t0.5 145.5l1 256q0 18 -1.5 47.5t0 34t6.5 4.5z" />
    <glyph glyph-name="lcaron" unicode="&#x13e;" horiz-adv-x="123" 
d="M68 690q-1 -101 -1 -624q0 -32 2.5 -42t9.5 -12q8 -2 17.5 4.5t13 6t4.5 -1.5q9 -7 -3 -16t-25 -10q-11 -1 -18 3t-11 11t-5.5 17t-1.5 53v260l2 371q0 20 1 23.5t3 5t4 1.5q5 0 7.5 -6t1.5 -23t-1 -21zM132 733q2 1 6 0.5t5 -3.5t2 -7.5t-4 -24.5l-17 -74
q-2 -8 -5.5 -15t-6.5 -6q-11 1 0 40l8 50l2 24q2 10 10 16z" />
    <glyph glyph-name="Ldot" unicode="&#x13f;" horiz-adv-x="213" 
d="M57 682q5 0 8 -7.5t3 -27.5v-24v-188q-1 -44 -0.5 -123.5t0.5 -117.5q-2 -103 1 -178l65 -2q4 0 23 2t27.5 0.5t9.5 -5.5t-1.5 -7.5t-24.5 -3.5l-75 -1q-2 0 -13 -0.5t-16 0t-7 1.5q-6 4 -6 38q-1 54 -0.5 156.5t0.5 145.5l1 256q0 18 -1.5 47.5t0 34t6.5 4.5zM152 404
q10 0 16 -7t6 -16t-6.5 -16.5t-16.5 -7.5q-23 0 -23 24q0 8 7 15.5t17 7.5z" />
    <glyph glyph-name="ldot" unicode="&#x140;" horiz-adv-x="140" 
d="M68 690q-1 -101 -1 -624q0 -32 2.5 -42t9.5 -12q8 -2 17.5 4.5t13 6t4.5 -1.5q9 -7 -3 -16t-25 -10q-11 -1 -18 3t-11 11t-5.5 17t-1.5 53v260l2 371q0 20 1 23.5t3 5t4 1.5q5 0 7.5 -6t1.5 -23t-1 -21zM127 403q10 0 16 -7t6 -16q0 -10 -6.5 -17t-18.5 -7
q-9 0 -14.5 7.5t-5.5 15.5q0 10 8 17t15 7z" />
    <glyph glyph-name="Lslash" unicode="&#x141;" horiz-adv-x="209" 
d="M206 11q1 -4 -1.5 -7.5t-24.5 -3.5l-75 -1q-2 0 -13 -0.5t-16 0t-7 1.5q-6 4 -6 38q-1 53 -0.5 155t0.5 144l-30 -14q-21 -11 -23 -2q-1 3 3.5 7.5t26.5 15.5l23 14l1 238q0 18 -1.5 47.5t0 34t6.5 4.5t8 -7.5t3 -27.5v-24v-188l-1 -68l46 27q6 5 18 9t15 -3
q1 -6 -9.5 -11t-11.5 -6q-27 -17 -43 -26l-15 -10l1 -153q-2 -103 1 -178l65 -2q4 0 23 2t27.5 0.5t9.5 -5.5z" />
    <glyph glyph-name="lslash" unicode="&#x142;" horiz-adv-x="148" 
d="M152 411q1 -3 -7.5 -9.5t-29.5 -18t-24 -13.5l-16 -9v-295q0 -32 2.5 -42t9.5 -12q8 -2 17.5 4.5t13 6t4.5 -1.5q9 -7 -3 -16t-25 -10q-11 -1 -18 3t-11 11t-5.5 17t-1.5 53v260v12l-18 -9q-16 -8 -19.5 -7t-4.5 4q-2 9 31 25l11 6l2 340q0 20 1 23.5t3 5t4 1.5
q5 0 7.5 -6t1.5 -23t-1 -21l-1 -310l43 24q3 2 12.5 7.5t14 5.5t7.5 -6z" />
    <glyph glyph-name="Nacute" unicode="&#x143;" horiz-adv-x="311" 
d="M225 789q4 0 6.5 -3t2.5 -7q0 -2 -1.5 -5t-13.5 -12q-11 -8 -29.5 -24.5t-24.5 -21.5q-18 -15 -24.5 -18.5t-8.5 -1.5q-6 5 10 21q5 4 21.5 17.5t31.5 29.5q20 20 23.5 22.5t6.5 2.5zM252 682q2 0 4.5 -2t2 -16.5t-0.5 -17.5q2 -48 0.5 -125t-1.5 -92q3 -145 1 -353
l1 -44q0 -2 0.5 -12.5t-1 -17t-6.5 -7.5q-2 0 -6 1t-7 8t-7 23q-1 5 -25.5 89t-34.5 121q-13 47 -46 180q-12 49 -30.5 121t-27.5 100q-1 -36 0 -82.5t1 -65.5v-298l1 -166v-12.5t-2.5 -14t-6.5 -2.5q-8 1 -8 27l-1 292v160v148q0 3 -0.5 19t0.5 26.5t6 12.5t10.5 -1
t13.5 -27q24 -79 32 -115q79 -317 87 -343q2 -8 19.5 -72t21.5 -75l-2 324l1 155q0 9 -0.5 54t0.5 69q0 32 11 31z" />
    <glyph glyph-name="nacute" unicode="&#x144;" horiz-adv-x="256" 
d="M192 679q2 -2 2 -5.5t0.5 -3t-11.5 -18.5l-66 -95q-8 -10 -11.5 -14t-7.5 -1q-2 2 -1.5 5.5t3 8.5t7.5 13t6 9l42 64l19 28q4 7 9 10t9 -1zM181 473q15 0 22 -12t8 -26q1 -18 0.5 -172.5t-1.5 -221.5q0 -5 1 -18t-1.5 -19t-12.5 -5q-4 1 -5.5 6t0 22t1.5 22l1 315v44
q0 20 -3 33.5t-14 13.5q-10 0 -28.5 -21.5t-42.5 -71.5t-36 -95q-6 -21 -6 -243q0 -17 -2.5 -21.5t-8.5 -4.5q-4 0 -6 7.5t-1.5 28t0.5 22.5l1 166l1 220q0 23 8 23q4 0 7 -4t2.5 -16t-0.5 -13q0 -94 -2 -133q9 33 27 73t44 70.5t47 30.5z" />
    <glyph glyph-name="Ncommaaccent" unicode="&#x145;" horiz-adv-x="311" 
d="M252 682q2 0 4.5 -2t2 -16.5t-0.5 -17.5q2 -48 0.5 -125t-1.5 -92q3 -145 1 -353l1 -44q0 -2 0.5 -12.5t-1 -17t-6.5 -7.5q-2 0 -6 1t-7 8t-7 23q-1 5 -25.5 89t-34.5 121q-13 47 -46 180q-12 49 -30.5 121t-27.5 100q-1 -36 0 -82.5t1 -65.5v-298l1 -166v-12.5t-2.5 -14
t-6.5 -2.5q-8 1 -8 27l-1 292v160v148q0 3 -0.5 19t0.5 26.5t6 12.5t10.5 -1t13.5 -27q24 -79 32 -115q79 -317 87 -343q2 -8 19.5 -72t21.5 -75l-2 324l1 155q0 9 -0.5 54t0.5 69q0 32 11 31zM148 -24q2 1 6 0.5t5 -3.5t2 -7.5t-4 -24.5l-20 -86q-2 -8 -5.5 -15t-6.5 -6
q-1 0 -4 2.5t2 35.5l17 88q2 12 8 16z" />
    <glyph glyph-name="ncommaaccent" unicode="&#x146;" horiz-adv-x="256" 
d="M181 473q15 0 22 -12t8 -26q1 -18 0.5 -172.5t-1.5 -221.5q0 -5 1 -18t-1.5 -19t-12.5 -5q-4 1 -5.5 6t0 22t1.5 22l1 315v44q0 20 -3 33.5t-14 13.5q-10 0 -28.5 -21.5t-42.5 -71.5t-36 -95q-6 -21 -6 -243q0 -17 -2.5 -21.5t-8.5 -4.5q-4 0 -6 7.5t-1.5 28t0.5 22.5
l1 166l1 220q0 23 8 23q4 0 7 -4t2.5 -16t-0.5 -13q0 -94 -2 -133q9 33 27 73t44 70.5t47 30.5zM124 -36q2 1 6 0.5t5 -3.5t2 -7.5t-4 -24.5l-20 -86q-2 -8 -5.5 -15t-6.5 -6q-1 0 -4 2.5t2 35.5l17 88q2 12 8 16z" />
    <glyph glyph-name="Ncaron" unicode="&#x147;" horiz-adv-x="311" 
d="M248 771q9 -6 -6 -19l-55 -46q-25 -20 -30 -20q-3 0 -26 17.5t-45 38.5q-2 1 -9 7.5t-10 12t0 8.5q1 1 5.5 2t13.5 -8l36 -33q22 -19 36 -26q6 3 14 9t47 40q24 21 29 17zM252 682q2 0 4.5 -2t2 -16.5t-0.5 -17.5q2 -48 0.5 -125t-1.5 -92q3 -145 1 -353l1 -44
q0 -2 0.5 -12.5t-1 -17t-6.5 -7.5q-2 0 -6 1t-7 8t-7 23q-1 5 -25.5 89t-34.5 121q-13 47 -46 180q-12 49 -30.5 121t-27.5 100q-1 -36 0 -82.5t1 -65.5v-298l1 -166v-12.5t-2.5 -14t-6.5 -2.5q-8 1 -8 27l-1 292v160v148q0 3 -0.5 19t0.5 26.5t6 12.5t10.5 -1t13.5 -27
q24 -79 32 -115q79 -317 87 -343q2 -8 19.5 -72t21.5 -75l-2 324l1 155q0 9 -0.5 54t0.5 69q0 32 11 31z" />
    <glyph glyph-name="ncaron" unicode="&#x148;" horiz-adv-x="256" 
d="M194 672q5 -1 4.5 -8.5t-4.5 -15.5l-46 -87q-17 -29 -25 -29q-7 0 -24 26q-7 9 -29 47t-26 44t-6 13t2 10q3 2 6 1.5t12 -15.5l40 -68l26 -38q9 13 29 51.5t20 39.5q13 25 15.5 27.5t5.5 1.5zM181 473q15 0 22 -12t8 -26q1 -18 0.5 -172.5t-1.5 -221.5q0 -5 1 -18
t-1.5 -19t-12.5 -5q-4 1 -5.5 6t0 22t1.5 22l1 315v44q0 20 -3 33.5t-14 13.5q-10 0 -28.5 -21.5t-42.5 -71.5t-36 -95q-6 -21 -6 -243q0 -17 -2.5 -21.5t-8.5 -4.5q-4 0 -6 7.5t-1.5 28t0.5 22.5l1 166l1 220q0 23 8 23q4 0 7 -4t2.5 -16t-0.5 -13q0 -94 -2 -133
q9 33 27 73t44 70.5t47 30.5z" />
    <glyph glyph-name="Eng" unicode="&#x14a;" horiz-adv-x="316" 
d="M256 683q10 0 6 -36l-1 -136q-2 -113 0 -170q1 -127 0 -263l-1 -67l-3 -147q-3 -55 -17.5 -83t-43.5 -32q-31 -4 -52 18t-21 51q0 20 4.5 39t21.5 44q9 13 12.5 14t6.5 -1t3 -5t-10 -20q-13 -22 -18 -37.5t-2 -42.5q2 -17 14.5 -31t30.5 -14q14 0 27.5 11t20 36.5
t7.5 56.5q4 98 1 132l-5 26l-16 49l-22 74q-1 5 -18 66t-25 96l-36 143q-20 82 -49 184q-2 -28 -1 -77.5t1 -70.5q0 -200 1 -225v-75v-164v-12.5t-2.5 -14t-6.5 -2.5q-8 1 -8 27l-1 225l1 227q-2 92 -1 147q0 3 -0.5 17.5t0.5 22.5q0 17 6 18q5 1 10.5 -2t13.5 -26l10 -33
l53 -198q7 -26 25.5 -104t30.5 -122q9 -32 23 -78t18 -65q2 130 -1 321l3 278q0 18 2.5 24.5t7.5 6.5z" />
    <glyph glyph-name="eng" unicode="&#x14b;" horiz-adv-x="259" 
d="M211 417q2 -28 1.5 -58.5t-0.5 -36.5q-1 -455 -2 -470q-3 -59 -20 -87.5t-52 -28.5q-28 0 -44.5 19t-17.5 51q-2 41 26 83q9 13 12.5 14t6.5 -1t3 -5t-10 -20q-25 -44 -20 -80q3 -21 15 -33t30 -12q14 0 27.5 11t20 36.5t7.5 56.5q1 29 1 187l-1 336q0 5 -0.5 26.5
t-4.5 36t-15 14.5q-8 0 -17 -7.5t-15 -17.5q-47 -76 -70 -164q-8 -29 -8 -256q0 -15 -8 -15q-6 0 -9 4t-1.5 18.5t1.5 19.5l1 165v75.5t1 72.5t1 32v59q0 10 1.5 15t7.5 6t9.5 -4.5t1.5 -21.5t-2 -20l-3 -112q24 72 51 117q29 50 57 50q14 0 24.5 -10t13.5 -45z" />
    <glyph glyph-name="Omacron" unicode="&#x14c;" horiz-adv-x="309" 
d="M132 746l88 -1q12 0 17.5 -1.5t5.5 -7.5q0 -4 -6 -6.5t-21 -1.5t-17 1h-90q-24 0 -24 9q0 5 8 7t23 1.5t16 -0.5zM158 688q31 3 50.5 -15t31.5 -52q17 -49 23 -137q7 -88 5 -170q0 -55 -8 -137q-9 -92 -36.5 -138t-71.5 -46q-21 0 -41 13.5t-36 44.5t-22 68
q-8 38 -12.5 109.5t-0.5 158.5q9 146 35 218q13 35 35.5 58t47.5 25zM162 670q-51 -8 -71 -71q-7 -21 -16 -58t-16 -124t-2.5 -180t21.5 -147q9 -27 21.5 -46.5t27 -27t26.5 -7.5q20 0 38.5 16t32 56.5t19.5 91.5q9 85 9 146q0 93 -6.5 177.5t-20.5 118.5q-10 29 -25 42
t-38 13z" />
    <glyph glyph-name="omacron" unicode="&#x14d;" horiz-adv-x="236" 
d="M89 563l88 -1q12 0 17.5 -1.5t5.5 -7.5q0 -4 -6 -6.5t-21 -1.5t-17 1h-90q-24 0 -24 9q0 5 8 7t23 1.5t16 -0.5zM122 471q23 0 42 -21t28 -69q13 -66 13 -161q0 -101 -14.5 -147.5t-36.5 -65.5q-16 -13 -39 -13q-57 0 -75 90q-10 56 -10 121.5t6 110.5q8 71 30 113t56 42
zM57 343q-15 -116 -6 -220q13 -113 65 -113q26 0 44 32q24 38 28 134.5t-8 178.5q-14 100 -60 100q-24 0 -40.5 -35.5t-22.5 -76.5z" />
    <glyph glyph-name="Obreve" unicode="&#x14e;" horiz-adv-x="309" 
d="M229 799q8 0 7.5 -13.5t-5.5 -24.5q-6 -16 -17 -28.5t-22 -17.5q-13 -5 -27 -5q-24 0 -42 14q-21 17 -31 51q-3 10 -1 16.5t8 6.5q4 0 6.5 -11t3.5 -14q7 -23 22.5 -35t33.5 -12q16 0 30 11t22 32q1 3 3.5 15t5 13.5t3.5 1.5zM158 688q31 3 50.5 -15t31.5 -52
q17 -49 23 -137q7 -88 5 -170q0 -55 -8 -137q-9 -92 -36.5 -138t-71.5 -46q-21 0 -41 13.5t-36 44.5t-22 68q-8 38 -12.5 109.5t-0.5 158.5q9 146 35 218q13 35 35.5 58t47.5 25zM162 670q-51 -8 -71 -71q-7 -21 -16 -58t-16 -124t-2.5 -180t21.5 -147q9 -27 21.5 -46.5
t27 -27t26.5 -7.5q20 0 38.5 16t32 56.5t19.5 91.5q9 85 9 146q0 93 -6.5 177.5t-20.5 118.5q-10 29 -25 42t-38 13z" />
    <glyph glyph-name="obreve" unicode="&#x14f;" horiz-adv-x="236" 
d="M172 672q4 0 7 -5.5t3 -40.5q-1 -44 -18 -70.5t-46 -26.5q-26 0 -41 21t-19 46t-4 42q0 38 12 33q3 -1 4 -8t0.5 -16t-0.5 -12q0 -22 6.5 -45.5t18.5 -34t24 -10.5t23.5 9.5t18 32t6.5 50.5q0 3 -0.5 12.5t0.5 16t5 6.5zM122 471q23 0 42 -21t28 -69q13 -66 13 -161
q0 -101 -14.5 -147.5t-36.5 -65.5q-16 -13 -39 -13q-57 0 -75 90q-10 56 -10 121.5t6 110.5q8 71 30 113t56 42zM57 343q-15 -116 -6 -220q13 -113 65 -113q26 0 44 32q24 38 28 134.5t-8 178.5q-14 100 -60 100q-24 0 -40.5 -35.5t-22.5 -76.5z" />
    <glyph glyph-name="Ohungarumlaut" unicode="&#x150;" horiz-adv-x="309" 
d="M211 802q4 0 6.5 -3t2.5 -7q0 -2 -1.5 -5t-13.5 -12q-11 -8 -29.5 -24.5t-24.5 -21.5q-18 -15 -24.5 -18.5t-8.5 -1.5q-6 5 10 21q5 4 21.5 17.5t31.5 29.5q20 20 23.5 22.5t6.5 2.5zM301 802q4 0 6.5 -3t2.5 -7q0 -2 -1.5 -5t-13.5 -12q-11 -8 -29.5 -24.5t-24.5 -21.5
q-18 -15 -24.5 -18.5t-8.5 -1.5q-6 5 10 21q5 4 21.5 17.5t31.5 29.5q20 20 23.5 22.5t6.5 2.5zM158 688q31 3 50.5 -15t31.5 -52q17 -49 23 -137q7 -88 5 -170q0 -55 -8 -137q-9 -92 -36.5 -138t-71.5 -46q-21 0 -41 13.5t-36 44.5t-22 68q-8 38 -12.5 109.5t-0.5 158.5
q9 146 35 218q13 35 35.5 58t47.5 25zM162 670q-51 -8 -71 -71q-7 -21 -16 -58t-16 -124t-2.5 -180t21.5 -147q9 -27 21.5 -46.5t27 -27t26.5 -7.5q20 0 38.5 16t32 56.5t19.5 91.5q9 85 9 146q0 93 -6.5 177.5t-20.5 118.5q-10 29 -25 42t-38 13z" />
    <glyph glyph-name="ohungarumlaut" unicode="&#x151;" horiz-adv-x="236" 
d="M173 679q2 -2 2 -5.5t0.5 -3t-11.5 -18.5l-66 -95q-8 -10 -11.5 -14t-7.5 -1q-2 2 -1.5 5.5t3 8.5t7.5 13t6 9l61 92q4 7 9 10t9 -1zM249 679q2 -2 2 -5.5t0.5 -3t-11.5 -18.5l-66 -95q-8 -10 -11.5 -14t-7.5 -1q-2 2 -1.5 5.5t3 8.5t7.5 13t6 9l61 92q4 7 9 10t9 -1z
M122 471q23 0 42 -21t28 -69q13 -66 13 -161q0 -101 -14.5 -147.5t-36.5 -65.5q-16 -13 -39 -13q-57 0 -75 90q-10 56 -10 121.5t6 110.5q8 71 30 113t56 42zM57 343q-15 -116 -6 -220q13 -113 65 -113q26 0 44 32q24 38 28 134.5t-8 178.5q-14 100 -60 100
q-24 0 -40.5 -35.5t-22.5 -76.5z" />
    <glyph glyph-name="OE" unicode="&#x152;" horiz-adv-x="372" 
d="M166 689q14 -1 28 -12t20 -21q-2 25 11 25l112 1q14 0 22 -1.5t8 -7.5q0 -3 -3 -5.5t-11.5 -3t-9.5 -0.5h-55t-59 -1q-2 -146 -5 -222l83 2q20 0 21 -7q0 -2 -1.5 -4.5t-7 -4.5t-13 -2h-16.5h-10q-45 0 -56 -2l-1 -208q0 -25 -2 -94t-1 -103l99 1q13 0 20 -1.5t7 -7.5
q1 -10 -21 -9q-4 0 -27.5 0.5t-38.5 -0.5q-50 -3 -54 3q-2 4 -2 17v15q-13 -20 -27.5 -31t-35.5 -11q-24 0 -42 17t-30 47.5t-19 76.5t-10 112q-3 92 5 202q7 90 25.5 142.5t40.5 74.5q25 25 56 23zM137 666q-28 -18 -44.5 -58t-23.5 -88q-8 -56 -11.5 -130.5t-2.5 -130.5
q1 -63 10.5 -120.5t28 -92.5t45.5 -35q10 0 22 4t27 26q8 11 13 28t5 63v264q0 32 3 96.5t2 100.5q-2 41 -16 61q-12 16 -29 18t-29 -6z" />
    <glyph glyph-name="oe" unicode="&#x153;" horiz-adv-x="355" 
d="M123 471q61 0 65 -138q29 137 83 137q24 0 39.5 -30t20.5 -89q8 -91 -3 -100q-1 -1 -3 -1.5t-31 -0.5l-100 -1q-4 -45 -1 -93t14 -79.5t24 -46.5q5 -7 16 -11.5t20 -1.5t18.5 15.5t14.5 35t4 39.5q-2 17 -0.5 20.5t4.5 4.5q16 3 13 -44q-1 -23 -10 -46t-22.5 -33.5
t-26.5 -11.5q-33 -1 -53.5 34.5t-26.5 84.5q-10 -94 -44 -115q-11 -7 -24 -7q-8 0 -20 4.5t-22 17t-13 19.5q-18 38 -24.5 105.5t-2.5 126.5q2 29 8 69.5t18.5 73.5t29.5 47.5t35 14.5zM122 453q-30 0 -48.5 -50t-23.5 -129q-3 -48 -1 -110.5t19 -107t45 -44.5q11 0 21.5 8
t17.5 28q14 42 19.5 119.5t3.5 145.5q-4 76 -17 108t-36 32zM270 453q-12 0 -23.5 -14.5t-17.5 -29.5q-33 -79 -35 -142l120 -1q5 38 -3 106q-5 41 -17 61t-24 20z" />
    <glyph glyph-name="Racute" unicode="&#x154;" horiz-adv-x="249" 
d="M179 800q4 0 6.5 -3t2.5 -7q0 -2 -1.5 -5t-13.5 -12q-11 -8 -29.5 -24.5t-24.5 -21.5q-18 -15 -24.5 -18.5t-8.5 -1.5q-6 5 10 21q5 4 21.5 17.5t31.5 29.5q20 20 23.5 22.5t6.5 2.5zM62 682l20 2q22 0 45 -11t38 -28q19 -21 32 -59t13 -78q0 -85 -41 -125
q-34 -32 -94 -32l51 -107l85 -171q20 -38 29 -52q5 -7 5.5 -13.5t-6.5 -7.5q-6 0 -9 2.5t-5 7.5t-3 6q-51 94 -106 211q-22 43 -51 111q4 -75 4 -260q0 -5 -0.5 -27t1.5 -36q1 -7 -2 -11.5t-8 -4.5q-2 0 -7 2t-3 17t2 19v133l-2 270v183q0 4 -1 22t2 26.5t11 10.5zM71 665
q-5 -1 -5 -50l1 -156l1 -90q19 -2 39.5 2.5t34.5 12.5q18 10 31 32.5t18 65t-8 91.5q-9 32 -28.5 56t-42 31.5t-41.5 4.5z" />
    <glyph glyph-name="racute" unicode="&#x155;" horiz-adv-x="188" 
d="M170 679q2 -2 2 -5.5t0.5 -3t-11.5 -18.5l-66 -95q-8 -10 -11.5 -14t-7.5 -1q-2 2 -1.5 5.5t3 8.5t7.5 13t6 9l42 64l19 28q4 7 9 10t9 -1zM138 471q17 1 29.5 -9.5t14.5 -35.5t-4 -52q-1 -3 -2.5 -12.5t-4 -16t-7.5 -6.5q-4 0 -5.5 3.5t-1 9t2.5 14t2 9.5q5 18 5 37
t-7.5 33t-26.5 9q-23 -6 -47 -96q-10 -36 -15 -64.5t-5 -83.5v-164q0 -28 -2.5 -38.5t-9.5 -10.5q-10 1 -8 25q1 11 1.5 31.5t0.5 175.5l1 118v92q0 24 9 24q4 0 6 -3t4 -24q0 -5 -2 -41.5t-1 -61.5q15 64 26 91t23 36.5t24 10.5z" />
    <glyph glyph-name="Rcommaaccent" unicode="&#x156;" horiz-adv-x="249" 
d="M62 682l20 2q22 0 45 -11t38 -28q19 -21 32 -59t13 -78q0 -85 -41 -125q-34 -32 -94 -32l51 -107l85 -171q20 -38 29 -52q5 -7 5.5 -13.5t-6.5 -7.5q-6 0 -9 2.5t-5 7.5t-3 6q-51 94 -106 211q-22 43 -51 111q4 -75 4 -260q0 -5 -0.5 -27t1.5 -36q1 -7 -2 -11.5t-8 -4.5
q-2 0 -7 2t-3 17t2 19v133l-2 270v183q0 4 -1 22t2 26.5t11 10.5zM71 665q-5 -1 -5 -50l1 -156l1 -90q19 -2 39.5 2.5t34.5 12.5q18 10 31 32.5t18 65t-8 91.5q-9 32 -28.5 56t-42 31.5t-41.5 4.5zM133 -30q2 1 6 0.5t5 -3.5t2 -7.5t-4 -24.5l-20 -86q-2 -8 -5.5 -15
t-6.5 -6q-1 0 -4 2.5t2 35.5l17 88q2 12 8 16z" />
    <glyph glyph-name="rcommaaccent" unicode="&#x157;" horiz-adv-x="188" 
d="M138 471q17 1 29.5 -9.5t14.5 -35.5t-4 -52q-1 -3 -2.5 -12.5t-4 -16t-7.5 -6.5q-4 0 -5.5 3.5t-1 9t2.5 14t2 9.5q5 18 5 37t-7.5 33t-26.5 9q-23 -6 -47 -96q-10 -36 -15 -64.5t-5 -83.5v-164q0 -28 -2.5 -38.5t-9.5 -10.5q-10 1 -8 25q1 11 1.5 31.5t0.5 175.5l1 118
v92q0 24 9 24q4 0 6 -3t4 -24q0 -5 -2 -41.5t-1 -61.5q15 64 26 91t23 36.5t24 10.5zM52 -36q2 1 6 0.5t5 -3.5t2 -7.5t-4 -24.5l-20 -86q-2 -8 -5.5 -15t-6.5 -6q-1 0 -4 2.5t2 35.5l17 88q2 12 8 16z" />
    <glyph glyph-name="Rcaron" unicode="&#x158;" horiz-adv-x="249" 
d="M202 792q9 -6 -6 -19l-55 -46q-25 -20 -30 -20q-3 0 -26 17.5t-45 38.5q-2 1 -9 7.5t-10 12t0 8.5q1 1 5.5 2t13.5 -8l36 -33q22 -19 36 -26q6 3 14 9t47 40q24 21 29 17zM62 682l20 2q22 0 45 -11t38 -28q19 -21 32 -59t13 -78q0 -85 -41 -125q-34 -32 -94 -32l51 -107
l85 -171q20 -38 29 -52q5 -7 5.5 -13.5t-6.5 -7.5q-6 0 -9 2.5t-5 7.5t-3 6q-51 94 -106 211q-22 43 -51 111q4 -75 4 -260q0 -5 -0.5 -27t1.5 -36q1 -7 -2 -11.5t-8 -4.5q-2 0 -7 2t-3 17t2 19v133l-2 270v183q0 4 -1 22t2 26.5t11 10.5zM71 665q-5 -1 -5 -50l1 -156l1 -90
q19 -2 39.5 2.5t34.5 12.5q18 10 31 32.5t18 65t-8 91.5q-9 32 -28.5 56t-42 31.5t-41.5 4.5z" />
    <glyph glyph-name="rcaron" unicode="&#x159;" horiz-adv-x="188" 
d="M172 672q5 -1 4.5 -8.5t-4.5 -15.5l-46 -87q-17 -29 -25 -29q-7 0 -24 26q-7 9 -29 47t-26 44t-6 13t2 10q3 2 6 1.5t12 -15.5l40 -68l26 -38q9 13 29 51.5t20 39.5q13 25 15.5 27.5t5.5 1.5zM138 471q17 1 29.5 -9.5t14.5 -35.5t-4 -52q-1 -3 -2.5 -12.5t-4 -16
t-7.5 -6.5q-4 0 -5.5 3.5t-1 9t2.5 14t2 9.5q5 18 5 37t-7.5 33t-26.5 9q-23 -6 -47 -96q-10 -36 -15 -64.5t-5 -83.5v-164q0 -28 -2.5 -38.5t-9.5 -10.5q-10 1 -8 25q1 11 1.5 31.5t0.5 175.5l1 118v92q0 24 9 24q4 0 6 -3t4 -24q0 -5 -2 -41.5t-1 -61.5q15 64 26 91
t23 36.5t24 10.5z" />
    <glyph glyph-name="Sacute" unicode="&#x15a;" 
d="M190 803q4 0 6.5 -3t2.5 -7q0 -2 -1.5 -5t-13.5 -12q-11 -8 -29.5 -24.5t-24.5 -21.5q-18 -15 -24.5 -18.5t-8.5 -1.5q-6 5 10 21q5 4 21.5 17.5t31.5 29.5q20 20 23.5 22.5t6.5 2.5zM141 686q16 -3 32 -17.5t24.5 -42t6.5 -58.5q0 -3 -0.5 -11.5t-1.5 -12t-3 -5.5
q-3 -3 -8.5 -2.5t-6.5 4.5q-2 5 1 22q3 33 -5 60.5t-26 38.5q-14 9 -32 9q-12 0 -24 -6q-24 -14 -30.5 -41t-3 -51t8.5 -41q3 -11 9.5 -29.5t52.5 -132.5q2 -4 4 -9t25.5 -64t37.5 -107.5t15 -82.5q1 -27 -5.5 -50t-20 -36.5t-26.5 -20.5q-18 -9 -39 -9q-20 0 -40 9t-32 22
q-41 51 -21 137q0 1 1.5 8.5t4 12.5t7.5 5q6 -1 7 -8t-1 -14q-7 -21 -7.5 -52t7.5 -49q10 -27 33 -41.5t55 -10.5q22 3 36.5 19.5t20.5 44t0 61.5q-11 65 -78 227l-42 106q-15 40 -23.5 70.5t-6.5 66.5q1 19 10.5 39t21.5 29q20 15 46 15z" />
    <glyph glyph-name="sacute" unicode="&#x15b;" horiz-adv-x="175" 
d="M165 679q2 -2 2 -5.5t0.5 -3t-11.5 -18.5l-66 -95q-8 -10 -11.5 -14t-7.5 -1q-2 2 -1.5 5.5t3 8.5t7.5 13t6 9l42 64l19 28q4 7 9 10t9 -1zM84 470q17 1 33.5 -7.5t25 -31t8.5 -48.5q0 -32 -15 -29q-4 1 -5 4.5t1.5 12t2.5 10.5q1 31 -12 53.5t-38 19.5q-7 -1 -15.5 -8
t-11.5 -14q-5 -10 -6.5 -25t3.5 -38.5t16.5 -49t25.5 -52t17 -32.5q20 -40 31 -70q5 -17 9.5 -39t5 -44t-6 -42t-22.5 -33t-41 -13q-17 0 -35 12t-27 40.5t-3 59.5q1 11 6.5 22.5t9.5 12t6 -0.5q3 -1 3 -5t-4 -13.5t-4 -11.5q-5 -26 1 -51.5t20 -37t28 -11.5q19 0 32 13
t16.5 35t1.5 43q-3 27 -11.5 54.5t-37.5 84.5l-3 6t-22 41.5t-28.5 72t-1.5 62.5q5 16 16.5 31t30.5 17z" />
    <glyph glyph-name="Scircumflex" unicode="&#x15c;" 
d="M121 773q5 0 30 -20l55 -46q15 -13 6 -19q-5 -4 -29 17q-39 34 -47 40t-14 9q-14 -7 -36 -26l-36 -33q-12 -12 -19 -6q-3 3 -1 8t20 20q25 24 47 40q21 16 24 16zM141 686q16 -3 32 -17.5t24.5 -42t6.5 -58.5q0 -3 -0.5 -11.5t-1.5 -12t-3 -5.5q-3 -3 -8.5 -2.5t-6.5 4.5
q-2 5 1 22q3 33 -5 60.5t-26 38.5q-14 9 -32 9q-12 0 -24 -6q-24 -14 -30.5 -41t-3 -51t8.5 -41q3 -11 9.5 -29.5t52.5 -132.5q2 -4 4 -9t25.5 -64t37.5 -107.5t15 -82.5q1 -27 -5.5 -50t-20 -36.5t-26.5 -20.5q-18 -9 -39 -9q-20 0 -40 9t-32 22q-41 51 -21 137
q0 1 1.5 8.5t4 12.5t7.5 5q6 -1 7 -8t-1 -14q-7 -21 -7.5 -52t7.5 -49q10 -27 33 -41.5t55 -10.5q22 3 36.5 19.5t20.5 44t0 61.5q-11 65 -78 227l-42 106q-15 40 -23.5 70.5t-6.5 66.5q1 19 10.5 39t21.5 29q20 15 46 15z" />
    <glyph glyph-name="scircumflex" unicode="&#x15d;" horiz-adv-x="175" 
d="M96 654q4 0 9 -6t9.5 -13t4.5 -8q7 -11 27 -47t25 -43q4 -6 6 -13t-2 -10q-3 -2 -6.5 -1t-7 8t-4.5 8l-38 66l-25 39q-2 -3 -9.5 -14.5t-24.5 -43.5t-18 -34t-5 -10.5t-8 -13.5t-8 -4q-5 1 -4.5 8.5t4.5 15.5l49 88q16 28 26 28zM84 470q17 1 33.5 -7.5t25 -31t8.5 -48.5
q0 -32 -15 -29q-4 1 -5 4.5t1.5 12t2.5 10.5q1 31 -12 53.5t-38 19.5q-7 -1 -15.5 -8t-11.5 -14q-5 -10 -6.5 -25t3.5 -38.5t16.5 -49t25.5 -52t17 -32.5q20 -40 31 -70q5 -17 9.5 -39t5 -44t-6 -42t-22.5 -33t-41 -13q-17 0 -35 12t-27 40.5t-3 59.5q1 11 6.5 22.5t9.5 12
t6 -0.5q3 -1 3 -5t-4 -13.5t-4 -11.5q-5 -26 1 -51.5t20 -37t28 -11.5q19 0 32 13t16.5 35t1.5 43q-3 27 -11.5 54.5t-37.5 84.5l-3 6t-22 41.5t-28.5 72t-1.5 62.5q5 16 16.5 31t30.5 17z" />
    <glyph glyph-name="Scedilla" unicode="&#x15e;" 
d="M165 0q-14 -6 -21 -7q-21 -43 -21 -51q30 -49 37.5 -67.5t7.5 -35.5q0 -24 -14 -38.5t-32 -14.5t-32 12q-11 10 -17 27q-3 9 -4 21t3 17t10 3t5 -11t-1 -11q2 -13 8.5 -24.5t18.5 -14.5q21 -4 31 10.5t6 37.5q-3 21 -44 83q-3 4 -1 11.5t10 24t9 19.5q-19 1 -39 9.5
t-31 21.5q-41 51 -21 137q0 1 1.5 8.5t4 12.5t7.5 5q6 -1 7 -8t-1 -14q-7 -21 -7.5 -52t7.5 -49q10 -27 33 -41.5t55 -10.5q22 3 36.5 19.5t20.5 44t0 61.5q-11 65 -78 227l-42 106q-15 40 -23.5 70.5t-6.5 66.5q1 19 10.5 39t21.5 29q20 15 46 15l16 -2q16 -3 32 -17.5
t24.5 -42t6.5 -58.5q0 -3 -0.5 -11.5t-1.5 -12t-3 -5.5q-3 -3 -8.5 -2.5t-6.5 4.5q-2 5 1 22q3 33 -5 60.5t-26 38.5q-14 9 -32 9q-12 0 -24 -6q-24 -14 -30.5 -41t-3 -51t8.5 -41q3 -11 9.5 -29.5t52.5 -132.5q2 -4 4 -9t25.5 -64t37.5 -107.5t15 -82.5q1 -27 -5.5 -50
t-20 -36.5t-26.5 -20.5z" />
    <glyph glyph-name="scedilla" unicode="&#x15f;" horiz-adv-x="175" 
d="M113 -3q-20 -41 -20 -48q30 -49 37.5 -67.5t7.5 -35.5q0 -24 -14 -38.5t-32 -14.5t-32 12q-11 10 -17 27q-3 9 -4 21t3 17t10 3t5 -11t-1 -11q2 -13 8.5 -24.5t18.5 -14.5q21 -4 31 10.5t6 37.5q-3 21 -44 83q-1 1 -1.5 4t2 10.5t8 19.5t7.5 17h-2q-17 0 -35 12t-27 40.5
t-3 59.5q1 11 6.5 22.5t9.5 12t6 -0.5q3 -1 3 -5t-4 -13.5t-4 -11.5q-5 -26 1 -51.5t20 -37t28 -11.5q19 0 32 13t16.5 35t1.5 43q-3 27 -11.5 54.5t-37.5 84.5l-3 6t-22 41.5t-28.5 72t-1.5 62.5q5 16 16.5 31t30.5 17q17 1 33.5 -7.5t25 -31t8.5 -48.5q0 -32 -15 -29
q-4 1 -5 4.5t1.5 12t2.5 10.5q1 31 -12 53.5t-38 19.5q-7 -1 -15.5 -8t-11.5 -14q-5 -10 -6.5 -25t3.5 -38.5t16.5 -49t25.5 -52t17 -32.5q20 -40 31 -70q20 -64 12 -110.5t-44 -57.5z" />
    <glyph glyph-name="Scaron" unicode="&#x160;" 
d="M213 795q9 -6 -6 -19l-55 -46q-25 -20 -30 -20q-3 0 -26 17.5t-45 38.5q-2 1 -9 7.5t-10 12t0 8.5q1 1 5.5 2t13.5 -8l36 -33q22 -19 36 -26q6 3 14 9t47 40q24 21 29 17zM141 686q16 -3 32 -17.5t24.5 -42t6.5 -58.5q0 -3 -0.5 -11.5t-1.5 -12t-3 -5.5q-3 -3 -8.5 -2.5
t-6.5 4.5q-2 5 1 22q3 33 -5 60.5t-26 38.5q-14 9 -32 9q-12 0 -24 -6q-24 -14 -30.5 -41t-3 -51t8.5 -41q3 -11 9.5 -29.5t52.5 -132.5q2 -4 4 -9t25.5 -64t37.5 -107.5t15 -82.5q1 -27 -5.5 -50t-20 -36.5t-26.5 -20.5q-18 -9 -39 -9q-20 0 -40 9t-32 22q-41 51 -21 137
q0 1 1.5 8.5t4 12.5t7.5 5q6 -1 7 -8t-1 -14q-7 -21 -7.5 -52t7.5 -49q10 -27 33 -41.5t55 -10.5q22 3 36.5 19.5t20.5 44t0 61.5q-11 65 -78 227l-42 106q-15 40 -23.5 70.5t-6.5 66.5q1 19 10.5 39t21.5 29q20 15 46 15z" />
    <glyph glyph-name="scaron" unicode="&#x161;" horiz-adv-x="175" 
d="M167 672q5 -1 4.5 -8.5t-4.5 -15.5l-46 -87q-17 -29 -25 -29q-7 0 -24 26q-7 9 -29 47t-26 44t-6 13t2 10q3 2 6 1.5t12 -15.5l40 -68l26 -38q9 13 29 51.5t20 39.5q13 25 15.5 27.5t5.5 1.5zM84 470q17 1 33.5 -7.5t25 -31t8.5 -48.5q0 -32 -15 -29q-4 1 -5 4.5t1.5 12
t2.5 10.5q1 31 -12 53.5t-38 19.5q-7 -1 -15.5 -8t-11.5 -14q-5 -10 -6.5 -25t3.5 -38.5t16.5 -49t25.5 -52t17 -32.5q20 -40 31 -70q5 -17 9.5 -39t5 -44t-6 -42t-22.5 -33t-41 -13q-17 0 -35 12t-27 40.5t-3 59.5q1 11 6.5 22.5t9.5 12t6 -0.5q3 -1 3 -5t-4 -13.5
t-4 -11.5q-5 -26 1 -51.5t20 -37t28 -11.5q19 0 32 13t16.5 35t1.5 43q-3 27 -11.5 54.5t-37.5 84.5l-3 6t-22 41.5t-28.5 72t-1.5 62.5q5 16 16.5 31t30.5 17z" />
    <glyph glyph-name="Tcommaaccent" unicode="&#x162;" horiz-adv-x="218" 
d="M213 676q0 -3 -1.5 -5.5t-7 -4t-13 -2t-15.5 0t-9 0.5h-50l1 -361v-275q1 -21 -1 -26l-20 -47q30 -49 38 -68.5t8 -36.5q0 -24 -14 -38.5t-32 -14.5t-32 12q-11 10 -17 27q-3 9 -4 21t3 17t10 3t5 -11t-1 -11q2 -13 8.5 -24.5t18.5 -14.5q21 -4 31 10.5t6 37.5
q-3 21 -44 83q-2 3 -1 8.5t10 24.5t12 27q-1 4 -1 20q-1 22 -0.5 64.5t0.5 59.5l-2 513q-6 1 -41 1q-5 0 -22.5 -0.5t-23.5 1t-7 4.5q0 2 1.5 6.5t7.5 4.5l56 -1l113 1q14 1 21.5 0.5t8.5 -6.5z" />
    <glyph glyph-name="tcommaaccent" unicode="&#x163;" horiz-adv-x="170" 
d="M153 465q1 0 8 0.5t11.5 -1t4.5 -5.5q0 -2 -1.5 -4.5t-6 -4t-11.5 -2t-14.5 0t-9.5 0.5l-53 -1l-1 -313q0 -6 -0.5 -38t1.5 -51q1 -13 8.5 -24.5t18.5 -11.5q9 0 16.5 6.5t9.5 28t7 22.5t7.5 -7.5t0.5 -26.5q-3 -19 -13 -27.5t-22 -10.5q-19 -38 -19 -46
q30 -49 37.5 -67.5t7.5 -35.5q0 -24 -14 -38.5t-32 -14.5t-32 12q-11 10 -17 27q-3 9 -4 21t3 17t10 3t5 -11t-1 -11q2 -13 8.5 -24.5t18.5 -14.5q21 -4 31 10.5t6 37.5q-3 21 -44 83q-3 5 0 14t9 22t8 18q-15 4 -22 19q-5 11 -7 24t-3 71q-2 62 -0.5 176.5t1.5 160.5
q-3 1 -22 0t-26 1.5t-7 7.5t4.5 6.5t11 1t8.5 -0.5l31 1l1 100q0 36 14 26q5 -3 3.5 -59t-1.5 -67q35 -2 72 0z" />
    <glyph glyph-name="Tcaron" unicode="&#x164;" horiz-adv-x="218" 
d="M198 793q9 -6 -6 -19l-55 -46q-25 -20 -30 -20q-3 0 -26 17.5t-45 38.5q-2 1 -9 7.5t-10 12t0 8.5q1 1 5.5 2t13.5 -8l36 -33q22 -19 36 -26q6 3 14 9t47 40q24 21 29 17zM183 682q14 1 21.5 0.5t8.5 -6.5q0 -3 -1.5 -5.5t-7 -4t-13 -2t-15.5 0t-9 0.5h-50l1 -361v-275
q0 -1 0.5 -9.5t-1 -15t-6.5 -6.5q-4 0 -7 4t-3 26q-1 22 -0.5 64.5t0.5 59.5l-2 513q-6 1 -41 1q-5 0 -22.5 -0.5t-23.5 1t-7 4.5q0 2 1.5 6.5t7.5 4.5l56 -1z" />
    <glyph glyph-name="tcaron" unicode="&#x165;" horiz-adv-x="170" 
d="M150 653q2 1 6 0.5t5 -3.5t2 -7.5t-4 -24.5l-17 -74q-2 -8 -5.5 -15t-6.5 -6q-11 1 0 40l8 50l2 24q2 10 10 16zM79 591q5 -3 3.5 -59t-1.5 -67q35 -2 72 0q1 0 8 0.5t11.5 -1t4.5 -5.5q0 -2 -1.5 -4.5t-6 -4t-11.5 -2t-14.5 0t-9.5 0.5l-53 -1l-1 -313q0 -6 -0.5 -38
t1.5 -51q1 -13 8.5 -24.5t18.5 -11.5q9 0 16.5 6.5t9.5 28t7 22.5t7.5 -7.5t0.5 -26.5q-2 -15 -11.5 -26.5t-28.5 -11.5q-25 0 -36 21q-5 11 -7 24t-3 71q-2 62 -0.5 176.5t1.5 160.5q-3 1 -22 0t-26 1.5t-7 7.5t4.5 6.5t11 1t8.5 -0.5l31 1l1 100q0 36 14 26z" />
    <glyph glyph-name="Tbar" unicode="&#x166;" horiz-adv-x="232" 
d="M174 665h-50q1 -56 0.5 -167.5t-0.5 -124.5h63q12 0 17.5 -1.5t5.5 -7.5q0 -4 -8 -6.5t-26.5 -1.5t-19.5 1h-32l1 -53v-275q0 -1 0.5 -9.5t-1 -15t-6.5 -6.5q-4 0 -7 4t-3 26q-1 22 -0.5 64.5t0.5 59.5l-1 206l-59 -1q-24 0 -24 9q0 3 3 5t11.5 3t39.5 0l29 -1l-1 292
q-6 1 -41 1q-5 0 -22.5 -0.5t-23.5 1t-7 4.5q0 2 1.5 6.5t7.5 4.5l56 -1l113 1q14 1 21.5 0.5t8.5 -6.5q0 -3 -1.5 -5.5t-7 -4t-13 -2t-15.5 0t-9 0.5z" />
    <glyph glyph-name="tbar" unicode="&#x167;" horiz-adv-x="186" 
d="M141 449l-53 -1l-1 -136h57q12 0 17.5 -1.5t5.5 -7.5q-1 -13 -80 -7v-161q0 -6 -0.5 -38t1.5 -51q1 -13 8.5 -24.5t18.5 -11.5q9 0 16.5 6.5t9.5 28t7 22.5t7.5 -7.5t0.5 -26.5q-2 -15 -11.5 -26.5t-28.5 -11.5q-25 0 -36 21q-5 11 -7 24t-3 71q-2 65 0 185h-31
q-24 0 -24 9q0 12 47 8h8l1 135q-3 1 -22 0t-26 1.5t-7 7.5t4.5 6.5t11 1t8.5 -0.5l31 1l1 100q0 36 14 26q5 -3 3.5 -59t-1.5 -67q35 -2 72 0q1 0 8 0.5t11.5 -1t4.5 -5.5q0 -2 -1.5 -4.5t-6 -4t-11.5 -2t-14.5 0t-9.5 0.5z" />
    <glyph glyph-name="Utilde" unicode="&#x168;" horiz-adv-x="296" 
d="M113 802q8 0 17 -8t26 -38.5t26 -29.5q8 1 14.5 19.5t6.5 51.5q0 3 2.5 5.5t5.5 2.5q8 0 7 -13q-1 -48 -10.5 -65.5t-27.5 -17.5q-11 0 -20.5 11t-24.5 38t-22 27t-13.5 -14.5t-7.5 -47.5q0 -2 -2 -6.5t-7 -4.5q-8 0 -7 12q4 39 7.5 50.5t11 19.5t18.5 8zM60 682
q5 -1 7.5 -4.5t1 -13.5t-1.5 -11q-1 -23 -1.5 -59t0 -98.5t0.5 -81.5v-14.5t1 -146t4 -169.5q6 -51 40 -68q22 -11 51 -7q63 6 68 141q1 30 0.5 231.5t-1.5 217.5q-2 53 -1.5 60.5t2.5 12t5 5.5q5 1 7.5 -3t2 -16t-0.5 -13l3 -429q0 -125 -16 -164t-41 -51q-16 -9 -41 -9
q-16 0 -32.5 4.5t-25.5 12.5q-36 26 -39 97q-2 51 -3 325v222q0 22 2 26t9 3z" />
    <glyph glyph-name="utilde" unicode="&#x169;" horiz-adv-x="259" 
d="M94 653q10 0 19.5 -14t25 -52t24.5 -37q8 1 14.5 29t6.5 69q0 3 2.5 5.5t5.5 2.5q8 0 7 -13q-2 -59 -9 -79.5t-15 -25.5t-14 -5q-11 0 -20.5 15t-24.5 51.5t-22 36.5q-9 0 -14.5 -29.5t-6.5 -59.5q0 -2 -2 -6.5t-7 -4.5q-8 0 -7 12q0 2 1.5 18t3 29t5.5 27.5t11 22.5
t16 8zM204 466q2 0 4 -0.5t3.5 -3t1.5 -6v-9v-6.5l-1 -162l-1 -135v-113q0 -1 0.5 -10.5t-1.5 -15.5t-7 -6t-8 4t-2.5 20t0.5 21l4 158q-1 -4 -4 -12.5t-16 -53t-38 -92.5q-9 -17 -24 -33.5t-31 -16.5q-8 0 -15.5 6t-13 23.5t-7.5 43.5t-2.5 59.5t-0.5 40.5v190l1 83
q0 23 6 25q16 4 12 -41l-1 -141q0 -4 -0.5 -84t2.5 -127q4 -34 8.5 -45.5t12.5 -11.5q25 -2 64 98q14 37 27 82t16 73l3 161q0 3 -0.5 15t2 17t6.5 5z" />
    <glyph glyph-name="Umacron" unicode="&#x16a;" horiz-adv-x="296" 
d="M115 750l88 -1q12 0 17.5 -1.5t5.5 -7.5q0 -4 -6 -6.5t-21 -1.5t-17 1h-90q-24 0 -24 9q0 5 8 7t23 1.5t16 -0.5zM60 682q5 -1 7.5 -4.5t1 -13.5t-1.5 -11q-1 -23 -1.5 -59t0 -98.5t0.5 -81.5v-14.5t1 -146t4 -169.5q6 -51 40 -68q22 -11 51 -7q63 6 68 141
q1 30 0.5 231.5t-1.5 217.5q-2 53 -1.5 60.5t2.5 12t5 5.5q5 1 7.5 -3t2 -16t-0.5 -13l3 -429q0 -125 -16 -164t-41 -51q-16 -9 -41 -9q-16 0 -32.5 4.5t-25.5 12.5q-36 26 -39 97q-2 51 -3 325v222q0 22 2 26t9 3z" />
    <glyph glyph-name="umacron" unicode="&#x16b;" horiz-adv-x="259" 
d="M95 563l88 -1q12 0 17.5 -1.5t5.5 -7.5q0 -4 -6 -6.5t-21 -1.5t-17 1h-90q-24 0 -24 9q0 5 8 7t23 1.5t16 -0.5zM204 466q2 0 4 -0.5t3.5 -3t1.5 -6v-9v-6.5l-1 -162l-1 -135v-113q0 -1 0.5 -10.5t-1.5 -15.5t-7 -6t-8 4t-2.5 20t0.5 21l4 158q-1 -4 -4 -12.5t-16 -53
t-38 -92.5q-9 -17 -24 -33.5t-31 -16.5q-8 0 -15.5 6t-13 23.5t-7.5 43.5t-2.5 59.5t-0.5 40.5v190l1 83q0 23 6 25q16 4 12 -41l-1 -141q0 -4 -0.5 -84t2.5 -127q4 -34 8.5 -45.5t12.5 -11.5q25 -2 64 98q14 37 27 82t16 73l3 161q0 3 -0.5 15t2 17t6.5 5z" />
    <glyph glyph-name="Ubreve" unicode="&#x16c;" horiz-adv-x="296" 
d="M210 799q8 0 7.5 -13.5t-5.5 -24.5q-6 -16 -17 -28.5t-22 -17.5q-13 -5 -27 -5q-24 0 -42 14q-21 17 -31 51q-3 10 -1 16.5t8 6.5q4 0 6.5 -11t3.5 -14q7 -23 22.5 -35t33.5 -12q16 0 30 11t22 32q1 3 3.5 15t5 13.5t3.5 1.5zM60 682q5 -1 7.5 -4.5t1 -13.5t-1.5 -11
q-1 -23 -1.5 -59t0 -98.5t0.5 -81.5v-14.5t1 -146t4 -169.5q6 -51 40 -68q22 -11 51 -7q63 6 68 141q1 30 0.5 231.5t-1.5 217.5q-2 53 -1.5 60.5t2.5 12t5 5.5q5 1 7.5 -3t2 -16t-0.5 -13l3 -429q0 -125 -16 -164t-41 -51q-16 -9 -41 -9q-16 0 -32.5 4.5t-25.5 12.5
q-36 26 -39 97q-2 51 -3 325v222q0 22 2 26t9 3z" />
    <glyph glyph-name="ubreve" unicode="&#x16d;" horiz-adv-x="259" 
d="M178 672q4 0 7 -5.5t3 -40.5q-1 -44 -18 -70.5t-46 -26.5q-26 0 -41 21t-19 46t-4 42q0 38 12 33q3 -1 4 -8t0.5 -16t-0.5 -12q0 -22 6.5 -45.5t18.5 -34t24 -10.5t23.5 9.5t18 32t6.5 50.5q0 3 -0.5 12.5t0.5 16t5 6.5zM204 466q2 0 4 -0.5t3.5 -3t1.5 -6v-9v-6.5
l-1 -162l-1 -135v-113q0 -1 0.5 -10.5t-1.5 -15.5t-7 -6t-8 4t-2.5 20t0.5 21l4 158q-1 -4 -4 -12.5t-16 -53t-38 -92.5q-9 -17 -24 -33.5t-31 -16.5q-8 0 -15.5 6t-13 23.5t-7.5 43.5t-2.5 59.5t-0.5 40.5v190l1 83q0 23 6 25q16 4 12 -41l-1 -141q0 -4 -0.5 -84t2.5 -127
q4 -34 8.5 -45.5t12.5 -11.5q25 -2 64 98q14 37 27 82t16 73l3 161q0 3 -0.5 15t2 17t6.5 5z" />
    <glyph glyph-name="Uring" unicode="&#x16e;" horiz-adv-x="296" 
d="M149 813q11 0 21 -6t15 -19.5t5 -28.5q0 -25 -10.5 -40.5t-33.5 -15.5q-18 0 -29 17t-11 41q0 20 13 36t30 16zM137 793q-13 -10 -14.5 -29t5.5 -32t21 -13q11 0 17 9q8 13 8 33t-10 30q-6 6 -15 6q-6 0 -12 -4zM60 682q5 -1 7.5 -4.5t1 -13.5t-1.5 -11q-1 -23 -1.5 -59
t0 -98.5t0.5 -81.5v-14.5t1 -146t4 -169.5q6 -51 40 -68q22 -11 51 -7q63 6 68 141q1 30 0.5 231.5t-1.5 217.5q-2 53 -1.5 60.5t2.5 12t5 5.5q5 1 7.5 -3t2 -16t-0.5 -13l3 -429q0 -125 -16 -164t-41 -51q-16 -9 -41 -9q-16 0 -32.5 4.5t-25.5 12.5q-36 26 -39 97
q-2 51 -3 325v222q0 22 2 26t9 3z" />
    <glyph glyph-name="uring" unicode="&#x16f;" horiz-adv-x="259" 
d="M130 687q34 0 39 -62q1 -22 -1.5 -44.5t-9.5 -33.5q-4 -8 -12.5 -14t-19.5 -6t-20 7t-13 16q-9 19 -8.5 52.5t7.5 52.5q11 32 38 32zM118 669q-14 -10 -17 -53.5t7 -60.5q7 -12 17.5 -12.5t17.5 9.5q11 15 11 57q0 17 -3.5 34t-8.5 23t-12.5 6t-11.5 -3zM204 466
q2 0 4 -0.5t3.5 -3t1.5 -6v-9v-6.5l-1 -162l-1 -135v-113q0 -1 0.5 -10.5t-1.5 -15.5t-7 -6t-8 4t-2.5 20t0.5 21l4 158q-1 -4 -4 -12.5t-16 -53t-38 -92.5q-9 -17 -24 -33.5t-31 -16.5q-8 0 -15.5 6t-13 23.5t-7.5 43.5t-2.5 59.5t-0.5 40.5v190l1 83q0 23 6 25
q16 4 12 -41l-1 -141q0 -4 -0.5 -84t2.5 -127q4 -34 8.5 -45.5t12.5 -11.5q25 -2 64 98q14 37 27 82t16 73l3 161q0 3 -0.5 15t2 17t6.5 5z" />
    <glyph glyph-name="Uhungarumlaut" unicode="&#x170;" horiz-adv-x="296" 
d="M192 802q4 0 6.5 -3t2.5 -7q0 -2 -1.5 -5t-13.5 -12q-11 -8 -29.5 -24.5t-24.5 -21.5q-18 -15 -24.5 -18.5t-8.5 -1.5q-6 5 10 21q5 4 21.5 17.5t31.5 29.5q20 20 23.5 22.5t6.5 2.5zM282 802q4 0 6.5 -3t2.5 -7q0 -2 -1.5 -5t-13.5 -12q-11 -8 -29.5 -24.5t-24.5 -21.5
q-18 -15 -24.5 -18.5t-8.5 -1.5q-6 5 10 21q5 4 21.5 17.5t31.5 29.5q20 20 23.5 22.5t6.5 2.5zM60 682q5 -1 7.5 -4.5t1 -13.5t-1.5 -11q-1 -23 -1.5 -59t0 -98.5t0.5 -81.5v-14.5t1 -146t4 -169.5q6 -51 40 -68q22 -11 51 -7q63 6 68 141q1 30 0.5 231.5t-1.5 217.5
q-2 53 -1.5 60.5t2.5 12t5 5.5q5 1 7.5 -3t2 -16t-0.5 -13l3 -429q0 -125 -16 -164t-41 -51q-16 -9 -41 -9q-16 0 -32.5 4.5t-25.5 12.5q-36 26 -39 97q-2 51 -3 325v222q0 22 2 26t9 3z" />
    <glyph glyph-name="uhungarumlaut" unicode="&#x171;" horiz-adv-x="259" 
d="M179 679q2 -2 2 -5.5t0.5 -3t-11.5 -18.5l-66 -95q-8 -10 -11.5 -14t-7.5 -1q-2 2 -1.5 5.5t3 8.5t7.5 13t6 9l61 92q4 7 9 10t9 -1zM255 679q2 -2 2 -5.5t0.5 -3t-11.5 -18.5l-66 -95q-8 -10 -11.5 -14t-7.5 -1q-2 2 -1.5 5.5t3 8.5t7.5 13t6 9l61 92q4 7 9 10t9 -1z
M204 466q2 0 4 -0.5t3.5 -3t1.5 -6v-9v-6.5l-1 -162l-1 -135v-113q0 -1 0.5 -10.5t-1.5 -15.5t-7 -6t-8 4t-2.5 20t0.5 21l4 158q-1 -4 -4 -12.5t-16 -53t-38 -92.5q-9 -17 -24 -33.5t-31 -16.5q-8 0 -15.5 6t-13 23.5t-7.5 43.5t-2.5 59.5t-0.5 40.5v190l1 83q0 23 6 25
q16 4 12 -41l-1 -141q0 -4 -0.5 -84t2.5 -127q4 -34 8.5 -45.5t12.5 -11.5q25 -2 64 98q14 37 27 82t16 73l3 161q0 3 -0.5 15t2 17t6.5 5z" />
    <glyph glyph-name="Uogonek" unicode="&#x172;" horiz-adv-x="296" 
d="M159 -55q-27 -40 -31 -67q-3 -16 2 -29t15 -17t20 -2t18 13t9 26q0 2 -1 11t5 11q5 2 9 -2.5t4.5 -17t-4.5 -24.5q-7 -18 -20.5 -26.5t-27.5 -8.5q-17 0 -30.5 11.5t-16.5 32.5q-6 42 40 104l28 36q-12 -4 -29 -4q-16 0 -32.5 4.5t-25.5 12.5q-36 26 -39 97q-2 51 -3 325
v222q0 22 2 26t9 3q5 -1 7.5 -4.5t1 -13.5t-1.5 -11q-1 -23 -1.5 -59t0 -98.5t0.5 -81.5v-14.5t1 -146t4 -169.5q6 -51 40 -68q22 -11 51 -7q63 6 68 141q1 30 0.5 231.5t-1.5 217.5q-2 53 -1.5 60.5t2.5 12t5 5.5q5 1 7.5 -3t2 -16t-0.5 -13l3 -429q0 -94 -8.5 -135
t-25.5 -62l-1 -1z" />
    <glyph glyph-name="uogonek" unicode="&#x173;" horiz-adv-x="259" 
d="M212 279l-1 -135v-113q0 -2 0.5 -10.5t-0.5 -12.5t-2 -6l-47 -66q-27 -41 -31 -67q-3 -16 2 -29t15 -17t20 -2t18 13t9 26q0 2 -1 11t5 11q5 2 9 -2.5t4.5 -17t-4.5 -24.5q-7 -18 -20.5 -26.5t-27.5 -8.5q-17 0 -31 12t-16 32q-3 21 5.5 45t34.5 61l40 55q-1 5 -0.5 19.5
t0.5 16.5l4 158q-1 -4 -4 -12.5t-16 -53t-38 -92.5q-9 -17 -24 -33.5t-31 -16.5q-8 0 -15.5 6t-13 23.5t-7.5 43.5t-2.5 59.5t-0.5 40.5v190l1 83q0 23 6 25q16 4 12 -41l-1 -141q0 -4 -0.5 -84t2.5 -127q4 -34 8.5 -45.5t12.5 -11.5q25 -2 64 98q14 37 27 82t16 73l3 161
q0 3 -0.5 15t2 17t6.5 5q2 0 4 -0.5t3.5 -3t1.5 -6v-9v-6.5z" />
    <glyph glyph-name="Wcircumflex" unicode="&#x174;" horiz-adv-x="405" 
d="M201 764q5 0 30 -20l55 -46q15 -13 6 -19q-5 -4 -29 17q-39 34 -47 40t-14 9q-14 -7 -36 -26l-36 -33q-12 -12 -19 -6q-3 3 -1 8t20 20q25 24 47 40q21 16 24 16zM367 683q2 -4 3 -9.5t-0.5 -16.5t-1.5 -14l-35 -500l-10 -113q-5 -29 -10 -32q-4 -2 -9.5 0.5t-8.5 21.5
q-21 96 -44 245l-23 143l-23 141l-22 -119q-3 -17 -18 -103.5t-29 -163.5q-23 -125 -29 -144q-5 -20 -11 -21q-17 -6 -21 60l-10 158l-11 160q0 2 -0.5 8.5t-4 66.5t-6.5 83l-10 118q-3 23 -0.5 26.5t7.5 3.5q3 0 5.5 -4.5t3 -15t0.5 -12.5l11 -121q3 -29 7 -89t5 -66
q0 -5 1 -19.5t9 -143.5t13 -173q2 8 7.5 34t17 91t12.5 68q6 38 40 235l20 109q0 1 1.5 11.5t7.5 11.5q2 0 5.5 -1t4.5 -3.5t5 -23.5q12 -56 23 -126l22 -137q8 -50 26 -151t21 -121l8 115q4 45 6.5 94.5t5.5 79.5l22 304q2 40 3.5 46t4.5 8q1 1 4 1.5t5 -0.5z" />
    <glyph glyph-name="wcircumflex" unicode="&#x175;" horiz-adv-x="349" 
d="M174 654q4 0 9 -6t9.5 -13t4.5 -8q7 -11 27 -47t25 -43q4 -6 6 -13t-2 -10q-3 -2 -6.5 -1t-7 8t-4.5 8l-38 66l-25 39q-2 -3 -9.5 -14.5t-24.5 -43.5t-18 -34t-5 -10.5t-8 -13.5t-8 -4q-5 1 -4.5 8.5t4.5 15.5l49 88q16 28 26 28zM316 466q5 0 6.5 -7.5t-2 -29.5
t-4.5 -26q-7 -63 -18.5 -138t-15.5 -102q-7 -58 -25 -140q0 -1 -1.5 -10.5t-5 -14t-11.5 -0.5q-6 2 -12 37l-8 37q-1 3 -3.5 16.5t-9 56.5t-7.5 52q-2 10 -9.5 65.5t-9.5 59.5l-15 -85q-3 -16 -8 -44t-16 -79.5t-17 -82.5q-1 -2 -3 -13.5t-5 -16t-6 -4.5q-10 -2 -14 20
q-8 34 -16.5 80.5t-22 129t-18.5 113.5l-16 94q-2 22 -1 26.5t4 5.5q4 1 8.5 -2t6.5 -15q1 -3 3.5 -25.5t3.5 -29.5q4 -32 22 -132l9 -63q5 -23 14 -76.5t15 -76.5q12 39 37 176l23 133q0 2 2 15t5 19t6 6t5.5 -4.5t4.5 -16t2 -13.5l6 -40q4 -24 19.5 -126t24.5 -152
q3 15 7 37t10 62t8 50l28 183l9 71q1 2 2.5 11t8.5 9z" />
    <glyph glyph-name="Ycircumflex" unicode="&#x176;" horiz-adv-x="263" 
d="M132 789q5 0 30 -20l55 -46q15 -13 6 -19q-5 -4 -29 17q-39 34 -47 40t-14 9q-14 -7 -36 -26l-36 -33q-12 -12 -19 -6q-3 3 -1 8t20 20q25 24 47 40q21 16 24 16zM254 683q9 -2 1 -21q-9 -23 -30 -96.5t-26 -89.5q-31 -99 -58 -175v-84v-8.5t-1 -74.5t0 -109
q0 -13 -1 -19.5t-7 -7.5q-5 0 -7.5 7t-1.5 24.5t1 19.5q-1 37 -0.5 107.5t0.5 84.5v56l-52 169q-7 28 -25 87.5t-32 99.5q-7 20 -6.5 23.5t1.5 4.5q6 4 12 1t11 -22.5t6 -23.5l39 -131q21 -77 55 -176q29 85 42 130q1 3 4.5 14t29.5 98t30 97q6 17 15 15z" />
    <glyph glyph-name="ycircumflex" unicode="&#x177;" horiz-adv-x="221" 
d="M107 654q4 0 9 -6t9.5 -13t4.5 -8q7 -11 27 -47t25 -43q4 -6 6 -13t-2 -10q-3 -2 -6.5 -1t-7 8t-4.5 8l-38 66l-25 39q-2 -3 -9.5 -14.5t-24.5 -43.5t-18 -34t-5 -10.5t-8 -13.5t-8 -4q-5 1 -4.5 8.5t4.5 15.5l49 88q16 28 26 28zM190 466h2.5t5 -1.5t3.5 -10.5t-2.5 -20
t-2.5 -12q-5 -38 -17.5 -107.5t-18.5 -109.5l-36 -188l-40 -190q-10 -44 -16 -64q-5 -18 -7.5 -20t-5.5 -2q-11 1 -5 22l9 36q28 111 40 192q-8 38 -20.5 122.5t-13.5 91.5q-24 155 -35 208q0 1 -3.5 13.5t-4 19t-0.5 11t2 7t6 2.5q5 -1 8.5 -6t5 -17.5t1.5 -14.5l17 -97
q8 -45 24 -152t24 -153q8 36 21 114t20 110q0 1 1.5 7.5t10.5 61.5t17 111q0 2 1.5 14t3.5 17t5 5z" />
    <glyph glyph-name="Ydieresis" unicode="&#x178;" horiz-adv-x="263" 
d="M109 718q0 -9 -6.5 -14t-15.5 -5q-8 0 -13 5.5t-5 14.5t7 14.5t15 5.5t13 -6.5t5 -14.5zM178 739q9 0 15.5 -6t6.5 -15q0 -8 -5.5 -13.5t-14.5 -5.5t-14 6.5t-5 14.5q0 6 5.5 12.5t11.5 6.5zM254 683q9 -2 1 -21q-9 -23 -30 -96.5t-26 -89.5q-31 -99 -58 -175v-84v-8.5
t-1 -74.5t0 -109q0 -13 -1 -19.5t-7 -7.5q-5 0 -7.5 7t-1.5 24.5t1 19.5q-1 37 -0.5 107.5t0.5 84.5v56l-52 169q-7 28 -25 87.5t-32 99.5q-7 20 -6.5 23.5t1.5 4.5q6 4 12 1t11 -22.5t6 -23.5l39 -131q21 -77 55 -176q29 85 42 130q1 3 4.5 14t29.5 98t30 97q6 17 15 15z
" />
    <glyph glyph-name="Zacute" unicode="&#x179;" horiz-adv-x="216" 
d="M97 710q-6 5 10 21q5 4 21.5 17.5t31.5 29.5q20 20 23.5 22.5t6.5 2.5q4 0 6.5 -3t2.5 -7q0 -2 -1.5 -5t-13.5 -12q-11 -8 -29.5 -24.5t-24.5 -21.5q-18 -15 -24.5 -18.5t-8.5 -1.5zM167 16q37 3 35 -9q0 -3 -3 -5t-12.5 -2h-12.5l-76 -2l-31 1h-23.5t-29.5 7
q-1 1 -1.5 6.5t2.5 18.5t6.5 25.5t6.5 23t3 11.5l66 239q5 16 16.5 59t39 151.5t31.5 123.5q-47 4 -113 -1q-10 -1 -20.5 1t-11.5 8q0 5 4 7.5t17 1.5t16 -1l91 3q34 -1 37 -6q1 -3 0.5 -9t-4 -17t-4.5 -14l-35 -136q0 -2 -2.5 -11t-24.5 -93t-38 -136l-45 -162l-22 -83
q59 -6 138 0z" />
    <glyph glyph-name="zacute" unicode="&#x17a;" horiz-adv-x="173" 
d="M172 679q2 -2 2 -5.5t0.5 -3t-11.5 -18.5l-66 -95q-8 -10 -11.5 -14t-7.5 -1q-2 2 -1.5 5.5t3 8.5t7.5 13t6 9l42 64l19 28q4 7 9 10t9 -1zM105 466q10 1 33.5 0t25.5 -4q1 -1 1.5 -5.5t-5 -19.5t-5.5 -16l-76 -242l-49 -164q24 -1 104 2q23 3 25 -3q7 -15 -34 -15h-80
q-2 0 -9.5 -0.5t-13 0.5t-7.5 5q-2 3 -1.5 11.5t12.5 46.5l51 165l69 221q-33 3 -88 1q-18 -2 -20.5 0.5t-2.5 6.5q0 2 3.5 4.5t15 4t30 1.5h21.5z" />
    <glyph glyph-name="Zdotaccent" unicode="&#x17b;" horiz-adv-x="216" 
d="M118 723q-8 0 -13 6.5t-5 13.5q0 10 6.5 16t13.5 6q8 0 14.5 -6.5t6.5 -16.5q0 -8 -7 -13.5t-16 -5.5zM167 16q37 3 35 -9q0 -3 -3 -5t-12.5 -2h-12.5l-76 -2l-31 1h-23.5t-29.5 7q-1 1 -1.5 6.5t2.5 18.5t6.5 25.5t6.5 23t3 11.5l66 239q5 16 16.5 59t39 151.5
t31.5 123.5q-47 4 -113 -1q-10 -1 -20.5 1t-11.5 8q0 5 4 7.5t17 1.5t16 -1l91 3q34 -1 37 -6q1 -3 0.5 -9t-4 -17t-4.5 -14l-35 -136q0 -2 -2.5 -11t-24.5 -93t-38 -136l-45 -162l-22 -83q59 -6 138 0z" />
    <glyph glyph-name="zdotaccent" unicode="&#x17c;" horiz-adv-x="173" 
d="M81 568q0 10 6.5 16t13.5 6q8 0 14.5 -6.5t6.5 -16.5q0 -8 -7 -13.5t-16 -5.5q-8 0 -13 6.5t-5 13.5zM105 466q10 1 33.5 0t25.5 -4q1 -1 1.5 -5.5t-5 -19.5t-5.5 -16l-76 -242l-49 -164q24 -1 104 2q23 3 25 -3q7 -15 -34 -15h-80q-2 0 -9.5 -0.5t-13 0.5t-7.5 5
q-2 3 -1.5 11.5t12.5 46.5l51 165l69 221q-33 3 -88 1q-18 -2 -20.5 0.5t-2.5 6.5q0 2 3.5 4.5t15 4t30 1.5h21.5z" />
    <glyph glyph-name="Zcaron" unicode="&#x17d;" horiz-adv-x="216" 
d="M213 795q9 -6 -6 -19l-55 -46q-25 -20 -30 -20q-3 0 -26 17.5t-45 38.5q-2 1 -9 7.5t-10 12t0 8.5q1 1 5.5 2t13.5 -8l36 -33q22 -19 36 -26q6 3 14 9t47 40q24 21 29 17zM196 637l-35 -136q0 -2 -2.5 -11t-24.5 -93t-38 -136l-45 -162l-22 -83q59 -6 138 0q37 3 35 -9
q0 -3 -3 -5t-12.5 -2h-12.5l-76 -2l-31 1h-23.5t-29.5 7q-1 1 -1.5 6.5t2.5 18.5t6.5 25.5t6.5 23t3 11.5l66 239q5 16 16.5 59t39 151.5t31.5 123.5q-47 4 -113 -1q-10 -1 -20.5 1t-11.5 8q0 5 4 7.5t17 1.5t16 -1l91 3q34 -1 37 -6q1 -3 0.5 -9t-4 -17t-4.5 -14z" />
    <glyph glyph-name="zcaron" unicode="&#x17e;" horiz-adv-x="173" 
d="M174 672q5 -1 4.5 -8.5t-4.5 -15.5l-46 -87q-17 -29 -25 -29q-7 0 -24 26q-7 9 -29 47t-26 44t-6 13t2 10q3 2 6 1.5t12 -15.5l40 -68l26 -38q9 13 29 51.5t20 39.5q13 25 15.5 27.5t5.5 1.5zM105 466q10 1 33.5 0t25.5 -4q1 -1 1.5 -5.5t-5 -19.5t-5.5 -16l-76 -242
l-49 -164q24 -1 104 2q23 3 25 -3q7 -15 -34 -15h-80q-2 0 -9.5 -0.5t-13 0.5t-7.5 5q-2 3 -1.5 11.5t12.5 46.5l51 165l69 221q-33 3 -88 1q-18 -2 -20.5 0.5t-2.5 6.5q0 2 3.5 4.5t15 4t30 1.5h21.5z" />
    <glyph glyph-name="florin" unicode="&#x192;" horiz-adv-x="261" 
d="M188 694q13 2 28 -1t21 -9t4 -11q0 -2 -2 -4.5t-15.5 3t-25.5 5.5q-13 0 -26 -9.5t-22.5 -30t-12.5 -41.5q-10 -70 -16 -223l57 1q31 0 31 -9q0 -5 -5.5 -7t-12 -2h-14.5h-10l-46 -1q-4 -117 -13 -215q-11 -138 -48 -192q-24 -33 -65 -32q-10 0 -24 6.5t-11 15.5
q1 4 5 4.5t12 -4t10 -4.5q30 -10 56 18q34 38 48 188q6 58 13 215q-4 0 -17 -0.5t-24 0t-11 9.5q0 4 7.5 7t45.5 3q4 130 11 187q9 78 26 103t46 30z" />
    <glyph glyph-name="uni01CD" unicode="&#x1cd;" horiz-adv-x="270" 
d="M65 766q-2 1 -9 7.5t-10 12t0 8.5q1 1 5.5 2t13.5 -8l36 -33q22 -19 36 -26q6 3 14 9t47 40q24 21 29 17q9 -6 -6 -19l-55 -46q-25 -20 -30 -20q-3 0 -26 17.5t-45 38.5zM256 23q0 -1 1 -6.5t0.5 -10.5t-5.5 -6q-4 -1 -8 2.5t-8 29.5l-45 248q-12 -2 -40.5 -4t-72.5 1
q-4 -21 -13 -70.5t-12 -69.5q-9 -64 -20 -113q-4 -20 -6.5 -23t-6.5 -3q-3 0 -5 1.5t-3 5.5t0 10t3 12t2 7l41 230l26 172q22 130 27 157.5t10 53.5q5 25 8 32t8 7q4 0 7.5 -3.5t5 -15t2.5 -13.5q11 -53 21 -124.5t12 -87.5q16 -116 28 -190q13 -84 28 -160zM80 295
q20 -3 53 -2.5t56 4.5q-3 22 -21.5 151.5t-29.5 190.5q-13 -47 -27 -140z" />
    <glyph glyph-name="uni01CE" unicode="&#x1ce;" horiz-adv-x="218" 
d="M182 672q5 -1 4.5 -8.5t-4.5 -15.5l-46 -87q-17 -29 -25 -29q-7 0 -24 26q-7 9 -29 47t-26 44t-6 13t2 10q3 2 6 1.5t12 -15.5l40 -68l26 -38q9 13 29 51.5t20 39.5q13 25 15.5 27.5t5.5 1.5zM106 472q21 1 36 -9t23 -25q17 -33 13 -106q-5 -97 -5 -160l1 -161
q0 -13 -8 -13q-4 0 -6.5 3.5t-2.5 27.5q-1 52 1 143l-3 -9t-22 -61t-37 -82t-32 -27q-9 0 -16.5 6.5t-11.5 15.5q-9 20 -13 57.5t0.5 84t11.5 70.5q28 96 126 78q3 48 1 76.5t-11.5 48.5t-31.5 25q-20 5 -34.5 -7.5t-14.5 -34.5q0 -1 1 -10t-0.5 -13.5t-5.5 -4.5
q-5 -1 -8.5 9.5t-2.5 26.5q1 10 6.5 21.5t18 20t27.5 9.5zM161 288q-59 10 -87 -18q-13 -15 -23 -50t-12.5 -85t2.5 -80q1 -5 5 -19t9.5 -19.5t9.5 -5.5q6 0 22.5 31.5t41 94.5t27.5 75q5 22 5 76z" />
    <glyph glyph-name="uni01CF" unicode="&#x1cf;" horiz-adv-x="122" 
d="M153 795q9 -6 -6 -19l-55 -46q-25 -20 -30 -20q-3 0 -26 17.5t-45 38.5q-2 1 -9 7.5t-10 12t0 8.5q1 1 5.5 2t13.5 -8l36 -33q22 -19 36 -26q6 3 14 9t47 40q24 21 29 17zM61 682q10 0 9 -11t-1 -13v-141l-1 -359l-1 -130q0 -15 -1 -22t-6 -8q-10 0 -10 24q2 64 2 343
l1 125v168q0 17 2.5 20.5t5.5 3.5z" />
    <glyph glyph-name="uni01D0" unicode="&#x1d0;" horiz-adv-x="121" 
d="M130 672q5 -1 4.5 -8.5t-4.5 -15.5l-46 -87q-17 -29 -25 -29q-7 0 -24 26q-7 9 -29 47t-26 44t-6 13t2 10q3 2 6 1.5t12 -15.5l40 -68l26 -38q9 13 29 51.5t20 39.5q13 25 15.5 27.5t5.5 1.5zM57 465q10 3 12 -23l-1 -110q0 -211 2 -317q0 -20 -10 -18q-2 0 -4 2.5t-3 8
t-1 13v16v9.5v279v110v2t-1 9.5t1 13t5 5.5z" />
    <glyph glyph-name="uni01D1" unicode="&#x1d1;" horiz-adv-x="309" 
d="M256 795q9 -6 -6 -19l-55 -46q-25 -20 -30 -20q-3 0 -26 17.5t-45 38.5q-2 1 -9 7.5t-10 12t0 8.5q1 1 5.5 2t13.5 -8l36 -33q22 -19 36 -26q6 3 14 9t47 40q24 21 29 17zM158 688q31 3 50.5 -15t31.5 -52q17 -49 23 -137q7 -88 5 -170q0 -55 -8 -137q-9 -92 -36.5 -138
t-71.5 -46q-21 0 -41 13.5t-36 44.5t-22 68q-8 38 -12.5 109.5t-0.5 158.5q9 146 35 218q13 35 35.5 58t47.5 25zM162 670q-51 -8 -71 -71q-7 -21 -16 -58t-16 -124t-2.5 -180t21.5 -147q9 -27 21.5 -46.5t27 -27t26.5 -7.5q20 0 38.5 16t32 56.5t19.5 91.5q9 85 9 146
q0 93 -6.5 177.5t-20.5 118.5q-10 29 -25 42t-38 13z" />
    <glyph glyph-name="uni01D2" unicode="&#x1d2;" horiz-adv-x="236" 
d="M191 672q5 -1 4.5 -8.5t-4.5 -15.5l-46 -87q-17 -29 -25 -29q-7 0 -24 26q-7 9 -29 47t-26 44t-6 13t2 10q3 2 6 1.5t12 -15.5l40 -68l26 -38q9 13 29 51.5t20 39.5q13 25 15.5 27.5t5.5 1.5zM122 471q23 0 42 -21t28 -69q13 -66 13 -161q0 -101 -14.5 -147.5
t-36.5 -65.5q-16 -13 -39 -13q-57 0 -75 90q-10 56 -10 121.5t6 110.5q8 71 30 113t56 42zM57 343q-15 -116 -6 -220q13 -113 65 -113q26 0 44 32q24 38 28 134.5t-8 178.5q-14 100 -60 100q-24 0 -40.5 -35.5t-22.5 -76.5z" />
    <glyph glyph-name="uni01D3" unicode="&#x1d3;" horiz-adv-x="296" 
d="M237 785q9 -6 -6 -19l-55 -46q-25 -20 -30 -20q-3 0 -26 17.5t-45 38.5q-2 1 -9 7.5t-10 12t0 8.5q1 1 5.5 2t13.5 -8l36 -33q22 -19 36 -26q6 3 14 9t47 40q24 21 29 17zM60 682q5 -1 7.5 -4.5t1 -13.5t-1.5 -11q-1 -23 -1.5 -59t0 -98.5t0.5 -81.5v-14.5t1 -146
t4 -169.5q6 -51 40 -68q22 -11 51 -7q63 6 68 141q1 30 0.5 231.5t-1.5 217.5q-2 53 -1.5 60.5t2.5 12t5 5.5q5 1 7.5 -3t2 -16t-0.5 -13l3 -429q0 -125 -16 -164t-41 -51q-16 -9 -41 -9q-16 0 -32.5 4.5t-25.5 12.5q-36 26 -39 97q-2 51 -3 325v222q0 22 2 26t9 3z" />
    <glyph glyph-name="uni01D4" unicode="&#x1d4;" horiz-adv-x="259" 
d="M197 672q5 -1 4.5 -8.5t-4.5 -15.5l-46 -87q-17 -29 -25 -29q-7 0 -24 26q-7 9 -29 47t-26 44t-6 13t2 10q3 2 6 1.5t12 -15.5l40 -68l26 -38q9 13 29 51.5t20 39.5q13 25 15.5 27.5t5.5 1.5zM204 466q2 0 4 -0.5t3.5 -3t1.5 -6v-9v-6.5l-1 -162l-1 -135v-113
q0 -1 0.5 -10.5t-1.5 -15.5t-7 -6t-8 4t-2.5 20t0.5 21l4 158q-1 -4 -4 -12.5t-16 -53t-38 -92.5q-9 -17 -24 -33.5t-31 -16.5q-8 0 -15.5 6t-13 23.5t-7.5 43.5t-2.5 59.5t-0.5 40.5v190l1 83q0 23 6 25q16 4 12 -41l-1 -141q0 -4 -0.5 -84t2.5 -127q4 -34 8.5 -45.5
t12.5 -11.5q25 -2 64 98q14 37 27 82t16 73l3 161q0 3 -0.5 15t2 17t6.5 5z" />
    <glyph glyph-name="uni01E2" unicode="&#x1e2;" horiz-adv-x="367" 
d="M229 733q-24 0 -24 9q0 5 8 7t23 1.5t16 -0.5l88 -1q12 0 17.5 -1.5t5.5 -7.5q0 -4 -6 -6.5t-21 -1.5t-17 1h-90zM343 664q-97 3 -118 2q-3 -62 -5 -225h93q12 0 17 -1t5 -8q0 -9 -23 -9l-92 -1l-4 -211l-4 -193q34 -1 116 1q13 0 21.5 -1.5t9.5 -8.5q0 -4 -4.5 -6.5
t-30.5 -2.5h-89q-3 0 -13.5 -0.5t-18 0t-9.5 3.5q-1 1 -1.5 3t-0.5 34q0 31 7 240h-106l-40 -124l-42 -132q-7 -20 -10.5 -23t-8.5 -3q-3 0 -5 3t0 14q5 19 23 72.5t25 75.5l66 204l42 131l43 137q9 28 16 37t16 10q13 2 40.5 1t33.5 -1q55 0 62.5 -1t9.5 -3q4 -5 -0.5 -9.5
t-20.5 -4.5zM206 641l-107 -344l100 1z" />
    <glyph glyph-name="uni01E3" unicode="&#x1e3;" horiz-adv-x="338" 
d="M153 563l88 -1q12 0 17.5 -1.5t5.5 -7.5q0 -4 -6 -6.5t-21 -1.5t-17 1h-90q-24 0 -24 9q0 5 8 7t23 1.5t16 -0.5zM116 470q16 0 31 -10.5t21 -24.5q12 -29 10 -110q7 35 18 66.5t22 49.5q8 13 21 21t24 8q27 0 40.5 -36t13.5 -140q0 -32 -4 -36q-3 -3 -67 -3l-61 2
q-6 -73 4 -140q3 -28 13.5 -55t22.5 -38.5t22 -11.5q11 0 23 11.5t16 27.5q1 5 2.5 21.5t3.5 21.5t7 6t8 -4.5t-3 -42.5q-4 -27 -20.5 -42t-36.5 -15q-15 0 -31 12.5t-28 42t-17 65.5q-4 32 -4 72q-3 -10 -12 -41t-16.5 -52.5t-16.5 -41.5q-15 -33 -26 -45.5t-30 -12.5
q-17 0 -26.5 17.5t-12.5 65.5q-1 38 4.5 77t19.5 66q12 24 36.5 37.5t77.5 13.5q0 116 -7 140q-4 16 -14.5 28.5t-27.5 12.5q-20 0 -32.5 -12.5t-11.5 -34.5q0 -3 3 -14t1 -15.5t-7 -5.5q-4 0 -8 3.5t-6 25.5q-2 33 17 51.5t44 18.5zM262 453q-20 0 -36 -30.5t-27 -76
t-13 -73.5q90 -1 113 0q2 69 -7 124.5t-30 55.5zM165 256q-62 0 -85 -24q-20 -20 -29.5 -73t-4.5 -103q5 -42 19 -43q6 0 12 2.5t10.5 9t12.5 23.5q15 33 33.5 86.5t26.5 84.5q6 21 5 37z" />
    <glyph glyph-name="Gcaron" unicode="&#x1e6;" horiz-adv-x="267" 
d="M244 795q9 -6 -6 -19l-55 -46q-25 -20 -30 -20q-3 0 -26 17.5t-45 38.5q-2 1 -9 7.5t-10 12t0 8.5q1 1 5.5 2t13.5 -8l36 -33q22 -19 36 -26q6 3 14 9t47 40q24 21 29 17zM215 605q8 -55 -8 -54q-4 0 -7 5.5t-1 18.5q1 23 -3 45t-13 34t-18 15q-29 8 -55 -34
q-16 -26 -29.5 -72t-21.5 -137q-5 -65 -5 -121q2 -205 43 -269q11 -17 27.5 -22.5t30.5 1.5q25 12 39 67q6 22 11 56.5t6 154.5q0 4 0.5 21t-0.5 22.5t-2 6.5q-3 2 -23 3t-29 0q-24 -2 -32 -0.5t-8 6.5q0 3 1.5 6t16.5 4l51 -1q3 0 12 0.5t13.5 0t5.5 -1.5q4 -2 7 -7
t3 -28.5v-31.5q0 -69 -4 -125t-17 -104q-20 -69 -69 -69q-44 0 -66 54q-16 39 -24 103t-10 118q-2 95 7 185q11 84 22.5 122.5t30.5 70.5q9 17 26 28t34 11q45 0 58 -82z" />
    <glyph glyph-name="gcaron" unicode="&#x1e7;" horiz-adv-x="226" 
d="M89 558q-7 9 -29 47t-26 44t-6 13t2 10q3 2 6 1.5t12 -15.5l40 -68l26 -38q9 13 29 51.5t20 39.5q13 25 15.5 27.5t5.5 1.5q5 -1 4.5 -8.5t-4.5 -15.5l-46 -87q-17 -29 -25 -29q-7 0 -24 26zM117 1q20 -15 39.5 -40.5t28 -60t5.5 -67.5q-3 -29 -15 -53t-31 -34t-37 -10
q-33 0 -57.5 31t-24.5 79q0 25 9 55.5t28 57t34 36.5l-29 20q-7 5 -10.5 13t-1 19.5t19.5 47.5l8 17q-18 11 -31.5 41.5t-16.5 83.5t4 105q5 38 17 68.5t30 46.5t42 14q7 0 11 -3q10 2 22.5 13t13.5 22v9.5t2.5 11t10.5 0.5q1 -1 3.5 -6.5t0.5 -15.5q-1 -15 -12.5 -27
t-24.5 -18q13 -14 25 -50t13 -91.5t-6.5 -99.5t-23.5 -74q-23 -42 -63 -36l-23 -46q-10 -19 -4 -27q3 -4 22.5 -17t21.5 -15zM52 260q1 -42 9 -78t25 -51q24 -20 44.5 -1t32.5 59q15 50 14 111t-15 104q-10 31 -21 41t-25 8q-32 -4 -48.5 -58.5t-15.5 -134.5zM161 -212
q25 50 8 109.5t-58 88.5q-14 -8 -32.5 -33.5t-27.5 -53t-9 -47.5t6.5 -43.5t23 -39.5t36.5 -16q16 0 29 7t24 28z" />
    <glyph glyph-name="uni01E8" unicode="&#x1e8;" horiz-adv-x="249" 
d="M227 773q9 -6 -6 -19l-55 -46q-25 -20 -30 -20q-3 0 -26 17.5t-45 38.5q-2 1 -9 7.5t-10 12t0 8.5q1 1 5.5 2t13.5 -8l36 -33q22 -19 36 -26q6 3 14 9t47 40q24 21 29 17zM68 648v-119q0 -100 -2 -150l55 95l102 198q4 10 11 10q4 0 6.5 -2.5t-6.5 -22.5
q-11 -26 -49 -96.5t-54 -99.5l-60 -104q10 -23 35 -72t33 -65l68 -133q12 -27 35 -67q12 -21 -3 -21q-2 0 -5.5 1t-6 7.5t-3.5 8.5q-15 27 -46 89.5t-50 99.5q-45 86 -61 123l-2 -251v-50q1 -18 -1.5 -23t-9.5 -5q-1 0 -2.5 0.5t-2.5 2.5t-1 5v7v5q1 29 1 170l2 194v111
l-1 154q0 2 -0.5 18t10.5 16q3 0 5.5 -4t2.5 -30z" />
    <glyph glyph-name="uni01F4" unicode="&#x1f4;" horiz-adv-x="267" 
d="M221 803q4 0 6.5 -3t2.5 -7q0 -2 -1.5 -5t-13.5 -12q-11 -8 -29.5 -24.5t-24.5 -21.5q-18 -15 -24.5 -18.5t-8.5 -1.5q-6 5 10 21q5 4 21.5 17.5t31.5 29.5q20 20 23.5 22.5t6.5 2.5zM215 605q8 -55 -8 -54q-4 0 -7 5.5t-1 18.5q1 23 -3 45t-13 34t-18 15q-29 8 -55 -34
q-16 -26 -29.5 -72t-21.5 -137q-5 -65 -5 -121q2 -205 43 -269q11 -17 27.5 -22.5t30.5 1.5q25 12 39 67q6 22 11 56.5t6 154.5q0 4 0.5 21t-0.5 22.5t-2 6.5q-3 2 -23 3t-29 0q-24 -2 -32 -0.5t-8 6.5q0 3 1.5 6t16.5 4l51 -1q3 0 12 0.5t13.5 0t5.5 -1.5q4 -2 7 -7
t3 -28.5v-31.5q0 -69 -4 -125t-17 -104q-20 -69 -69 -69q-44 0 -66 54q-16 39 -24 103t-10 118q-2 95 7 185q11 84 22.5 122.5t30.5 70.5q9 17 26 28t34 11q45 0 58 -82z" />
    <glyph glyph-name="uni01F5" unicode="&#x1f5;" horiz-adv-x="226" 
d="M88 542q-2 2 -1.5 5.5t3 8.5t7.5 13t6 9l42 64l19 28q4 7 9 10t9 -1q2 -2 2 -5.5t0.5 -3t-11.5 -18.5l-66 -95q-8 -10 -11.5 -14t-7.5 -1zM117 1q20 -15 39.5 -40.5t28 -60t5.5 -67.5q-3 -29 -15 -53t-31 -34t-37 -10q-33 0 -57.5 31t-24.5 79q0 25 9 55.5t28 57t34 36.5
l-29 20q-7 5 -10.5 13t-1 19.5t19.5 47.5l8 17q-18 11 -31.5 41.5t-16.5 83.5t4 105q5 38 17 68.5t30 46.5t42 14q7 0 11 -3q10 2 22.5 13t13.5 22v9.5t2.5 11t10.5 0.5q1 -1 3.5 -6.5t0.5 -15.5q-1 -15 -12.5 -27t-24.5 -18q13 -14 25 -50t13 -91.5t-6.5 -99.5t-23.5 -74
q-23 -42 -63 -36l-23 -46q-10 -19 -4 -27q3 -4 22.5 -17t21.5 -15zM52 260q1 -42 9 -78t25 -51q24 -20 44.5 -1t32.5 59q15 50 14 111t-15 104q-10 31 -21 41t-25 8q-32 -4 -48.5 -58.5t-15.5 -134.5zM161 -212q25 50 8 109.5t-58 88.5q-14 -8 -32.5 -33.5t-27.5 -53
t-9 -47.5t6.5 -43.5t23 -39.5t36.5 -16q16 0 29 7t24 28z" />
    <glyph glyph-name="uni01F8" unicode="&#x1f8;" horiz-adv-x="311" 
d="M93 789q1 0 4 -1t26 -24l11 -11t42 -36q16 -16 10 -21q-1 -1 -4.5 0t-9 5t-12 9t-7.5 6q-6 5 -24.5 21.5t-29.5 24.5q-1 1 -8 6t-7 11q0 4 2.5 7t6.5 3zM252 682q2 0 4.5 -2t2 -16.5t-0.5 -17.5q2 -48 0.5 -125t-1.5 -92q3 -145 1 -353l1 -44q0 -2 0.5 -12.5t-1 -17
t-6.5 -7.5q-2 0 -6 1t-7 8t-7 23q-1 5 -25.5 89t-34.5 121q-13 47 -46 180q-12 49 -30.5 121t-27.5 100q-1 -36 0 -82.5t1 -65.5v-298l1 -166v-12.5t-2.5 -14t-6.5 -2.5q-8 1 -8 27l-1 292v160v148q0 3 -0.5 19t0.5 26.5t6 12.5t10.5 -1t13.5 -27q24 -79 32 -115
q79 -317 87 -343q2 -8 19.5 -72t21.5 -75l-2 324l1 155q0 9 -0.5 54t0.5 69q0 32 11 31z" />
    <glyph glyph-name="AEacute" unicode="&#x1fc;" horiz-adv-x="367" 
d="M258 710q-6 5 10 21q5 4 21.5 17.5t31.5 29.5q20 20 23.5 22.5t6.5 2.5q4 0 6.5 -3t2.5 -7q0 -2 -1.5 -5t-13.5 -12q-11 -8 -29.5 -24.5t-24.5 -21.5q-18 -15 -24.5 -18.5t-8.5 -1.5zM343 664q-97 3 -118 2q-3 -62 -5 -225h93q12 0 17 -1t5 -8q0 -9 -23 -9l-92 -1
l-4 -211l-4 -193q34 -1 116 1q13 0 21.5 -1.5t9.5 -8.5q0 -4 -4.5 -6.5t-30.5 -2.5h-89q-3 0 -13.5 -0.5t-18 0t-9.5 3.5q-1 1 -1.5 3t-0.5 34q0 31 7 240h-106l-40 -124l-42 -132q-7 -20 -10.5 -23t-8.5 -3q-3 0 -5 3t0 14q5 19 23 72.5t25 75.5l66 204l42 131l43 137
q9 28 16 37t16 10q13 2 40.5 1t33.5 -1q55 0 62.5 -1t9.5 -3q4 -5 -0.5 -9.5t-20.5 -4.5zM206 641l-107 -344l100 1z" />
    <glyph glyph-name="aeacute" unicode="&#x1fd;" horiz-adv-x="338" 
d="M253 679q2 -2 2 -5.5t0.5 -3t-11.5 -18.5l-66 -95q-8 -10 -11.5 -14t-7.5 -1q-2 2 -1.5 5.5t3 8.5t7.5 13t6 9l42 64l19 28q4 7 9 10t9 -1zM116 470q16 0 31 -10.5t21 -24.5q12 -29 10 -110q7 35 18 66.5t22 49.5q8 13 21 21t24 8q27 0 40.5 -36t13.5 -140q0 -32 -4 -36
q-3 -3 -67 -3l-61 2q-6 -73 4 -140q3 -28 13.5 -55t22.5 -38.5t22 -11.5q11 0 23 11.5t16 27.5q1 5 2.5 21.5t3.5 21.5t7 6t8 -4.5t-3 -42.5q-4 -27 -20.5 -42t-36.5 -15q-15 0 -31 12.5t-28 42t-17 65.5q-4 32 -4 72q-3 -10 -12 -41t-16.5 -52.5t-16.5 -41.5
q-15 -33 -26 -45.5t-30 -12.5q-17 0 -26.5 17.5t-12.5 65.5q-1 38 4.5 77t19.5 66q12 24 36.5 37.5t77.5 13.5q0 116 -7 140q-4 16 -14.5 28.5t-27.5 12.5q-20 0 -32.5 -12.5t-11.5 -34.5q0 -3 3 -14t1 -15.5t-7 -5.5q-4 0 -8 3.5t-6 25.5q-2 33 17 51.5t44 18.5zM262 453
q-20 0 -36 -30.5t-27 -76t-13 -73.5q90 -1 113 0q2 69 -7 124.5t-30 55.5zM165 256q-62 0 -85 -24q-20 -20 -29.5 -73t-4.5 -103q5 -42 19 -43q6 0 12 2.5t10.5 9t12.5 23.5q15 33 33.5 86.5t26.5 84.5q6 21 5 37z" />
    <glyph glyph-name="Oslashacute" unicode="&#x1fe;" horiz-adv-x="317" 
d="M141 709q-6 5 10 21q5 4 21.5 17.5t31.5 29.5q20 20 23.5 22.5t6.5 2.5q4 0 6.5 -3t2.5 -7q0 -2 -1.5 -5t-13.5 -12q-11 -8 -29.5 -24.5t-24.5 -21.5q-18 -15 -24.5 -18.5t-8.5 -1.5zM268 484q7 -88 5 -170q0 -55 -8 -137q-9 -92 -36.5 -138t-71.5 -46q-27 0 -49 19
q-10 -63 -22 -62q-2 0 -4.5 2t-2.5 7.5t2 13.5t2 9l11 45q-12 16 -22 41.5t-14 50.5q-8 38 -12.5 109.5t-0.5 158.5q9 146 35 218q13 35 35.5 58t47.5 25q30 3 49 -13q8 37 15 39t9 -3t0 -16.5t-2 -12.5l-5 -27q4 -6 9 -17t7 -17q17 -49 23 -137zM64 417q-7 -87 -2.5 -180
t21.5 -147q5 -18 16 -38l55 301l25 140l28 150l2 10q-16 17 -42 17q-51 -8 -71 -71q-7 -21 -16 -58t-16 -124zM248 173q9 85 9 146q0 93 -6.5 177.5t-20.5 118.5l-6 15l-30 -150q-10 -49 -27.5 -151t-24.5 -141l-21 -109l-9 -47q20 -23 46 -23q20 0 38.5 16t32 56.5
t19.5 91.5z" />
    <glyph glyph-name="oslashacute" unicode="&#x1ff;" horiz-adv-x="240" 
d="M97 542q-2 2 -1.5 5.5t3 8.5t7.5 13t6 9l42 64l19 28q4 7 9 10t9 -1q2 -2 2 -5.5t0.5 -3t-11.5 -18.5l-66 -95q-8 -10 -11.5 -14t-7.5 -1zM194 381q13 -66 13 -161q0 -101 -14.5 -147.5t-36.5 -65.5q-16 -13 -39 -13q-21 0 -34 10l-11 -50q-1 -4 -5 -5q-4 0 -7 5.5
t-1 13.5l10 48q-17 21 -27 68q-10 56 -10 121.5t6 110.5q8 71 30 113t56 42q16 0 31 -10q5 29 8.5 41.5t10.5 13.5q6 1 6.5 -5t-2.5 -21l-4 -20l-5 -23q17 -23 25 -66zM53 123q6 -52 21 -82l77 401q-11 13 -29 13q-24 0 -40.5 -35.5t-22.5 -76.5q-15 -116 -6 -220zM162 42
q24 38 28 134.5t-8 178.5q-6 47 -17 68l-78 -399q14 -14 31 -14q26 0 44 32z" />
    <glyph glyph-name="Scommaaccent" unicode="&#x218;" 
d="M141 686q16 -3 32 -17.5t24.5 -42t6.5 -58.5q0 -3 -0.5 -11.5t-1.5 -12t-3 -5.5q-3 -3 -8.5 -2.5t-6.5 4.5q-2 5 1 22q3 33 -5 60.5t-26 38.5q-14 9 -32 9q-12 0 -24 -6q-24 -14 -30.5 -41t-3 -51t8.5 -41q3 -11 9.5 -29.5t52.5 -132.5q2 -4 4 -9t25.5 -64t37.5 -107.5
t15 -82.5q1 -27 -5.5 -50t-20 -36.5t-26.5 -20.5q-18 -9 -39 -9q-20 0 -40 9t-32 22q-41 51 -21 137q0 1 1.5 8.5t4 12.5t7.5 5q6 -1 7 -8t-1 -14q-7 -21 -7.5 -52t7.5 -49q10 -27 33 -41.5t55 -10.5q22 3 36.5 19.5t20.5 44t0 61.5q-11 65 -78 227l-42 106
q-15 40 -23.5 70.5t-6.5 66.5q1 19 10.5 39t21.5 29q20 15 46 15zM121 -36q2 1 6 0.5t5 -3.5t2 -7.5t-4 -24.5l-20 -86q-2 -8 -5.5 -15t-6.5 -6q-1 0 -4 2.5t2 35.5l17 88q2 12 8 16z" />
    <glyph glyph-name="scommaaccent" unicode="&#x219;" horiz-adv-x="175" 
d="M84 470q17 1 33.5 -7.5t25 -31t8.5 -48.5q0 -32 -15 -29q-4 1 -5 4.5t1.5 12t2.5 10.5q1 31 -12 53.5t-38 19.5q-7 -1 -15.5 -8t-11.5 -14q-5 -10 -6.5 -25t3.5 -38.5t16.5 -49t25.5 -52t17 -32.5q20 -40 31 -70q5 -17 9.5 -39t5 -44t-6 -42t-22.5 -33t-41 -13
q-17 0 -35 12t-27 40.5t-3 59.5q1 11 6.5 22.5t9.5 12t6 -0.5q3 -1 3 -5t-4 -13.5t-4 -11.5q-5 -26 1 -51.5t20 -37t28 -11.5q19 0 32 13t16.5 35t1.5 43q-3 27 -11.5 54.5t-37.5 84.5l-3 6t-22 41.5t-28.5 72t-1.5 62.5q5 16 16.5 31t30.5 17zM88 -36q2 1 6 0.5t5 -3.5
t2 -7.5t-4 -24.5l-20 -86q-2 -8 -5.5 -15t-6.5 -6q-1 0 -4 2.5t2 35.5l17 88q2 12 8 16z" />
    <glyph glyph-name="uni021A" unicode="&#x21a;" horiz-adv-x="218" 
d="M183 682q14 1 21.5 0.5t8.5 -6.5q0 -3 -1.5 -5.5t-7 -4t-13 -2t-15.5 0t-9 0.5h-50l1 -361v-275q0 -1 0.5 -9.5t-1 -15t-6.5 -6.5q-4 0 -7 4t-3 26q-1 22 -0.5 64.5t0.5 59.5l-2 513q-6 1 -41 1q-5 0 -22.5 -0.5t-23.5 1t-7 4.5q0 2 1.5 6.5t7.5 4.5l56 -1zM107 -36
q2 1 6 0.5t5 -3.5t2 -7.5t-4 -24.5l-20 -86q-2 -8 -5.5 -15t-6.5 -6q-1 0 -4 2.5t2 35.5l17 88q2 12 8 16z" />
    <glyph glyph-name="uni021B" unicode="&#x21b;" horiz-adv-x="170" 
d="M79 591q5 -3 3.5 -59t-1.5 -67q35 -2 72 0q1 0 8 0.5t11.5 -1t4.5 -5.5q0 -2 -1.5 -4.5t-6 -4t-11.5 -2t-14.5 0t-9.5 0.5l-53 -1l-1 -313q0 -6 -0.5 -38t1.5 -51q1 -13 8.5 -24.5t18.5 -11.5q9 0 16.5 6.5t9.5 28t7 22.5t7.5 -7.5t0.5 -26.5q-2 -15 -11.5 -26.5
t-28.5 -11.5q-25 0 -36 21q-5 11 -7 24t-3 71q-2 62 -0.5 176.5t1.5 160.5q-3 1 -22 0t-26 1.5t-7 7.5t4.5 6.5t11 1t8.5 -0.5l31 1l1 100q0 36 14 26zM100 -36q2 1 6 0.5t5 -3.5t2 -7.5t-4 -24.5l-20 -86q-2 -8 -5.5 -15t-6.5 -6q-1 0 -4 2.5t2 35.5l17 88q2 12 8 16z" />
    <glyph glyph-name="uni0237" unicode="&#x237;" horiz-adv-x="112" 
d="M56 465q8 0 9 -14v-67v-269l-1 -251q0 -62 -14 -92.5t-46 -34.5t-51.5 15.5t-21.5 53.5q-1 15 5.5 38.5t20.5 44.5q9 13 12.5 14t6.5 -1t3 -5t-10 -20q-25 -44 -20 -80q3 -21 15 -33t30 -12q23 0 37.5 21.5t15.5 81.5l2 270l-1 301q0 3 -0.5 14.5t1 18.5t7.5 6z" />
    <glyph glyph-name="circumflex" unicode="&#x2c6;" horiz-adv-x="239" 
d="M121 654q4 0 9 -6t9.5 -13t4.5 -8q7 -11 27 -47t25 -43q4 -6 6 -13t-2 -10q-3 -2 -6.5 -1t-7 8t-4.5 8l-38 66l-25 39q-2 -3 -9.5 -14.5t-24.5 -43.5t-18 -34t-5 -10.5t-8 -13.5t-8 -4q-5 1 -4.5 8.5t4.5 15.5l49 88q16 28 26 28z" />
    <glyph glyph-name="caron" unicode="&#x2c7;" horiz-adv-x="272" 
d="M207 672q5 -1 4.5 -8.5t-4.5 -15.5l-46 -87q-17 -29 -25 -29q-7 0 -24 26q-7 9 -29 47t-26 44t-6 13t2 10q3 2 6 1.5t12 -15.5l40 -68l26 -38q9 13 29 51.5t20 39.5q13 25 15.5 27.5t5.5 1.5z" />
    <glyph glyph-name="breve" unicode="&#x2d8;" horiz-adv-x="256" 
d="M180 672q4 0 7 -5.5t3 -40.5q-1 -44 -18 -70.5t-46 -26.5q-26 0 -41 21t-19 46t-4 42q0 38 12 33q3 -1 4 -8t0.5 -16t-0.5 -12q0 -22 6.5 -45.5t18.5 -34t24 -10.5t23.5 9.5t18 32t6.5 50.5q0 3 -0.5 12.5t0.5 16t5 6.5z" />
    <glyph glyph-name="dotaccent" unicode="&#x2d9;" horiz-adv-x="125" 
d="M41 568q0 10 6.5 16t13.5 6q8 0 14.5 -6.5t6.5 -16.5q0 -8 -7 -13.5t-16 -5.5q-8 0 -13 6.5t-5 13.5z" />
    <glyph glyph-name="ring" unicode="&#x2da;" horiz-adv-x="161" 
d="M85 687q34 0 39 -62q1 -22 -1.5 -44.5t-9.5 -33.5q-4 -8 -12.5 -14t-19.5 -6t-20 7t-13 16q-9 19 -8.5 52.5t7.5 52.5q11 32 38 32zM73 669q-14 -10 -17 -53.5t7 -60.5q7 -12 17.5 -12.5t17.5 9.5q11 15 11 57q0 17 -3.5 34t-8.5 23t-12.5 6t-11.5 -3z" />
    <glyph glyph-name="ogonek" unicode="&#x2db;" horiz-adv-x="342" 
d="M218 14l-48 -69q-27 -40 -31 -67q-3 -16 2 -29t15 -17t20 -2t18 13t9 26q0 2 -1 11t5 11q5 2 9 -2.5t4.5 -17t-4.5 -24.5q-7 -18 -20.5 -26.5t-27.5 -8.5q-17 0 -31 12t-16 32q-2 14 2.5 35.5t37.5 68.5q31 44 40 53q7 7 13.5 7.5t3.5 -6.5z" />
    <glyph glyph-name="tilde" unicode="&#x2dc;" horiz-adv-x="219" 
d="M77 653q10 0 19.5 -14t25 -52t24.5 -37q8 1 14.5 29t6.5 69q0 3 2.5 5.5t5.5 2.5q8 0 7 -13q-2 -59 -9 -79.5t-15 -25.5t-14 -5q-11 0 -20.5 15t-24.5 51.5t-22 36.5q-9 0 -14.5 -29.5t-6.5 -59.5q0 -2 -2 -6.5t-7 -4.5q-8 0 -7 12q0 2 1.5 18t3 29t5.5 27.5t11 22.5
t16 8z" />
    <glyph glyph-name="hungarumlaut" unicode="&#x2dd;" horiz-adv-x="237" 
d="M137 679q2 -2 2 -5.5t0.5 -3t-11.5 -18.5l-66 -95q-8 -10 -11.5 -14t-7.5 -1q-2 2 -1.5 5.5t3 8.5t7.5 13t6 9l61 92q4 7 9 10t9 -1zM213 679q2 -2 2 -5.5t0.5 -3t-11.5 -18.5l-66 -95q-8 -10 -11.5 -14t-7.5 -1q-2 2 -1.5 5.5t3 8.5t7.5 13t6 9l61 92q4 7 9 10t9 -1z
" />
    <glyph glyph-name="uni0315" unicode="&#x315;" horiz-adv-x="0" 
d="M145 697q2 1 6 0.5t5 -3.5t2 -7.5t-4 -24.5l-17 -74q-2 -8 -5.5 -15t-6.5 -6q-11 1 0 40l8 50l2 24q2 10 10 16z" />
    <glyph glyph-name="uni0326" unicode="&#x326;" horiz-adv-x="0" 
d="M85 -36q2 1 6 0.5t5 -3.5t2 -7.5t-4 -24.5l-20 -86q-2 -8 -5.5 -15t-6.5 -6q-1 0 -4 2.5t2 35.5l17 88q2 12 8 16z" />
    <glyph glyph-name="Delta" unicode="&#x394;" horiz-adv-x="268" 
d="M135 686q4 1 7.5 -3.5t6 -18.5t2.5 -16q3 -13 9.5 -53.5t16 -104.5t17.5 -116t8 -53q4 -33 14 -94.5t15 -84.5q1 -6 10.5 -52t12 -64.5t1.5 -21.5q-1 -1 -4.5 -2t-14.5 -2t-29 -0.5t-19 0.5l-126 1q-4 0 -19.5 -1t-21.5 0.5t-8 4.5q-1 1 1.5 16.5t10 53.5t8.5 44
q16 86 41 250q14 100 30 194l17 96q5 24 14 27zM135 646l-31 -186l-25 -171l-47 -271h60q97 -2 144 1q-22 116 -62 373z" />
    <glyph glyph-name="Omega" unicode="&#x3a9;" horiz-adv-x="319" 
d="M164 687q61 6 88 -80q34 -116 29 -317q-2 -76 -22 -158t-58 -116h61h12.5t11.5 -6q0 -4 -3.5 -7t-21.5 -3h-63q-17 0 -18 6q-2 10 11 23q31 30 50 101q10 35 16.5 89.5t6.5 97.5q0 139 -14 218q-26 150 -93 132q-29 -9 -49.5 -50.5t-30.5 -90.5q-23 -112 -17 -246
q9 -186 78 -255q5 -5 5.5 -12.5t-2.5 -10.5q-2 -2 -22.5 -2h-23.5q-37 -1 -47 0.5t-9 6.5q2 10 19 8h66q-58 52 -75 198q-16 138 3 275q8 55 26.5 105t41 71.5t44.5 22.5z" />
    <glyph glyph-name="pi" unicode="&#x3c0;" horiz-adv-x="340" 
d="M285 466q10 1 16.5 0t6.5 -8q0 -4 -4 -7t-27 -3h-46q4 -235 10 -318q5 -82 17.5 -103t30.5 -18q10 2 14 11t2 19q-3 15 -2 18t2 4q8 5 13 -8t4 -25q-3 -33 -36 -35q-18 -1 -30 12t-17 28q-4 13 -8.5 41.5t-8.5 120.5q-7 196 -7 253h-96q0 -22 -0.5 -77.5t-2.5 -102
t-8 -90.5q-13 -119 -50 -170q-4 -7 -11 -12.5t-12 2.5q-3 6 6 17.5t10 13.5q10 16 21.5 50t22.5 132q3 25 5 95.5t1 141.5l-51 -1q-8 0 -12 1t-5 6q0 3 1.5 5.5t7 4t13 2t17.5 0t13 -0.5l62 1q22 0 71 -0.5t67 0.5z" />
    <glyph glyph-name="Wgrave" unicode="&#x1e80;" horiz-adv-x="405" 
d="M138 794q1 0 4 -1t26 -24l11 -11t42 -36q16 -16 10 -21q-1 -1 -4.5 0t-9 5t-12 9t-7.5 6q-6 5 -24.5 21.5t-29.5 24.5q-1 1 -8 6t-7 11q0 4 2.5 7t6.5 3zM367 683q2 -4 3 -9.5t-0.5 -16.5t-1.5 -14l-35 -500l-10 -113q-5 -29 -10 -32q-4 -2 -9.5 0.5t-8.5 21.5
q-21 96 -44 245l-23 143l-23 141l-22 -119q-3 -17 -18 -103.5t-29 -163.5q-23 -125 -29 -144q-5 -20 -11 -21q-17 -6 -21 60l-10 158l-11 160q0 2 -0.5 8.5t-4 66.5t-6.5 83l-10 118q-3 23 -0.5 26.5t7.5 3.5q3 0 5.5 -4.5t3 -15t0.5 -12.5l11 -121q3 -29 7 -89t5 -66
q0 -5 1 -19.5t9 -143.5t13 -173q2 8 7.5 34t17 91t12.5 68q6 38 40 235l20 109q0 1 1.5 11.5t7.5 11.5q2 0 5.5 -1t4.5 -3.5t5 -23.5q12 -56 23 -126l22 -137q8 -50 26 -151t21 -121l8 115q4 45 6.5 94.5t5.5 79.5l22 304q2 40 3.5 46t4.5 8q1 1 4 1.5t5 -0.5z" />
    <glyph glyph-name="wgrave" unicode="&#x1e81;" horiz-adv-x="349" 
d="M109 678q3 5 9 3t13 -10l61 -93q22 -30 14 -36q-6 -5 -19 15l-66 95q-1 2 -5.5 8t-6 10.5t-0.5 7.5zM316 466q5 0 6.5 -7.5t-2 -29.5t-4.5 -26q-7 -63 -18.5 -138t-15.5 -102q-7 -58 -25 -140q0 -1 -1.5 -10.5t-5 -14t-11.5 -0.5q-6 2 -12 37l-8 37q-1 3 -3.5 16.5
t-9 56.5t-7.5 52q-2 10 -9.5 65.5t-9.5 59.5l-15 -85q-3 -16 -8 -44t-16 -79.5t-17 -82.5q-1 -2 -3 -13.5t-5 -16t-6 -4.5q-10 -2 -14 20q-8 34 -16.5 80.5t-22 129t-18.5 113.5l-16 94q-2 22 -1 26.5t4 5.5q4 1 8.5 -2t6.5 -15q1 -3 3.5 -25.5t3.5 -29.5q4 -32 22 -132
l9 -63q5 -23 14 -76.5t15 -76.5q12 39 37 176l23 133q0 2 2 15t5 19t6 6t5.5 -4.5t4.5 -16t2 -13.5l6 -40q4 -24 19.5 -126t24.5 -152q3 15 7 37t10 62t8 50l28 183l9 71q1 2 2.5 11t8.5 9z" />
    <glyph glyph-name="Wacute" unicode="&#x1e82;" horiz-adv-x="405" 
d="M270 794q4 0 6.5 -3t2.5 -7q0 -2 -1.5 -5t-13.5 -12q-11 -8 -29.5 -24.5t-24.5 -21.5q-18 -15 -24.5 -18.5t-8.5 -1.5q-6 5 10 21q5 4 21.5 17.5t31.5 29.5q20 20 23.5 22.5t6.5 2.5zM367 683q2 -4 3 -9.5t-0.5 -16.5t-1.5 -14l-35 -500l-10 -113q-5 -29 -10 -32
q-4 -2 -9.5 0.5t-8.5 21.5q-21 96 -44 245l-23 143l-23 141l-22 -119q-3 -17 -18 -103.5t-29 -163.5q-23 -125 -29 -144q-5 -20 -11 -21q-17 -6 -21 60l-10 158l-11 160q0 2 -0.5 8.5t-4 66.5t-6.5 83l-10 118q-3 23 -0.5 26.5t7.5 3.5q3 0 5.5 -4.5t3 -15t0.5 -12.5
l11 -121q3 -29 7 -89t5 -66q0 -5 1 -19.5t9 -143.5t13 -173q2 8 7.5 34t17 91t12.5 68q6 38 40 235l20 109q0 1 1.5 11.5t7.5 11.5q2 0 5.5 -1t4.5 -3.5t5 -23.5q12 -56 23 -126l22 -137q8 -50 26 -151t21 -121l8 115q4 45 6.5 94.5t5.5 79.5l22 304q2 40 3.5 46t4.5 8
q1 1 4 1.5t5 -0.5z" />
    <glyph glyph-name="wacute" unicode="&#x1e83;" horiz-adv-x="349" 
d="M243 679q2 -2 2 -5.5t0.5 -3t-11.5 -18.5l-66 -95q-8 -10 -11.5 -14t-7.5 -1q-2 2 -1.5 5.5t3 8.5t7.5 13t6 9l42 64l19 28q4 7 9 10t9 -1zM316 466q5 0 6.5 -7.5t-2 -29.5t-4.5 -26q-7 -63 -18.5 -138t-15.5 -102q-7 -58 -25 -140q0 -1 -1.5 -10.5t-5 -14t-11.5 -0.5
q-6 2 -12 37l-8 37q-1 3 -3.5 16.5t-9 56.5t-7.5 52q-2 10 -9.5 65.5t-9.5 59.5l-15 -85q-3 -16 -8 -44t-16 -79.5t-17 -82.5q-1 -2 -3 -13.5t-5 -16t-6 -4.5q-10 -2 -14 20q-8 34 -16.5 80.5t-22 129t-18.5 113.5l-16 94q-2 22 -1 26.5t4 5.5q4 1 8.5 -2t6.5 -15
q1 -3 3.5 -25.5t3.5 -29.5q4 -32 22 -132l9 -63q5 -23 14 -76.5t15 -76.5q12 39 37 176l23 133q0 2 2 15t5 19t6 6t5.5 -4.5t4.5 -16t2 -13.5l6 -40q4 -24 19.5 -126t24.5 -152q3 15 7 37t10 62t8 50l28 183l9 71q1 2 2.5 11t8.5 9z" />
    <glyph glyph-name="Wdieresis" unicode="&#x1e84;" horiz-adv-x="405" 
d="M177 696q0 -9 -6.5 -14t-15.5 -5q-8 0 -13 5.5t-5 14.5t7 14.5t15 5.5t13 -6.5t5 -14.5zM246 717q9 0 15.5 -6t6.5 -15q0 -8 -5.5 -13.5t-14.5 -5.5t-14 6.5t-5 14.5q0 6 5.5 12.5t11.5 6.5zM367 683q2 -4 3 -9.5t-0.5 -16.5t-1.5 -14l-35 -500l-10 -113q-5 -29 -10 -32
q-4 -2 -9.5 0.5t-8.5 21.5q-21 96 -44 245l-23 143l-23 141l-22 -119q-3 -17 -18 -103.5t-29 -163.5q-23 -125 -29 -144q-5 -20 -11 -21q-17 -6 -21 60l-10 158l-11 160q0 2 -0.5 8.5t-4 66.5t-6.5 83l-10 118q-3 23 -0.5 26.5t7.5 3.5q3 0 5.5 -4.5t3 -15t0.5 -12.5
l11 -121q3 -29 7 -89t5 -66q0 -5 1 -19.5t9 -143.5t13 -173q2 8 7.5 34t17 91t12.5 68q6 38 40 235l20 109q0 1 1.5 11.5t7.5 11.5q2 0 5.5 -1t4.5 -3.5t5 -23.5q12 -56 23 -126l22 -137q8 -50 26 -151t21 -121l8 115q4 45 6.5 94.5t5.5 79.5l22 304q2 40 3.5 46t4.5 8
q1 1 4 1.5t5 -0.5z" />
    <glyph glyph-name="wdieresis" unicode="&#x1e85;" horiz-adv-x="349" 
d="M149 568q0 -9 -6.5 -14t-15.5 -5q-8 0 -13 5.5t-5 14.5t7 14.5t15 5.5t13 -6.5t5 -14.5zM218 589q9 0 15.5 -6t6.5 -15q0 -8 -5.5 -13.5t-14.5 -5.5t-14 6.5t-5 14.5q0 6 5.5 12.5t11.5 6.5zM316 466q5 0 6.5 -7.5t-2 -29.5t-4.5 -26q-7 -63 -18.5 -138t-15.5 -102
q-7 -58 -25 -140q0 -1 -1.5 -10.5t-5 -14t-11.5 -0.5q-6 2 -12 37l-8 37q-1 3 -3.5 16.5t-9 56.5t-7.5 52q-2 10 -9.5 65.5t-9.5 59.5l-15 -85q-3 -16 -8 -44t-16 -79.5t-17 -82.5q-1 -2 -3 -13.5t-5 -16t-6 -4.5q-10 -2 -14 20q-8 34 -16.5 80.5t-22 129t-18.5 113.5
l-16 94q-2 22 -1 26.5t4 5.5q4 1 8.5 -2t6.5 -15q1 -3 3.5 -25.5t3.5 -29.5q4 -32 22 -132l9 -63q5 -23 14 -76.5t15 -76.5q12 39 37 176l23 133q0 2 2 15t5 19t6 6t5.5 -4.5t4.5 -16t2 -13.5l6 -40q4 -24 19.5 -126t24.5 -152q3 15 7 37t10 62t8 50l28 183l9 71q1 2 2.5 11
t8.5 9z" />
    <glyph glyph-name="uni1E9E" unicode="&#x1e9e;" horiz-adv-x="252" 
d="M230 680q15 -3 8 -24q-24 -67 -53 -134q-27 -64 -34.5 -92t-4.5 -50q3 -21 11.5 -42t20 -44.5t14.5 -30.5q38 -79 45 -137t-10.5 -94.5t-56.5 -37.5q-12 0 -28 7t-26.5 22t-0.5 22q3 2 6 1t9.5 -8t10.5 -11t9.5 -7.5t12.5 -5.5t15 -1q23 3 34 32t8 63q-1 25 -9.5 58.5
t-32 84.5t-27.5 60q-14 34 -19.5 61t0 53t38.5 105q39 93 53 134q-23 7 -51 7q-27 0 -50.5 -8.5t-34.5 -27.5q-10 -16 -16 -40.5t-7 -87.5q-1 -53 1.5 -216.5t0.5 -231.5q0 -2 1 -19.5t-0.5 -31.5t-8.5 -13q-5 1 -8 8.5t-1.5 24t1.5 18.5q1 103 -1 238.5t-1 204.5
q1 68 5 99.5t20 57.5q24 40 98 40q29 0 59 -6z" />
    <glyph glyph-name="Ygrave" unicode="&#x1ef2;" horiz-adv-x="263" 
d="M69 783q1 0 4 -1t26 -24l11 -11t42 -36q16 -16 10 -21q-1 -1 -4.5 0t-9 5t-12 9t-7.5 6q-6 5 -24.5 21.5t-29.5 24.5q-1 1 -8 6t-7 11q0 4 2.5 7t6.5 3zM254 683q9 -2 1 -21q-9 -23 -30 -96.5t-26 -89.5q-31 -99 -58 -175v-84v-8.5t-1 -74.5t0 -109q0 -13 -1 -19.5
t-7 -7.5q-5 0 -7.5 7t-1.5 24.5t1 19.5q-1 37 -0.5 107.5t0.5 84.5v56l-52 169q-7 28 -25 87.5t-32 99.5q-7 20 -6.5 23.5t1.5 4.5q6 4 12 1t11 -22.5t6 -23.5l39 -131q21 -77 55 -176q29 85 42 130q1 3 4.5 14t29.5 98t30 97q6 17 15 15z" />
    <glyph glyph-name="ygrave" unicode="&#x1ef3;" horiz-adv-x="221" 
d="M42 678q3 5 9 3t13 -10l61 -93q22 -30 14 -36q-6 -5 -19 15l-66 95q-1 2 -5.5 8t-6 10.5t-0.5 7.5zM190 466h2.5t5 -1.5t3.5 -10.5t-2.5 -20t-2.5 -12q-5 -38 -17.5 -107.5t-18.5 -109.5l-36 -188l-40 -190q-10 -44 -16 -64q-5 -18 -7.5 -20t-5.5 -2q-11 1 -5 22l9 36
q28 111 40 192q-8 38 -20.5 122.5t-13.5 91.5q-24 155 -35 208q0 1 -3.5 13.5t-4 19t-0.5 11t2 7t6 2.5q5 -1 8.5 -6t5 -17.5t1.5 -14.5l17 -97q8 -45 24 -152t24 -153q8 36 21 114t20 110q0 1 1.5 7.5t10.5 61.5t17 111q0 2 1.5 14t3.5 17t5 5z" />
    <glyph glyph-name="endash" unicode="&#x2013;" horiz-adv-x="262" 
d="M52 272h60q65 0 122 -3q1 0 12 -0.5t11 -8.5q0 -4 -8 -6.5t-26.5 -1.5t-19.5 1q-40 0 -99 1.5t-75 -0.5q-12 0 -18 1t-6 7q0 4 7 7t40 3z" />
    <glyph glyph-name="emdash" unicode="&#x2014;" horiz-adv-x="457" 
d="M92 270q216 0 259 -2l41 -1q12 0 17.5 -1.5t5.5 -7.5q0 -4 -8 -6.5t-26.5 -1.5t-19.5 1l-199 2l-93 -1q-12 0 -18 1t-6 7q0 4 7 7t40 3z" />
    <glyph glyph-name="quoteleft" unicode="&#x2018;" horiz-adv-x="98" 
d="M41 583q-18 7 -20 37q-2 29 10 62.5t33 60.5q4 6 11.5 9.5t9 0.5t1.5 -5t-13.5 -21t-18.5 -30q-16 -38 -13 -65q11 0 19.5 -6.5t9.5 -18.5q1 -11 -8 -19.5t-21 -4.5z" />
    <glyph glyph-name="quoteright" unicode="&#x2019;" horiz-adv-x="98" 
d="M57 744q18 -7 20 -37q2 -29 -10 -62.5t-33 -60.5q-4 -6 -11.5 -9.5t-9 -0.5t-1.5 5t13.5 21t18.5 30q16 38 13 65q-11 0 -19.5 6.5t-9.5 18.5q-1 11 8 19.5t21 4.5z" />
    <glyph glyph-name="quotesinglbase" unicode="&#x201a;" horiz-adv-x="104" 
d="M53 43q18 -7 20 -37q2 -29 -10 -62.5t-33 -60.5q-4 -6 -11.5 -9.5t-9 -0.5t-1.5 5t13.5 21t18.5 30q16 38 13 65q-11 0 -19.5 6.5t-9.5 18.5q-1 11 8 19.5t21 4.5z" />
    <glyph glyph-name="quotedblleft" unicode="&#x201c;" horiz-adv-x="179" 
d="M41 583q-18 7 -20 37q-2 29 10 62.5t33 60.5q4 6 11.5 9.5t9 0.5t1.5 -5t-13.5 -21t-18.5 -30q-16 -38 -13 -65q11 0 19.5 -6.5t9.5 -18.5q1 -11 -8 -19.5t-21 -4.5zM121 583q-18 7 -20 37q-2 29 10 62.5t33 60.5q4 6 11.5 9.5t9 0.5t1.5 -5t-13.5 -21t-18.5 -30
q-16 -38 -13 -65q11 0 19.5 -6.5t9.5 -18.5q1 -11 -8 -19.5t-21 -4.5z" />
    </font>
</defs>
</svg>
