<?xml version="1.0" standalone="no"?>
<!DOCTYPE svg PUBLIC "-//W3C//DTD SVG 1.1//EN" "http://www.w3.org/Graphics/SVG/1.1/DTD/svg11.dtd" >
<svg xmlns="http://www.w3.org/2000/svg" xmlns:xlink="http://www.w3.org/1999/xlink" version="1.1">
<metadata>
Created by FontForge 20200314 at Tue Nov  3 16:49:00 2015
 By Unknown
Copyright (c) 2014 by Ulrike Wilhelm. All rights reserved.
</metadata>
<defs>
<font id="LiebeErikaW03-Medium" horiz-adv-x="129" >
  <font-face 
    font-family="LiebeErikaW03-Medium"
    font-weight="500"
    font-stretch="normal"
    units-per-em="1000"
    panose-1="1 0 0 0 0 0 0 0 0 0"
    ascent="800"
    descent="-200"
    x-height="468"
    cap-height="682"
    bbox="-73 -266 782 866.08"
    underline-thickness="50"
    underline-position="-125"
    unicode-range="U+000D-FB02"
  />
<missing-glyph horiz-adv-x="259" 
d="M129 422q31 0 55 -24t24 -55t-24 -54.5t-55 -23.5q-32 0 -55 23.5t-23 54.5t23.5 55t54.5 24zM129 394q-21 0 -35.5 -15t-14.5 -36t14.5 -35.5t35.5 -14.5t36 14.5t15 35.5t-15 36t-36 15z" />
    <glyph glyph-name="uniFB01" unicode="fi" horiz-adv-x="274" 
d="M160 743q23 0 43.5 -14.5t31 -50.5t9.5 -79q-2 -49 -27 -53q-11 -2 -20 3t-11.5 19t6.5 23.5t23 7.5q1 60 -14.5 87t-40.5 27q-35 0 -54 -46q-12 -31 -12 -88v-111q14 0 70 1t61 -2q3 -2 4 -14.5t-0.5 -43t-1.5 -34.5v-161.5t-2 -192.5q-1 -11 -4 -16.5t-12 -6.5
q-5 0 -9 4t-4 36q2 81 2 287q0 18 1.5 52.5t0.5 60.5l-106 1l-1 -268l-1 -153q0 -18 -10 -20.5t-14 3.5q-2 4 -3.5 14t-2 44t0 73.5t0.5 40.5v266q-37 0 -44.5 1.5t-8.5 10.5t10 14t43 4q0 16 0.5 71t4 90t14.5 58q12 26 32.5 40.5t45.5 14.5z" />
    <glyph glyph-name="uniFB02" unicode="fl" horiz-adv-x="287" 
d="M149 744q68 0 78 -92q3 -24 3 -117l-1 -195l-1 -263q0 -30 2.5 -39.5t8.5 -11.5q10 -3 18 5q1 1 3 5t5 6t7 1q11 -2 11 -11.5t-6 -16.5q-4 -6 -11.5 -12.5t-26.5 -6.5q-10 0 -19.5 5.5t-13.5 14.5q-7 13 -7 76v55t1 222.5t0 241.5q-1 54 -13.5 79t-38.5 25
q-16 0 -26.5 -10.5t-16 -30t-8.5 -50.5t-3 -156q38 0 51 -3.5t13 -12.5q-1 -9 -12 -11.5t-29 -2.5h-23l-1 -241l1 -138l1 -42q-1 -18 -17 -18q-6 0 -10 7t-4 31v30q-1 189 0 373q-6 1 -24 0.5t-23.5 2t-5.5 8.5q-1 8 5 13.5t27.5 5t22.5 -0.5q0 9 -0.5 64t2.5 95t13 65.5
t26.5 38t41.5 12.5z" />
    <glyph glyph-name="f_j.dlig" unicode="fj" horiz-adv-x="272" 
d="M153 744q44 0 66.5 -40.5t19.5 -103.5q-2 -49 -27 -53q-15 -3 -23.5 5.5t-8.5 21t8 21t22 6.5q2 27 -4 55.5t-20 43t-32 14.5q-21 0 -35 -19t-18.5 -47t-4.5 -52l-2 -128h85q3 0 14 0.5t18.5 -0.5t11.5 -6q5 -7 3 -24q-1 -23 -1 -124l1 -283v-163q0 -74 -20 -102
q-5 -8 -15 -16.5t-18 -9.5q-18 -4 -25 -4q-17 0 -35 9t-28 30.5t-7 46.5q4 37 25 70q8 10 15 15.5t14 0.5q5 -3 7 -8.5t-9 -21.5q-21 -31 -23 -59q-2 -13 2.5 -27.5t21.5 -23.5q7 -3 18 -3t17 4q14 7 22 28t9 74v123l-2 350v95h-101l-1 -330v-84q0 -6 -1 -17t-12 -12
q-6 0 -11.5 3.5t-5.5 31.5v265l1 142h-33q-25 -2 -27 13q-1 6 6.5 11t29.5 5.5t24 0.5q0 11 0.5 59t2 82.5t5.5 53.5q7 35 28 58t53 23z" />
    <glyph glyph-name="g_j.dlig" unicode="gj" horiz-adv-x="350" 
d="M291 598q10 0 16 -8t6 -17q0 -11 -7.5 -20.5t-18.5 -10.5t-17.5 7t-6.5 18q0 13 9 22t19 9zM192 523q6 -1 8 -9.5t0 -18.5q-1 -14 -11.5 -27t-23.5 -19q32 -55 32.5 -152t-29.5 -155q-25 -42 -65 -39l-17 -33q-4 -7 -7 -17t-2 -16q1 -4 10.5 -11t20.5 -15t12 -8
q21 -16 37.5 -34t28.5 -50q12 -30 10 -66.5t-13 -63.5q7 -10 18.5 -17t24.5 -7q45 0 48 96l2 265l-1 258v43q0 27 1 33t6 7.5t7 1.5q3 0 8.5 -1.5t6.5 -15.5v-67v-269l-1 -247q0 -61 -17.5 -94t-49.5 -37q-22 -3 -40.5 6t-28.5 21q-23 -29 -61 -29q-16 0 -36.5 10.5t-36 38
t-15.5 61.5q0 36 18 78t50 68q-10 6 -25 20q-11 10 -12.5 27t16.5 54l10 21q-33 23 -43 89t0 136q5 40 18 72.5t32 47t39 14.5q12 0 22 -4q8 1 18 11t11 20q0 2 1.5 10t5 12.5t13.5 0.5zM116 443q-14 -2 -28.5 -21t-21.5 -57q-8 -41 -8.5 -89.5t7 -85t24.5 -51.5q8 -7 19 -7
t19 5q16 12 30 57q14 48 13 105.5t-14 98.5q-8 23 -16.5 35t-23.5 10zM110 -23q-20 -13 -41.5 -50.5t-21.5 -74.5q0 -17 6 -37.5t21 -35t33 -14.5q33 0 49 33q12 25 12 55t-7 53q-13 44 -51 71z" />
    <glyph glyph-name="j_j.dlig" unicode="jj" horiz-adv-x="243" 
d="M59 542q-11 0 -17 8t-6 17q0 13 8.5 22t18.5 9q11 0 17 -8t6 -18q0 -11 -7 -20.5t-20 -9.5zM185 598q10 0 16.5 -8t6.5 -18q0 -11 -7 -20.5t-20 -9.5q-11 0 -17.5 8t-6.5 17q0 31 28 31zM198 449v-67v-269v-76t-0.5 -116t-3.5 -83q-3 -32 -14 -57t-28.5 -35t-35.5 -9
q-36 3 -55 38q-17 -35 -52 -39q-31 -4 -52.5 14.5t-25.5 50.5q-2 20 4.5 45.5t20.5 46.5q13 19 26 9q4 -3 5 -7.5t-9 -20.5q-9 -14 -14.5 -35t-3.5 -36q2 -18 12.5 -29t26.5 -11q20 0 33 20.5t14 77.5l2 262l-1 258v43q0 30 3.5 37t11.5 6q3 0 8.5 -2.5t5.5 -15.5v-67v-269
l-1 -244q0 -33 -4 -58q3 -8 11 -21.5t18 -18.5t17 -6q40 -2 48 75q5 48 5 283l-1 258v43q0 27 1 33t4.5 8t8.5 2q13 0 15 -18z" />
    <glyph glyph-name=".notdef" horiz-adv-x="259" 
d="M129 422q31 0 55 -24t24 -55t-24 -54.5t-55 -23.5q-32 0 -55 23.5t-23 54.5t23.5 55t54.5 24zM129 394q-21 0 -35.5 -15t-14.5 -36t14.5 -35.5t35.5 -14.5t36 14.5t15 35.5t-15 36t-36 15z" />
    <glyph glyph-name=".null" horiz-adv-x="0" 
 />
    <glyph glyph-name="uni000D" unicode="&#xd;" horiz-adv-x="119" 
 />
    <glyph glyph-name="space" unicode=" " horiz-adv-x="119" 
 />
    <glyph glyph-name="exclam" unicode="!" horiz-adv-x="160" 
d="M76 716q3 1 9.5 0.5t9 -7t2.5 -28.5q0 -53 -2 -135.5t0 -153.5v-251q2 -26 -12 -27q-5 0 -10.5 2.5t-5.5 24.5q-2 46 -1.5 136.5t0.5 115.5l1 291q0 17 1 23.5t8 8.5zM56 31q2 10 8.5 15.5t14.5 5.5q11 0 20.5 -9t9.5 -21q0 -11 -9 -19.5t-23 -6.5q-13 3 -18 14.5
t-3 20.5z" />
    <glyph glyph-name="quotedbl" unicode="&#x22;" horiz-adv-x="163" 
d="M33 739q4 4 12.5 3.5t13.5 -5.5q1 -2 2 -6.5t1 -28.5q-1 -5 -2 -21.5t-1.5 -58.5t-0.5 -49q0 -8 -1.5 -22.5t-11.5 -13.5q-7 1 -10 12.5t-4 57.5l-2 86q-2 40 4 46zM136 738q5 -8 2 -35l-3 -123q-1 -23 -2.5 -31.5t-9.5 -9.5q-7 -1 -11 10.5t-4 53.5l-3 94q-2 31 2 38
q4 5 14 6.5t15 -3.5z" />
    <glyph glyph-name="numbersign" unicode="#" horiz-adv-x="369" 
d="M287 677q9 0 11.5 -4t2.5 -23q0 -22 -5.5 -71t-10.5 -78h51q12 0 17.5 -3t4.5 -16q-1 -4 -6.5 -7.5t-32.5 -3.5h-37l-27 -244h51q12 0 18 -3.5t5 -12.5q-1 -5 -9.5 -9t-35 -3.5t-30.5 0.5l-19 -165q-4 -25 -7.5 -30.5t-11.5 -5.5q-5 0 -8.5 7t0.5 46l16 148h-95l-24 -190
q0 -3 -4.5 -6t-9.5 -3q-6 0 -10.5 4t-3.5 11l22 184h-36q-26 0 -32 3.5t-5 11.5q0 5 3.5 9t22.5 4h50l27 245l-56 1q-12 0 -17 2.5t-4 11.5q1 5 6.5 9.5t30.5 4.5h43l18 152q1 12 3.5 18t12.5 6q13 0 12 -22l-16 -154h93l16 143q2 17 4.5 24.5t11.5 8.5zM252 471h-93
l-28 -244h95z" />
    <glyph glyph-name="dollar" unicode="$" horiz-adv-x="266" 
d="M133 753q5 0 9 -1.5t6 -6.5t2 -33v-39q22 -3 38 -16q17 -13 27.5 -39t1.5 -69q-4 -18 -10.5 -23.5t-17.5 0.5q-4 2 -4 7t1.5 11t1.5 8q9 55 -16 80q-14 14 -37 13.5t-38 -16.5q-12 -13 -15 -36.5t8.5 -66t49.5 -119.5t39 -79q28 -59 43 -107.5t14 -97.5q-2 -65 -33 -95
q-20 -22 -50 -27l1 -40q0 -21 -1.5 -29.5t-12.5 -9.5q-6 0 -10.5 4t-5 12t-0.5 30l-1 33q-47 4 -75 50q-8 14 -15 40.5t-4.5 61t14.5 56.5q6 14 17 13q7 -1 11 -6t-5 -28q-8 -22 -8 -51.5t8 -53.5q9 -26 29.5 -40.5t41 -13t34.5 9.5q18 11 27 36.5t8 55.5q-2 37 -10.5 72
t-37.5 100q-8 16 -35.5 70.5t-41.5 88t-23 67.5t-6 64.5t20 51.5q19 23 50 28l-1 37q0 26 1 32.5t5 8.5t6 2z" />
    <glyph glyph-name="percent" unicode="%" horiz-adv-x="341" 
d="M290 690q9 1 12.5 -4t2 -16t-13 -40.5t-14.5 -36.5q-2 -7 -8.5 -24t-29 -81.5t-48.5 -133.5q-52 -142 -62 -172q-9 -26 -28 -77t-28 -80q-5 -16 -11.5 -26.5t-16.5 -8.5q-6 1 -9 5t-2.5 10.5t6.5 24.5l82 222q1 2 4.5 12.5t38.5 108.5t84 228q33 88 41 89zM109 680
q29 -8 39 -65t2 -134q-6 -41 -17 -66t-33 -30q-18 -4 -36 6.5t-27 39.5q-9 30 -10 73.5t3 79.5q7 48 27 76.5t52 19.5zM91 651q-8 -1 -14.5 -11t-10.5 -21q-12 -42 -11 -106t16 -85q5 -8 14.5 -11t16.5 3q16 16 21 72t-1 103q-7 59 -31 56zM248 287q43 4 57 -51
q7 -27 8.5 -76t-8.5 -101q-11 -60 -56 -63q-19 -2 -34.5 11t-23 45.5t-8.5 71.5q-1 58 9 96t25 51.5t31 15.5zM262 255q-12 6 -22 -2t-13 -18q-6 -13 -10 -40.5t-5 -48.5q-2 -105 23 -118q8 -4 18 -1t15 11q7 12 12 49t3 82q-2 75 -21 86z" />
    <glyph glyph-name="ampersand" unicode="&#x26;" horiz-adv-x="364" 
d="M344 24q6 -9 7.5 -16.5t-5 -11.5t-16 0.5t-14.5 13.5l-42 83q-46 -89 -113 -98q-19 -2 -41.5 2.5t-40.5 19.5q-42 34 -45 99q-1 21 3 47.5t13.5 56.5t20 58t21 53t24.5 57t17 40q-55 143 -54 214q1 31 12 54.5t28 35.5q21 12 46 12q21 0 36 -9q15 -10 23 -30t9 -40
q1 -38 -11.5 -83t-27.5 -81l-30 -72q26 -68 49 -121l61 -144q11 31 20.5 70t11.5 64q0 27 1.5 36t6 13t9.5 4q7 0 10.5 -6.5t2.5 -28.5q-3 -36 -13 -84.5t-33 -104.5q32 -72 54 -103zM111 662q-10 -59 38 -195q32 78 47 130q5 19 7.5 45.5t-3.5 43t-15 22.5t-22 6
q-16 0 -31.5 -13t-20.5 -39zM177 29q47 19 81 97q-28 63 -76 180l-34 86q-52 -125 -70 -186q-12 -37 -13 -72t10 -58t25 -35q13 -11 35.5 -15t41.5 3z" />
    <glyph glyph-name="quotesingle" unicode="'" horiz-adv-x="95" 
d="M34 737q5 4 13.5 4t13.5 -6q1 -2 2 -5.5t1 -21.5l-5 -136q-1 -28 -3.5 -33t-9.5 -4q-7 0 -10 12.5t-4 58.5l-2 85q-2 40 4 46z" />
    <glyph glyph-name="parenleft" unicode="(" horiz-adv-x="175" 
d="M156 732q2 -2 2 -7t-9 -24l-26 -61q-16 -47 -28 -90.5t-22 -117.5q-16 -104 -1 -250q6 -56 22 -127t38 -126q15 -37 22 -48q9 -16 -7 -23q-5 -2 -12 2.5t-22 39.5q-23 54 -41 123t-25 125q-21 164 0 305q7 51 25.5 119t53.5 148q7 19 18 19q5 0 12 -7z" />
    <glyph glyph-name="parenright" unicode=")" horiz-adv-x="175" 
d="M28 738q4 2 8 1t15 -20q6 -11 24.5 -58t27.5 -79q19 -65 28 -153.5t6 -166.5t-11 -132q-19 -128 -76 -254q-9 -19 -19 -19q-5 0 -10 5q-8 8 -2 20t7 15q38 83 60 176q24 100 24 247q0 50 -8.5 120t-21.5 116q-35 117 -59 160q-9 14 7 22z" />
    <glyph glyph-name="asterisk" unicode="*" horiz-adv-x="277" 
d="M137 733q15 1 18 -11q1 -8 -0.5 -44t-0.5 -56q10 7 36 31t30 26q21 17 30 -2q1 -3 0.5 -7.5t-13.5 -14.5l-73 -56q8 -8 32.5 -27t33.5 -25q28 -17 21 -30q-5 -8 -13 -7t-15 7q-19 15 -69 58l3 -91q0 -12 -2.5 -17.5t-15.5 -4.5q-4 0 -8 4.5t-4 27.5l3 82q-50 -41 -70 -54
q-15 -10 -23 -10q-5 0 -9 5.5t-3 11.5q1 7 17 17l76 51l-70 48q-23 16 -25 22q-2 7 3 12.5t11.5 5.5t10.5 -3l22 -17l59 -44l-3 68q0 30 2 37t9 7z" />
    <glyph glyph-name="plus" unicode="+" horiz-adv-x="338" 
d="M303 276q17 0 13 -23q-1 -3 -6 -5t-39 -2h-90l-1 -120q0 -12 -1.5 -17.5t-7.5 -6.5t-10.5 1t-7 8.5t-2.5 36.5v98h-82q-21 0 -32.5 1.5t-14.5 7.5q-3 8 1 15.5t10 6.5l118 -1l1 92q0 29 2.5 35.5t10.5 7.5q3 0 8.5 -1t7 -8t1.5 -26l-1 -58v-42h122z" />
    <glyph glyph-name="comma" unicode="," horiz-adv-x="111" 
d="M60 52q22 -8 24 -43q2 -31 -10 -65.5t-34 -61.5q-6 -7 -15 -10t-14 8q-3 5 10 24t18 29q16 36 15 59q-13 1 -22 9.5t-10 21.5q0 15 12 24t26 5z" />
    <glyph glyph-name="hyphen" unicode="-" horiz-adv-x="162" 
d="M63 276h55q16 0 22.5 -2t6.5 -12q0 -5 -5.5 -9.5t-40.5 -4.5l-59 -1q-12 0 -19 2.5t-8 11.5q0 5 6.5 10t41.5 5z" />
    <glyph glyph-name="period" unicode="." horiz-adv-x="109" 
d="M26 32q6 21 28 21q11 0 20.5 -8t9.5 -23q0 -11 -10.5 -20.5t-25.5 -6.5q-15 4 -19.5 15.5t-2.5 21.5z" />
    <glyph glyph-name="slash" unicode="/" horiz-adv-x="257" 
d="M207 742q8 1 14.5 -4t-0.5 -35l-30 -143l-68 -308q-22 -94 -57 -260l-15 -72q-6 -27 -10 -30.5t-8 -3.5q-19 1 -15 20q2 8 7 31t36.5 174.5t46.5 214.5l52 235l27 126q7 38 10.5 46.5t9.5 8.5z" />
    <glyph glyph-name="zero" unicode="0" horiz-adv-x="295" 
d="M152 687q13 0 28.5 -10.5t27 -35t17.5 -50.5q19 -84 21 -192q1 -79 0.5 -124t-5.5 -95q-11 -107 -33 -146.5t-57 -39.5q-39 0 -63.5 36t-36.5 127q-6 43 -6 136t6 152q10 87 22.5 137.5t31.5 77.5t47 27zM148 655q-21 -3 -38 -56.5t-26 -143.5q-13 -130 -5 -249
q9 -98 25 -138.5t45 -40.5q11 0 23 12.5t20.5 40.5t12.5 60q9 65 10 169.5t-6 190.5q-5 63 -21.5 110.5t-39.5 44.5z" />
    <glyph glyph-name="one" unicode="1" horiz-adv-x="256" 
d="M156 684q2 -1 4 -5.5t2.5 -12.5t0.5 -20.5v-16.5l-1 -112l-2 -201v-62v-10.5t-2 -102t-1 -113.5h54q25 0 32 -1.5t8.5 -6.5t1.5 -7q-1 -13 -45 -14h-155q-12 0 -17 1.5t-5 8.5q-1 7 1.5 11t8.5 5.5t16.5 2t12.5 0.5h57q3 369 8 581q-12 -33 -28 -62q-23 -39 -52 -69
q-24 -26 -33 -5q-4 8 6 20q41 50 49 63.5t12 19.5q10 17 22.5 45.5t19.5 47.5q6 24 25 15z" />
    <glyph glyph-name="two" unicode="2" horiz-adv-x="257" 
d="M213 507q-6 -23 -13.5 -50t-16.5 -55.5t-19.5 -61t-14.5 -43.5l-52 -148l-45 -121q10 0 32 -1t46 0l80 2q5 0 11 -5t5 -14t-12 -10q-7 -1 -22.5 -2t-95.5 1h-10.5h-30t-29.5 4q-6 3 -8.5 9.5t4 23t7.5 20.5l38 100q95 263 119 371q14 62 2.5 95t-39.5 33q-21 0 -39 -21
t-23 -53q-2 -13 -3.5 -36.5t-11.5 -25.5t-15.5 1t-6.5 15q0 12 3.5 39.5t12.5 47.5t17 30q13 16 31 25t36 9q40 0 58.5 -30t16 -72.5t-11.5 -76.5z" />
    <glyph glyph-name="three" unicode="3" horiz-adv-x="243" 
d="M80 681h92q28 0 34 -2t7 -8q1 -4 -0.5 -9.5t-7 -15t-6.5 -12.5q-15 -34 -50 -103.5t-50 -104.5q32 -16 57 -42.5t41 -71.5q12 -32 16.5 -78t1.5 -87t-15 -75.5t-35 -56t-56 -21.5q-25 0 -48.5 16.5t-37.5 53.5q-5 15 -7 31t3 23t13 7q4 0 7 -2.5t4 -15.5t3 -20t4 -12
q9 -23 25 -37t34 -14q32 0 51 34.5t24 91.5t-4 110q-8 43 -25 73.5t-49 53.5q-7 5 -22 13t-19 12q-5 6 12 39q19 35 56.5 111t45.5 92l-106 -2q-17 0 -26 2t-10 10q-1 7 3.5 12.5t21 5t18.5 -0.5z" />
    <glyph glyph-name="four" unicode="4" horiz-adv-x="270" 
d="M200 307l30 -1q25 0 29.5 -2.5t4.5 -10.5q0 -9 -5 -12t-28 -3h-31l-1 -85l-1 -165q-1 -16 -3 -23t-13 -7q-5 0 -9 2t-4 23l1 166l1 89h-121q-26 0 -30 4q-3 3 -3 9t11 35l44 110l44 109l52 134q2 5 7.5 9t15.5 1q4 -2 7.5 -8t3.5 -40q1 -48 -0.5 -174.5t-1.5 -159.5z
M50 305l121 2l6 325q-23 -65 -59 -159q-3 -8 -12.5 -32.5t-30.5 -74.5t-25 -61z" />
    <glyph glyph-name="five" unicode="5" horiz-adv-x="255" 
d="M192 688q12 1 17 -2t5 -13q0 -5 -7 -9t-30 -6t-28 -3l-40 -3q-6 -38 -11.5 -111t-7.5 -90q38 -14 68.5 -46t44.5 -73q37 -117 13 -229q-10 -49 -34.5 -79t-61.5 -30q-40 0 -68 32q-23 28 -28 71q-3 26 15 29q2 0 6.5 -1t8.5 -20.5t5 -24t3 -9.5q8 -22 23.5 -34.5
t34.5 -11.5q26 0 44.5 28.5t25.5 78.5q15 97 -17 189q-10 29 -31 56t-49 39q-7 4 -18 8t-13 6q-1 1 -2 4.5t1 28.5l7 85l10 107q0 2 1 10.5t3 10.5q4 4 16 4.5t15 0.5z" />
    <glyph glyph-name="six" unicode="6" horiz-adv-x="270" 
d="M211 684q2 -2 4 -6t-11.5 -17.5t-21 -22.5t-11.5 -15q-39 -59 -63.5 -139t-36.5 -165q12 33 30 55t51 22q19 0 34.5 -10.5t27 -30.5t21 -59.5t9.5 -90.5q-2 -96 -28.5 -153t-75.5 -58q-36 0 -59 30t-33.5 83.5t-9.5 116.5q1 57 12.5 139t39.5 163t66 126q23 26 34 33.5
t21 -1.5zM148 366q-19 0 -35.5 -17.5t-30.5 -58t-14 -88.5q-1 -35 6 -77.5t25 -71.5t41 -29q20 0 37.5 23t27 70.5t9.5 80.5q0 82 -17 124.5t-49 43.5z" />
    <glyph glyph-name="seven" unicode="7" horiz-adv-x="236" 
d="M184 684q18 0 26 -1.5t10 -9.5v-4t-8 -28q-30 -97 -46 -160q-27 -111 -48 -228q-20 -114 -30 -214q-4 -30 -9 -36t-10 -6q-6 0 -11 6t-2 38l8 73q20 137 41 240q32 152 81 302q-39 -3 -126 -3q-22 0 -30.5 2.5t-7.5 15.5q1 12 28 12h70z" />
    <glyph glyph-name="eight" unicode="8" horiz-adv-x="286" 
d="M261 233q7 -25 9 -62t-2 -62q-7 -38 -27 -66t-47 -38.5t-51 -10.5q-33 0 -61 15t-48.5 52.5t-19.5 92.5q1 27 8.5 63t25 75.5t71.5 132.5l8 12q-43 75 -44 146q-1 43 15.5 73t43.5 30q24 0 40 -16t21 -39t4 -43q-2 -31 -10.5 -66t-37.5 -88l8 -14q46 -74 64 -109t30 -78z
M112 579q1 -59 30 -116q29 56 35 114q3 31 -6 55t-28 25q-8 0 -15.5 -9.5t-12 -30.5t-3.5 -38zM142 24q27 0 50.5 14.5t36.5 49.5t12 75q0 22 -6 50.5t-22 65.5t-64 117l-6 10l-4 -7q-60 -99 -77.5 -155t-15.5 -102q1 -35 16.5 -64.5t38 -41.5t41.5 -12z" />
    <glyph glyph-name="nine" unicode="9" horiz-adv-x="260" 
d="M140 686q34 -5 54.5 -44.5t24.5 -130.5q3 -51 2 -109t-15 -147q-21 -141 -83 -212q-11 -13 -28 -26t-28 -17q-5 -2 -14.5 -3.5t-14.5 12.5q0 2 1.5 6t16 13t18.5 12q74 52 103 219q16 80 21 184q-17 -67 -50 -82q-16 -8 -36.5 -4t-35.5 18q-21 19 -32.5 56t-11.5 83
q0 50 14 92t38 63.5t56 16.5zM141 654q-17 5 -34.5 -6.5t-30 -48t-14.5 -77.5q-2 -53 14.5 -94.5t48.5 -40.5q13 1 26.5 13.5t22.5 39.5t12 56q5 47 -6.5 99t-38.5 59z" />
    <glyph glyph-name="colon" unicode=":" horiz-adv-x="109" 
d="M55 392q12 0 20 -8.5t8 -20.5q0 -13 -8 -22t-21 -9t-21 13.5t-7 25.5q1 9 9.5 15t19.5 6zM54 55q14 0 22.5 -12.5t7.5 -24.5q-2 -10 -11 -16.5t-19 -6.5q-11 0 -20 9.5t-9 19.5q0 13 8.5 22t20.5 9z" />
    <glyph glyph-name="semicolon" unicode=";" horiz-adv-x="126" 
d="M52 394q14 0 21 -9t7 -20q0 -14 -10 -23.5t-25 -6.5q-10 3 -17 12.5t-5 24.5q3 8 12 15t17 7zM60 52q22 -8 24 -43q2 -31 -10 -65.5t-34 -61.5q-6 -7 -15 -10t-14 8q-3 5 10 24t18 29q16 36 15 59q-13 1 -22 9.5t-10 21.5q0 15 12 24t26 5z" />
    <glyph glyph-name="less" unicode="&#x3c;" horiz-adv-x="272" 
d="M220 456q9 -9 -4 -27q-31 -39 -112 -120l-48 -51q11 -17 45 -53q72 -82 97 -116t15 -39q-4 -2 -11.5 0t-26.5 24l-70 81q-4 5 -43 49.5t-39 52.5q0 4 3 10t20 23l74 77l72 79q11 12 14.5 14.5t7.5 0t6 -4.5z" />
    <glyph glyph-name="equal" unicode="=" horiz-adv-x="316" 
d="M139 324l91 -1q33 0 44 -4t11 -12q0 -5 -5 -9t-21 -4h-19h-150q-38 0 -45 1.5t-10.5 4.5t-3.5 7q0 6 6.5 11t41.5 5zM260 222q13 -1 18.5 -3t5.5 -11q0 -5 -5.5 -10t-41.5 -5l-88 -1l-63 1q-34 0 -44.5 3.5t-10.5 11.5q0 4 3 7.5t10 4.5t18.5 1h13.5h106z" />
    <glyph glyph-name="greater" unicode="&#x3e;" horiz-adv-x="285" 
d="M55 456q3 2 10 0t29 -24l134 -132q34 -30 34 -42q0 -10 -63 -83q-4 -4 -37 -42.5t-43 -48.5q-26 -27 -40 -37t-21 -1q-4 4 -3.5 7.5t3 7t7.5 8.5l6 6l68 78q85 98 88 106q-3 4 -31 31t-29 28l-94 94l-9.5 9.5t-11.5 12.5t-4.5 9.5t2 7.5t5.5 5z" />
    <glyph glyph-name="question" unicode="?" horiz-adv-x="226" 
d="M160 714q19 -11 30 -36q21 -52 3 -135q-7 -34 -33.5 -96t-31.5 -75q-9 -24 -12 -63t0 -164q0 -12 -2.5 -18t-11.5 -6q-5 0 -10.5 3t-5.5 22l-2 115q0 41 4 75.5t20 69.5q2 3 12 26t19 44t16 41q10 27 14.5 65.5t-1.5 65.5t-20 39q-11 10 -29.5 9.5t-31.5 -14.5
q-12 -13 -15 -38t10 -51q2 -3 9 -11.5t6 -12.5q-3 -8 -11.5 -11t-13.5 2q-14 13 -24 40.5t-1.5 62.5t32.5 51q17 11 41.5 11t39.5 -11zM77 31q2 10 9 15.5t15 5.5q11 0 20 -8.5t9 -21.5q0 -12 -9.5 -20.5t-23.5 -5.5q-13 3 -17.5 14t-2.5 21z" />
    <glyph glyph-name="at" unicode="@" horiz-adv-x="524" 
d="M269 574q20 5 39 5q40 0 68 -17q18 -11 36 -33.5t28.5 -56t14.5 -67.5q6 -40 3.5 -90t-10.5 -90q-8 -42 -20 -79t-33 -63q-6 -8 -16 -14t-19 -6q-10 0 -19 6q-14 9 -22.5 45.5t-8.5 103.5q-2 -5 -10.5 -33.5t-17.5 -52t-20 -41.5q-7 -12 -18 -20t-21 -8q-11 0 -19 8
q-23 19 -24.5 94.5t9.5 142.5q20 103 52 135q13 14 31.5 21t38.5 4q11 -1 28.5 -8t20.5 -17q1 -6 -3.5 -31.5t-4.5 -27.5q-10 -52 -13 -82q-9 -73 2 -159q6 -49 20 -49q18 -1 37.5 54.5t27.5 112.5q15 131 -16 213q-7 19 -20.5 37.5t-30.5 26.5q-20 12 -49 12
q-22 0 -47.5 -9t-41.5 -21q-50 -38 -84 -123.5t-38 -175.5q-2 -60 9 -113.5t35 -90.5q9 -14 23 -26.5t29.5 -18t27.5 -6.5q10 -1 24 1t43 13q6 4 12.5 4t9.5 -8q11 -23 -62 -38q-25 -2 -52.5 4t-48.5 24t-33 39q-26 42 -39.5 104.5t-2.5 163.5q8 64 32 127.5t60 106.5
q18 22 45.5 41t57.5 26zM297 440q-20 -1 -37 -19.5t-32 -76.5q-13 -49 -17 -107t1 -105q4 -35 14 -35q12 0 29 38q23 55 42 121q9 35 22 100t12 73q-1 2 -8 7t-26 4z" />
    <glyph glyph-name="A" unicode="A" horiz-adv-x="277" 
d="M265 27q1 -13 0 -19.5t-9 -7.5q-10 -1 -15 5.5t-8 29.5l-41 226q-35 -5 -108 -3q-20 -113 -21 -122l-18 -106q-3 -17 -6 -24t-15 -7q-7 0 -11.5 5t2.5 35q5 23 41 226l26 172q15 92 37 209q4 25 9 33t13 8q9 0 13 -5.5t8 -28.5q15 -82 33 -210l28 -190q10 -61 27 -152z
M89 290v-2q46 -6 99 3q-9 62 -25.5 184t-20.5 151q-13 -64 -22 -128z" />
    <glyph glyph-name="B" unicode="B" horiz-adv-x="267" 
d="M84 685q36 4 67 -20q35 -29 45 -100q7 -56 -12 -96t-64 -56q19 -7 44.5 -29t45.5 -61q34 -69 31 -144q-3 -53 -16 -86q-41 -97 -131 -97q-23 0 -38 5q-5 1 -9 8.5t-4 36.5l3 129q1 34 1 261q1 36 -1 112t-2 81q-2 33 1 41q8 15 39 15zM72 652q1 -33 1.5 -108.5
t2.5 -113.5q20 -1 41.5 11t31.5 26q15 19 19 50t-5 67q-4 18 -15 36.5t-22 26.5q-21 15 -54 5zM76 397l-3 -368q20 -7 47 -2q20 3 41.5 20.5t36.5 56.5q16 39 14 89t-17 92q-21 54 -52 82t-67 30z" />
    <glyph glyph-name="C" unicode="C" horiz-adv-x="225" 
d="M149 688q22 0 39 -18t22 -62q3 -29 0 -37t-12 -8q-6 0 -10 6.5t-5 23.5t-2 20q-6 48 -34 47q-13 0 -28 -18t-25 -59q-20 -77 -27 -197t2 -211q5 -54 16 -89t22 -48q5 -8 15.5 -13t19.5 -2q27 8 39 67q1 3 2 12.5t3.5 16t7.5 7.5q8 2 14.5 -3t1.5 -38q-9 -53 -30.5 -73
t-46.5 -20q-6 0 -21 4.5t-29 20.5q-15 19 -26.5 60t-16.5 101.5t-5 116.5q0 63 5 131t15.5 119t22.5 81q10 25 26 43.5t45 18.5z" />
    <glyph glyph-name="D" unicode="D" horiz-adv-x="290" 
d="M61 685q26 2 55 -9.5t46 -25.5q44 -36 68.5 -121t24.5 -188q1 -151 -17.5 -218.5t-56.5 -98.5q-34 -27 -91 -27l-36 2q-4 0 -6.5 7t-0.5 40v147l1 167l-1 304q1 13 4 16.5t10 4.5zM75 654q2 -209 0 -628q58 -6 87 19q11 10 22 25.5t19 37.5t12 44t6 39.5t2.5 31t1.5 28.5
t1 19q4 105 -10 192t-43 133q-16 26 -42 42.5t-56 16.5z" />
    <glyph glyph-name="E" unicode="E" horiz-adv-x="227" 
d="M181 682q24 2 33.5 -0.5t8.5 -14.5q-1 -5 -4.5 -9t-22.5 -4q-99 0 -122 -3l1 -188q37 3 94 1q14 -2 18.5 -4t4.5 -10q1 -9 -12 -12.5t-52 -2.5q-20 1 -51 -1q2 -52 1 -157t-1 -106q0 -16 -1.5 -64.5t-0.5 -79.5q96 0 112 1t26.5 -1t11.5 -12q0 -5 -2 -10t-21 -5l-88 -1
q-58 -4 -64 5q-4 7 -2 149v12.5t1 95.5t-1 149l-3 216q0 3 -0.5 14.5t0 20t3.5 11.5q3 4 14 6t47 4h72z" />
    <glyph glyph-name="F" unicode="F" horiz-adv-x="219" 
d="M96 683q17 1 50.5 0t47.5 -1q17 0 25.5 -1.5t9.5 -6.5q1 -7 -3 -13.5t-34 -6.5q-9 0 -48.5 0.5t-64.5 -1.5q-1 -34 -1 -214h70q46 2 45 -13q0 -9 -10 -12.5t-37 -2.5h-69l1 -350q3 -30 0 -46.5t-16 -15.5q-5 1 -9.5 6.5t-3.5 35.5l-1 466v9.5t1 78.5t5 83q3 2 9 3t18 1.5
t15 0.5z" />
    <glyph glyph-name="G" unicode="G" horiz-adv-x="275" 
d="M225 600q9 -61 -14 -61q-18 1 -14 31q2 30 -5.5 56t-23.5 32q-12 3 -23.5 -3.5t-25.5 -28.5q-15 -26 -28.5 -71t-21.5 -135q-5 -65 -5 -115q1 -107 13 -170.5t29 -90.5q10 -15 24.5 -19.5t26.5 1.5q23 11 35 63q6 22 11 55.5t6 148.5v22t-3 23q-4 1 -21.5 2t-26.5 0
q-14 -1 -24.5 0.5t-11.5 10.5q0 6 2 11t17 6l51 -1q2 0 12.5 0.5t15.5 -0.5t7 -2q4 -2 7 -8.5t3 -31v-32.5q0 -66 -4 -121.5t-17 -103.5q-21 -74 -75 -74q-47 0 -71 58q-30 72 -35 218q-2 91 7 180q8 60 18.5 105.5t35.5 89.5q10 17 27.5 29.5t37.5 12.5q50 0 64 -87z" />
    <glyph glyph-name="H" unicode="H" horiz-adv-x="290" 
d="M231 684q8 0 10.5 -8t3 -18t0 -27t-0.5 -21l-2 -268l1 -316q3 -27 -13 -27q-8 0 -11 5t-4 12t-1 20.5v17.5l-2 191v124q-16 1 -134 4v-90l-2 -240q-1 -32 -4 -38.5t-11 -6.5q-5 0 -10 4t-5 32l2 248l1 147l-1 205q0 3 0.5 17.5t2.5 23t9 9.5q6 0 11.5 -3.5t5.5 -36.5
l1 -106v-137q23 -2 73.5 -2h60.5l2 232q0 32 2 41t7 10.5t8 1.5z" />
    <glyph glyph-name="I" unicode="I" 
d="M65 682q7 0 11 -3.5t3.5 -15t-0.5 -13.5v-133l-1 -359l-1 -124q0 -18 -1.5 -26.5t-10.5 -9.5q-7 0 -12 3.5t-5 26.5q0 2 0.5 13t1.5 119t0 205l1 125v162q0 12 2.5 21t11.5 9z" />
    <glyph glyph-name="J" unicode="J" horiz-adv-x="194" 
d="M90 682q35 0 42.5 -1.5t10.5 -6.5q3 -4 3 -44v-519q-2 -76 -20.5 -97t-47.5 -21q-24 0 -38 10q-21 13 -27.5 44t3.5 61q3 11 8 17.5t14 3.5q5 -1 9 -4.5t-2 -19.5q-6 -17 -5.5 -37t8.5 -31t18 -14q9 -3 20 0t16 9q6 7 11 24.5t5 83.5v131q-1 60 -0.5 188t-1.5 193h-62
q-14 0 -21 1.5t-8 11.5q-2 15 14 17h51z" />
    <glyph glyph-name="K" unicode="K" horiz-adv-x="257" 
d="M78 642v-111q-2 -115 -4 -138l47 85l98 191q6 13 15 13q10 0 13 -5.5t-6 -27.5q-2 -5 -8.5 -19t-42.5 -80.5t-49 -91.5q-21 -38 -60 -101l68 -134l65 -128q12 -27 35 -67q8 -15 7 -22t-16 -7q-5 0 -9.5 2.5t-7.5 10t-4 9.5l-89 177q-31 59 -55 114v-235v-45
q1 -18 -2 -25.5t-17 -7.5q-10 0 -10 25q1 29 1 165l2 194v111l-1 148q0 26 1 30.5t4 6.5t7 2.5t5 0.5q5 0 9 -4t4 -36z" />
    <glyph glyph-name="L" unicode="L" horiz-adv-x="206" 
d="M62 682q6 0 11 -7.5t5 -57.5v-182q-1 -44 -0.5 -123.5t0.5 -117.5q-2 -95 1 -165q30 -4 65 -2q2 0 20 1t28 -0.5t12 -8.5q1 -7 -1.5 -13t-29.5 -6l-76 -1q-2 0 -11 -0.5t-16.5 0t-11.5 2.5q-9 5 -9 43q-1 54 -0.5 153.5t0.5 142.5l1 250q0 11 -0.5 21t-2 35.5t1.5 30t7 5
t6 0.5z" />
    <glyph glyph-name="M" unicode="M" horiz-adv-x="367" 
d="M292 683q7 1 12.5 -2.5t8.5 -16t4 -78.5l1 -293q-2 -48 -1 -163.5t1 -117.5q-1 -6 -5.5 -10t-9.5 -4q-17 0 -15.5 34t1.5 42q-1 41 -0.5 124.5t0.5 114.5l1 302q-2 -10 -9 -39.5t-23.5 -90.5t-19.5 -73q-9 -40 -15.5 -64.5t-16.5 -57.5q-9 -23 -21 -24q-15 -1 -24 19
q-5 12 -23 78l-31 125l-32 126l2 -247v-158v-93.5t1 -86.5q2 -36 -20 -31q-4 1 -6.5 6t-3 19.5t-0.5 15.5l1 358v242q0 40 12 44q7 2 16 -2.5t17 -38.5q22 -72 41 -148l48 -186q9 28 21.5 82.5t17.5 73.5l49 185q4 17 8.5 25t12.5 9z" />
    <glyph glyph-name="N" unicode="N" horiz-adv-x="317" 
d="M255 682q3 0 8 -2.5t4 -19.5t-1 -21q2 -48 1 -122t-1 -88q3 -145 1 -353l1 -44q2 -34 -13 -36q-6 -1 -12 2.5t-13 26.5q-42 139 -61 210q-26 100 -45 181q-33 135 -50 196q0 -38 1.5 -87t1.5 -61v-272l1 -163q1 -19 -2.5 -26t-10.5 -6q-5 0 -10 5t-5 28l-1 286v160v148
q0 37 2 47t8 11q11 2 18 -2.5t13 -23.5q22 -72 32 -115q0 -2 1.5 -6.5t31.5 -127.5t47 -184l39 -150l-3 300v155q0 9 -0.5 54t0.5 69q0 13 3 22t14 9z" />
    <glyph glyph-name="O" unicode="O" horiz-adv-x="315" 
d="M161 688q61 6 88 -71q8 -25 14.5 -64.5t8.5 -74.5q7 -88 5 -164q0 -50 -8 -132q-5 -56 -19 -99t-37.5 -66.5t-57.5 -23.5q-36 0 -64.5 34t-40.5 97q-8 38 -12.5 104.5t-0.5 152.5q9 149 36 220q13 37 37 60.5t51 26.5zM166 658q-45 -5 -66 -67q-23 -62 -32 -181
q-4 -62 -3 -127.5t7.5 -112t14.5 -72.5q25 -77 69 -77q35 0 56 45t28 114q9 85 9 139q0 88 -6.5 171t-19.5 117q-8 20 -20 35.5t-37 15.5z" />
    <glyph glyph-name="P" unicode="P" horiz-adv-x="224" 
d="M86 683q49 -3 87 -42q22 -22 35 -60t12 -80q-2 -42 -13 -78.5t-31 -57.5q-34 -32 -98 -31q0 -36 -0.5 -123.5t0.5 -130.5q0 -5 0.5 -29t-0.5 -35t-5.5 -14.5t-9.5 -3.5t-10.5 6t-3.5 34l1 126l-1 266v188q0 5 -1 24t3 28.5t15 11.5q12 2 20 1zM82 652q-2 -4 -2 -44
l-1 -160l-1 -83q18 -2 35.5 0.5t27.5 9.5q16 10 29.5 36.5t18 71t-5.5 82.5q-11 35 -36 60q-11 12 -30 20.5t-35 6.5z" />
    <glyph glyph-name="Q" unicode="Q" horiz-adv-x="316" 
d="M298 -21q7 -1 9 -9t0 -17q-10 -30 -26 -48q-11 -13 -29 -21t-36 -8q-24 0 -42 11q-19 11 -30 33t-12 76q-49 12 -70 83q-26 89 -26 247q0 84 17 183q4 26 13 59t21 56.5t22 35.5q16 17 41 23.5t50 -2.5q19 -7 32.5 -28.5t18.5 -41.5q19 -54 27 -177q3 -42 1 -129
q-4 -150 -26 -215q-9 -29 -24.5 -51t-33.5 -32t-34 -12q0 -36 7 -56q6 -15 19.5 -24t28.5 -9q46 0 63 62q2 6 7 9.5t12 1.5zM71 186q8 -66 20 -103t32 -52q7 -5 18.5 -7.5t25.5 2t24 12.5q13 10 24.5 31.5t17.5 52t11 77.5q7 76 7 164t-11 170q-2 13 -7 36t-10 37
q-18 59 -64 52q-14 -3 -25.5 -14.5t-19.5 -27.5q-24 -47 -38 -139q-10 -67 -11.5 -146.5t6.5 -144.5z" />
    <glyph glyph-name="R" unicode="R" horiz-adv-x="256" 
d="M65 682l18 1q23 0 48 -10t43 -30q20 -22 33 -61t13 -80q0 -83 -43 -123q-14 -14 -37.5 -23t-50.5 -10q35 -76 47 -99l82 -165q13 -25 29 -52q16 -29 -6 -30q-5 0 -9 1.5t-14 17.5q-25 47 -56.5 111t-42.5 89q-18 34 -46 101q4 -56 6 -237q0 -49 2 -62q3 -22 -18 -22
q-8 0 -12 5.5t-2.5 20.5t1.5 17v128q1 44 -0.5 144.5t-1.5 125.5v177q0 4 -1 22t2.5 29.5t15.5 13.5zM80 653q-4 -4 -4 -50l1 -144l1 -84q17 -1 35 3t30 11q24 14 36.5 47.5t11 69t-8.5 60.5q-12 42 -39.5 66.5t-62.5 20.5z" />
    <glyph glyph-name="S" unicode="S" horiz-adv-x="253" 
d="M158 679q29 -9 44 -41t13 -73q0 -2 -0.5 -10.5t-2 -13.5t-4.5 -8q-4 -4 -13 -3.5t-12 5.5q-4 9 1 27q2 29 -6 54.5t-24 35.5q-12 7 -28 7q-10 0 -22 -5q-14 -9 -23 -28t-7 -45.5t10 -53.5q8 -28 32 -85.5t26 -62.5q2 -4 20.5 -47t32 -80t21.5 -67t10.5 -46.5t2.5 -22.5
q2 -37 -11 -67.5t-42 -46.5q-20 -10 -45 -10q-20 0 -41 9t-34 23q-13 15 -21.5 38.5t-8 51.5t5.5 51q2 11 5.5 18.5t12.5 7.5t13 -7.5t0 -20.5q-6 -20 -6.5 -49t7.5 -46q10 -24 31.5 -37t50.5 -8q16 3 30.5 16.5t20 42t-0.5 60.5q-12 69 -81 224l-37 93q-15 37 -24.5 69
t-8.5 70q0 20 10 41t23 32q22 17 51 17q17 0 29 -9z" />
    <glyph glyph-name="T" unicode="T" horiz-adv-x="221" 
d="M182 682q18 1 27.5 -1t10.5 -11q0 -10 -9.5 -14t-36.5 -3h-49q1 -50 0 -171.5t1 -177.5v-269q0 -18 -1.5 -27t-11.5 -10q-9 0 -13 7t-3 32l-1 120l-1 496q-8 1 -44 1q-33 0 -40.5 2t-8.5 8q0 18 15 18l55 -1z" />
    <glyph glyph-name="U" unicode="U" horiz-adv-x="303" 
d="M65 682q11 -1 12.5 -9.5t-0.5 -25.5q-1 -19 -1.5 -53t0 -97.5t0.5 -82.5v-14t1 -142.5t4 -166.5q6 -47 37 -63q9 -5 22.5 -7t24.5 0q58 7 63 136q1 30 0.5 228t-1.5 214q0 54 1 62.5t3.5 12.5t6.5 5q6 1 12 -3t4 -31l3 -423q0 -127 -17 -167t-43 -53q-18 -9 -44 -9
q-17 0 -34.5 5t-27.5 13q-38 28 -41 101q-2 51 -3 319v216q0 22 2.5 29t15.5 6z" />
    <glyph glyph-name="V" unicode="V" horiz-adv-x="251" 
d="M233 684q7 0 12 -5.5t1 -34.5q-2 -14 -7.5 -47t-20 -128t-21.5 -142q-1 -5 -11.5 -73t-21 -130t-17.5 -95q-6 -30 -12.5 -34t-12.5 -4q-4 1 -8.5 6t-11.5 37q-8 44 -18.5 122.5t-17.5 119.5l-53 327l-10 56q-1 3 0 11.5t7 10.5t13 0q2 -1 6 -5.5t8 -32.5l5 -35
q14 -71 41 -255q18 -117 31 -224q2 -6 4 -12.5t4 -14t4 -18t3 -13.5q8 57 45 291q30 186 36 243q4 47 9 63t14 16z" />
    <glyph glyph-name="W" unicode="W" horiz-adv-x="409" 
d="M372 683q1 -1 4 -5.5t0 -40.5l-33 -495l-9 -106q-3 -17 -6 -26.5t-9 -10.5q-9 -2 -16.5 2.5t-11.5 24.5q-16 81 -41 238l-23 145l-20 124l-19 -110q-1 -7 -14 -87t-31 -174q-22 -120 -29 -144q-2 -7 -6 -13t-9 -6q-8 -2 -15 4t-9.5 20t-4.5 35l-10 158l-10 159l-11 158
l-9 115q-2 14 -0.5 24t13.5 10q15 -1 15 -32l10 -120q3 -31 6.5 -88t4.5 -68l18 -315l31 173q6 38 40 235l19 104q1 3 2 11t4 13t10 5q5 0 9 -2t6.5 -6t3.5 -8t2 -9.5t1 -7.5q14 -62 23 -122l22 -137l41 -252l6 100l10 170q6 111 19 297q2 39 3.5 46t4.5 10q2 6 18 4z" />
    <glyph glyph-name="X" unicode="X" horiz-adv-x="292" 
d="M251 683q9 1 15 -4.5t-11 -44.5l-49 -132l-44 -115l43 -126l31 -92q9 -32 24 -73t23 -70q4 -13 3 -21.5t-13 -7.5q-3 0 -8 3t-12 25l-40 120q-51 154 -66 203l-69 -213q-32 -95 -33 -100q-6 -19 -9.5 -27.5t-9.5 -9.5q-10 -1 -16.5 6t9.5 47q12 31 31 94l49 145
q18 55 34 97l-28 70q-48 135 -67 180q-13 31 -13 36.5t3 7.5t8 2q9 1 15.5 -7t10.5 -20l46 -123q28 -75 39 -113l28 77q10 30 55 151q8 26 12 30t9 5z" />
    <glyph glyph-name="Y" unicode="Y" horiz-adv-x="268" 
d="M256 683q7 -1 9 -6.5t-4 -22.5q-8 -21 -28.5 -92t-25.5 -88q-37 -115 -58 -174v-83l-1 -187q0 -16 -2 -23.5t-11 -7.5q-2 0 -7 2.5t-6.5 11.5t-1.5 38v190v55l-51 169q-12 46 -57 186q-2 5 -4.5 16t6.5 14q8 3 15.5 0t12.5 -22.5t5 -20.5l39 -131q21 -74 49 -167l37 120
l62 205q6 19 22 18z" />
    <glyph glyph-name="Z" unicode="Z" horiz-adv-x="224" 
d="M172 683h13t18 -2t11 -7q2 -6 0.5 -14.5t-4.5 -18t-4 -11.5l-34 -128q-39 -154 -66 -243l-44 -155l-21 -76q64 -5 127 0q22 2 32.5 -1t8.5 -14q-1 -7 -4.5 -9t-28.5 -4l-62 -2l-43 2q-4 0 -20 -0.5t-24.5 2t-12.5 6.5q-3 3 -2 18t18 73l65 233q5 16 18 63t37 138.5
t31 119.5q-52 3 -111 -2q-12 -1 -22.5 2.5t-11.5 13.5t6 12.5t20 1.5t14 -1z" />
    <glyph glyph-name="bracketleft" unicode="[" horiz-adv-x="177" 
d="M87 741h41q15 0 21.5 -1.5t6.5 -11.5q1 -10 -5 -13.5t-30 -2.5l-40 -1l1 -173q1 -41 1.5 -226.5t-0.5 -236.5l-1 -178q6 -1 37 -1q25 0 30.5 -2t6.5 -10q0 -10 -8 -13.5t-41 -3.5t-41.5 1t-11.5 4q-1 2 -1.5 27.5t-0.5 84.5t1 123t1 76v159l-1 352q0 1 -0.5 20t3.5 23
q2 2 6 3t25 1z" />
    <glyph glyph-name="backslash" unicode="\" horiz-adv-x="261" 
d="M40 743q17 7 23 -12l91 -413q57 -258 77 -363q1 -5 4.5 -23.5t3.5 -25t-3 -8.5q-7 -4 -14.5 -2t-14.5 32l-67 310l-65 298l-37 169q-5 20 -5 25t2 8.5t5 4.5z" />
    <glyph glyph-name="bracketright" unicode="]" horiz-adv-x="189" 
d="M62 741q45 1 60.5 -1t15.5 -12v-189l-1 -159l-1 -300v-14t-1 -97.5t-2 -93.5q-1 -8 -41.5 -7t-47.5 1q-5 0 -14 1t-9 15q1 14 21 14h65l2 243v218q3 160 1 353q-11 1 -46 -1q-25 0 -31 2t-7 9q-1 6 3 12t33 6z" />
    <glyph glyph-name="asciicircum" unicode="^" horiz-adv-x="352" 
d="M183 680q3 0 10.5 -5t16.5 -26l64 -141l34 -75q8 -15 9.5 -24t-9.5 -14q-5 -2 -11.5 0.5t-21.5 33.5l-54 125q-19 41 -25 56l-14 33q-31 -66 -38 -78q-4 -6 -39 -80q-4 -7 -17 -34t-22.5 -41.5t-17.5 -13.5q-4 1 -10 5.5t3 24.5l22 41q25 52 46 93.5t33 66.5q26 54 41 53
z" />
    <glyph glyph-name="underscore" unicode="_" horiz-adv-x="319" 
d="M114 -37q80 0 144 -2q32 0 43 -4t11 -12q0 -2 -2.5 -6t-10 -5t-31.5 -1l-167 1h-70q-12 0 -18.5 2t-6.5 11q0 6 6.5 11t41.5 5h60z" />
    <glyph glyph-name="grave" unicode="`" horiz-adv-x="161" 
d="M22 677q14 17 29 -4l60 -92q9 -14 13 -24t-4 -16q-10 -7 -24 13l-12 16t-29 41t-26 38q-7 11 -9 17t2 11z" />
    <glyph glyph-name="a" unicode="a" horiz-adv-x="224" 
d="M109 475q44 2 65 -36q17 -35 13 -107q-5 -97 -5 -160l1 -158q1 -16 -13 -16q-5 0 -10 3.5t-6 27.5l2 123q-32 -94 -51 -126.5t-38 -32.5q-10 0 -19.5 8t-13.5 18q-18 41 -15 107t14 103q28 98 126 83q4 75 -6 102t-32 33q-16 4 -28.5 -6.5t-13.5 -29.5q0 -1 1 -9
t-0.5 -13.5t-5.5 -6.5t-7 -1q-9 -1 -13 12t-3 27q2 23 18.5 38t39.5 17zM158 283q-22 4 -42.5 0.5t-33.5 -18.5q-11 -13 -20.5 -44.5t-12.5 -77.5t1 -77q8 -43 21 -41q11 1 44.5 83t37.5 105q5 20 5 70z" />
    <glyph glyph-name="b" unicode="b" horiz-adv-x="243" 
d="M61 740q6 0 11 -3.5t6 -32.5q1 -35 -0.5 -150.5t-1.5 -133.5q0 -40 -4 -102q44 161 90 158q26 -3 37 -53q7 -33 11.5 -92.5t0.5 -122.5q-8 -122 -36.5 -166.5t-84.5 -44.5q-35 0 -43 10q-2 3 -3.5 23t-1.5 63t1 85.5t1 45.5q3 105 3 333l1 141q-3 25 0 33.5t13 8.5z
M153 439q-18 -7 -47 -89t-32 -115q-2 -28 -3 -94.5t0 -112.5q59 -9 78 28q15 27 25.5 80.5t9.5 133.5t-11 138q-7 35 -20 31z" />
    <glyph glyph-name="c" unicode="c" horiz-adv-x="193" 
d="M113 475q27 2 42 -16.5t18.5 -41t2.5 -37.5q-3 -26 -18 -26q-5 1 -9 4t-2 23q2 16 -1.5 32.5t-10.5 24.5t-14 9q-15 1 -27 -18.5t-21 -51t-12 -62.5q-9 -75 -5 -164q7 -129 54 -129q8 0 18.5 8.5t17.5 30t3 46.5q-2 19 12 20q8 2 13.5 -7.5t3.5 -30.5q-3 -48 -22 -73
q-7 -10 -20.5 -17t-25.5 -7q-27 0 -45.5 21.5t-27 57t-10.5 70.5q-3 42 -2 87.5t10 111.5q5 32 16 65t27.5 51t34.5 19z" />
    <glyph glyph-name="d" unicode="d" horiz-adv-x="260" 
d="M213 739q7 -1 9.5 -12.5t1.5 -51.5l-6 -213l-2 -109v-123q0 -12 -1 -87t0 -115q1 -15 -0.5 -22t-11.5 -7q-9 -1 -13.5 5t-3.5 32q-1 39 0.5 103.5t1.5 95.5q-5 -25 -11.5 -52.5t-26.5 -96.5q-22 -75 -47 -88q-20 -11 -35 3.5t-23 43.5t-13 71t-5 103q1 47 8.5 94
t23.5 84.5t42 57.5q16 12 40 15.5t48 -4.5q0 82 4 232q0 21 4 32t16 9zM188 433q-8 5 -22 7.5t-31.5 -3.5t-27.5 -17q-19 -22 -33.5 -71t-17.5 -120q-1 -29 1.5 -76.5t11.5 -87.5t22 -39q16 2 43 95q38 130 49 198q2 12 3.5 49.5t1.5 64.5z" />
    <glyph glyph-name="e" unicode="e" horiz-adv-x="217" 
d="M169 447q8 -15 16 -55t9 -101q0 -21 -1.5 -32.5t-8.5 -14.5q-7 -4 -39 -4q-70 0 -90 -2q-3 -62 4.5 -112t21.5 -76.5t34 -26.5q18 0 29.5 21.5t11.5 43.5q0 2 -0.5 10.5t1.5 13.5t9 5q24 1 18 -42q-5 -34 -23 -57.5t-46 -23.5q-33 0 -55.5 33t-29.5 101q-14 131 19 243
q14 47 33 75q8 12 21 20t25 8q11 0 22.5 -7.5t18.5 -19.5zM139 437q-4 6 -12 6q-7 0 -14.5 -6.5t-12.5 -15.5q-29 -50 -42 -153q14 1 50.5 1t55.5 2q1 45 -4.5 98t-20.5 68z" />
    <glyph glyph-name="f" unicode="f" horiz-adv-x="173" 
d="M133 744q19 2 36 -9.5t26 -37.5t7 -53q-1 -31 -9 -43t-19 -7q-2 1 -4.5 4.5t1 26t2.5 38.5q-1 24 -10.5 38.5t-22.5 14.5q-28 0 -40 -36q-6 -19 -9 -60t-1 -152h62q12 1 18 -0.5t7 -9.5q1 -7 -3 -12t-13 -6t-27 0h-43l1 -101l1 -294q0 -27 -1.5 -38t-14.5 -10
q-5 0 -10.5 8.5t-3.5 50.5q1 112 0 280l-1 103q-24 0 -35 2t-12 9q0 6 4.5 11t22.5 5.5t19 0.5q-2 119 0.5 157.5t10.5 64.5q7 21 22.5 36.5t38.5 18.5z" />
    <glyph glyph-name="g" unicode="g" horiz-adv-x="229" 
d="M123 6q21 -15 40.5 -41t28 -61t5.5 -69q-3 -28 -16 -53t-33 -35.5t-40 -10.5q-16 0 -36.5 10.5t-36 38.5t-15.5 64q0 24 8.5 53t26 54.5t33.5 38.5l-25 18q-13 10 -13.5 24t6 28.5t12.5 26.5l9 17q-33 24 -43 92t0 139q4 33 15.5 66t32.5 52t48 16q7 0 13 -3q9 3 18 12
t10 19q1 3 1.5 12.5t5 12t13.5 -0.5q6 -2 8 -10t0 -18q-1 -6 -7.5 -20.5t-25.5 -26.5q16 -22 27 -70.5t6 -122t-29 -119.5q-15 -24 -31.5 -32.5t-34.5 -6.5l-21 -41q-7 -15 -1 -24q1 -1 5 -4t19.5 -13.5t16.5 -11.5zM59 260q2 -98 32 -124q15 -13 29.5 -6t24 25.5t14.5 35.5
q14 47 13 105.5t-13 102.5q-14 50 -41 45q-32 -5 -46 -63t-13 -121zM159 -201q10 21 11.5 54t-15 69.5t-44.5 57.5q-13 -9 -29.5 -32.5t-24.5 -48.5t-8 -44q0 -18 5.5 -39.5t20.5 -36t34 -14.5q33 0 50 34z" />
    <glyph glyph-name="h" unicode="h" horiz-adv-x="254" 
d="M66 740q5 0 9 -3.5t4 -21.5l-1 -71l-3 -167q0 -118 -5 -162q24 88 47 124t47 36q20 0 33 -18t14 -75q2 -71 0 -126q-1 -41 2 -231q0 -5 -0.5 -15t-10.5 -12q-6 -1 -12 5t-6 38l-2 197v113q0 69 -6.5 80t-14.5 10q-10 -1 -26 -25.5t-33 -74.5q-25 -80 -28 -116v-78.5
t-1 -94.5q-1 -34 -3 -42.5t-7 -10t-8 -1.5q-4 0 -8 4t-4 30v191l4 337q0 17 1.5 72t0.5 78q0 15 2.5 23.5t14.5 6.5z" />
    <glyph glyph-name="i" unicode="i" horiz-adv-x="123" 
d="M45 587q4 5 11 7t14 -4q12 -14 2 -30q-6 -5 -13.5 -5t-13.5 4q-6 6 -6 14.5t6 13.5zM58 468q7 1 11.5 -3.5t6.5 -22.5l-1 -110l2 -317q0 -9 -2.5 -14t-13.5 -3q-5 1 -9.5 7.5t-4.5 40.5v279v109q-2 21 0.5 27t10.5 7z" />
    <glyph glyph-name="j" unicode="j" horiz-adv-x="116" 
d="M44 584q5 7 13 7t13 -5q5 -4 5 -12t-5 -16q-11 -11 -25 -3q-6 6 -6.5 15.5t5.5 13.5zM57 468q4 0 9.5 -2t6.5 -15v-67v-90v-179l-1 -246q0 -68 -18.5 -101.5t-58.5 -33.5q-20 0 -37 11.5t-24 30.5t-7 37q0 19 7 41.5t19 39.5q13 17 24 9q6 -6 6 -10q0 -3 -3.5 -9.5
t-4.5 -8.5q-19 -33 -19 -61q0 -22 11 -36.5t29 -14.5q20 0 33 20t14 77l1 103l1 162v139l-2 177q0 14 3 21t11 6z" />
    <glyph glyph-name="k" unicode="k" horiz-adv-x="216" 
d="M53 739q5 2 9.5 1.5t7.5 -4.5t3.5 -11.5t0 -17.5t-0.5 -13l1 -248l-1 -141l42 62q47 65 59 88q4 6 10.5 10t11.5 4t9 -2.5t4 -5.5q0 -4 -17 -32l-11 -16.5t-33 -47t-30 -41.5l-38 -54l33 -67q5 -10 16.5 -32.5t38.5 -72t41 -77.5q5 -9 4.5 -15t-11.5 -7q-6 -1 -11.5 2
t-15.5 24l-25 46l-43 82l-36 79q5 -105 3 -210q0 -11 -2.5 -17t-10.5 -6q-20 -1 -15 52q0 54 -0.5 156.5t0.5 147.5l-1 321q-2 40 -0.5 48t4 11t4.5 4z" />
    <glyph glyph-name="l" unicode="l" 
d="M75 684q-3 -160 -1 -612q0 -21 1.5 -33t9.5 -15q7 -2 18 5.5t17 -0.5q9 -11 -2.5 -23t-30.5 -12q-23 0 -32 16t-9.5 35.5t-0.5 38.5v255l2 371q0 14 2 22t12 8q8 0 11 -5.5t3.5 -13t0 -20.5t-0.5 -17z" />
    <glyph glyph-name="m" unicode="m" horiz-adv-x="359" 
d="M164 474q16 2 24.5 -11.5t8.5 -60.5q1 -13 -2 -71q17 49 42.5 94t43.5 48q11 2 19 -2.5t12 -16.5t5.5 -27.5t1.5 -31v-37.5v-30q0 -32 -2 -100t-2 -120v-88q0 -19 -15 -19q-20 1 -14 57q2 31 1.5 84t0.5 80q4 158 2.5 180t-3.5 29t-4 8q-11 3 -38.5 -51.5t-39.5 -90.5
q-9 -30 -9 -58l-2 -103q-2 -73 -1 -114q0 -13 -1.5 -18.5t-9.5 -5.5q-3 0 -8.5 2.5t-7.5 12.5t-2 39q-1 15 2.5 152t3.5 151q0 5 0.5 28.5t-1 38.5t-5.5 16q-9 3 -25.5 -23.5t-38.5 -85.5t-25 -83q-4 -40 -4 -219q0 -14 -2.5 -21t-11.5 -8q-6 0 -11 7t-3 46v173q2 57 2 216
q0 15 2 22t12 6q6 0 11 -6.5t4 -43.5l-3 -105q16 54 42.5 106t50.5 55z" />
    <glyph glyph-name="n" unicode="n" horiz-adv-x="259" 
d="M183 475q29 0 34 -43q2 -19 1.5 -189.5t-0.5 -195.5v-15t-1.5 -23t-16.5 -10q-6 1 -10 6t-1 45v301v50q0 16 -3 28t-13 11q-8 -1 -25 -20.5t-39 -63.5t-32 -82q-5 -21 -5 -246q0 -14 -3 -22t-15 -7q-4 0 -7 3t-4 8.5t-1.5 12t-0.5 12.5t0.5 15t0.5 11l1 159v224
q0 24 14 24q6 0 11 -3.5t5 -25.5q0 -43 -4 -117q19 63 52.5 108t61.5 45z" />
    <glyph glyph-name="o" unicode="o" horiz-adv-x="242" 
d="M124 474q17 0 33.5 -11t27 -34.5t15.5 -48.5q14 -66 14 -160q0 -165 -53 -212q-18 -15 -44 -15q-60 0 -80 95q-10 56 -10 118.5t6 107.5q8 73 31.5 116.5t59.5 43.5zM66 339q-7 -50 -9.5 -98t3.5 -112q5 -50 20.5 -79t37.5 -29t40 29q23 38 27 129.5t-8 171.5
q-9 53 -23 73.5t-32 20.5q-20 0 -35.5 -33.5t-20.5 -72.5z" />
    <glyph glyph-name="p" unicode="p" horiz-adv-x="256" 
d="M183 470q21 -10 33.5 -66t12.5 -153q-2 -96 -20 -167q-12 -44 -34.5 -67t-52.5 -23q-24 0 -50 13q0 -19 0.5 -99t1.5 -112q1 -35 -4 -46.5t-16 -9.5q-2 1 -5.5 6t-3.5 29l-2 214q0 16 0.5 101.5t-0.5 150.5l2 173q-3 35 1 45t15 8q17 -1 15 -56q-1 -24 -2.5 -53.5
t-2.5 -129.5q15 84 31 145q16 58 31.5 80t32.5 22q11 0 17 -5zM166 439q-12 0 -27 -41q-21 -64 -48 -180q-14 -45 -17 -95l-1 -85q36 -15 52 -14q38 3 55 69q9 32 14.5 79.5t2.5 128.5q0 29 -4 62.5t-10.5 54.5t-16.5 21z" />
    <glyph glyph-name="q" unicode="q" horiz-adv-x="251" 
d="M206 459q3 -4 4 -29t-0.5 -89t-1.5 -68v-109l-1 -142q0 -13 0.5 -69t0 -80.5t-0.5 -32.5v-81q0 -10 -3.5 -15t-18.5 -1q-9 3 -7 25l2 279q-1 60 1 170q-41 -154 -60 -188.5t-35 -34.5q-19 0 -34 31t-20.5 99.5t-0.5 128.5q4 56 16 103t23 67.5t21 28.5q9 9 30 14.5
t40 5.5q15 0 28 -3.5t17 -9.5zM182 437q-16 5 -38.5 3.5t-33.5 -12.5q-15 -15 -30.5 -65.5t-20.5 -122.5q-2 -32 -0.5 -80.5t9.5 -89.5t18 -42q11 -1 38.5 80t44.5 153q8 34 11.5 83t1.5 93z" />
    <glyph glyph-name="r" unicode="r" horiz-adv-x="196" 
d="M141 473q22 3 34 -10t16 -38.5t-2 -54.5q-5 -21 -7.5 -27t-6.5 -7.5t-6 -1.5q-8 1 -11 8.5t2 31.5q5 20 4 38.5t-8.5 24.5t-16.5 4q-3 -1 -7.5 -4.5t-9.5 -12t-10 -21t-9.5 -26t-5.5 -15.5q-11 -34 -17 -62t-7 -83v-171q-1 -25 -2.5 -32.5t-5.5 -11.5t-10 -4
q-16 1 -14 30q1 9 1.5 27.5t0.5 169.5l1 119v93q0 16 3 22.5t12 7.5q7 1 11 -5t4 -25q0 -5 -2.5 -37.5t-1.5 -53.5q16 65 31.5 94.5t39.5 32.5z" />
    <glyph glyph-name="s" unicode="s" horiz-adv-x="184" 
d="M86 473q38 4 56.5 -25t17.5 -67q-1 -19 -6 -25t-14 -5q-5 1 -8.5 5t0.5 25q2 26 -9.5 46.5t-33.5 17.5q-7 -1 -14.5 -9t-9.5 -15q-4 -10 -4.5 -26.5t6 -38.5t16 -42t23.5 -46t17 -31q23 -42 33 -72q18 -55 13 -93.5t-24.5 -58t-51.5 -19.5q-19 0 -38 12t-29 41.5t-4 63.5
q3 19 10.5 26.5t16.5 4.5q4 -1 6 -5.5t-1 -14t-3 -11.5q-6 -33 6 -61t38 -28q23 0 35.5 21.5t8.5 62.5q-2 17 -9 42t-42 92q-1 1 -2.5 4.5t-21.5 41t-28 72t-2 62.5q4 19 17.5 34.5t34.5 18.5z" />
    <glyph glyph-name="t" unicode="t" horiz-adv-x="179" 
d="M81 593q3 -1 5 -8t3 -23.5t1 -52v-41.5h66q13 0 19.5 -2t7.5 -10q1 -21 -45 -16l-48 -1l-1 -299q0 -8 -0.5 -31.5t0 -36t1.5 -20.5q2 -12 8 -21.5t15 -9.5q18 0 21.5 23.5t6 27t5.5 3.5q22 1 15 -38q-2 -11 -8 -21.5t-17 -16t-23 -5.5q-13 0 -25.5 6.5t-17.5 17.5
q-4 9 -7 25.5t-3 72.5q-1 63 0 177.5t1 145.5q-5 0 -22 0.5t-24.5 4t-7.5 11.5q0 5 3.5 9t22.5 3l28 1l1 94q-2 37 19 31z" />
    <glyph glyph-name="u" unicode="u" horiz-adv-x="262" 
d="M205 469q6 0 11 -2.5t5 -28.5l-1 -159l-1 -129v-113q1 -21 -1.5 -29.5t-12.5 -8.5q-3 0 -7.5 1.5t-6 8t-1.5 38.5l3 127q-24 -76 -32.5 -95t-17.5 -36t-24.5 -33t-31.5 -16q-13 0 -23 11t-16 38.5t-7 129.5v184v83q0 26 11 28q24 3 20 -46l-1 -139q0 -2 -0.5 -79.5
t2.5 -124.5q4 -36 8.5 -43t9.5 -7q10 -1 27.5 25.5t36.5 77.5q30 85 34 136l3 158q0 30 2.5 36t10.5 7z" />
    <glyph glyph-name="v" unicode="v" horiz-adv-x="233" 
d="M209 469q5 -1 8.5 -6.5t-2.5 -28.5q-13 -63 -36 -204l-41 -207q-1 -11 -6.5 -19t-12.5 -9t-13.5 4.5t-14.5 43.5l-57 306l-16 84q-3 17 -2.5 26t11.5 10q5 0 13 -13t22 -93q18 -96 20 -113q12 -62 34 -199q1 4 18 98l53 298q3 12 6.5 17.5t15.5 4.5z" />
    <glyph glyph-name="w" unicode="w" horiz-adv-x="356" 
d="M320 469q9 0 12 -12t-5 -55q-2 -18 -6 -47.5t-28 -192.5q-7 -60 -23 -137q-3 -15 -7 -22t-18 -4q-2 0 -5 1.5t-5 5t-3 7.5t-3 11.5t-2 9.5l-8 38l-19 119q-1 6 -7.5 52.5t-9.5 57.5l-13 -78q-9 -49 -21.5 -108.5t-17.5 -84.5q-6 -32 -19 -32q-5 -1 -11 1.5t-10 22.5
q-3 15 -10.5 52t-25 143.5t-19.5 121.5l-15 94q-3 15 -2 25t10 11q20 2 22 -19l7 -55l20 -132l9 -63l23 -134q14 56 32 157l23 131q2 17 6 29t14 13q12 0 17 -30l7 -44l40 -260q7 40 20 132l26 182l8 68q4 19 7 22t10 3z" />
    <glyph glyph-name="x" unicode="x" horiz-adv-x="216" 
d="M178 468q29 3 8 -40q-24 -78 -60 -180l27 -84q3 -10 23 -70t23 -73q2 -10 0.5 -15.5t-12.5 -6.5q-5 0 -9 3t-9 18l-60 188l-19 -61q-32 -97 -40 -117q-7 -18 -11.5 -24.5t-13.5 -6.5q-21 0 -3 38l31 90q34 98 41 121l-11 35q-38 111 -52 161q-3 8 -0.5 16.5t13.5 7.5
q5 0 8.5 -3t8.5 -20l14 -46l36 -113l42 129l9 31q2 9 5.5 15t10.5 7z" />
    <glyph glyph-name="y" unicode="y" horiz-adv-x="225" 
d="M191 469q8 1 14 -5.5t-1 -42.5l-36 -217l-36 -188l-40 -190l-16 -65q-4 -11 -7.5 -16t-11.5 -4t-11.5 5.5t0.5 18.5l9 35q29 118 41 194q-9 49 -35 210l-35 208q-9 42 -5 49.5t11 7.5q9 -1 14.5 -10t7.5 -35l18 -104l41 -272q5 26 16 96t18 106q27 160 29 181
q2 16 5 26.5t10 11.5z" />
    <glyph glyph-name="z" unicode="z" horiz-adv-x="176" 
d="M103 469q38 0 50.5 -1.5t14.5 -5.5q3 -5 1 -14.5t-5.5 -20t-3.5 -11.5l-73 -239l-45 -150q22 -1 96 2q26 2 27 -9q6 -23 -36 -21q-37 2 -80 0q-30 -2 -35 8q-2 3 -2.5 8.5t1.5 15t6 22.5t5 17l51 164l62 204q-34 3 -82 1q-13 -2 -19 0t-6 14q0 8 12 11.5t61 4.5z" />
    <glyph glyph-name="braceleft" unicode="{" horiz-adv-x="177" 
d="M143 725q0 -2 -2 -5t-12.5 -3.5t-14.5 -1.5q-22 -3 -33 -27t-8.5 -67.5t14 -113.5t12.5 -90q0 -19 -6.5 -45t-40.5 -58q20 -14 33.5 -34.5t15.5 -65.5q0 -11 -1.5 -36t-15.5 -91.5t-15 -74.5q-10 -63 -2.5 -88t24.5 -30q4 -2 10.5 -2.5t21.5 0.5t16 -8q3 -13 -12 -17.5
t-30 -2.5q-40 4 -54 39.5t-2 113.5q3 17 14.5 69.5t15 86t1.5 58.5q0 15 -8.5 32t-27.5 30q-20 10 -20 18q0 4 2 7.5t8 8.5t8 7q18 17 28 35.5t9 44.5q-2 29 -15 109t-12 122q2 56 30 81q8 7 21 11.5t25 4.5q11 0 17.5 -4.5t5.5 -12.5z" />
    <glyph glyph-name="bar" unicode="|" horiz-adv-x="132" 
d="M66 736q6 0 10.5 -2.5t6.5 -9t2 -34.5v-56l-1 -332q0 -47 -2 -163t-1 -178q0 -11 1 -41.5t-2 -45t-15 -14.5q-1 0 -2 0.5l-4 2t-5 7.5t-2 13v15v11l1 167q4 295 3 443v168v16.5t1.5 23t8.5 9.5z" />
    <glyph glyph-name="braceright" unicode="}" horiz-adv-x="192" 
d="M95 736q24 -8 39 -30.5t16 -57.5q2 -38 -13 -121.5t-15 -85.5q-9 -64 17 -94q7 -7 20.5 -17t14.5 -16q0 -7 -5 -13t-13 -12.5t-10 -8.5q-18 -19 -27 -45t-4 -75q2 -23 15 -78.5t15 -80.5q4 -30 0.5 -58t-14.5 -45t-24 -25q-15 -9 -40 -9q-13 0 -23 4.5t-9 13.5
q1 6 3.5 9.5t15 2t18.5 -1t10 1.5q45 12 33 111q-3 21 -16.5 85.5t-14 99t8.5 60.5q4 12 15.5 29t31.5 32q-53 37 -50 103q0 8 2 27t11.5 64.5t13.5 73.5q17 107 -25 127q-5 2 -15 5.5t-26 3.5t-16 7q0 19 30 19q15 0 30 -5z" />
    <glyph glyph-name="asciitilde" unicode="~" horiz-adv-x="326" 
d="M97 324q4 0 14.5 -1.5t22 -8.5t43.5 -34t52 -27q29 0 38 35q1 4 2 11.5t3.5 12t9.5 4.5q9 0 13.5 -7.5t2 -23t-7.5 -25.5q-7 -16 -23 -26.5t-36 -10.5q-22 0 -39.5 10t-47 35.5t-46.5 25.5q-13 0 -26 -8t-17 -32q-1 -3 -2 -10.5t-3 -10t-4.5 -3t-5.5 -0.5q-6 0 -10.5 4.5
t-1.5 27.5q3 27 22 44.5t47 17.5z" />
    <glyph glyph-name="uni00A0" unicode="&#xa0;" horiz-adv-x="119" 
 />
    <glyph glyph-name="exclamdown" unicode="&#xa1;" horiz-adv-x="154" 
d="M55 507q-2 9 2.5 20.5t17.5 14.5q14 3 23.5 -6t9.5 -20q0 -12 -9.5 -21t-20.5 -9q-7 0 -14 6t-9 15zM74 -177q-4 1 -6 4.5t-2 7.5v10.5v8.5l-1 291q0 25 -0.5 115.5t1.5 137.5q0 13 2.5 20t13.5 7q5 0 8.5 -4t3.5 -24v-251q-2 -71 0 -153.5t2 -135.5q0 -26 -5 -31.5
t-17 -2.5z" />
    <glyph glyph-name="cent" unicode="&#xa2;" horiz-adv-x="213" 
d="M119 686q6 1 12 -2t6 -24l-1 -78q43 -13 45 -75q1 -24 -5.5 -35.5t-15.5 -9.5q-11 2 -7 27q3 22 -6 43.5t-22 21.5q-31 0 -48.5 -69t-17.5 -176q0 -96 17 -144t48 -37q15 5 23.5 26t7.5 54q0 21 0.5 24t2.5 5t4 3t5 1q9 1 14.5 -11.5t3.5 -39.5q-4 -38 -19 -62.5
t-40 -28.5v-73q0 -16 -2 -25t-12 -10q-3 0 -8 1.5t-6.5 8t-1.5 22.5v77q-38 10 -54.5 78.5t-10.5 177.5q10 202 76 224l1 82q0 12 1.5 17.5t9.5 6.5z" />
    <glyph glyph-name="sterling" unicode="&#xa3;" horiz-adv-x="274" 
d="M254 43q8 -1 11.5 -6.5t-1.5 -15t-12 -13.5q-21 -17 -45 -17q-15 0 -44.5 9.5t-45.5 10.5q-15 1 -39 -8t-29 -8.5t-7 2.5q-4 4 -3.5 10t4 13.5t4.5 9.5q19 55 28 135.5t7 170.5q-30 -1 -39.5 1t-10.5 8q-1 10 8.5 15t40.5 4q-2 31 -8.5 76t-10 72t-3 52t5.5 46.5t17 39.5
q13 19 33 28t37 8q19 -1 39 -13.5t30.5 -42.5t7.5 -66q-2 -22 -11 -42.5t-19 -19.5q-22 2 -8 30q12 32 5 71.5t-30 49.5q-15 7 -31.5 1.5t-23.5 -16.5q-7 -9 -14 -27t-6.5 -52.5t9.5 -100t11 -94.5l73 1q14 0 19 -1t6 -9q0 -6 -2.5 -10t-9 -6t-36.5 -2h-49q2 -89 -7 -169.5
t-29 -138.5q16 7 25 10t21 3q15 0 40 -8.5t36 -10t20 1t15 6.5q2 1 8.5 7t12.5 5z" />
    <glyph glyph-name="currency" unicode="&#xa4;" horiz-adv-x="415" 
d="M345 475q9 -2 12 -7.5t-8 -20.5q-38 -57 -55 -80q17 -13 28.5 -38t14.5 -45q3 -22 0 -50.5t-18 -55.5t-37 -42q1 -2 15.5 -28t23.5 -38q7 -11 9.5 -17.5t-1.5 -12.5q-5 -7 -11.5 -7.5t-15.5 13.5q-12 17 -28.5 45t-18.5 31q-14 -6 -42 -9t-59 4l-46 -71
q-7 -11 -11.5 -16.5t-10.5 -4.5q-25 4 -2 37l41 66q-32 22 -49.5 58.5t-13.5 84.5q3 24 15.5 49t27.5 42q-10 14 -25.5 44t-20.5 39q-6 9 -4 16t11 9t18.5 -14.5t10.5 -17.5l35 -58q35 17 72 17t64 -13l51 66q12 16 17 21t11 4zM206 367q-46 -2 -68 -18t-34 -38
q-9 -18 -13 -44t6 -55t31 -48q11 -10 33 -17.5t51.5 -5.5t47.5 13q24 15 37.5 48.5t9.5 70.5q-5 42 -32 68.5t-69 25.5z" />
    <glyph glyph-name="yen" unicode="&#xa5;" horiz-adv-x="306" 
d="M272 682q5 5 14.5 1.5t8.5 -10.5q-3 -11 -15.5 -46.5t-16.5 -47.5q-25 -77 -52 -147l-45 -116l1 -24h65q39 2 40 -12q0 -6 -2.5 -10.5t-22.5 -4.5h-190q-14 0 -20 2t-7 8q-2 9 5.5 13t33.5 4h67v24l-48 135l-18 51l-54 152q-9 25 6 28q6 2 12.5 -2t15.5 -34q1 -4 5 -15.5
t45 -128t52 -150.5l32 88l64 182q15 51 24 60zM80 204h111q40 0 60.5 -1.5t20.5 -11.5q0 -5 -4 -9.5t-26 -4.5q-7 0 -34.5 -1t-42.5 0q-1 -24 -1 -130q0 -27 -1.5 -35.5t-6 -10.5t-6.5 -2q-5 0 -10.5 6.5t-5.5 39.5q1 32 1 72v60l-59 1q-22 0 -34.5 2t-12.5 11q0 2 1.5 6.5
t10 6t39.5 1.5z" />
    <glyph glyph-name="brokenbar" unicode="&#xa6;" horiz-adv-x="136" 
d="M70 739q6 0 11.5 -2t5.5 -25v-105l-3 -170q0 -20 -2.5 -29t-15.5 -8q-5 0 -8.5 6t-1.5 41l1 229q0 4 -0.5 22t2 29.5t11.5 11.5zM66 227q5 0 10.5 -3.5t5.5 -34.5q0 -29 0.5 -104t0.5 -116.5t-1 -70.5q-1 -22 -3 -27.5t-7 -6.5t-8 -1q-5 0 -8.5 4t-3.5 34l1 108v200
q0 10 2.5 13.5t10.5 4.5z" />
    <glyph glyph-name="section" unicode="&#xa7;" horiz-adv-x="307" 
d="M178 427l54 -134q0 -1 17.5 -43.5t25 -80.5t-7 -69t-50.5 -50q29 -77 25 -122q-2 -23 -12 -43.5t-32 -36t-54 -15.5q-30 0 -53 15q-19 11 -34.5 38.5t-15 67.5t21.5 65q5 5 13.5 5.5t14.5 -7.5q5 -7 -2 -15.5t-10 -16.5t-4 -12q-7 -31 3.5 -58.5t29.5 -39.5
q19 -11 37 -11q23 0 42 16t23 44q3 25 -2 52t-39 108q-66 152 -108 267q-26 76 -13 120q5 16 14.5 28.5t21.5 19t22 8.5q-18 49 -26 88.5t0 72.5q7 25 28.5 41t45.5 16q27 0 46 -20q10 -11 18 -29t8.5 -42.5t-5.5 -45.5q-2 -9 -6.5 -13t-13.5 -1q-5 1 -7.5 5t2.5 25
q10 50 -14 79q-10 14 -28 14q-16 0 -29.5 -12t-17.5 -31q-9 -38 29 -140q13 -36 42 -107zM242 111q5 13 6 31t-5 38.5t-19 54.5l-37 90l-70 173q-12 0 -23.5 -8t-16.5 -25.5t-4 -35.5q0 -20 21 -80.5t52 -129.5q24 -60 59 -142q10 6 21 16t16 18z" />
    <glyph glyph-name="dieresis" unicode="&#xa8;" horiz-adv-x="242" 
d="M167 602q11 0 19 -8.5t8 -19.5q0 -10 -6.5 -17.5t-17.5 -7.5q-12 0 -19 7.5t-7 19.5q0 11 7.5 18.5t15.5 7.5zM99 573q0 -11 -8.5 -18t-19.5 -7t-17.5 8t-6.5 19t8.5 18.5t19.5 7.5t17.5 -8.5t6.5 -19.5z" />
    <glyph glyph-name="copyright" unicode="&#xa9;" horiz-adv-x="533" 
d="M200 623q34 17 76 17q45 0 82 -21q46 -29 73.5 -82.5t34.5 -114.5q8 -61 2.5 -131t-24.5 -122q-55 -144 -175 -144q-22 0 -48.5 6.5t-52 23.5t-48 47t-38 76t-19.5 100q-10 133 34 230q36 82 103 115zM266 609q-42 -3 -75.5 -27.5t-57 -68.5t-34.5 -100
q-12 -64 -4.5 -138t32 -121.5t54.5 -70.5q17 -13 40 -20t44 -7q51 0 92.5 35.5t62.5 105.5q13 42 17 107.5t-1 106.5q-13 100 -57.5 150t-112.5 48zM266 536q17 3 32.5 -2.5t23.5 -25t7 -42.5q0 -16 -5 -21.5t-9 -5.5q-6 0 -10 3.5t-3.5 14t0.5 11.5q1 22 -9 32t-26 6
q-22 -6 -37 -50t-19 -93q-4 -69 5.5 -124t30.5 -68q10 -6 22.5 -5t22.5 13q9 13 12.5 36t7.5 25t7 2q12 -1 13.5 -19t-4.5 -37q-7 -19 -19 -32.5t-33 -17.5t-40.5 6.5t-32.5 38.5q-11 22 -16.5 61t-5.5 74q-1 25 2.5 61t9.5 59q10 38 29 66.5t44 33.5z" />
    <glyph glyph-name="ordfeminine" unicode="&#xaa;" horiz-adv-x="213" 
d="M110 687q7 0 14.5 -1.5t15.5 -6.5t13 -15.5t7 -23t2 -25.5t-1 -23.5t-2 -23.5t-1 -17q-10 -99 1 -171q3 -18 0.5 -23t-10.5 -5q-3 0 -7.5 3t-7.5 20q-1 4 -4 69q-17 -49 -23 -58q-17 -32 -32 -34q-10 -2 -18.5 7t-13.5 34q-6 36 0 77.5t19 63.5q25 44 69 33q4 40 4 55
t-4 23.5t-9 11.5q-8 5 -18 1.5t-12 -11.5q-2 -6 -1.5 -17t-1.5 -13t-3 -2q-10 -3 -16.5 1.5t-6.5 25.5q1 21 14 33t33 12zM97 536q-16 -11 -25 -55t-4 -79q3 -22 12 -20q7 2 20 32t17 45q5 16 9 40.5t4 35.5q-1 6 -12.5 7t-20.5 -6zM79 308h63q20 0 26.5 -2.5t6.5 -13.5
q0 -4 -5.5 -7.5t-44.5 -3.5l-67 -1q-29 -2 -30 12q-1 8 8.5 12t42.5 4z" />
    <glyph glyph-name="guillemotleft" unicode="&#xab;" horiz-adv-x="297" 
d="M142 421q5 2 12 -3t7 -10q0 -3 -5 -13t-18 -30.5t-15 -24.5l-55 -92l18 -33l64 -111q11 -20 9 -26t-7 -8q-8 -4 -18.5 8.5t-39 61.5t-33.5 58q-1 2 -12.5 24t-11.5 26q0 2 6 12.5t34.5 58.5t40.5 69q15 30 24 33zM230 418q3 1 7.5 -1t7.5 -8t-1 -13l-32 -55l-55 -93
l17 -33q3 -5 5 -9t38 -63t23 -68q-6 -5 -12 -2.5t-10 9.5q-14 25 -53 91.5t-39 74.5q0 3 28 49.5t31 52.5q17 31 27.5 48t17.5 20z" />
    <glyph glyph-name="logicalnot" unicode="&#xac;" horiz-adv-x="334" 
d="M151 307h82q1 0 19.5 0.5t30.5 -1t16 -5.5q1 -1 2 -4.5t1 -39.5v-61q0 -15 -2 -24t-11 -9q-6 0 -11 2.5t-5 21.5q1 29 -1 92q-87 -3 -209 -3q-33 0 -37.5 2t-5.5 5q-10 22 27 22z" />
    <glyph glyph-name="registered" unicode="&#xae;" horiz-adv-x="393" 
d="M183 743q28 3 57 -6.5t49 -33.5t33.5 -64t15 -81.5t-3.5 -73.5q-14 -79 -65 -108q-29 -19 -71 -19q-29 0 -49 10q-27 12 -49.5 37t-34 68.5t-9.5 90.5q1 34 10 67.5t24 56.5q18 25 39.5 38.5t53.5 17.5zM184 716q-27 -2 -50 -19.5t-36 -54.5t-15 -74q-2 -43 7.5 -83
t29.5 -65q15 -19 36.5 -27.5t41.5 -8.5t40 6.5t32 17.5q43 38 43 135q0 32 -8.5 65.5t-20.5 55.5q-31 58 -100 52zM177 684q27 1 46.5 -14.5t23.5 -43.5q3 -24 -5.5 -45.5t-29.5 -28.5q8 -9 13.5 -23t12 -43t13.5 -39q1 -1 5.5 -1.5t6.5 -2.5q6 -5 0 -13t-17 -7
q-9 1 -16.5 11.5t-9.5 22.5q-2 6 -7 29.5t-11 37.5t-13 21h-12v-104q2 -19 -10 -19q-6 0 -10.5 5.5t-4.5 36.5l1 146q-4 54 1 66q5 8 23 8zM176 660l1 -92q12 -1 24 3.5t18 17.5t4 31q-5 40 -47 40z" />
    <glyph glyph-name="macron" unicode="&#xaf;" horiz-adv-x="233" 
d="M85 575l88 -1q6 0 16 -1t10 -15q0 -4 -3 -7t-10.5 -4t-18.5 -1h-14h-91q-12 0 -19 2.5t-7 11.5q0 6 6 10.5t43 4.5z" />
    <glyph glyph-name="degree" unicode="&#xb0;" horiz-adv-x="191" 
d="M93 741q16 2 32 -5.5t25 -29t9 -51.5q1 -19 -4.5 -41t-19.5 -37q-7 -8 -18 -13t-21 -5q-12 0 -25 7.5t-21 19.5q-9 13 -14 34.5t-1.5 46.5t11.5 40q7 14 20 23.5t27 10.5zM81 710q-9 -8 -15.5 -28t-3 -48t15.5 -40q6 -7 16 -8t18 5q8 7 14 24.5t6 37.5t-4.5 35t-11.5 21
q-6 6 -16.5 6.5t-18.5 -5.5z" />
    <glyph glyph-name="plusminus" unicode="&#xb1;" horiz-adv-x="348" 
d="M158 265h-83q-21 0 -32 1.5t-14 7.5q-3 8 1 15.5t10 6.5l118 -1l1 92q0 29 2 35.5t10 7.5q6 1 10 -1t6 -6.5t2 -27.5l-1 -58v-42h122q7 0 11 -5.5t2 -17.5q-1 -3 -6 -5t-39 -2h-90l-1 -120q0 -12 -2 -17.5t-8 -6.5t-10.5 1t-6.5 8.5t-2 36.5v98zM153 25l143 -2q6 0 17 -1
t12 -14q0 -5 -6 -8.5t-24 -3.5h-23h-177q-44 0 -51.5 1t-11.5 4t-4 7q0 5 7.5 10.5t46.5 5.5z" />
    <glyph glyph-name="uni00B2" unicode="&#xb2;" horiz-adv-x="204" 
d="M160 660q-4 -24 -16 -61q-16 -46 -40 -100.5t-45 -93.5q8 3 18.5 3t29.5 -6t25 -4q8 2 17.5 10.5t19.5 2.5q6 -3 6.5 -10.5t-8 -17.5t-19.5 -13q-16 -5 -46.5 4t-45.5 5l-9 -4.5t-11.5 -4.5t-7.5 1q-15 8 2 36q34 63 80 179q20 55 22 84q1 19 -5.5 32.5t-21.5 12.5
q-12 -1 -20.5 -10.5t-9.5 -25.5v-15t-3 -16t-8 -5q-8 -1 -14 6t-4 25q1 19 9.5 36t22.5 26q12 9 31 9q26 0 41 -24t10 -61z" />
    <glyph glyph-name="uni00B3" unicode="&#xb3;" horiz-adv-x="220" 
d="M82 733q57 2 72.5 1t19.5 -5t6 -10.5t-9 -28.5l-59 -107q40 -17 57.5 -49t15.5 -70q-2 -45 -24 -74q-12 -15 -30 -23t-35 -8q-28 0 -46 13q-17 11 -19.5 22t10.5 17q5 2 15.5 -6t16.5 -11q10 -5 21 -5q21 0 39 15q15 13 20.5 39.5t1 48.5t-12.5 33q-15 20 -36.5 30.5
t-24 13t-2.5 3.5q0 3 6.5 17t32 61t30.5 57q-17 1 -56 -1q-23 -2 -35.5 -0.5t-14.5 11.5q-1 6 2.5 11t19 5h18.5z" />
    <glyph glyph-name="acute" unicode="&#xb4;" horiz-adv-x="160" 
d="M127 679q4 -3 6 -8t-10 -22l-66 -96q-8 -9 -13.5 -12t-11.5 1q-3 2 -4 8t15 31l41 64l19 27q11 18 24 7z" />
    <glyph glyph-name="uni00B5" unicode="&#xb5;" horiz-adv-x="270" 
d="M207 469q9 0 12 -7t3 -38v-82v-280q0 -34 6 -36t16.5 11.5t17.5 12.5q19 -3 6 -26q-17 -28 -44 -27q-7 1 -13.5 4.5t-9.5 12.5t-6 42l2 124q-16 -77 -38 -131.5t-45 -55.5q-28 -4 -44 52q0 -15 2.5 -116.5t2.5 -161.5q0 -14 -2.5 -20.5t-13.5 -6.5q-5 0 -9.5 4t-4.5 32
v163l-2 175l-1 175v156q1 16 5.5 21.5t18.5 0.5q2 -1 4 -13.5t1 -106.5q0 -122 2.5 -180t9.5 -90q2 -8 7 -23t11 -22t11 -7q22 0 57 131q18 77 23 127v151q0 16 2.5 25.5t12.5 9.5z" />
    <glyph glyph-name="paragraph" unicode="&#xb6;" horiz-adv-x="318" 
d="M168 681q3 -5 4.5 -26.5t-0.5 -154.5q0 -4 -0.5 -21t0 -68t0.5 -57q1 -62 -1 -77.5t-8 -15.5q-30 0 -67 40q-39 41 -48.5 127t10.5 151q7 21 22 46.5t40 42.5t48 13zM209 683h40q16 1 26.5 -1t11.5 -10q2 -11 -2 -14.5t-23 -3.5l-30 -1q-1 -25 -1 -78v-72q-3 -32 1 -124
q2 -119 0 -202v-178q0 -34 -1.5 -45t-4.5 -14q-1 -1 -6 -3t-23.5 -1t-23.5 1q-19 0 -26.5 1.5t-9.5 9.5q-1 7 2 12t19.5 6t18.5 1q20 -1 24 1q2 5 2 47q-1 51 -1 143.5v130.5q-2 157 0 310v43.5t7 40.5z" />
    <glyph glyph-name="periodcentered" unicode="&#xb7;" horiz-adv-x="106" 
d="M53 319q14 0 21 -9t7 -20q0 -13 -9.5 -23t-25.5 -7q-14 4 -18.5 16t-2.5 22q2 8 11.5 14.5t16.5 6.5z" />
    <glyph glyph-name="cedilla" unicode="&#xb8;" horiz-adv-x="171" 
d="M98 9l27 -4q-21 -44 -23 -55q35 -54 40 -70.5t5 -28.5q0 -27 -15.5 -42.5t-36.5 -15.5q-22 0 -35 13l-9 9t-11 20q-5 15 -2.5 27.5t15.5 11.5q8 -1 9 -10t1 -10q6 -29 25 -33q17 -3 26 10t4 33q-3 18 -43 76q-2 4 -1.5 11t11.5 30t13 28z" />
    <glyph glyph-name="uni00B9" unicode="&#xb9;" horiz-adv-x="191" 
d="M116 742q7 -2 10.5 -10t2.5 -31l-1 -147l-5 -161q32 -1 35.5 -2t7 -2.5t6 -4.5t1.5 -8q0 -4 -6.5 -7t-41.5 -2q-66 0 -74.5 1.5t-8.5 4.5q-1 6 0.5 10.5t7.5 6.5t23 3t21 1l8 305l-48 -61q-8 -11 -13 -15.5t-10 -2.5q-20 9 -8 24l49 60q26 31 31.5 34.5t8.5 3.5h4z" />
    <glyph glyph-name="ordmasculine" unicode="&#xba;" horiz-adv-x="203" 
d="M105 687q15 0 28 -9t19 -27.5t9 -42.5q4 -31 4 -77.5t-4 -81.5q-4 -43 -12 -64t-21 -29q-10 -7 -28.5 -7.5t-29.5 11.5q-4 4 -9 11.5t-9 20t-6 26.5t-3 24t-1.5 19t-0.5 10q-1 26 0.5 64.5t6.5 67.5q7 45 23 64.5t34 19.5zM104 658q-15 0 -24 -37q-5 -16 -8.5 -52.5
t-2.5 -82.5q2 -109 33 -109q8 0 16.5 11.5t14.5 64.5q4 41 3.5 92.5t-6.5 82.5q-7 30 -26 30zM78 307h63q18 0 25.5 -2t7.5 -13q0 -8 -7 -10.5t-38 -2.5l-72 1h-16t-14 12q0 5 2.5 8.5t9 5t39.5 1.5z" />
    <glyph glyph-name="guillemotright" unicode="&#xbb;" horiz-adv-x="297" 
d="M143 418q4 3 12.5 -1t30.5 -41l48 -80q26 -47 26 -52q0 -2 -6.5 -14t-22.5 -39t-19 -33q-38 -66 -52 -84q-7 -8 -16 -3.5t-7 13.5q1 4 15.5 29.5t18.5 32.5l58 98q-1 4 -16.5 31t-34.5 59t-22 38q-13 22 -16.5 31.5t3.5 14.5zM57 414q5 5 11 3t10 -8l26 -44l48 -84
q19 -29 19 -37q0 -2 -8 -18t-18 -31q-7 -11 -26.5 -45t-32.5 -55.5t-17 -21.5q-5 -4 -12 3.5t-4 16.5l33 57l55 93q0 3 -56 97q-22 36 -28.5 51t0.5 23z" />
    <glyph glyph-name="onequarter" unicode="&#xbc;" horiz-adv-x="391" 
d="M362 687q12 -1 14 -10.5t-10 -32.5q-11 -27 -76.5 -168t-66.5 -143l-31 -69l-57 -130q-20 -47 -52 -115q-1 -2 -6 -12.5t-10 -16t-11 -4.5q-11 1 -12 8t3 13q15 34 69 157.5t81 180.5q26 53 72.5 154t52.5 114q3 7 11.5 28.5t15 33.5t13.5 12zM111 684h2.5t6 -1t6.5 -6
t2.5 -16.5t0.5 -13.5l-1 -105v-129h14t14.5 -2t4.5 -12q0 -5 -6 -9t-29.5 -4h-29.5h-20t-13 13q0 6 3 10t16.5 4h17.5q-1 58 1 135t2 85q-11 -15 -26.5 -37t-20.5 -28t-13.5 -7.5t-12.5 7.5q-2 6 -0.5 9.5t7.5 11.5q9 9 26 32t24 35q12 21 16 24.5t8 3.5zM291 296q5 6 17 3
t13 -11q3 -16 1.5 -88.5t-1.5 -86.5q27 -1 32.5 -3t4.5 -8q-2 -9 -7.5 -12.5t-29.5 -5.5q-3 -39 -2 -69q0 -9 -1 -14t-7 -7q-8 -2 -15 1t-6 36l1 53h-53q-18 0 -27 1.5t-12 11.5q-2 3 0.5 10t7 16l5.5 11l40 86q3 5 14 28.5t17 34t8 13.5zM297 261q-7 -20 -31.5 -74.5
t-34.5 -74.5q33 -2 62 0z" />
    <glyph glyph-name="onehalf" unicode="&#xbd;" horiz-adv-x="397" 
d="M366 687q11 -1 13 -10t-9 -33q-11 -27 -76.5 -168t-66.5 -143l-31 -69l-58 -130q-20 -50 -52 -115q-1 -3 -6 -13t-9.5 -15.5t-10.5 -4.5q-10 1 -11.5 8t1.5 13q15 34 69 157.5t81 180.5q26 53 72.5 154t52.5 114q3 6 17 40.5t24 33.5zM111 684q3 0 8 -1t7 -7t3 -29
l-1 -105q-2 -62 0 -128h18.5t22 -3.5t6.5 -11.5q0 -7 -9 -9.5t-20.5 -3t-28.5 -0.5h-21q-23 0 -37 2t-14 11q0 6 6.5 10t25.5 4h23q-1 50 0.5 127t1.5 94q-24 -43 -46 -66q-5 -6 -13.5 -7.5t-13.5 7.5q-1 2 -1 6.5t9 14.5q34 39 49 67q8 14 13 20.5t12 7.5zM325 294
q21 -10 25 -36.5t-3 -52.5t-15 -42q-17 -38 -45 -82t-29 -46q17 5 40 -1.5t31 -6.5q9 0 15.5 8t10.5 8q19 -3 14 -19t-17 -22t-23 -6q-12 0 -36 8.5t-36 5.5q-1 0 -12.5 -5.5t-16.5 -3.5q-6 3 -8.5 10t10.5 27l68 117q14 27 21 55t2.5 44.5t-22.5 15.5q-10 -1 -17 -10
t-9 -23q0 -3 0.5 -14t-2.5 -15.5t-8 -5.5q-11 -3 -15.5 6t-3.5 21q1 18 8.5 36.5t23.5 27.5q8 5 23.5 5.5t25.5 -4.5z" />
    <glyph glyph-name="threequarters" unicode="&#xbe;" horiz-adv-x="395" 
d="M359 687q11 -1 13 -10t-9 -33q-11 -27 -76.5 -168t-66.5 -143l-31 -69l-58 -130q-20 -50 -52 -115q-1 -3 -6 -13t-9.5 -15.5t-10.5 -4.5q-11 1 -12 8t3 13q17 37 69.5 159.5t79.5 178.5q26 53 72.5 154t52.5 114q3 6 17 40.5t24 33.5zM78 676q68 2 75 -7q7 -11 -5 -34
q-8 -17 -22 -41.5t-17 -30.5q31 -12 44 -42t9 -61.5t-13.5 -46.5t-16.5 -21q-16 -14 -43 -18t-48 11q-11 8 -12 19t10 17q5 2 12.5 -5t9.5 -8q9 -6 23 -5.5t25 7.5q10 6 18 23.5t5.5 43.5t-16.5 44q-7 10 -21.5 16t-16 9.5t-1.5 5.5q1 9 15 37q4 8 16 28t17 30q-11 2 -44 2
q-15 0 -22.5 1.5t-8.5 8.5q0 6 2.5 11.5t25.5 5.5zM294 296q5 6 17 3t13 -11q2 -9 2.5 -32.5t-1 -75.5t-1.5 -66q31 -1 34.5 -4.5t2.5 -7.5q0 -2 -2 -7t-8.5 -7t-25.5 -4q-3 -39 -3 -69q0 -10 -1 -14.5t-7 -6.5q-8 -2 -14.5 1.5t-6.5 35.5l1 53h-53q-18 0 -27 2t-12 11
q-1 2 0.5 7.5t7 16.5l6.5 13l39 86q35 70 39 76zM301 259q-6 -15 -27.5 -63t-39.5 -83q13 -1 33 -1t30 1q4 74 4 146z" />
    <glyph glyph-name="questiondown" unicode="&#xbf;" horiz-adv-x="221" 
d="M152 499q-2 -9 -9.5 -15t-15.5 -6q-10 0 -19 8.5t-9 21.5q0 12 9.5 20.5t23.5 5.5q13 -3 17.5 -14t2.5 -21zM68 -184q-18 10 -29 36q-23 53 -3 135q7 35 36 102.5t29 68.5q2 5 6 19.5t6.5 50t-0.5 158.5q-2 23 13 23q5 0 10.5 -3t6.5 -21l2 -115q0 -57 -6.5 -88.5
t-18.5 -57.5q-2 -3 -12 -26t-19 -44t-16 -41q-5 -16 -11 -47.5t-4 -61.5t9 -42.5t13 -17.5q12 -10 30 -10t31 14q12 13 15 38t-10 51q-2 4 -8.5 12t-5.5 12q2 8 10.5 11t14.5 -1q14 -13 23.5 -41t1.5 -63t-32 -51q-18 -11 -42 -11t-40 11z" />
    <glyph glyph-name="Agrave" unicode="&#xc0;" horiz-adv-x="277" 
d="M79 774q-16 12 -16 20q0 6 5.5 11.5t10.5 5.5q6 0 32 -25q9 -10 53 -47q17 -18 8 -27q-7 -6 -37 17zM265 27q1 -13 0 -19.5t-9 -7.5q-10 -1 -15 5.5t-8 29.5l-41 226q-35 -5 -108 -3q-20 -113 -21 -122l-18 -106q-3 -17 -6 -24t-15 -7q-7 0 -11.5 5t2.5 35q5 23 41 226
l26 172q15 92 37 209q4 25 9 33t13 8q9 0 13 -5.5t8 -28.5q15 -82 33 -210l28 -190q10 -61 27 -152zM89 290v-2q46 -6 99 3q-9 62 -25.5 184t-20.5 151q-13 -64 -22 -128z" />
    <glyph glyph-name="Aacute" unicode="&#xc1;" horiz-adv-x="277" 
d="M111 712q-4 3 -5 9t12 18q43 38 53 48q2 2 14 13.5t19 10.5q12 -2 14 -15q1 -7 -15 -21l-57 -46q-19 -15 -25.5 -17.5t-9.5 0.5zM265 27q1 -13 0 -19.5t-9 -7.5q-10 -1 -15 5.5t-8 29.5l-41 226q-35 -5 -108 -3q-20 -113 -21 -122l-18 -106q-3 -17 -6 -24t-15 -7
q-7 0 -11.5 5t2.5 35q5 23 41 226l26 172q15 92 37 209q4 25 9 33t13 8q9 0 13 -5.5t8 -28.5q15 -82 33 -210l28 -190q10 -61 27 -152zM89 290v-2q46 -6 99 3q-9 62 -25.5 184t-20.5 151q-13 -64 -22 -128z" />
    <glyph glyph-name="Acircumflex" unicode="&#xc2;" horiz-adv-x="277" 
d="M75 700q-14 -13 -23 -4q-4 4 -4 10.5t18 22.5q26 24 45 39q23 17 28 17q2 0 7 -2t15.5 -10t11.5 -9l51 -45q8 -7 9 -12t-6 -11q-10 -8 -33 13q-38 33 -43.5 37.5t-10.5 7.5q-8 -4 -19 -13t-14 -11zM265 27q1 -13 0 -19.5t-9 -7.5q-10 -1 -15 5.5t-8 29.5l-41 226
q-35 -5 -108 -3q-20 -113 -21 -122l-18 -106q-3 -17 -6 -24t-15 -7q-7 0 -11.5 5t2.5 35q5 23 41 226l26 172q15 92 37 209q4 25 9 33t13 8q9 0 13 -5.5t8 -28.5q15 -82 33 -210l28 -190q10 -61 27 -152zM89 290v-2q46 -6 99 3q-9 62 -25.5 184t-20.5 151q-13 -64 -22 -128z
" />
    <glyph glyph-name="Atilde" unicode="&#xc3;" horiz-adv-x="277" 
d="M77 712q-5 0 -9.5 3.5t-3.5 9.5q3 39 14.5 57.5t28.5 18.5q10 0 19.5 -9t25.5 -32t23 -22q6 1 11.5 14.5t6.5 43.5q1 3 5 6t8 3q5 0 8.5 -3.5t3.5 -10.5q0 -42 -12.5 -61.5t-30.5 -19.5q-9 0 -19.5 9t-26 32t-21.5 23q-14 0 -18 -50q-1 -5 -5 -8.5t-8 -3.5zM265 27
q1 -13 0 -19.5t-9 -7.5q-10 -1 -15 5.5t-8 29.5l-41 226q-35 -5 -108 -3q-20 -113 -21 -122l-18 -106q-3 -17 -6 -24t-15 -7q-7 0 -11.5 5t2.5 35q5 23 41 226l26 172q15 92 37 209q4 25 9 33t13 8q9 0 13 -5.5t8 -28.5q15 -82 33 -210l28 -190q10 -61 27 -152zM89 290v-2
q46 -6 99 3q-9 62 -25.5 184t-20.5 151q-13 -64 -22 -128z" />
    <glyph glyph-name="Adieresis" unicode="&#xc4;" horiz-adv-x="277" 
d="M91 710q-11 0 -17.5 8.5t-6.5 18.5q0 11 8.5 19t18.5 8q11 0 17.5 -8.5t6.5 -19.5q0 -12 -8.5 -19t-18.5 -7zM189 711q-11 0 -18.5 8t-7.5 19t7.5 18.5t15.5 7.5q12 0 19.5 -8.5t7.5 -19.5q0 -9 -6.5 -17t-17.5 -8zM265 27q1 -13 0 -19.5t-9 -7.5q-10 -1 -15 5.5t-8 29.5
l-41 226q-35 -5 -108 -3q-20 -113 -21 -122l-18 -106q-3 -17 -6 -24t-15 -7q-7 0 -11.5 5t2.5 35q5 23 41 226l26 172q15 92 37 209q4 25 9 33t13 8q9 0 13 -5.5t8 -28.5q15 -82 33 -210l28 -190q10 -61 27 -152zM89 290v-2q46 -6 99 3q-9 62 -25.5 184t-20.5 151
q-13 -64 -22 -128z" />
    <glyph glyph-name="Aring" unicode="&#xc5;" horiz-adv-x="277" 
d="M139 704q-22 0 -35 16.5t-13 41.5q0 21 15 37t36 16q25 0 37.5 -16.5t12.5 -37.5q0 -57 -53 -57zM130 791q-12 -10 -13 -27t6 -28q6 -12 19 -12q10 0 16 9q8 11 7 29t-8 27q-4 6 -15 6q-6 0 -12 -4zM265 27q1 -13 0 -19.5t-9 -7.5q-10 -1 -15 5.5t-8 29.5l-41 226
q-35 -5 -108 -3q-20 -113 -21 -122l-18 -106q-3 -17 -6 -24t-15 -7q-7 0 -11.5 5t2.5 35q5 23 41 226l26 172q15 92 37 209q4 25 9 33t13 8q9 0 13 -5.5t8 -28.5q15 -82 33 -210l28 -190q10 -61 27 -152zM89 290v-2q46 -6 99 3q-9 62 -25.5 184t-20.5 151q-13 -64 -22 -128z
" />
    <glyph glyph-name="AE" unicode="&#xc6;" horiz-adv-x="379" 
d="M348 652q-14 0 -53 1.5t-59 0.5q-3 -64 -5 -207h87q16 0 22 -2t6 -13q0 -5 -4 -10t-25 -5l-86 -1l-4 -205l-4 -181q33 -1 110 1q17 0 26.5 -3t10.5 -13q0 -5 -4 -10t-37 -5h-89q-32 0 -37.5 1.5t-7.5 3.5q-1 1 -2.5 5t-1.5 36q1 74 6 214h-99l-34 -106l-40 -126
q-5 -15 -10 -22t-15 -7q-8 0 -11.5 5t0.5 20l47 141l66 204l42 131l42 131q13 48 38 51q14 1 42.5 0.5t31.5 -0.5t26.5 0.5t36 -1t14.5 -5.5q6 -12 -1.5 -18t-24.5 -6zM107 289l91 1v4q5 222 9 319q-2 -5 -5 -16.5t-41 -136t-50 -160.5z" />
    <glyph glyph-name="Ccedilla" unicode="&#xc7;" horiz-adv-x="225" 
d="M194 126q8 2 14.5 -3t1.5 -38q-13 -78 -59 -91q-17 -36 -19 -47q35 -54 40 -70.5t5 -28.5q0 -27 -15.5 -42.5t-36.5 -15.5q-22 0 -35 13l-9 9t-11 20q-5 15 -2.5 27.5t15.5 11.5q8 -1 9 -10t1 -10q6 -29 25 -33q17 -3 26 10t4 33q-3 18 -43 76q-1 1 -2 5.5t2 12.5t17 38
q-24 6 -39 24q-15 19 -26.5 60t-16.5 101.5t-5 116.5q0 63 5 131t15.5 119t22.5 81q10 25 26 43.5t45 18.5q22 0 39 -18t22 -62q3 -29 0 -37t-12 -8q-6 0 -10 6.5t-5 23.5t-2 20q-6 48 -34 47q-13 0 -28 -18t-25 -59q-20 -77 -27 -197t2 -211q5 -54 16 -89t22 -48
q5 -8 15.5 -13t19.5 -2q27 8 39 67q1 3 2 12.5t3.5 16t7.5 7.5z" />
    <glyph glyph-name="Egrave" unicode="&#xc8;" horiz-adv-x="227" 
d="M72 811q6 0 32 -25q9 -10 53 -47q17 -18 8 -27q-7 -6 -37 17l-56 45q-16 12 -16 20q0 6 5.5 11.5t10.5 5.5zM181 682q24 2 33.5 -0.5t8.5 -14.5q-1 -5 -4.5 -9t-22.5 -4q-99 0 -122 -3l1 -188q37 3 94 1q14 -2 18.5 -4t4.5 -10q1 -9 -12 -12.5t-52 -2.5q-20 1 -51 -1
q2 -52 1 -157t-1 -106q0 -16 -1.5 -64.5t-0.5 -79.5q96 0 112 1t26.5 -1t11.5 -12q0 -5 -2 -10t-21 -5l-88 -1q-58 -4 -64 5q-4 7 -2 149v12.5t1 95.5t-1 149l-3 216q0 3 -0.5 14.5t0 20t3.5 11.5q3 4 14 6t47 4h72z" />
    <glyph glyph-name="Eacute" unicode="&#xc9;" horiz-adv-x="227" 
d="M197 811q12 -2 14 -15q1 -7 -15 -21l-57 -46q-19 -15 -25.5 -17.5t-9.5 0.5q-4 3 -5 9t12 18q43 38 53 48q2 2 14 13.5t19 10.5zM181 682q24 2 33.5 -0.5t8.5 -14.5q-1 -5 -4.5 -9t-22.5 -4q-99 0 -122 -3l1 -188q37 3 94 1q14 -2 18.5 -4t4.5 -10q1 -9 -12 -12.5
t-52 -2.5q-20 1 -51 -1q2 -52 1 -157t-1 -106q0 -16 -1.5 -64.5t-0.5 -79.5q96 0 112 1t26.5 -1t11.5 -12q0 -5 -2 -10t-21 -5l-88 -1q-58 -4 -64 5q-4 7 -2 149v12.5t1 95.5t-1 149l-3 216q0 3 -0.5 14.5t0 20t3.5 11.5q3 4 14 6t47 4h72z" />
    <glyph glyph-name="Ecircumflex" unicode="&#xca;" horiz-adv-x="227" 
d="M132 803q10 0 34 -21l52 -44q3 -3 7.5 -9.5t-5.5 -14.5q-4 -4 -11 -1.5t-22 15.5q-45 39 -54 44q-13 -8 -32 -24l-32 -29q-8 -7 -13.5 -8.5t-10.5 3.5q-2 3 -3.5 6t0 7t5 7.5l7.5 7.5l5 5q20 19 46 39q21 17 27 17zM181 682q24 2 33.5 -0.5t8.5 -14.5q-1 -5 -4.5 -9
t-22.5 -4q-99 0 -122 -3l1 -188q37 3 94 1q14 -2 18.5 -4t4.5 -10q1 -9 -12 -12.5t-52 -2.5q-20 1 -51 -1q2 -52 1 -157t-1 -106q0 -16 -1.5 -64.5t-0.5 -79.5q96 0 112 1t26.5 -1t11.5 -12q0 -5 -2 -10t-21 -5l-88 -1q-58 -4 -64 5q-4 7 -2 149v12.5t1 95.5t-1 149l-3 216
q0 3 -0.5 14.5t0 20t3.5 11.5q3 4 14 6t47 4h72z" />
    <glyph glyph-name="Edieresis" unicode="&#xcb;" horiz-adv-x="227" 
d="M111 751q0 -11 -8.5 -18t-18.5 -7q-11 0 -17.5 8t-6.5 19t8.5 18.5t18.5 7.5q11 0 17.5 -8.5t6.5 -19.5zM179 779q12 0 19.5 -8.5t7.5 -19.5q0 -9 -6.5 -17t-17.5 -8t-18.5 8t-7.5 19t7.5 18.5t15.5 7.5zM181 682q24 2 33.5 -0.5t8.5 -14.5q-1 -5 -4.5 -9t-22.5 -4
q-99 0 -122 -3l1 -188q37 3 94 1q14 -2 18.5 -4t4.5 -10q1 -9 -12 -12.5t-52 -2.5q-20 1 -51 -1q2 -52 1 -157t-1 -106q0 -16 -1.5 -64.5t-0.5 -79.5q96 0 112 1t26.5 -1t11.5 -12q0 -5 -2 -10t-21 -5l-88 -1q-58 -4 -64 5q-4 7 -2 149v12.5t1 95.5t-1 149l-3 216
q0 3 -0.5 14.5t0 20t3.5 11.5q3 4 14 6t47 4h72z" />
    <glyph glyph-name="Igrave" unicode="&#xcc;" 
d="M5 809q6 0 32 -25q9 -10 53 -47q17 -18 8 -27q-7 -6 -37 17l-56 45q-16 12 -16 20q0 6 5 11.5t11 5.5zM65 682q7 0 11 -3.5t3.5 -15t-0.5 -13.5v-133l-1 -359l-1 -124q0 -18 -1.5 -26.5t-10.5 -9.5q-7 0 -12 3.5t-5 26.5q0 2 0.5 13t1.5 119t0 205l1 125v162q0 12 2.5 21
t11.5 9z" />
    <glyph glyph-name="Iacute" unicode="&#xcd;" 
d="M129 809q12 -2 14 -15q1 -7 -15 -21l-57 -46q-19 -15 -25.5 -17.5t-9.5 0.5q-4 3 -5 9t12 18q43 38 53 48q2 2 14 13.5t19 10.5zM65 682q7 0 11 -3.5t3.5 -15t-0.5 -13.5v-133l-1 -359l-1 -124q0 -18 -1.5 -26.5t-10.5 -9.5q-7 0 -12 3.5t-5 26.5q0 2 0.5 13t1.5 119
t0 205l1 125v162q0 12 2.5 21t11.5 9z" />
    <glyph glyph-name="Icircumflex" unicode="&#xce;" 
d="M65 783q2 0 7 -2t15.5 -10t11.5 -9l51 -45q8 -7 9 -12t-6 -11q-10 -8 -33 13q-38 33 -43.5 37.5t-10.5 7.5q-8 -4 -19 -13t-14 -11l-32 -30q-14 -13 -23 -4q-4 4 -4 10.5t18 22.5q26 24 45 39q23 17 28 17zM65 682q7 0 11 -3.5t3.5 -15t-0.5 -13.5v-133l-1 -359l-1 -124
q0 -18 -1.5 -26.5t-10.5 -9.5q-7 0 -12 3.5t-5 26.5q0 2 0.5 13t1.5 119t0 205l1 125v162q0 12 2.5 21t11.5 9z" />
    <glyph glyph-name="Idieresis" unicode="&#xcf;" 
d="M43 734q0 -11 -8 -18t-19 -7t-17.5 8t-6.5 19t9 18.5t19 7.5q11 0 17 -8.5t6 -19.5zM111 762q12 0 20 -8.5t8 -19.5q0 -9 -6.5 -17t-17.5 -8q-12 0 -19 7.5t-7 19.5q0 11 7 18.5t15 7.5zM65 682q7 0 11 -3.5t3.5 -15t-0.5 -13.5v-133l-1 -359l-1 -124q0 -18 -1.5 -26.5
t-10.5 -9.5q-7 0 -12 3.5t-5 26.5q0 2 0.5 13t1.5 119t0 205l1 125v162q0 12 2.5 21t11.5 9z" />
    <glyph glyph-name="Eth" unicode="&#xd0;" horiz-adv-x="304" 
d="M269 341q1 -151 -17.5 -218.5t-56.5 -98.5q-33 -27 -90 -27l-36 2q-5 0 -7.5 8.5t-0.5 38.5v147l1 154q-4 0 -18.5 -0.5t-23.5 0t-10 7.5q-1 6 1.5 12t25.5 7l25 1l-1 290q1 10 3.5 15t11.5 6q26 2 55 -9.5t45 -25.5q44 -36 68.5 -121t24.5 -188zM240 270
q4 106 -9.5 192.5t-43.5 132.5q-16 26 -42 42.5t-56 16.5l1 -280q13 1 67 1q22 -1 26 -4t4 -12q0 -6 -6 -8.5t-13 -3t-17 -0.5h-13h-48l-1 -321q59 -6 88 19q11 10 21.5 25.5t18.5 37.5t12 44t6 39.5t2.5 31t1.5 28.5t1 19z" />
    <glyph glyph-name="Ntilde" unicode="&#xd1;" horiz-adv-x="317" 
d="M127 787q10 0 19.5 -9t25.5 -32t23 -22q6 1 11.5 14.5t6.5 43.5q1 3 5 6t8 3q5 0 8.5 -3.5t3.5 -10.5q0 -42 -12.5 -61.5t-30.5 -19.5q-9 0 -19.5 9t-26 32t-21.5 23q-14 0 -18 -50q-1 -5 -5 -8.5t-8 -3.5q-5 0 -9.5 3.5t-3.5 9.5q3 39 14.5 57.5t28.5 18.5zM255 682
q3 0 8 -2.5t4 -19.5t-1 -21q2 -48 1 -122t-1 -88q3 -145 1 -353l1 -44q2 -34 -13 -36q-6 -1 -12 2.5t-13 26.5q-42 139 -61 210q-26 100 -45 181q-33 135 -50 196q0 -38 1.5 -87t1.5 -61v-272l1 -163q1 -19 -2.5 -26t-10.5 -6q-5 0 -10 5t-5 28l-1 286v160v148q0 37 2 47
t8 11q11 2 18 -2.5t13 -23.5q22 -72 32 -115q0 -2 1.5 -6.5t31.5 -127.5t47 -184l39 -150l-3 300v155q0 9 -0.5 54t0.5 69q0 13 3 22t14 9z" />
    <glyph glyph-name="Ograve" unicode="&#xd2;" horiz-adv-x="315" 
d="M107 811q6 0 32 -25q9 -10 53 -47q17 -18 8 -27q-7 -6 -37 17l-56 45q-16 12 -16 20q0 6 5.5 11.5t10.5 5.5zM161 688q61 6 88 -71q8 -25 14.5 -64.5t8.5 -74.5q7 -88 5 -164q0 -50 -8 -132q-5 -56 -19 -99t-37.5 -66.5t-57.5 -23.5q-36 0 -64.5 34t-40.5 97
q-8 38 -12.5 104.5t-0.5 152.5q9 149 36 220q13 37 37 60.5t51 26.5zM166 658q-45 -5 -66 -67q-23 -62 -32 -181q-4 -62 -3 -127.5t7.5 -112t14.5 -72.5q25 -77 69 -77q35 0 56 45t28 114q9 85 9 139q0 88 -6.5 171t-19.5 117q-8 20 -20 35.5t-37 15.5z" />
    <glyph glyph-name="Oacute" unicode="&#xd3;" horiz-adv-x="315" 
d="M231 811q12 -2 14 -15q1 -7 -15 -21l-57 -46q-19 -15 -25.5 -17.5t-9.5 0.5q-4 3 -5 9t12 18q43 38 53 48q2 2 14 13.5t19 10.5zM161 688q61 6 88 -71q8 -25 14.5 -64.5t8.5 -74.5q7 -88 5 -164q0 -50 -8 -132q-5 -56 -19 -99t-37.5 -66.5t-57.5 -23.5q-36 0 -64.5 34
t-40.5 97q-8 38 -12.5 104.5t-0.5 152.5q9 149 36 220q13 37 37 60.5t51 26.5zM166 658q-45 -5 -66 -67q-23 -62 -32 -181q-4 -62 -3 -127.5t7.5 -112t14.5 -72.5q25 -77 69 -77q35 0 56 45t28 114q9 85 9 139q0 88 -6.5 171t-19.5 117q-8 20 -20 35.5t-37 15.5z" />
    <glyph glyph-name="Ocircumflex" unicode="&#xd4;" horiz-adv-x="315" 
d="M165 786q10 0 34 -21q37 -30 52 -44q15 -13 3 -23q-3 -3 -9 -3t-25 16q-37 34 -54 44q-13 -8 -32 -24l-32 -29q-8 -7 -13 -8t-10 4q-4 4 -4.5 10t17.5 22q20 19 46 39q19 17 27 17zM161 688q61 6 88 -71q8 -25 14.5 -64.5t8.5 -74.5q7 -88 5 -164q0 -50 -8 -132
q-5 -56 -19 -99t-37.5 -66.5t-57.5 -23.5q-36 0 -64.5 34t-40.5 97q-8 38 -12.5 104.5t-0.5 152.5q9 149 36 220q13 37 37 60.5t51 26.5zM166 658q-45 -5 -66 -67q-23 -62 -32 -181q-4 -62 -3 -127.5t7.5 -112t14.5 -72.5q25 -77 69 -77q35 0 56 45t28 114q9 85 9 139
q0 88 -6.5 171t-19.5 117q-8 20 -20 35.5t-37 15.5z" />
    <glyph glyph-name="Otilde" unicode="&#xd5;" horiz-adv-x="315" 
d="M135 801q10 0 19.5 -9t25.5 -32t23 -22q6 1 11.5 14.5t6.5 43.5q1 3 5 6t8 3q5 0 8.5 -3.5t3.5 -10.5q0 -42 -12.5 -61.5t-30.5 -19.5q-9 0 -19.5 9t-26 32t-21.5 23q-14 0 -18 -50q-1 -5 -5 -8.5t-8 -3.5q-5 0 -9.5 3.5t-3.5 9.5q3 39 14.5 57.5t28.5 18.5zM161 688
q61 6 88 -71q8 -25 14.5 -64.5t8.5 -74.5q7 -88 5 -164q0 -50 -8 -132q-5 -56 -19 -99t-37.5 -66.5t-57.5 -23.5q-36 0 -64.5 34t-40.5 97q-8 38 -12.5 104.5t-0.5 152.5q9 149 36 220q13 37 37 60.5t51 26.5zM166 658q-45 -5 -66 -67q-23 -62 -32 -181q-4 -62 -3 -127.5
t7.5 -112t14.5 -72.5q25 -77 69 -77q35 0 56 45t28 114q9 85 9 139q0 88 -6.5 171t-19.5 117q-8 20 -20 35.5t-37 15.5z" />
    <glyph glyph-name="Odieresis" unicode="&#xd6;" horiz-adv-x="315" 
d="M212 773q12 0 19.5 -8.5t7.5 -19.5q0 -10 -6.5 -17.5t-17.5 -7.5t-18.5 7.5t-7.5 19.5q0 11 7.5 18.5t15.5 7.5zM144 744q0 -11 -8.5 -18t-18.5 -7q-11 0 -17.5 8t-6.5 19t8.5 18.5t18.5 7.5q11 0 17.5 -8.5t6.5 -19.5zM161 688q61 6 88 -71q8 -25 14.5 -64.5t8.5 -74.5
q7 -88 5 -164q0 -50 -8 -132q-5 -56 -19 -99t-37.5 -66.5t-57.5 -23.5q-36 0 -64.5 34t-40.5 97q-8 38 -12.5 104.5t-0.5 152.5q9 149 36 220q13 37 37 60.5t51 26.5zM166 658q-45 -5 -66 -67q-23 -62 -32 -181q-4 -62 -3 -127.5t7.5 -112t14.5 -72.5q25 -77 69 -77
q35 0 56 45t28 114q9 85 9 139q0 88 -6.5 171t-19.5 117q-8 20 -20 35.5t-37 15.5z" />
    <glyph glyph-name="multiply" unicode="&#xd7;" horiz-adv-x="339" 
d="M276 369q8 -6 6 -12.5t-19 -23.5l-71 -70l87 -88q5 -4 3.5 -11t-11.5 -13q-3 -1 -8.5 1t-27.5 26q-5 5 -10 9.5t-54 53.5l-85 -82q-9 -9 -13.5 -11.5t-10.5 1.5t-7 12t26 32l68 70l-59 59q-21 21 -25 27.5t-1 11.5q5 10 12 11.5t12 -4.5q7 -8 83 -84l65 65q13 14 22 20.5
t18 -0.5z" />
    <glyph glyph-name="Oslash" unicode="&#xd8;" horiz-adv-x="320" 
d="M276 478q7 -88 5 -164q-1 -63 -8 -132q-9 -94 -38.5 -142t-75.5 -47q-24 0 -46 15q-6 -29 -11.5 -44.5t-14.5 -14.5q-5 1 -8 4t-3 9t2.5 16t2.5 13l10 40q-13 17 -23 42.5t-14 50.5q-8 38 -12.5 104.5t-0.5 152.5q9 148 35 220q14 37 37.5 60.5t50.5 26.5q25 3 45 -9
q5 28 9 43.5t11 16.5t13 -3t1 -35l-10 -45q4 -6 10.5 -18.5t9.5 -20.5q8 -25 14.5 -64.5t8.5 -74.5zM72 410q-7 -86 -2.5 -172.5t21.5 -139.5l8 -23l48 263q16 103 26 150l30 158q-13 12 -34 12q-44 -5 -65 -67q-23 -62 -32 -181zM244 180q9 85 9 139q0 86 -6.5 170
t-20.5 118l-2 5q-19 -98 -26 -142l-50 -280l-22 -112l-7 -37q17 -20 41 -20q18 0 35.5 15.5t30 54.5t18.5 89z" />
    <glyph glyph-name="Ugrave" unicode="&#xd9;" horiz-adv-x="303" 
d="M90 806q6 0 32 -25q9 -10 53 -47q17 -18 8 -27q-7 -6 -37 17l-56 45q-16 12 -16 20q0 6 5.5 11.5t10.5 5.5zM65 682q11 -1 12.5 -9.5t-0.5 -25.5q-1 -19 -1.5 -53t0 -97.5t0.5 -82.5v-14t1 -142.5t4 -166.5q6 -47 37 -63q9 -5 22.5 -7t24.5 0q58 7 63 136q1 30 0.5 228
t-1.5 214q0 54 1 62.5t3.5 12.5t6.5 5q6 1 12 -3t4 -31l3 -423q0 -127 -17 -167t-43 -53q-18 -9 -44 -9q-17 0 -34.5 5t-27.5 13q-38 28 -41 101q-2 51 -3 319v216q0 22 2.5 29t15.5 6z" />
    <glyph glyph-name="Uacute" unicode="&#xda;" horiz-adv-x="303" 
d="M214 806q12 -2 14 -15q1 -7 -15 -21l-57 -46q-19 -15 -25.5 -17.5t-9.5 0.5q-4 3 -5 9t12 18q43 38 53 48q2 2 14 13.5t19 10.5zM65 682q11 -1 12.5 -9.5t-0.5 -25.5q-1 -19 -1.5 -53t0 -97.5t0.5 -82.5v-14t1 -142.5t4 -166.5q6 -47 37 -63q9 -5 22.5 -7t24.5 0
q58 7 63 136q1 30 0.5 228t-1.5 214q0 54 1 62.5t3.5 12.5t6.5 5q6 1 12 -3t4 -31l3 -423q0 -127 -17 -167t-43 -53q-18 -9 -44 -9q-17 0 -34.5 5t-27.5 13q-38 28 -41 101q-2 51 -3 319v216q0 22 2.5 29t15.5 6z" />
    <glyph glyph-name="Ucircumflex" unicode="&#xdb;" horiz-adv-x="303" 
d="M149 799q10 0 34 -21l52 -44q3 -3 7.5 -9.5t-4.5 -14.5q-3 -3 -9 -2.5t-24 15.5q-38 33 -43.5 37.5t-10.5 7.5q-14 -8 -33 -24l-32 -29q-3 -3 -9.5 -7.5t-13.5 2.5q-4 4 -4 10t17 23q20 19 46 39q1 1 11.5 9t15.5 8zM65 682q11 -1 12.5 -9.5t-0.5 -25.5q-1 -19 -1.5 -53
t0 -97.5t0.5 -82.5v-14t1 -142.5t4 -166.5q6 -47 37 -63q9 -5 22.5 -7t24.5 0q58 7 63 136q1 30 0.5 228t-1.5 214q0 54 1 62.5t3.5 12.5t6.5 5q6 1 12 -3t4 -31l3 -423q0 -127 -17 -167t-43 -53q-18 -9 -44 -9q-17 0 -34.5 5t-27.5 13q-38 28 -41 101q-2 51 -3 319v216
q0 22 2.5 29t15.5 6z" />
    <glyph glyph-name="Udieresis" unicode="&#xdc;" horiz-adv-x="303" 
d="M128 737q0 -12 -8 -19t-19 -7t-17.5 8t-6.5 19t9 19t19 8q11 0 17 -8.5t6 -19.5zM196 765q12 0 19.5 -8.5t7.5 -19.5q0 -9 -6.5 -17t-17.5 -8t-18 8t-7 19t7 18.5t15 7.5zM65 682q11 -1 12.5 -9.5t-0.5 -25.5q-1 -19 -1.5 -53t0 -97.5t0.5 -82.5v-14t1 -142.5t4 -166.5
q6 -47 37 -63q9 -5 22.5 -7t24.5 0q58 7 63 136q1 30 0.5 228t-1.5 214q0 54 1 62.5t3.5 12.5t6.5 5q6 1 12 -3t4 -31l3 -423q0 -127 -17 -167t-43 -53q-18 -9 -44 -9q-17 0 -34.5 5t-27.5 13q-38 28 -41 101q-2 51 -3 319v216q0 22 2.5 29t15.5 6z" />
    <glyph glyph-name="Yacute" unicode="&#xdd;" horiz-adv-x="268" 
d="M198 791q6 -1 10 -5.5t5 -10.5q1 -8 -16 -20l-56 -46q-14 -11 -22.5 -16.5t-13.5 -1.5q-11 10 7 28q41 35 53 47q20 20 25.5 22.5t7.5 2.5zM256 683q7 -1 9 -6.5t-4 -22.5q-8 -21 -28.5 -92t-25.5 -88q-37 -115 -58 -174v-83l-1 -187q0 -16 -2 -23.5t-11 -7.5
q-2 0 -7 2.5t-6.5 11.5t-1.5 38v190v55l-51 169q-12 46 -57 186q-2 5 -4.5 16t6.5 14q8 3 15.5 0t12.5 -22.5t5 -20.5l39 -131q21 -74 49 -167l37 120l62 205q6 19 22 18z" />
    <glyph glyph-name="Thorn" unicode="&#xde;" horiz-adv-x="223" 
d="M187 465q14 -30 19.5 -70.5t1.5 -80.5q-5 -43 -21.5 -72.5t-43.5 -45t-66 -16.5l-2 -137l1 -28q0 -17 -21 -16q-5 1 -8 7t-2 21.5t1 17.5l3 290q1 31 -1 90t-2 80v136q0 5 -0.5 18.5t2 19t12.5 5.5q6 0 11 -4.5t5 -29.5v-106q45 -2 76 -33q21 -21 35 -46zM153 244
q22 30 26 89.5t-12 102.5q-15 37 -37 56q-15 13 -53 24q0 -20 1 -115t-2 -190q50 1 77 33z" />
    <glyph glyph-name="germandbls" unicode="&#xdf;" horiz-adv-x="257" 
d="M139 744q22 0 41 -15.5t29.5 -53t10.5 -81.5q0 -54 -31.5 -105.5t-35.5 -68t-4 -28.5q0 -15 5.5 -39t35.5 -90q30 -65 44 -110.5t11 -91.5q-2 -29 -21.5 -48.5t-47.5 -19.5q-18 0 -36.5 9.5t-27.5 28.5q-4 9 -4 17.5t7 11.5q4 2 8.5 1t13.5 -16q5 -10 16.5 -16.5
t22.5 -6.5q37 0 40 47q2 29 -8 68t-48 123q-18 38 -28.5 68t-10.5 66q0 14 4.5 35.5t28 59.5t30 59t6.5 43q0 35 -6 64.5t-19.5 44.5t-28.5 15q-16 0 -28.5 -9t-21.5 -34t-11 -115l-2 -244l1 -280q0 -20 -3.5 -26.5t-10.5 -7.5q-6 0 -10.5 5t-4.5 33v308q0 226 3 272
q5 75 28 101t63 26z" />
    <glyph glyph-name="agrave" unicode="&#xe0;" horiz-adv-x="224" 
d="M48 677q14 17 29 -4l60 -92q9 -14 13 -24t-4 -16q-10 -7 -24 13l-12 16t-29 41t-26 38q-7 11 -9 17t2 11zM109 475q44 2 65 -36q17 -35 13 -107q-5 -97 -5 -160l1 -158q1 -16 -13 -16q-5 0 -10 3.5t-6 27.5l2 123q-32 -94 -51 -126.5t-38 -32.5q-10 0 -19.5 8t-13.5 18
q-18 41 -15 107t14 103q28 98 126 83q4 75 -6 102t-32 33q-16 4 -28.5 -6.5t-13.5 -29.5q0 -1 1 -9t-0.5 -13.5t-5.5 -6.5t-7 -1q-9 -1 -13 12t-3 27q2 23 18.5 38t39.5 17zM158 283q-22 4 -42.5 0.5t-33.5 -18.5q-11 -13 -20.5 -44.5t-12.5 -77.5t1 -77q8 -43 21 -41
q11 1 44.5 83t37.5 105q5 20 5 70z" />
    <glyph glyph-name="aacute" unicode="&#xe1;" horiz-adv-x="224" 
d="M183 679q4 -3 6 -8t-10 -22l-66 -96q-8 -9 -13.5 -12t-11.5 1q-3 2 -4 8t15 31l41 64l19 27q11 18 24 7zM109 475q44 2 65 -36q17 -35 13 -107q-5 -97 -5 -160l1 -158q1 -16 -13 -16q-5 0 -10 3.5t-6 27.5l2 123q-32 -94 -51 -126.5t-38 -32.5q-10 0 -19.5 8t-13.5 18
q-18 41 -15 107t14 103q28 98 126 83q4 75 -6 102t-32 33q-16 4 -28.5 -6.5t-13.5 -29.5q0 -1 1 -9t-0.5 -13.5t-5.5 -6.5t-7 -1q-9 -1 -13 12t-3 27q2 23 18.5 38t39.5 17zM158 283q-22 4 -42.5 0.5t-33.5 -18.5q-11 -13 -20.5 -44.5t-12.5 -77.5t1 -77q8 -43 21 -41
q11 1 44.5 83t37.5 105q5 20 5 70z" />
    <glyph glyph-name="acircumflex" unicode="&#xe2;" horiz-adv-x="224" 
d="M114 658q12 0 29 -28q8 -12 27.5 -47.5t20.5 -37.5q13 -21 2 -28q-5 -3 -10 -2t-15 16l-32 57l-24 36q-8 -13 -26.5 -46t-19.5 -35q-14 -24 -18.5 -26t-8.5 0q-15 5 -3 28l47 83q17 30 31 30zM109 475q44 2 65 -36q17 -35 13 -107q-5 -97 -5 -160l1 -158q1 -16 -13 -16
q-5 0 -10 3.5t-6 27.5l2 123q-32 -94 -51 -126.5t-38 -32.5q-10 0 -19.5 8t-13.5 18q-18 41 -15 107t14 103q28 98 126 83q4 75 -6 102t-32 33q-16 4 -28.5 -6.5t-13.5 -29.5q0 -1 1 -9t-0.5 -13.5t-5.5 -6.5t-7 -1q-9 -1 -13 12t-3 27q2 23 18.5 38t39.5 17zM158 283
q-22 4 -42.5 0.5t-33.5 -18.5q-11 -13 -20.5 -44.5t-12.5 -77.5t1 -77q8 -43 21 -41q11 1 44.5 83t37.5 105q5 20 5 70z" />
    <glyph glyph-name="atilde" unicode="&#xe3;" horiz-adv-x="224" 
d="M81 653q18 0 37 -39t23.5 -45.5t8.5 -6.5q6 1 11.5 21.5t6.5 59.5q0 5 4 9t9 4t9 -4.5t3 -11.5q0 -53 -11.5 -80t-31.5 -27q-18 -1 -38 40t-23.5 46t-6.5 5q-14 0 -19 -75q0 -6 -4.5 -9.5t-9.5 -3.5q-12 0 -11 13q4 55 14 79.5t29 24.5zM109 475q44 2 65 -36
q17 -35 13 -107q-5 -97 -5 -160l1 -158q1 -16 -13 -16q-5 0 -10 3.5t-6 27.5l2 123q-32 -94 -51 -126.5t-38 -32.5q-10 0 -19.5 8t-13.5 18q-18 41 -15 107t14 103q28 98 126 83q4 75 -6 102t-32 33q-16 4 -28.5 -6.5t-13.5 -29.5q0 -1 1 -9t-0.5 -13.5t-5.5 -6.5t-7 -1
q-9 -1 -13 12t-3 27q2 23 18.5 38t39.5 17zM158 283q-22 4 -42.5 0.5t-33.5 -18.5q-11 -13 -20.5 -44.5t-12.5 -77.5t1 -77q8 -43 21 -41q11 1 44.5 83t37.5 105q5 20 5 70z" />
    <glyph glyph-name="adieresis" unicode="&#xe4;" horiz-adv-x="224" 
d="M160 602q11 0 19 -8.5t8 -19.5q0 -10 -6.5 -17.5t-17.5 -7.5q-12 0 -19 7.5t-7 19.5q0 11 7.5 18.5t15.5 7.5zM92 573q0 -11 -8.5 -18t-19.5 -7t-17.5 8t-6.5 19t8.5 18.5t19.5 7.5t17.5 -8.5t6.5 -19.5zM109 475q44 2 65 -36q17 -35 13 -107q-5 -97 -5 -160l1 -158
q1 -16 -13 -16q-5 0 -10 3.5t-6 27.5l2 123q-32 -94 -51 -126.5t-38 -32.5q-10 0 -19.5 8t-13.5 18q-18 41 -15 107t14 103q28 98 126 83q4 75 -6 102t-32 33q-16 4 -28.5 -6.5t-13.5 -29.5q0 -1 1 -9t-0.5 -13.5t-5.5 -6.5t-7 -1q-9 -1 -13 12t-3 27q2 23 18.5 38t39.5 17z
M158 283q-22 4 -42.5 0.5t-33.5 -18.5q-11 -13 -20.5 -44.5t-12.5 -77.5t1 -77q8 -43 21 -41q11 1 44.5 83t37.5 105q5 20 5 70z" />
    <glyph glyph-name="aring" unicode="&#xe5;" horiz-adv-x="224" 
d="M118 689q43 0 48 -64q1 -22 -1.5 -43.5t-9.5 -32.5q-15 -22 -41 -22q-13 0 -24.5 8t-16.5 19q-9 19 -8.5 50t7.5 49q5 14 16 25t30 11zM106 662q-9 -8 -13 -32t-1.5 -42.5t6.5 -25.5q6 -10 16 -10.5t16 7.5q11 12 11 51q0 15 -3.5 30t-8.5 21q-5 5 -12 4.5t-11 -3.5z
M109 475q44 2 65 -36q17 -35 13 -107q-5 -97 -5 -160l1 -158q1 -16 -13 -16q-5 0 -10 3.5t-6 27.5l2 123q-32 -94 -51 -126.5t-38 -32.5q-10 0 -19.5 8t-13.5 18q-18 41 -15 107t14 103q28 98 126 83q4 75 -6 102t-32 33q-16 4 -28.5 -6.5t-13.5 -29.5q0 -1 1 -9t-0.5 -13.5
t-5.5 -6.5t-7 -1q-9 -1 -13 12t-3 27q2 23 18.5 38t39.5 17zM158 283q-22 4 -42.5 0.5t-33.5 -18.5q-11 -13 -20.5 -44.5t-12.5 -77.5t1 -77q8 -43 21 -41q11 1 44.5 83t37.5 105q5 20 5 70z" />
    <glyph glyph-name="ae" unicode="&#xe6;" horiz-adv-x="346" 
d="M119 474q17 0 32.5 -10t21.5 -24q12 -28 10 -94q11 59 32 96q8 14 22 23t27 9q31 0 46 -37t15 -143q0 -34 -6 -40q-4 -5 -71 -5l-55 2q-5 -64 4 -128q4 -28 13.5 -53t20.5 -35.5t20 -10.5q10 0 19.5 11t13.5 28q1 6 3.5 21.5t6 20t8.5 5.5q10 1 13.5 -9t-2.5 -44
q-6 -30 -23 -46t-40 -16q-15 0 -31.5 11.5t-29 40t-17.5 61.5l-4 63q-20 -77 -39 -119q-16 -32 -28.5 -45t-32.5 -13q-40 0 -45 89q-3 86 25 141q12 24 37 38.5t76 15.5q2 100 -7 130q-9 37 -37 37q-17 0 -27.5 -10.5t-9.5 -29.5q0 -3 1.5 -16t-1 -17.5t-7.5 -5.5
q-10 -2 -15.5 4t-6.5 28q-1 36 19.5 56t48.5 20zM265 445q-17 0 -31.5 -27t-25 -68t-13.5 -71q80 -1 100 0q2 62 -5.5 113.5t-24.5 52.5zM161 250q-55 -2 -75 -22q-18 -19 -26.5 -66t-5.5 -89q1 -15 5 -30.5t11 -16.5q6 0 13 4.5t19 28.5q9 19 25.5 62.5t28.5 92.5
q6 23 5 36z" />
    <glyph glyph-name="ccedilla" unicode="&#xe7;" horiz-adv-x="193" 
d="M161 127q8 2 13.5 -7.5t3.5 -30.5q-3 -48 -22 -73q-12 -15 -29 -21q-15 -35 -18 -45q35 -54 40 -70.5t5 -28.5q0 -27 -15.5 -42.5t-36.5 -15.5q-22 0 -35 13l-9 9t-11 20q-5 15 -2.5 27.5t15.5 11.5q8 -1 9 -10t1 -10q6 -29 25 -33q17 -3 26 10t4 33q-3 18 -43 76
q-2 2 -2 9t18 44q-62 12 -71 148q-3 42 -2 87.5t10 111.5q5 32 16 65t27.5 51t34.5 19q27 2 42 -16.5t18.5 -41t2.5 -37.5q-3 -26 -18 -26q-5 1 -9 4t-2 23q2 16 -1.5 32.5t-10.5 24.5t-14 9q-15 1 -27 -18.5t-21 -51t-12 -62.5q-9 -75 -5 -164q7 -129 54 -129q8 0 18.5 8.5
t17.5 30t3 46.5q-2 19 12 20z" />
    <glyph glyph-name="egrave" unicode="&#xe8;" horiz-adv-x="217" 
d="M61 677q14 17 29 -4l60 -92q9 -14 13 -24t-4 -16q-10 -7 -24 13l-12 16t-29 41t-26 38q-7 11 -9 17t2 11zM169 447q8 -15 16 -55t9 -101q0 -21 -1.5 -32.5t-8.5 -14.5q-7 -4 -39 -4q-70 0 -90 -2q-3 -62 4.5 -112t21.5 -76.5t34 -26.5q18 0 29.5 21.5t11.5 43.5
q0 2 -0.5 10.5t1.5 13.5t9 5q24 1 18 -42q-5 -34 -23 -57.5t-46 -23.5q-33 0 -55.5 33t-29.5 101q-14 131 19 243q14 47 33 75q8 12 21 20t25 8q11 0 22.5 -7.5t18.5 -19.5zM139 437q-4 6 -12 6q-7 0 -14.5 -6.5t-12.5 -15.5q-29 -50 -42 -153q14 1 50.5 1t55.5 2
q1 45 -4.5 98t-20.5 68z" />
    <glyph glyph-name="eacute" unicode="&#xe9;" horiz-adv-x="217" 
d="M196 679q4 -3 6 -8t-10 -22l-66 -96q-8 -9 -13.5 -12t-11.5 1q-3 2 -4 8t15 31l41 64l19 27q11 18 24 7zM169 447q8 -15 16 -55t9 -101q0 -21 -1.5 -32.5t-8.5 -14.5q-7 -4 -39 -4q-70 0 -90 -2q-3 -62 4.5 -112t21.5 -76.5t34 -26.5q18 0 29.5 21.5t11.5 43.5
q0 2 -0.5 10.5t1.5 13.5t9 5q24 1 18 -42q-5 -34 -23 -57.5t-46 -23.5q-33 0 -55.5 33t-29.5 101q-14 131 19 243q14 47 33 75q8 12 21 20t25 8q11 0 22.5 -7.5t18.5 -19.5zM139 437q-4 6 -12 6q-7 0 -14.5 -6.5t-12.5 -15.5q-29 -50 -42 -153q14 1 50.5 1t55.5 2
q1 45 -4.5 98t-20.5 68z" />
    <glyph glyph-name="ecircumflex" unicode="&#xea;" horiz-adv-x="217" 
d="M127 658q12 0 29 -28q8 -12 27.5 -47.5t20.5 -37.5q13 -21 2 -28q-5 -3 -10 -2t-15 16l-32 57l-24 36q-8 -13 -26.5 -46t-19.5 -35q-14 -24 -18.5 -26t-8.5 0q-15 5 -3 28l47 83q17 30 31 30zM169 447q8 -15 16 -55t9 -101q0 -21 -1.5 -32.5t-8.5 -14.5q-7 -4 -39 -4
q-70 0 -90 -2q-3 -62 4.5 -112t21.5 -76.5t34 -26.5q18 0 29.5 21.5t11.5 43.5q0 2 -0.5 10.5t1.5 13.5t9 5q24 1 18 -42q-5 -34 -23 -57.5t-46 -23.5q-33 0 -55.5 33t-29.5 101q-14 131 19 243q14 47 33 75q8 12 21 20t25 8q11 0 22.5 -7.5t18.5 -19.5zM139 437q-4 6 -12 6
q-7 0 -14.5 -6.5t-12.5 -15.5q-29 -50 -42 -153q14 1 50.5 1t55.5 2q1 45 -4.5 98t-20.5 68z" />
    <glyph glyph-name="edieresis" unicode="&#xeb;" horiz-adv-x="217" 
d="M173 602q11 0 19 -8.5t8 -19.5q0 -10 -6.5 -17.5t-17.5 -7.5q-12 0 -19 7.5t-7 19.5q0 11 7.5 18.5t15.5 7.5zM105 573q0 -11 -8.5 -18t-19.5 -7t-17.5 8t-6.5 19t8.5 18.5t19.5 7.5t17.5 -8.5t6.5 -19.5zM169 447q8 -15 16 -55t9 -101q0 -21 -1.5 -32.5t-8.5 -14.5
q-7 -4 -39 -4q-70 0 -90 -2q-3 -62 4.5 -112t21.5 -76.5t34 -26.5q18 0 29.5 21.5t11.5 43.5q0 2 -0.5 10.5t1.5 13.5t9 5q24 1 18 -42q-5 -34 -23 -57.5t-46 -23.5q-33 0 -55.5 33t-29.5 101q-14 131 19 243q14 47 33 75q8 12 21 20t25 8q11 0 22.5 -7.5t18.5 -19.5z
M139 437q-4 6 -12 6q-7 0 -14.5 -6.5t-12.5 -15.5q-29 -50 -42 -153q14 1 50.5 1t55.5 2q1 45 -4.5 98t-20.5 68z" />
    <glyph glyph-name="igrave" unicode="&#xec;" horiz-adv-x="123" 
d="M-6 677q14 17 29 -4l60 -92q9 -14 13 -24t-4 -16q-10 -7 -24 13l-12 16t-29 41t-26 38q-7 11 -9 17t2 11zM58 468q7 1 11.5 -3.5t6.5 -22.5l-1 -110l2 -317q0 -9 -2.5 -14t-13.5 -3q-5 1 -9.5 7.5t-4.5 40.5v279v109q-2 21 0.5 27t10.5 7z" />
    <glyph glyph-name="iacute" unicode="&#xed;" horiz-adv-x="123" 
d="M129 679q4 -3 6 -8t-10 -22l-66 -96q-8 -9 -13.5 -12t-11.5 1q-3 2 -4 8t15 31l41 64l19 27q11 18 24 7zM58 468q7 1 11.5 -3.5t6.5 -22.5l-1 -110l2 -317q0 -9 -2.5 -14t-13.5 -3q-5 1 -9.5 7.5t-4.5 40.5v279v109q-2 21 0.5 27t10.5 7z" />
    <glyph glyph-name="icircumflex" unicode="&#xee;" horiz-adv-x="123" 
d="M60 658q12 0 29 -28q8 -12 27.5 -47.5t20.5 -37.5q13 -21 2 -28q-5 -3 -10 -2t-15 16l-32 57l-24 36q-8 -13 -26.5 -46t-19.5 -35q-14 -24 -18.5 -26t-8.5 0q-15 5 -3 28l47 83q17 30 31 30zM58 468q7 1 11.5 -3.5t6.5 -22.5l-1 -110l2 -317q0 -9 -2.5 -14t-13.5 -3
q-5 1 -9.5 7.5t-4.5 40.5v279v109q-2 21 0.5 27t10.5 7z" />
    <glyph glyph-name="idieresis" unicode="&#xef;" horiz-adv-x="123" 
d="M106 602q11 0 19 -8.5t8 -19.5q0 -10 -6.5 -17.5t-17.5 -7.5q-12 0 -19 7.5t-7 19.5q0 11 7.5 18.5t15.5 7.5zM38 573q0 -11 -8.5 -18t-19.5 -7t-17.5 8t-6.5 19t8.5 18.5t19.5 7.5t17.5 -8.5t6.5 -19.5zM58 468q7 1 11.5 -3.5t6.5 -22.5l-1 -110l2 -317q0 -9 -2.5 -14
t-13.5 -3q-5 1 -9.5 7.5t-4.5 40.5v279v109q-2 21 0.5 27t10.5 7z" />
    <glyph glyph-name="eth" unicode="&#xf0;" horiz-adv-x="244" 
d="M213 258q2 -58 -2 -107q-5 -65 -27 -109.5t-61 -47.5q-43 -3 -67 35q-22 34 -28 128q-4 84 5 153q26 180 103 163q17 -4 33 -26q-18 87 -61 170l-35 -20q-26 -15 -33 -16.5t-10 3.5t-2.5 11t19.5 18l46 29q-20 33 -35 55q-14 18 -16 25t2.5 9t7.5 3q4 1 8.5 -0.5
t7.5 -4.5t10 -13q27 -36 40 -59l41 25q21 14 28 15.5t10 -3t4 -7.5q1 -2 0 -6t-19 -16l-51 -33q22 -43 38.5 -88.5t27.5 -106.5q15 -87 16 -179zM184 241q0 204 -60 204q-22 0 -38 -38t-25 -107q-8 -67 -5 -137q4 -83 28 -122q3 -5 10.5 -11.5t18.5 -8t20 4.5q25 16 38 59.5
t13 155.5z" />
    <glyph glyph-name="ntilde" unicode="&#xf1;" horiz-adv-x="259" 
d="M92 653q18 0 37 -39t23.5 -45.5t8.5 -6.5q6 1 11.5 21.5t6.5 59.5q0 5 4 9t9 4t9 -4.5t3 -11.5q0 -53 -11.5 -80t-31.5 -27q-18 -1 -38 40t-23.5 46t-6.5 5q-14 0 -19 -75q0 -6 -4.5 -9.5t-9.5 -3.5q-12 0 -11 13q4 55 14 79.5t29 24.5zM183 475q29 0 34 -43
q2 -19 1.5 -189.5t-0.5 -195.5v-15t-1.5 -23t-16.5 -10q-6 1 -10 6t-1 45v301v50q0 16 -3 28t-13 11q-8 -1 -25 -20.5t-39 -63.5t-32 -82q-5 -21 -5 -246q0 -14 -3 -22t-15 -7q-4 0 -7 3t-4 8.5t-1.5 12t-0.5 12.5t0.5 15t0.5 11l1 159v224q0 24 14 24q6 0 11 -3.5t5 -25.5
q0 -43 -4 -117q19 63 52.5 108t61.5 45z" />
    <glyph glyph-name="ograve" unicode="&#xf2;" horiz-adv-x="242" 
d="M57 677q14 17 29 -4l60 -92q9 -14 13 -24t-4 -16q-10 -7 -24 13l-12 16t-29 41t-26 38q-7 11 -9 17t2 11zM124 474q17 0 33.5 -11t27 -34.5t15.5 -48.5q14 -66 14 -160q0 -165 -53 -212q-18 -15 -44 -15q-60 0 -80 95q-10 56 -10 118.5t6 107.5q8 73 31.5 116.5
t59.5 43.5zM66 339q-7 -50 -9.5 -98t3.5 -112q5 -50 20.5 -79t37.5 -29t40 29q23 38 27 129.5t-8 171.5q-9 53 -23 73.5t-32 20.5q-20 0 -35.5 -33.5t-20.5 -72.5z" />
    <glyph glyph-name="oacute" unicode="&#xf3;" horiz-adv-x="242" 
d="M192 679q4 -3 6 -8t-10 -22l-66 -96q-8 -9 -13.5 -12t-11.5 1q-3 2 -4 8t15 31l41 64l19 27q11 18 24 7zM124 474q17 0 33.5 -11t27 -34.5t15.5 -48.5q14 -66 14 -160q0 -165 -53 -212q-18 -15 -44 -15q-60 0 -80 95q-10 56 -10 118.5t6 107.5q8 73 31.5 116.5t59.5 43.5
zM66 339q-7 -50 -9.5 -98t3.5 -112q5 -50 20.5 -79t37.5 -29t40 29q23 38 27 129.5t-8 171.5q-9 53 -23 73.5t-32 20.5q-20 0 -35.5 -33.5t-20.5 -72.5z" />
    <glyph glyph-name="ocircumflex" unicode="&#xf4;" horiz-adv-x="242" 
d="M123 658q12 0 29 -28q8 -12 27.5 -47.5t20.5 -37.5q13 -21 2 -28q-5 -3 -10 -2t-15 16l-32 57l-24 36q-8 -13 -26.5 -46t-19.5 -35q-14 -24 -18.5 -26t-8.5 0q-15 5 -3 28l47 83q17 30 31 30zM124 474q17 0 33.5 -11t27 -34.5t15.5 -48.5q14 -66 14 -160q0 -165 -53 -212
q-18 -15 -44 -15q-60 0 -80 95q-10 56 -10 118.5t6 107.5q8 73 31.5 116.5t59.5 43.5zM66 339q-7 -50 -9.5 -98t3.5 -112q5 -50 20.5 -79t37.5 -29t40 29q23 38 27 129.5t-8 171.5q-9 53 -23 73.5t-32 20.5q-20 0 -35.5 -33.5t-20.5 -72.5z" />
    <glyph glyph-name="otilde" unicode="&#xf5;" horiz-adv-x="242" 
d="M90 653q18 0 37 -39t23.5 -45.5t8.5 -6.5q6 1 11.5 21.5t6.5 59.5q0 5 4 9t9 4t9 -4.5t3 -11.5q0 -53 -11.5 -80t-31.5 -27q-18 -1 -38 40t-23.5 46t-6.5 5q-14 0 -19 -75q0 -6 -4.5 -9.5t-9.5 -3.5q-12 0 -11 13q4 55 14 79.5t29 24.5zM124 474q17 0 33.5 -11t27 -34.5
t15.5 -48.5q14 -66 14 -160q0 -165 -53 -212q-18 -15 -44 -15q-60 0 -80 95q-10 56 -10 118.5t6 107.5q8 73 31.5 116.5t59.5 43.5zM66 339q-7 -50 -9.5 -98t3.5 -112q5 -50 20.5 -79t37.5 -29t40 29q23 38 27 129.5t-8 171.5q-9 53 -23 73.5t-32 20.5q-20 0 -35.5 -33.5
t-20.5 -72.5z" />
    <glyph glyph-name="odieresis" unicode="&#xf6;" horiz-adv-x="242" 
d="M169 602q11 0 19 -8.5t8 -19.5q0 -10 -6.5 -17.5t-17.5 -7.5q-12 0 -19 7.5t-7 19.5q0 11 7.5 18.5t15.5 7.5zM101 573q0 -11 -8.5 -18t-19.5 -7t-17.5 8t-6.5 19t8.5 18.5t19.5 7.5t17.5 -8.5t6.5 -19.5zM124 474q17 0 33.5 -11t27 -34.5t15.5 -48.5q14 -66 14 -160
q0 -165 -53 -212q-18 -15 -44 -15q-60 0 -80 95q-10 56 -10 118.5t6 107.5q8 73 31.5 116.5t59.5 43.5zM66 339q-7 -50 -9.5 -98t3.5 -112q5 -50 20.5 -79t37.5 -29t40 29q23 38 27 129.5t-8 171.5q-9 53 -23 73.5t-32 20.5q-20 0 -35.5 -33.5t-20.5 -72.5z" />
    <glyph glyph-name="divide" unicode="&#xf7;" horiz-adv-x="327" 
d="M163 423q12 0 20.5 -10t8.5 -22q0 -11 -10.5 -20.5t-25.5 -6.5q-14 4 -19 16t-3 22q2 8 11.5 14.5t17.5 6.5zM49 277h91h126q15 0 24 -2t9 -12q0 -6 -2.5 -11.5t-20.5 -5.5h-65h-112q-5 0 -27 0.5t-32.5 2t-11.5 5.5q-2 10 1 16.5t20 6.5zM150 151q8 5 19 2t16 -9
q7 -9 5.5 -22t-10.5 -21t-23 -6t-22 15q-6 13 0.5 25t14.5 16z" />
    <glyph glyph-name="oslash" unicode="&#xf8;" horiz-adv-x="244" 
d="M202 380q13 -68 13 -160q0 -166 -53 -212q-18 -15 -43 -15q-15 0 -31 7l-10 -45q-1 -6 -8 -6q-6 0 -11 6t-3 15l10 48q-19 24 -28 70q-10 56 -10 118.5t6 107.5q8 73 32 116.5t60 43.5q14 0 28 -7q5 28 9 38.5t13 11.5q5 0 8.5 -4.5t0.5 -21t-3 -18.5l-6 -27
q4 -5 12 -21.5t14 -44.5zM61 129q5 -39 14 -66q3 16 13 64t31.5 159.5t28.5 148.5q-12 10 -24 10q-10 0 -22 -12t-21.5 -39t-13.5 -55q-15 -111 -6 -210zM159 50q23 38 27 129.5t-8 171.5q-7 37 -11 50q-40 -207 -73 -369q11 -11 26 -11q21 0 39 29z" />
    <glyph glyph-name="ugrave" unicode="&#xf9;" horiz-adv-x="262" 
d="M62 677q14 17 29 -4l60 -92q9 -14 13 -24t-4 -16q-10 -7 -24 13l-12 16t-29 41t-26 38q-7 11 -9 17t2 11zM205 469q6 0 11 -2.5t5 -28.5l-1 -159l-1 -129v-113q1 -21 -1.5 -29.5t-12.5 -8.5q-3 0 -7.5 1.5t-6 8t-1.5 38.5l3 127q-24 -76 -32.5 -95t-17.5 -36t-24.5 -33
t-31.5 -16q-13 0 -23 11t-16 38.5t-7 129.5v184v83q0 26 11 28q24 3 20 -46l-1 -139q0 -2 -0.5 -79.5t2.5 -124.5q4 -36 8.5 -43t9.5 -7q10 -1 27.5 25.5t36.5 77.5q30 85 34 136l3 158q0 30 2.5 36t10.5 7z" />
    <glyph glyph-name="uacute" unicode="&#xfa;" horiz-adv-x="262" 
d="M197 679q4 -3 6 -8t-10 -22l-66 -96q-8 -9 -13.5 -12t-11.5 1q-3 2 -4 8t15 31l41 64l19 27q11 18 24 7zM205 469q6 0 11 -2.5t5 -28.5l-1 -159l-1 -129v-113q1 -21 -1.5 -29.5t-12.5 -8.5q-3 0 -7.5 1.5t-6 8t-1.5 38.5l3 127q-24 -76 -32.5 -95t-17.5 -36t-24.5 -33
t-31.5 -16q-13 0 -23 11t-16 38.5t-7 129.5v184v83q0 26 11 28q24 3 20 -46l-1 -139q0 -2 -0.5 -79.5t2.5 -124.5q4 -36 8.5 -43t9.5 -7q10 -1 27.5 25.5t36.5 77.5q30 85 34 136l3 158q0 30 2.5 36t10.5 7z" />
    <glyph glyph-name="ucircumflex" unicode="&#xfb;" horiz-adv-x="262" 
d="M128 658q12 0 29 -28q8 -12 27.5 -47.5t20.5 -37.5q13 -21 2 -28q-5 -3 -10 -2t-15 16l-32 57l-24 36q-8 -13 -26.5 -46t-19.5 -35q-14 -24 -18.5 -26t-8.5 0q-15 5 -3 28l47 83q17 30 31 30zM205 469q6 0 11 -2.5t5 -28.5l-1 -159l-1 -129v-113q1 -21 -1.5 -29.5
t-12.5 -8.5q-3 0 -7.5 1.5t-6 8t-1.5 38.5l3 127q-24 -76 -32.5 -95t-17.5 -36t-24.5 -33t-31.5 -16q-13 0 -23 11t-16 38.5t-7 129.5v184v83q0 26 11 28q24 3 20 -46l-1 -139q0 -2 -0.5 -79.5t2.5 -124.5q4 -36 8.5 -43t9.5 -7q10 -1 27.5 25.5t36.5 77.5q30 85 34 136
l3 158q0 30 2.5 36t10.5 7z" />
    <glyph glyph-name="udieresis" unicode="&#xfc;" horiz-adv-x="262" 
d="M174 602q11 0 19 -8.5t8 -19.5q0 -10 -6.5 -17.5t-17.5 -7.5q-12 0 -19 7.5t-7 19.5q0 11 7.5 18.5t15.5 7.5zM106 573q0 -11 -8.5 -18t-19.5 -7t-17.5 8t-6.5 19t8.5 18.5t19.5 7.5t17.5 -8.5t6.5 -19.5zM205 469q6 0 11 -2.5t5 -28.5l-1 -159l-1 -129v-113
q1 -21 -1.5 -29.5t-12.5 -8.5q-3 0 -7.5 1.5t-6 8t-1.5 38.5l3 127q-24 -76 -32.5 -95t-17.5 -36t-24.5 -33t-31.5 -16q-13 0 -23 11t-16 38.5t-7 129.5v184v83q0 26 11 28q24 3 20 -46l-1 -139q0 -2 -0.5 -79.5t2.5 -124.5q4 -36 8.5 -43t9.5 -7q10 -1 27.5 25.5t36.5 77.5
q30 85 34 136l3 158q0 30 2.5 36t10.5 7z" />
    <glyph glyph-name="yacute" unicode="&#xfd;" horiz-adv-x="225" 
d="M179 679q4 -3 6 -8t-10 -22l-66 -96q-8 -9 -13.5 -12t-11.5 1q-3 2 -4 8t15 31l41 64l19 27q11 18 24 7zM191 469q8 1 14 -5.5t-1 -42.5l-36 -217l-36 -188l-40 -190l-16 -65q-4 -11 -7.5 -16t-11.5 -4t-11.5 5.5t0.5 18.5l9 35q29 118 41 194q-9 49 -35 210l-35 208
q-9 42 -5 49.5t11 7.5q9 -1 14.5 -10t7.5 -35l18 -104l41 -272q5 26 16 96t18 106q27 160 29 181q2 16 5 26.5t10 11.5z" />
    <glyph glyph-name="thorn" unicode="&#xfe;" horiz-adv-x="257" 
d="M60 740q5 0 10 -3t6 -27l1 -94q1 -39 -3 -161l-2 -184q6 27 19.5 74.5t20.5 62.5q13 31 26 49t30 18q20 0 33.5 -23t19 -53.5t7.5 -54.5q10 -128 -11 -232q-27 -118 -101 -118q-15 0 -39 6l-3 -204q0 -35 -1.5 -41.5t-4.5 -9.5t-7 -3q-6 0 -9.5 2.5t-6 9t-0.5 42.5
q4 72 2 210t-2 155v104v51.5t1.5 102.5t1.5 115l-1 177q0 15 1.5 22t11.5 7zM167 441q-13 -1 -36 -60q-10 -24 -26.5 -79.5t-19.5 -72.5q-7 -32 -9 -56q-2 -26 -1 -75.5t1 -64.5q17 -10 38 -10q18 0 31 8q20 14 35.5 65t19.5 139q1 28 -0.5 81.5t-11 89t-21.5 35.5z" />
    <glyph glyph-name="ydieresis" unicode="&#xff;" horiz-adv-x="225" 
d="M156 602q11 0 19 -8.5t8 -19.5q0 -10 -6.5 -17.5t-17.5 -7.5q-12 0 -19 7.5t-7 19.5q0 11 7.5 18.5t15.5 7.5zM88 573q0 -11 -8.5 -18t-19.5 -7t-17.5 8t-6.5 19t8.5 18.5t19.5 7.5t17.5 -8.5t6.5 -19.5zM191 469q8 1 14 -5.5t-1 -42.5l-36 -217l-36 -188l-40 -190
l-16 -65q-4 -11 -7.5 -16t-11.5 -4t-11.5 5.5t0.5 18.5l9 35q29 118 41 194q-9 49 -35 210l-35 208q-9 42 -5 49.5t11 7.5q9 -1 14.5 -10t7.5 -35l18 -104l41 -272q5 26 16 96t18 106q27 160 29 181q2 16 5 26.5t10 11.5z" />
    <glyph glyph-name="Amacron" unicode="&#x100;" horiz-adv-x="277" 
d="M176 719h-90q-13 0 -20 2.5t-7 12.5q0 7 5 10t13 3.5t18.5 0.5h13.5h88q6 0 16 -1t10 -16q0 -4 -3.5 -7t-10.5 -4t-18.5 -1h-14.5zM265 27q1 -13 0 -19.5t-9 -7.5q-10 -1 -15 5.5t-8 29.5l-41 226q-35 -5 -108 -3q-20 -113 -21 -122l-18 -106q-3 -17 -6 -24t-15 -7
q-7 0 -11.5 5t2.5 35q5 23 41 226l26 172q15 92 37 209q4 25 9 33t13 8q9 0 13 -5.5t8 -28.5q15 -82 33 -210l28 -190q10 -61 27 -152zM89 290v-2q46 -6 99 3q-9 62 -25.5 184t-20.5 151q-13 -64 -22 -128z" />
    <glyph glyph-name="amacron" unicode="&#x101;" horiz-adv-x="224" 
d="M82 575l88 -1q6 0 16 -1t10 -15q0 -4 -3 -7t-10.5 -4t-18.5 -1h-14h-91q-12 0 -19 2.5t-7 11.5q0 6 6 10.5t43 4.5zM109 475q44 2 65 -36q17 -35 13 -107q-5 -97 -5 -160l1 -158q1 -16 -13 -16q-5 0 -10 3.5t-6 27.5l2 123q-32 -94 -51 -126.5t-38 -32.5q-10 0 -19.5 8
t-13.5 18q-18 41 -15 107t14 103q28 98 126 83q4 75 -6 102t-32 33q-16 4 -28.5 -6.5t-13.5 -29.5q0 -1 1 -9t-0.5 -13.5t-5.5 -6.5t-7 -1q-9 -1 -13 12t-3 27q2 23 18.5 38t39.5 17zM158 283q-22 4 -42.5 0.5t-33.5 -18.5q-11 -13 -20.5 -44.5t-12.5 -77.5t1 -77
q8 -43 21 -41q11 1 44.5 83t37.5 105q5 20 5 70z" />
    <glyph glyph-name="Abreve" unicode="&#x102;" horiz-adv-x="277" 
d="M93 725q-24 19 -32 52q-6 23 14 23q9 0 11.5 -9.5t3.5 -11.5q12 -41 50 -41q15 0 27.5 10t18.5 29q1 2 2.5 9.5t4.5 11.5t10 4q9 0 12.5 -9.5t-3.5 -27.5q-6 -17 -18 -30.5t-25 -19.5q-13 -5 -29 -5q-28 0 -47 15zM265 27q1 -13 0 -19.5t-9 -7.5q-10 -1 -15 5.5t-8 29.5
l-41 226q-35 -5 -108 -3q-20 -113 -21 -122l-18 -106q-3 -17 -6 -24t-15 -7q-7 0 -11.5 5t2.5 35q5 23 41 226l26 172q15 92 37 209q4 25 9 33t13 8q9 0 13 -5.5t8 -28.5q15 -82 33 -210l28 -190q10 -61 27 -152zM89 290v-2q46 -6 99 3q-9 62 -25.5 184t-20.5 151
q-13 -64 -22 -128z" />
    <glyph glyph-name="abreve" unicode="&#x103;" horiz-adv-x="224" 
d="M166 672q6 0 11 -5t5 -36q-1 -45 -19.5 -73.5t-50.5 -28.5q-27 0 -43.5 21t-21.5 46.5t-5 44.5q0 34 19 30q3 -1 5 -4.5t2.5 -15t0.5 -14.5q1 -22 6.5 -42t16 -29t21.5 -9q20 0 31 24t11 61q0 19 2.5 24.5t8.5 5.5zM109 475q44 2 65 -36q17 -35 13 -107q-5 -97 -5 -160
l1 -158q1 -16 -13 -16q-5 0 -10 3.5t-6 27.5l2 123q-32 -94 -51 -126.5t-38 -32.5q-10 0 -19.5 8t-13.5 18q-18 41 -15 107t14 103q28 98 126 83q4 75 -6 102t-32 33q-16 4 -28.5 -6.5t-13.5 -29.5q0 -1 1 -9t-0.5 -13.5t-5.5 -6.5t-7 -1q-9 -1 -13 12t-3 27q2 23 18.5 38
t39.5 17zM158 283q-22 4 -42.5 0.5t-33.5 -18.5q-11 -13 -20.5 -44.5t-12.5 -77.5t1 -77q8 -43 21 -41q11 1 44.5 83t37.5 105q5 20 5 70z" />
    <glyph glyph-name="Aogonek" unicode="&#x104;" horiz-adv-x="277" 
d="M253 -115q13 2 17 -11.5t-4 -32.5q-8 -18 -23 -27t-30 -9q-19 0 -34 12.5t-18 34.5q-3 20 5 44t35 62q32 48 35 55v1l-3 21l-41 226q-35 -5 -108 -3q-20 -113 -21 -122l-18 -106q-3 -17 -6 -24t-15 -7q-7 0 -11.5 5t2.5 35q5 23 41 226l26 172q15 92 37 209q4 25 9 33
t13 8q9 0 13 -5.5t8 -28.5q15 -82 33 -210l28 -190q10 -61 27 -152l15 -74q2 -13 1 -19l-1 -2q0 -1 -3.5 -8t-21.5 -31.5t-20 -27.5q-27 -38 -31 -66q-3 -18 5.5 -30t25.5 -10q9 2 15.5 11t7.5 21q1 3 1.5 11t8.5 9zM89 290v-2q46 -6 99 3q-9 62 -25.5 184t-20.5 151
q-13 -64 -22 -128z" />
    <glyph glyph-name="aogonek" unicode="&#x105;" horiz-adv-x="224" 
d="M174 439q17 -35 13 -107q-5 -97 -5 -160l1 -158v-8l-1 -3q-2 -5 -19.5 -28t-27.5 -39q-27 -38 -31 -66q-3 -18 5.5 -30t25.5 -10q8 2 15 11t9 21q0 2 0.5 10.5t8.5 9.5q14 1 17.5 -12t-4.5 -32q-8 -18 -23 -27t-30 -9q-19 0 -34 12.5t-18 34.5q-6 46 40 108l40 53
q-2 5 -2 19l2 123q-32 -94 -51 -126.5t-38 -32.5q-10 0 -19.5 8t-13.5 18q-18 41 -15 107t14 103q28 98 126 83q4 75 -6 102t-32 33q-16 4 -28.5 -6.5t-13.5 -29.5q0 -1 1 -9t-0.5 -13.5t-5.5 -6.5t-7 -1q-9 -1 -13 12t-3 27q2 23 18.5 38t39.5 17q44 2 65 -36zM153 213
q5 20 5 70q-22 4 -42.5 0.5t-33.5 -18.5q-11 -13 -20.5 -44.5t-12.5 -77.5t1 -77q8 -43 21 -41q11 1 44.5 83t37.5 105z" />
    <glyph glyph-name="Cacute" unicode="&#x106;" horiz-adv-x="225" 
d="M212 811q12 -2 14 -15q1 -7 -15 -21l-57 -46q-19 -15 -25.5 -17.5t-9.5 0.5q-4 3 -5 9t12 18q43 38 53 48q2 2 14 13.5t19 10.5zM149 688q22 0 39 -18t22 -62q3 -29 0 -37t-12 -8q-6 0 -10 6.5t-5 23.5t-2 20q-6 48 -34 47q-13 0 -28 -18t-25 -59q-20 -77 -27 -197
t2 -211q5 -54 16 -89t22 -48q5 -8 15.5 -13t19.5 -2q27 8 39 67q1 3 2 12.5t3.5 16t7.5 7.5q8 2 14.5 -3t1.5 -38q-9 -53 -30.5 -73t-46.5 -20q-6 0 -21 4.5t-29 20.5q-15 19 -26.5 60t-16.5 101.5t-5 116.5q0 63 5 131t15.5 119t22.5 81q10 25 26 43.5t45 18.5z" />
    <glyph glyph-name="cacute" unicode="&#x107;" horiz-adv-x="193" 
d="M187 679q4 -3 6 -8t-10 -22l-66 -96q-8 -9 -13.5 -12t-11.5 1q-3 2 -4 8t15 31l41 64l19 27q11 18 24 7zM113 475q27 2 42 -16.5t18.5 -41t2.5 -37.5q-3 -26 -18 -26q-5 1 -9 4t-2 23q2 16 -1.5 32.5t-10.5 24.5t-14 9q-15 1 -27 -18.5t-21 -51t-12 -62.5q-9 -75 -5 -164
q7 -129 54 -129q8 0 18.5 8.5t17.5 30t3 46.5q-2 19 12 20q8 2 13.5 -7.5t3.5 -30.5q-3 -48 -22 -73q-7 -10 -20.5 -17t-25.5 -7q-27 0 -45.5 21.5t-27 57t-10.5 70.5q-3 42 -2 87.5t10 111.5q5 32 16 65t27.5 51t34.5 19z" />
    <glyph glyph-name="Ccircumflex" unicode="&#x108;" horiz-adv-x="225" 
d="M148 785q2 0 7 -2t15.5 -10t11.5 -9l51 -45q8 -7 9 -12t-6 -11q-10 -8 -33 13q-38 33 -43.5 37.5t-10.5 7.5q-8 -4 -19 -13t-14 -11l-32 -30q-14 -13 -23 -4q-4 4 -4 10.5t18 22.5q26 24 45 39q23 17 28 17zM149 688q22 0 39 -18t22 -62q3 -29 0 -37t-12 -8q-6 0 -10 6.5
t-5 23.5t-2 20q-6 48 -34 47q-13 0 -28 -18t-25 -59q-20 -77 -27 -197t2 -211q5 -54 16 -89t22 -48q5 -8 15.5 -13t19.5 -2q27 8 39 67q1 3 2 12.5t3.5 16t7.5 7.5q8 2 14.5 -3t1.5 -38q-9 -53 -30.5 -73t-46.5 -20q-6 0 -21 4.5t-29 20.5q-15 19 -26.5 60t-16.5 101.5
t-5 116.5q0 63 5 131t15.5 119t22.5 81q10 25 26 43.5t45 18.5z" />
    <glyph glyph-name="ccircumflex" unicode="&#x109;" horiz-adv-x="193" 
d="M118 658q12 0 29 -28q8 -12 27.5 -47.5t20.5 -37.5q13 -21 2 -28q-5 -3 -10 -2t-15 16l-32 57l-24 36q-8 -13 -26.5 -46t-19.5 -35q-14 -24 -18.5 -26t-8.5 0q-15 5 -3 28l47 83q17 30 31 30zM113 475q27 2 42 -16.5t18.5 -41t2.5 -37.5q-3 -26 -18 -26q-5 1 -9 4t-2 23
q2 16 -1.5 32.5t-10.5 24.5t-14 9q-15 1 -27 -18.5t-21 -51t-12 -62.5q-9 -75 -5 -164q7 -129 54 -129q8 0 18.5 8.5t17.5 30t3 46.5q-2 19 12 20q8 2 13.5 -7.5t3.5 -30.5q-3 -48 -22 -73q-7 -10 -20.5 -17t-25.5 -7q-27 0 -45.5 21.5t-27 57t-10.5 70.5q-3 42 -2 87.5
t10 111.5q5 32 16 65t27.5 51t34.5 19z" />
    <glyph glyph-name="Cdotaccent" unicode="&#x10a;" horiz-adv-x="225" 
d="M135 759q5 7 12 7t12 -4q5 -5 6.5 -13.5t-3.5 -15.5q-5 -5 -13 -5.5t-14 3.5q-7 6 -6.5 15t6.5 13zM149 688q22 0 39 -18t22 -62q3 -29 0 -37t-12 -8q-6 0 -10 6.5t-5 23.5t-2 20q-6 48 -34 47q-13 0 -28 -18t-25 -59q-20 -77 -27 -197t2 -211q5 -54 16 -89t22 -48
q5 -8 15.5 -13t19.5 -2q27 8 39 67q1 3 2 12.5t3.5 16t7.5 7.5q8 2 14.5 -3t1.5 -38q-9 -53 -30.5 -73t-46.5 -20q-6 0 -21 4.5t-29 20.5q-15 19 -26.5 60t-16.5 101.5t-5 116.5q0 63 5 131t15.5 119t22.5 81q10 25 26 43.5t45 18.5z" />
    <glyph glyph-name="cdotaccent" unicode="&#x10b;" horiz-adv-x="193" 
d="M103 587q4 5 11 7t14 -4q12 -14 2 -30q-6 -5 -13.5 -5t-13.5 4q-6 6 -6 14.5t6 13.5zM113 475q27 2 42 -16.5t18.5 -41t2.5 -37.5q-3 -26 -18 -26q-5 1 -9 4t-2 23q2 16 -1.5 32.5t-10.5 24.5t-14 9q-15 1 -27 -18.5t-21 -51t-12 -62.5q-9 -75 -5 -164q7 -129 54 -129
q8 0 18.5 8.5t17.5 30t3 46.5q-2 19 12 20q8 2 13.5 -7.5t3.5 -30.5q-3 -48 -22 -73q-7 -10 -20.5 -17t-25.5 -7q-27 0 -45.5 21.5t-27 57t-10.5 70.5q-3 42 -2 87.5t10 111.5q5 32 16 65t27.5 51t34.5 19z" />
    <glyph glyph-name="Ccaron" unicode="&#x10c;" horiz-adv-x="225" 
d="M238 798q3 -2 5 -7t-8 -15q-17 -16 -53 -45q-25 -21 -33 -21q-10 0 -74 57q-13 12 -16 18.5t2 11.5q2 2 8 4.5t16 -6.5l32 -29q20 -18 33 -25q2 1 8.5 5.5t48.5 41.5q13 11 19.5 13t11.5 -3zM149 688q22 0 39 -18t22 -62q3 -29 0 -37t-12 -8q-6 0 -10 6.5t-5 23.5t-2 20
q-6 48 -34 47q-13 0 -28 -18t-25 -59q-20 -77 -27 -197t2 -211q5 -54 16 -89t22 -48q5 -8 15.5 -13t19.5 -2q27 8 39 67q1 3 2 12.5t3.5 16t7.5 7.5q8 2 14.5 -3t1.5 -38q-9 -53 -30.5 -73t-46.5 -20q-6 0 -21 4.5t-29 20.5q-15 19 -26.5 60t-16.5 101.5t-5 116.5
q0 63 5 131t15.5 119t22.5 81q10 25 26 43.5t45 18.5z" />
    <glyph glyph-name="ccaron" unicode="&#x10d;" horiz-adv-x="193" 
d="M190 673q13 -5 2 -28q-22 -43 -45 -83q-17 -30 -29 -30q-3 0 -7 2.5t-8 7t-8.5 11t-5.5 7.5q-7 10 -27.5 45t-25.5 43q-4 7 -5 14t4 11q4 3 9.5 3t14.5 -15l37 -61l23 -33q8 13 24.5 44t19.5 36q12 21 16.5 25t10.5 1zM113 475q27 2 42 -16.5t18.5 -41t2.5 -37.5
q-3 -26 -18 -26q-5 1 -9 4t-2 23q2 16 -1.5 32.5t-10.5 24.5t-14 9q-15 1 -27 -18.5t-21 -51t-12 -62.5q-9 -75 -5 -164q7 -129 54 -129q8 0 18.5 8.5t17.5 30t3 46.5q-2 19 12 20q8 2 13.5 -7.5t3.5 -30.5q-3 -48 -22 -73q-7 -10 -20.5 -17t-25.5 -7q-27 0 -45.5 21.5
t-27 57t-10.5 70.5q-3 42 -2 87.5t10 111.5q5 32 16 65t27.5 51t34.5 19z" />
    <glyph glyph-name="Dcaron" unicode="&#x10e;" horiz-adv-x="290" 
d="M199 798q3 -2 5 -7t-8 -15q-17 -16 -53 -45q-25 -21 -33 -21q-10 0 -74 57q-13 12 -16 18.5t2 11.5q2 2 8 4.5t16 -6.5l32 -29q20 -18 33 -25q2 1 8.5 5.5t48.5 41.5q13 11 19.5 13t11.5 -3zM61 685q26 2 55 -9.5t46 -25.5q44 -36 68.5 -121t24.5 -188
q1 -151 -17.5 -218.5t-56.5 -98.5q-34 -27 -91 -27l-36 2q-4 0 -6.5 7t-0.5 40v147l1 167l-1 304q1 13 4 16.5t10 4.5zM75 654q2 -209 0 -628q58 -6 87 19q11 10 22 25.5t19 37.5t12 44t6 39.5t2.5 31t1.5 28.5t1 19q4 105 -10 192t-43 133q-16 26 -42 42.5t-56 16.5z" />
    <glyph glyph-name="dcaron" unicode="&#x10f;" horiz-adv-x="260" 
d="M213 739q7 -1 9.5 -12.5t1.5 -51.5l-6 -213l-2 -109v-123q0 -12 -1 -87t0 -115q1 -15 -0.5 -22t-11.5 -7q-9 -1 -13.5 5t-3.5 32q-1 39 0.5 103.5t1.5 95.5q-5 -25 -11.5 -52.5t-26.5 -96.5q-22 -75 -47 -88q-20 -11 -35 3.5t-23 43.5t-13 71t-5 103q1 47 8.5 94
t23.5 84.5t42 57.5q16 12 40 15.5t48 -4.5q0 82 4 232q0 21 4 32t16 9zM283 735q5 2 12 0.5t9 -4.5q1 -3 2 -8.5t-4 -25.5l-17 -74q-2 -9 -6.5 -15t-10.5 -5q-5 0 -9 6.5t3 34.5l7 47l3 27q2 14 11 17zM188 433q-8 5 -22 7.5t-31.5 -3.5t-27.5 -17q-19 -22 -33.5 -71
t-17.5 -120q-1 -29 1.5 -76.5t11.5 -87.5t22 -39q16 2 43 95q38 130 49 198q2 12 3.5 49.5t1.5 64.5z" />
    <glyph glyph-name="Dcroat" unicode="&#x110;" horiz-adv-x="304" 
d="M269 341q1 -151 -17.5 -218.5t-56.5 -98.5q-33 -27 -90 -27l-36 2q-5 0 -7.5 8.5t-0.5 38.5v147l1 154q-4 0 -18.5 -0.5t-23.5 0t-10 7.5q-1 6 1.5 12t25.5 7l25 1l-1 290q1 10 3.5 15t11.5 6q26 2 55 -9.5t45 -25.5q44 -36 68.5 -121t24.5 -188zM240 270
q4 106 -9.5 192.5t-43.5 132.5q-16 26 -42 42.5t-56 16.5l1 -280q13 1 67 1q22 -1 26 -4t4 -12q0 -6 -6 -8.5t-13 -3t-17 -0.5h-13h-48l-1 -321q59 -6 88 19q11 10 21.5 25.5t18.5 37.5t12 44t6 39.5t2.5 31t1.5 28.5t1 19z" />
    <glyph glyph-name="dcroat" unicode="&#x111;" horiz-adv-x="266" 
d="M226 675l-2 -46q4 0 19 0.5t24.5 0.5t14 -3.5t5 -7t0.5 -4.5q0 -6 -8 -12t-56 -4l-3 -137l-2 -109v-123q0 -12 -1 -87t0 -115q0 -15 -1.5 -22t-10.5 -7q-9 -1 -13.5 5t-3.5 32v33.5t1 89.5t1 76q-5 -25 -11.5 -52.5t-26.5 -96.5q-22 -75 -47 -88q-15 -8 -27.5 -2
t-23 27.5t-17 60.5t-7.5 78t-1 57q1 47 8.5 94t23.5 84.5t42 57.5q16 12 40 15.5t48 -4.5l2 133l-68 -2q-16 0 -23.5 2.5t-6.5 15.5q0 4 3.5 8t23.5 3q11 -1 71 2l2 70q0 27 5 35t15 6q4 -1 7.5 -8.5t3.5 -55.5zM185 319q2 12 3.5 49.5t1.5 64.5q-8 5 -22 7.5t-31.5 -3.5
t-27.5 -17q-19 -22 -33.5 -71t-17.5 -120q-1 -29 1.5 -76.5t11.5 -87.5t22 -39q7 1 19.5 28.5t23.5 66.5q38 130 49 198z" />
    <glyph glyph-name="Emacron" unicode="&#x112;" horiz-adv-x="227" 
d="M102 758h88q6 0 16 -1t10 -16q0 -4 -3.5 -7t-10.5 -4t-18.5 -1h-14.5h-90q-13 0 -20 2.5t-7 12.5q0 7 5 10t13 3.5t18.5 0.5h13.5zM181 682q24 2 33.5 -0.5t8.5 -14.5q-1 -5 -4.5 -9t-22.5 -4q-99 0 -122 -3l1 -188q37 3 94 1q14 -2 18.5 -4t4.5 -10q1 -9 -12 -12.5
t-52 -2.5q-20 1 -51 -1q2 -52 1 -157t-1 -106q0 -16 -1.5 -64.5t-0.5 -79.5q96 0 112 1t26.5 -1t11.5 -12q0 -5 -2 -10t-21 -5l-88 -1q-58 -4 -64 5q-4 7 -2 149v12.5t1 95.5t-1 149l-3 216q0 3 -0.5 14.5t0 20t3.5 11.5q3 4 14 6t47 4h72z" />
    <glyph glyph-name="emacron" unicode="&#x113;" horiz-adv-x="217" 
d="M95 575l88 -1q6 0 16 -1t10 -15q0 -4 -3 -7t-10.5 -4t-18.5 -1h-14h-91q-12 0 -19 2.5t-7 11.5q0 6 6 10.5t43 4.5zM169 447q8 -15 16 -55t9 -101q0 -21 -1.5 -32.5t-8.5 -14.5q-7 -4 -39 -4q-70 0 -90 -2q-3 -62 4.5 -112t21.5 -76.5t34 -26.5q18 0 29.5 21.5t11.5 43.5
q0 2 -0.5 10.5t1.5 13.5t9 5q24 1 18 -42q-5 -34 -23 -57.5t-46 -23.5q-33 0 -55.5 33t-29.5 101q-14 131 19 243q14 47 33 75q8 12 21 20t25 8q11 0 22.5 -7.5t18.5 -19.5zM139 437q-4 6 -12 6q-7 0 -14.5 -6.5t-12.5 -15.5q-29 -50 -42 -153q14 1 50.5 1t55.5 2
q1 45 -4.5 98t-20.5 68z" />
    <glyph glyph-name="Ebreve" unicode="&#x114;" horiz-adv-x="227" 
d="M196 802q9 0 12.5 -9.5t-3.5 -27.5q-6 -17 -18 -30.5t-25 -19.5q-13 -5 -29 -5q-28 0 -47 15q-24 19 -32 52q-6 23 14 23q9 0 11.5 -9.5t3.5 -11.5q12 -41 50 -41q15 0 27.5 10t18.5 29q1 2 2.5 9.5t4.5 11.5t10 4zM181 682q24 2 33.5 -0.5t8.5 -14.5q-1 -5 -4.5 -9
t-22.5 -4q-99 0 -122 -3l1 -188q37 3 94 1q14 -2 18.5 -4t4.5 -10q1 -9 -12 -12.5t-52 -2.5q-20 1 -51 -1q2 -52 1 -157t-1 -106q0 -16 -1.5 -64.5t-0.5 -79.5q96 0 112 1t26.5 -1t11.5 -12q0 -5 -2 -10t-21 -5l-88 -1q-58 -4 -64 5q-4 7 -2 149v12.5t1 95.5t-1 149l-3 216
q0 3 -0.5 14.5t0 20t3.5 11.5q3 4 14 6t47 4h72z" />
    <glyph glyph-name="ebreve" unicode="&#x115;" horiz-adv-x="217" 
d="M179 672q6 0 11 -5t5 -36q-1 -45 -19.5 -73.5t-50.5 -28.5q-27 0 -43.5 21t-21.5 46.5t-5 44.5q0 34 19 30q3 -1 5 -4.5t2.5 -15t0.5 -14.5q1 -22 6.5 -42t16 -29t21.5 -9q20 0 31 24t11 61q0 19 2.5 24.5t8.5 5.5zM169 447q8 -15 16 -55t9 -101q0 -21 -1.5 -32.5
t-8.5 -14.5q-7 -4 -39 -4q-70 0 -90 -2q-3 -62 4.5 -112t21.5 -76.5t34 -26.5q18 0 29.5 21.5t11.5 43.5q0 2 -0.5 10.5t1.5 13.5t9 5q24 1 18 -42q-5 -34 -23 -57.5t-46 -23.5q-33 0 -55.5 33t-29.5 101q-14 131 19 243q14 47 33 75q8 12 21 20t25 8q11 0 22.5 -7.5
t18.5 -19.5zM139 437q-4 6 -12 6q-7 0 -14.5 -6.5t-12.5 -15.5q-29 -50 -42 -153q14 1 50.5 1t55.5 2q1 45 -4.5 98t-20.5 68z" />
    <glyph glyph-name="Edotaccent" unicode="&#x116;" horiz-adv-x="227" 
d="M119 764q5 7 12 7.5t12 -4.5t6.5 -13.5t-3.5 -15.5q-11 -11 -28 -2q-6 6 -5.5 15t6.5 13zM181 682q24 2 33.5 -0.5t8.5 -14.5q-1 -5 -4.5 -9t-22.5 -4q-99 0 -122 -3l1 -188q37 3 94 1q14 -2 18.5 -4t4.5 -10q1 -9 -12 -12.5t-52 -2.5q-20 1 -51 -1q2 -52 1 -157t-1 -106
q0 -16 -1.5 -64.5t-0.5 -79.5q96 0 112 1t26.5 -1t11.5 -12q0 -5 -2 -10t-21 -5l-88 -1q-58 -4 -64 5q-4 7 -2 149v12.5t1 95.5t-1 149l-3 216q0 3 -0.5 14.5t0 20t3.5 11.5q3 4 14 6t47 4h72z" />
    <glyph glyph-name="edotaccent" unicode="&#x117;" horiz-adv-x="217" 
d="M112 587q4 5 11 7t14 -4q12 -14 2 -30q-6 -5 -13.5 -5t-13.5 4q-6 6 -6 14.5t6 13.5zM169 447q8 -15 16 -55t9 -101q0 -21 -1.5 -32.5t-8.5 -14.5q-7 -4 -39 -4q-70 0 -90 -2q-3 -62 4.5 -112t21.5 -76.5t34 -26.5q18 0 29.5 21.5t11.5 43.5q0 2 -0.5 10.5t1.5 13.5t9 5
q24 1 18 -42q-5 -34 -23 -57.5t-46 -23.5q-33 0 -55.5 33t-29.5 101q-14 131 19 243q14 47 33 75q8 12 21 20t25 8q11 0 22.5 -7.5t18.5 -19.5zM139 437q-4 6 -12 6q-7 0 -14.5 -6.5t-12.5 -15.5q-29 -50 -42 -153q14 1 50.5 1t55.5 2q1 45 -4.5 98t-20.5 68z" />
    <glyph glyph-name="Eogonek" unicode="&#x118;" horiz-adv-x="227" 
d="M208 -120q14 2 17.5 -11.5t-4.5 -32.5q-7 -18 -22.5 -27t-30.5 -9q-19 0 -34 12.5t-18 34.5q-3 20 5.5 45t34.5 61q25 34 36 47l-78 -1q-58 -4 -64 5q-4 7 -2 149v12.5t1 95.5t-1 149l-3 216q0 3 -0.5 14.5t0 20t3.5 11.5q3 4 14 6t47 4h72q24 2 33.5 -0.5t8.5 -14.5
q-1 -5 -4.5 -9t-22.5 -4q-99 0 -122 -3l1 -188q37 3 94 1q14 -2 18.5 -4t4.5 -10q1 -9 -12 -12.5t-52 -2.5q-20 1 -51 -1q2 -52 1 -157t-1 -106q0 -16 -1.5 -64.5t-0.5 -79.5q96 0 112 1t26.5 -1t11.5 -12l-1 -9l-2 -4l-47 -68q-27 -38 -31 -66q-2 -19 6 -30.5t25 -9.5
q8 2 15 11t9 21q0 2 0.5 10.5t8.5 9.5z" />
    <glyph glyph-name="eogonek" unicode="&#x119;" horiz-adv-x="217" 
d="M145 240q-70 0 -90 -2q-3 -62 4.5 -112t21.5 -76.5t34 -26.5q18 0 29.5 21.5t11.5 43.5q0 2 -0.5 10.5t1.5 13.5t9 5q24 1 18 -42q-5 -30 -16 -49l-3 -5l-51 -75q-27 -42 -30 -66q-3 -17 4 -29t21 -11q10 0 18.5 8.5t10.5 23.5q1 3 1 11t8 9q14 1 17.5 -12t-4.5 -32
q-7 -18 -22.5 -27t-29.5 -9q-20 0 -35 12.5t-18 34.5q-3 20 6 46t36 63l20 26h-2q-33 0 -55.5 33t-29.5 101q-14 131 19 243q14 47 33 75q8 12 21 20t25 8q11 0 22.5 -7.5t18.5 -19.5q8 -15 16 -55t9 -101q0 -21 -1.5 -32.5t-8.5 -14.5q-7 -4 -39 -4zM100 421
q-29 -50 -42 -153q14 1 50.5 1t55.5 2q1 45 -4.5 98t-20.5 68q-4 6 -12 6q-7 0 -14.5 -6.5t-12.5 -15.5z" />
    <glyph glyph-name="Ecaron" unicode="&#x11a;" horiz-adv-x="227" 
d="M222 798q3 -2 5 -7t-8 -15q-17 -16 -53 -45q-25 -21 -33 -21q-10 0 -74 57q-13 12 -16 18.5t2 11.5q2 2 8 4.5t16 -6.5l32 -29q20 -18 33 -25q2 1 8.5 5.5t48.5 41.5q13 11 19.5 13t11.5 -3zM181 682q24 2 33.5 -0.5t8.5 -14.5q-1 -5 -4.5 -9t-22.5 -4q-99 0 -122 -3
l1 -188q37 3 94 1q14 -2 18.5 -4t4.5 -10q1 -9 -12 -12.5t-52 -2.5q-20 1 -51 -1q2 -52 1 -157t-1 -106q0 -16 -1.5 -64.5t-0.5 -79.5q96 0 112 1t26.5 -1t11.5 -12q0 -5 -2 -10t-21 -5l-88 -1q-58 -4 -64 5q-4 7 -2 149v12.5t1 95.5t-1 149l-3 216q0 3 -0.5 14.5t0 20
t3.5 11.5q3 4 14 6t47 4h72z" />
    <glyph glyph-name="ecaron" unicode="&#x11b;" horiz-adv-x="217" 
d="M199 673q13 -5 2 -28q-22 -43 -45 -83q-17 -30 -29 -30q-3 0 -7 2.5t-8 7t-8.5 11t-5.5 7.5q-7 10 -27.5 45t-25.5 43q-4 7 -5 14t4 11q4 3 9.5 3t14.5 -15l37 -61l23 -33q8 13 24.5 44t19.5 36q12 21 16.5 25t10.5 1zM169 447q8 -15 16 -55t9 -101q0 -21 -1.5 -32.5
t-8.5 -14.5q-7 -4 -39 -4q-70 0 -90 -2q-3 -62 4.5 -112t21.5 -76.5t34 -26.5q18 0 29.5 21.5t11.5 43.5q0 2 -0.5 10.5t1.5 13.5t9 5q24 1 18 -42q-5 -34 -23 -57.5t-46 -23.5q-33 0 -55.5 33t-29.5 101q-14 131 19 243q14 47 33 75q8 12 21 20t25 8q11 0 22.5 -7.5
t18.5 -19.5zM139 437q-4 6 -12 6q-7 0 -14.5 -6.5t-12.5 -15.5q-29 -50 -42 -153q14 1 50.5 1t55.5 2q1 45 -4.5 98t-20.5 68z" />
    <glyph glyph-name="Gcircumflex" unicode="&#x11c;" horiz-adv-x="275" 
d="M156 790q10 0 34 -21q37 -30 52 -44q3 -3 7.5 -9.5t-4.5 -14.5q-3 -3 -9 -2.5t-24 16.5q-34 30 -42 36t-12 8q-14 -8 -33 -24l-32 -29q-8 -7 -13 -8t-10 4q-2 3 -3.5 5.5t0 7t4.5 8t7 7t5 4.5q20 19 46 39q20 17 27 17zM225 600q9 -61 -14 -61q-18 1 -14 31q2 30 -5.5 56
t-23.5 32q-12 3 -23.5 -3.5t-25.5 -28.5q-15 -26 -28.5 -71t-21.5 -135q-5 -65 -5 -115q1 -107 13 -170.5t29 -90.5q10 -15 24.5 -19.5t26.5 1.5q23 11 35 63q6 22 11 55.5t6 148.5v22t-3 23q-4 1 -21.5 2t-26.5 0q-14 -1 -24.5 0.5t-11.5 10.5q0 6 2 11t17 6l51 -1
q2 0 12.5 0.5t15.5 -0.5t7 -2q4 -2 7 -8.5t3 -31v-32.5q0 -66 -4 -121.5t-17 -103.5q-21 -74 -75 -74q-47 0 -71 58q-30 72 -35 218q-2 91 7 180q8 60 18.5 105.5t35.5 89.5q10 17 27.5 29.5t37.5 12.5q50 0 64 -87z" />
    <glyph glyph-name="gcircumflex" unicode="&#x11d;" horiz-adv-x="229" 
d="M44 517q-15 5 -3 28l47 83q17 30 31 30q12 0 29 -28q8 -12 27.5 -47.5t20.5 -37.5q13 -21 2 -28q-5 -3 -10 -2t-15 16l-32 57l-24 36q-8 -13 -26.5 -46t-19.5 -35q-14 -24 -18.5 -26t-8.5 0zM105 101l-22 -42q-7 -15 -1 -24q4 -4 21 -15.5t20 -13.5q21 -15 40.5 -41
t28 -61t5.5 -69q-4 -46 -28.5 -72.5t-59.5 -26.5q-16 0 -37 10.5t-36 38.5t-15 64q0 24 8 53t25.5 54.5t34.5 38.5l-26 18q-13 10 -13.5 24t6 28.5t12.5 26.5l10 18q-22 15 -33.5 49t-14 81.5t4.5 99.5q7 56 25.5 88t36 40t33.5 6q27 -2 45 -39t23.5 -92.5t-2 -111.5
t-26.5 -92q-14 -24 -30.5 -32t-34.5 -6zM59 260q2 -98 32 -124q16 -13 30.5 -6t23.5 25.5t14 35.5q14 47 13.5 106t-13.5 102q-14 50 -41 45q-17 -2 -31 -25t-21.5 -70t-6.5 -89zM159 -201q21 45 6.5 98.5t-53.5 82.5q-20 -14 -41 -51t-22 -74q-1 -39 17 -64.5t44 -25.5
q34 0 49 34z" />
    <glyph glyph-name="Gbreve" unicode="&#x11e;" horiz-adv-x="275" 
d="M221 802q9 0 12.5 -9.5t-3.5 -27.5q-6 -17 -18 -30.5t-25 -19.5q-13 -5 -29 -5q-28 0 -47 15q-24 19 -32 52q-6 23 14 23q9 0 11.5 -9.5t3.5 -11.5q12 -41 50 -41q15 0 27.5 10t18.5 29q1 2 2.5 9.5t4.5 11.5t10 4zM225 600q9 -61 -14 -61q-18 1 -14 31q2 30 -5.5 56
t-23.5 32q-12 3 -23.5 -3.5t-25.5 -28.5q-15 -26 -28.5 -71t-21.5 -135q-5 -65 -5 -115q1 -107 13 -170.5t29 -90.5q10 -15 24.5 -19.5t26.5 1.5q23 11 35 63q6 22 11 55.5t6 148.5v22t-3 23q-4 1 -21.5 2t-26.5 0q-14 -1 -24.5 0.5t-11.5 10.5q0 6 2 11t17 6l51 -1
q2 0 12.5 0.5t15.5 -0.5t7 -2q4 -2 7 -8.5t3 -31v-32.5q0 -66 -4 -121.5t-17 -103.5q-21 -74 -75 -74q-47 0 -71 58q-30 72 -35 218q-2 91 7 180q8 60 18.5 105.5t35.5 89.5q10 17 27.5 29.5t37.5 12.5q50 0 64 -87z" />
    <glyph glyph-name="gbreve" unicode="&#x11f;" horiz-adv-x="229" 
d="M115 529q-27 0 -43.5 21t-21.5 46.5t-5 44.5q0 34 19 30q3 -1 5 -4.5t2.5 -15t0.5 -14.5q1 -22 6.5 -42t16 -29t21.5 -9q20 0 31 24t11 61q0 19 2.5 24.5t8.5 5.5t11 -5t5 -36q-1 -45 -19.5 -73.5t-50.5 -28.5zM123 6q21 -15 40.5 -41t28 -61t5.5 -69q-4 -46 -28.5 -72.5
t-59.5 -26.5q-16 0 -37 10.5t-36 38.5t-15 64q0 24 8 53t25.5 54.5t34.5 38.5l-26 18q-13 10 -13.5 24t6 28.5t12.5 26.5l10 18q-22 15 -33.5 49t-14 81.5t4.5 99.5q7 56 25.5 88t36 40t33.5 6q27 -2 45 -39t23.5 -92.5t-2 -111.5t-26.5 -92q-14 -24 -30.5 -32t-34.5 -6
l-22 -42q-7 -15 -1 -24q4 -4 21 -15.5t20 -13.5zM59 260q2 -98 32 -124q16 -13 30.5 -6t23.5 25.5t14 35.5q14 47 13.5 106t-13.5 102q-14 50 -41 45q-17 -2 -31 -25t-21.5 -70t-6.5 -89zM159 -201q21 45 6.5 98.5t-53.5 82.5q-20 -14 -41 -51t-22 -74q-1 -39 17 -64.5
t44 -25.5q34 0 49 34z" />
    <glyph glyph-name="Gdotaccent" unicode="&#x120;" horiz-adv-x="275" 
d="M146 759q5 7 12.5 7t11.5 -4q5 -6 6.5 -14t-3.5 -15q-5 -5 -13 -5.5t-14 3.5q-6 6 -6 15t6 13zM225 600q9 -61 -14 -61q-18 1 -14 31q2 30 -5.5 56t-23.5 32q-12 3 -23.5 -3.5t-25.5 -28.5q-15 -26 -28.5 -71t-21.5 -135q-5 -65 -5 -115q1 -107 13 -170.5t29 -90.5
q10 -15 24.5 -19.5t26.5 1.5q23 11 35 63q6 22 11 55.5t6 148.5v22t-3 23q-4 1 -21.5 2t-26.5 0q-14 -1 -24.5 0.5t-11.5 10.5q0 6 2 11t17 6l51 -1q2 0 12.5 0.5t15.5 -0.5t7 -2q4 -2 7 -8.5t3 -31v-32.5q0 -66 -4 -121.5t-17 -103.5q-21 -74 -75 -74q-47 0 -71 58
q-30 72 -35 218q-2 91 7 180q8 60 18.5 105.5t35.5 89.5q10 17 27.5 29.5t37.5 12.5q50 0 64 -87z" />
    <glyph glyph-name="gdotaccent" unicode="&#x121;" horiz-adv-x="229" 
d="M126 560q-6 -5 -13.5 -5t-13.5 4q-6 6 -6 14.5t6 13.5q4 5 11 7t14 -4q12 -14 2 -30zM123 6q21 -15 40.5 -41t28 -61t5.5 -69q-3 -28 -16 -53t-33 -35.5t-40 -10.5q-16 0 -36.5 10.5t-36 38.5t-15.5 64q0 24 8.5 53t26 54.5t33.5 38.5l-25 18q-13 10 -13.5 24t6 28.5
t12.5 26.5l9 17q-33 24 -43 92t0 139q4 33 15.5 66t32.5 52t48 16q7 0 13 -3q9 3 18 12t10 19q1 3 1.5 12.5t5 12t13.5 -0.5q6 -2 8 -10t0 -18q-1 -6 -7.5 -20.5t-25.5 -26.5q16 -22 27 -70.5t6 -122t-29 -119.5q-15 -24 -31.5 -32.5t-34.5 -6.5l-21 -41q-7 -15 -1 -24
q1 -1 5 -4t19.5 -13.5t16.5 -11.5zM59 260q2 -98 32 -124q15 -13 29.5 -6t24 25.5t14.5 35.5q14 47 13 105.5t-13 102.5q-14 50 -41 45q-32 -5 -46 -63t-13 -121zM159 -201q10 21 11.5 54t-15 69.5t-44.5 57.5q-13 -9 -29.5 -32.5t-24.5 -48.5t-8 -44q0 -18 5.5 -39.5
t20.5 -36t34 -14.5q33 0 50 34z" />
    <glyph glyph-name="Gcommaaccent" unicode="&#x122;" horiz-adv-x="275" 
d="M225 600q9 -61 -14 -61q-18 1 -14 31q2 30 -5.5 56t-23.5 32q-12 3 -23.5 -3.5t-25.5 -28.5q-15 -26 -28.5 -71t-21.5 -135q-5 -65 -5 -115q1 -107 13 -170.5t29 -90.5q10 -15 24.5 -19.5t26.5 1.5q23 11 35 63q6 22 11 55.5t6 148.5v22t-3 23q-4 1 -21.5 2t-26.5 0
q-14 -1 -24.5 0.5t-11.5 10.5q0 6 2 11t17 6l51 -1q2 0 12.5 0.5t15.5 -0.5t7 -2q4 -2 7 -8.5t3 -31v-32.5q0 -66 -4 -121.5t-17 -103.5q-21 -74 -75 -74q-47 0 -71 58q-30 72 -35 218q-2 91 7 180q8 60 18.5 105.5t35.5 89.5q10 17 27.5 29.5t37.5 12.5q50 0 64 -87z
M134 -35q4 1 10.5 -1t8.5 -5q5 -8 -1 -32l-20 -81q-7 -27 -18 -24q-5 1 -8.5 5.5t0.5 33.5q0 3 2 14t8 39t7 33q2 15 11 18z" />
    <glyph glyph-name="gcommaaccent" unicode="&#x123;" horiz-adv-x="229" 
d="M135 530q-4 -1 -10.5 1t-8.5 5q-1 2 -2 7t4 25l19 81q7 27 18 24q5 -1 8.5 -5.5t-0.5 -33.5l-16 -86q-4 -15 -12 -18zM123 6q21 -15 40.5 -41t28 -61t5.5 -69q-4 -46 -28.5 -72.5t-59.5 -26.5q-16 0 -37 10.5t-36 38.5t-15 64q0 24 8 53t25.5 54.5t34.5 38.5l-26 18
q-13 10 -13.5 24t6 28.5t12.5 26.5l10 18q-22 15 -33.5 49t-14 81.5t4.5 99.5q7 56 25.5 88t36 40t33.5 6q27 -2 45 -39t23.5 -92.5t-2 -111.5t-26.5 -92q-14 -24 -30.5 -32t-34.5 -6l-22 -42q-7 -15 -1 -24q4 -4 21 -15.5t20 -13.5zM59 260q2 -98 32 -124q16 -13 30.5 -6
t23.5 25.5t14 35.5q14 47 13.5 106t-13.5 102q-14 50 -41 45q-17 -2 -31 -25t-21.5 -70t-6.5 -89zM159 -201q21 45 6.5 98.5t-53.5 82.5q-20 -14 -41 -51t-22 -74q-1 -39 17 -64.5t44 -25.5q34 0 49 34z" />
    <glyph glyph-name="Hcircumflex" unicode="&#x124;" horiz-adv-x="290" 
d="M83 715q-8 -7 -13.5 -8.5t-10.5 3.5q-2 3 -3.5 6t0 7t5 7.5l7.5 7.5l5 5q20 19 46 39q21 17 27 17q10 0 34 -21l52 -44q3 -3 7.5 -9.5t-5.5 -14.5q-4 -4 -11 -1.5t-22 15.5q-45 39 -54 44q-13 -8 -32 -24zM231 684q8 0 10.5 -8t3 -18t0 -27t-0.5 -21l-2 -268l1 -316
q3 -27 -13 -27q-8 0 -11 5t-4 12t-1 20.5v17.5l-2 191v124q-16 1 -134 4v-90l-2 -240q-1 -32 -4 -38.5t-11 -6.5q-5 0 -10 4t-5 32l2 248l1 147l-1 205q0 3 0.5 17.5t2.5 23t9 9.5q6 0 11.5 -3.5t5.5 -36.5l1 -106v-137q23 -2 73.5 -2h60.5l2 232q0 32 2 41t7 10.5t8 1.5z
" />
    <glyph glyph-name="hcircumflex" unicode="&#x125;" horiz-adv-x="256" 
d="M67 810q6 0 33 -21l52 -45q3 -3 8 -9t-5 -14t-33 13q-38 33 -43.5 37.5t-10.5 7.5q-2 -1 -7.5 -4.5t-15 -11t-10.5 -8.5l-32 -30q-8 -6 -13 -7.5t-10 3.5q-4 4 -4 10t17 23l46 39q14 10 19 13.5t9 3.5zM68 740q5 0 9 -3.5t4 -21.5l-1 -71l-3 -167v-7t-1.5 -68t-3.5 -87
q24 89 47 124.5t47 35.5q20 0 33 -18t13 -75q2 -91 1 -126q-1 -105 2 -231q0 -14 -2 -20t-9 -7q-6 -1 -11.5 4.5t-7.5 38.5l-1 197v113q0 69 -6.5 80t-14.5 10q-6 -1 -16.5 -12t-22.5 -36.5t-20 -51.5q-27 -84 -28 -116q-1 -19 -1 -85v-88q-1 -38 -5 -46.5t-14 -7.5
q-6 1 -9 7.5t-2 26.5v191l4 337q0 17 1.5 72t0.5 78q0 25 5.5 28t11.5 2z" />
    <glyph glyph-name="Hbar" unicode="&#x126;" horiz-adv-x="309" 
d="M253 546h23q7 0 18.5 -1t10.5 -14q-1 -8 -8.5 -10.5t-39.5 -2.5h-4l-1 -176l1 -316q3 -27 -13 -27q-8 0 -11 5t-4 12t-1 20.5v17.5l-2 191v124q-16 1 -134 4v-90l-2 -240q-1 -32 -4 -38.5t-11 -6.5q-5 0 -10 4t-5 32l2 248l1 147v90l-32 -1q-12 0 -17 2.5t-5 11.5
q0 5 6 10t42 5h5v87q0 3 0.5 17.5t2.5 23t9 9.5q6 0 11.5 -3.5t5.5 -36.5l1 -97l135 -1l1 85q0 32 2 41t7 10.5t8 1.5q8 0 10.5 -8t3 -18t0 -27t-0.5 -21zM222 399l1 118l-94 2h-41v-118q23 -2 73.5 -2h60.5z" />
    <glyph glyph-name="hbar" unicode="&#x127;" horiz-adv-x="258" 
d="M213 256q-1 -105 2 -231q0 -14 -2 -20t-9 -7q-6 -1 -11.5 4.5t-7.5 38.5l-1 197v113q0 69 -6.5 80t-14.5 10q-6 -1 -16.5 -12t-22.5 -36.5t-20 -51.5q-27 -84 -28 -116q-1 -19 -1 -85v-88q-1 -38 -5 -46.5t-14 -7.5q-6 1 -9 7.5t-2 26.5v191l4 337v23q-29 0 -40.5 2.5
t-11.5 13.5q0 5 3.5 9.5t24.5 4.5h25q2 69 1 97q0 25 5.5 28t11.5 2q5 0 9 -3.5t4 -21.5l-1 -71v-31l78 1q16 0 22 -2t7 -10q0 -6 -2.5 -11.5t-22.5 -5.5l-83 -1l-2 -107v-7t-1.5 -68t-3.5 -87q24 89 47 124.5t47 35.5q20 0 33 -18t13 -75q2 -91 1 -126z" />
    <glyph glyph-name="Itilde" unicode="&#x128;" 
d="M33 799q10 0 19.5 -9t25.5 -32t23 -22q6 1 11.5 14.5t6.5 43.5q1 3 5 6t8 3q5 0 8.5 -3.5t3.5 -10.5q0 -42 -12.5 -61.5t-30.5 -19.5q-9 0 -19.5 9t-26 32t-21.5 23q-14 0 -18 -50q-1 -5 -5 -8.5t-8 -3.5q-5 0 -9.5 3.5t-3.5 9.5q3 39 14.5 57.5t28.5 18.5zM65 682
q7 0 11 -3.5t3.5 -15t-0.5 -13.5v-133l-1 -359l-1 -124q0 -18 -1.5 -26.5t-10.5 -9.5q-7 0 -12 3.5t-5 26.5q0 2 0.5 13t1.5 119t0 205l1 125v162q0 12 2.5 21t11.5 9z" />
    <glyph glyph-name="itilde" unicode="&#x129;" horiz-adv-x="123" 
d="M27 653q18 0 37 -39t23.5 -45.5t8.5 -6.5q6 1 11.5 21.5t6.5 59.5q0 5 4 9t9 4t9 -4.5t3 -11.5q0 -53 -11.5 -80t-31.5 -27q-18 -1 -38 40t-23.5 46t-6.5 5q-14 0 -19 -75q0 -6 -5 -9.5t-10 -3.5q-11 0 -10 13q4 55 14 79.5t29 24.5zM58 468q7 1 11.5 -3.5t6.5 -22.5
l-1 -110l2 -317q0 -9 -2.5 -14t-13.5 -3q-5 1 -9.5 7.5t-4.5 40.5v279v109q-2 21 0.5 27t10.5 7z" />
    <glyph glyph-name="Imacron" unicode="&#x12a;" 
d="M34 755h88q6 0 16 -1t10 -16q-1 -8 -8 -10t-39 -2h-90q-26 0 -26 15q0 2 2.5 7t11.5 6t35 1zM65 682q7 0 11 -3.5t3.5 -15t-0.5 -13.5v-133l-1 -359l-1 -124q0 -18 -1.5 -26.5t-10.5 -9.5q-7 0 -12 3.5t-5 26.5q0 2 0.5 13t1.5 119t0 205l1 125v162q0 12 2.5 21t11.5 9z
" />
    <glyph glyph-name="imacron" unicode="&#x12b;" horiz-adv-x="123" 
d="M28 575l88 -1q6 0 16 -1t10 -15q0 -4 -3 -7t-10.5 -4t-18.5 -1h-14h-91q-12 0 -19 2.5t-7 11.5q0 6 6 10.5t43 4.5zM58 468q7 1 11.5 -3.5t6.5 -22.5l-1 -110l2 -317q0 -9 -2.5 -14t-13.5 -3q-5 1 -9.5 7.5t-4.5 40.5v279v109q-2 21 0.5 27t10.5 7z" />
    <glyph glyph-name="Ibreve" unicode="&#x12c;" 
d="M129 800q9 0 12.5 -9.5t-3.5 -27.5q-6 -17 -18 -30.5t-25 -19.5q-13 -5 -29 -5q-28 0 -47 15q-24 19 -32 52q-6 23 14 23q9 0 11.5 -9.5t3.5 -11.5q12 -41 50 -41q15 0 27.5 10t18.5 29q1 2 2.5 9.5t4.5 11.5t10 4zM65 682q7 0 11 -3.5t3.5 -15t-0.5 -13.5v-133l-1 -359
l-1 -124q0 -18 -1.5 -26.5t-10.5 -9.5q-7 0 -12 3.5t-5 26.5q0 2 0.5 13t1.5 119t0 205l1 125v162q0 12 2.5 21t11.5 9z" />
    <glyph glyph-name="ibreve" unicode="&#x12d;" horiz-adv-x="123" 
d="M112 672q6 0 11 -5t5 -36q-1 -45 -19.5 -73.5t-50.5 -28.5q-27 0 -43.5 21t-21.5 46.5t-5 44.5q-1 17 4.5 24.5t14.5 5.5q3 -1 5 -4.5t2.5 -15t0.5 -14.5q1 -22 6.5 -42t16 -29t21.5 -9q20 0 31 24t11 61q0 19 2.5 24.5t8.5 5.5zM58 468q7 1 11.5 -3.5t6.5 -22.5l-1 -110
l2 -317q0 -9 -2.5 -14t-13.5 -3q-5 1 -9.5 7.5t-4.5 40.5v279v109q-2 21 0.5 27t10.5 7z" />
    <glyph glyph-name="Iogonek" unicode="&#x12e;" 
d="M62 -119q13 1 17 -12t-4 -32q-8 -18 -23 -27t-30 -9q-19 0 -34 12.5t-18 34.5q-2 13 3 36t37 70q2 3 11.5 17t17 25.5t9.5 18.5v13q0 2 0.5 13t1.5 119t0 205l1 125v162q0 12 2.5 21t11.5 9q7 0 11 -3.5t3.5 -15t-0.5 -13.5v-133l-1 -359l-1 -124q0 -21 -2 -27l-1 -4
q-2 -4 -23 -35t-22 -33q-27 -38 -31 -66q-3 -17 4.5 -29t21.5 -11q10 0 18 8.5t11 23.5q0 2 0.5 10.5t8.5 9.5z" />
    <glyph glyph-name="iogonek" unicode="&#x12f;" horiz-adv-x="123" 
d="M72 560q-6 -5 -13.5 -5t-13.5 4q-6 6 -6 14.5t6 13.5q4 5 11 7t14 -4q12 -14 2 -30zM63 -115q14 1 17.5 -12t-4.5 -32q-7 -18 -22.5 -27t-30.5 -9q-19 0 -34 12.5t-18 34.5q-2 13 3 36t37 72l38 53q-2 9 -2 33v279v109q-2 21 0.5 27t10.5 7q7 1 11.5 -3.5t6.5 -22.5
l-1 -110l2 -317l-1 -11q0 -1 -2 -5t-17.5 -24t-26.5 -36q-26 -38 -31 -66q-2 -19 6 -30.5t25 -9.5q8 2 15 11t9 21q0 2 0.5 10.5t8.5 9.5z" />
    <glyph glyph-name="Idotaccent" unicode="&#x130;" 
d="M51 754q5 7 12.5 7.5t12.5 -4.5t6 -13.5t-4 -15.5q-5 -5 -13 -5.5t-14 3.5q-6 6 -6 15t6 13zM65 682q7 0 11 -3.5t3.5 -15t-0.5 -13.5v-133l-1 -359l-1 -124q0 -18 -1.5 -26.5t-10.5 -9.5q-7 0 -12 3.5t-5 26.5q0 2 0.5 13t1.5 119t0 205l1 125v162q0 12 2.5 21t11.5 9z
" />
    <glyph glyph-name="dotlessi" unicode="&#x131;" horiz-adv-x="123" 
d="M58 468q7 1 11.5 -3.5t6.5 -22.5l-1 -110l2 -317q0 -9 -2.5 -14t-13.5 -3q-5 1 -9.5 7.5t-4.5 40.5v279v109q-2 21 0.5 27t10.5 7z" />
    <glyph glyph-name="Jcircumflex" unicode="&#x134;" horiz-adv-x="194" 
d="M85 785q2 0 7 -2t15.5 -10t11.5 -9l51 -45q8 -7 9 -12t-6 -11q-10 -8 -33 13q-38 33 -43.5 37.5t-10.5 7.5q-8 -4 -19 -13t-14 -11l-32 -30q-14 -13 -23 -4q-4 4 -4 10.5t18 22.5q26 24 45 39q23 17 28 17zM90 682q35 0 42.5 -1.5t10.5 -6.5q3 -4 3 -44v-519
q-2 -76 -20.5 -97t-47.5 -21q-24 0 -38 10q-21 13 -27.5 44t3.5 61q3 11 8 17.5t14 3.5q5 -1 9 -4.5t-2 -19.5q-6 -17 -5.5 -37t8.5 -31t18 -14q9 -3 20 0t16 9q6 7 11 24.5t5 83.5v131q-1 60 -0.5 188t-1.5 193h-62q-14 0 -21 1.5t-8 11.5q-2 15 14 17h51z" />
    <glyph glyph-name="jcircumflex" unicode="&#x135;" horiz-adv-x="118" 
d="M60 658q12 0 29 -28q8 -12 27.5 -47.5t20.5 -37.5q13 -21 2 -28q-5 -3 -10 -2t-15 16l-32 57l-24 36q-8 -13 -26.5 -46t-19.5 -35q-14 -24 -18.5 -26t-8.5 0q-15 5 -3 28l47 83q17 30 31 30zM60 468q3 0 8 -1.5t6 -17.5v-65v-269l-1 -245q0 -62 -15.5 -95t-49.5 -38
q-34 -4 -56 17t-24 58q-1 17 6 40t20 43q5 7 10.5 11t13.5 -2q4 -3 5.5 -8t-7.5 -18q-22 -42 -18 -74q3 -19 13.5 -29.5t25.5 -10.5q20 0 33 20t14 77l2 264l-1 298q0 33 3 39.5t12 5.5z" />
    <glyph glyph-name="Kcommaaccent" unicode="&#x136;" horiz-adv-x="257" 
d="M78 642v-111q-2 -115 -4 -138l47 85l98 191q6 13 15 13q10 0 13 -5.5t-6 -27.5q-2 -5 -8.5 -19t-42.5 -80.5t-49 -91.5q-21 -38 -60 -101l68 -134l65 -128q12 -27 35 -67q8 -15 7 -22t-16 -7q-5 0 -9.5 2.5t-7.5 10t-4 9.5l-89 177q-31 59 -55 114v-235v-45
q1 -18 -2 -25.5t-17 -7.5q-10 0 -10 25q1 29 1 165l2 194v111l-1 148q0 26 1 30.5t4 6.5t7 2.5t5 0.5q5 0 9 -4t4 -36zM141 -20q4 1 10.5 -1t8.5 -5q5 -8 -1 -32l-20 -81q-7 -27 -18 -24q-5 1 -8.5 5.5t0.5 33.5q0 3 2 14t8 39t7 33q2 15 11 18z" />
    <glyph glyph-name="kcommaaccent" unicode="&#x137;" horiz-adv-x="216" 
d="M53 739q5 2 9.5 1.5t7.5 -4.5t3.5 -11.5t0 -17.5t-0.5 -13l1 -248l-1 -141l42 62q47 65 59 88q4 6 10.5 10t11.5 4t9 -2.5t4 -5.5q0 -4 -17 -32l-11 -16.5t-33 -47t-30 -41.5l-38 -54l33 -67q5 -10 16.5 -32.5t38.5 -72t41 -77.5q5 -9 4.5 -15t-11.5 -7q-6 -1 -11.5 2
t-15.5 24l-25 46l-43 82l-36 79q5 -105 3 -210q0 -11 -2.5 -17t-10.5 -6q-20 -1 -15 52q0 54 -0.5 156.5t0.5 147.5l-1 321q-2 40 -0.5 48t4 11t4.5 4zM114 -35q4 1 10.5 -1t8.5 -5q5 -8 -1 -32l-20 -81q-7 -27 -18 -24q-5 1 -8.5 5.5t0.5 33.5q0 3 2 14t8 39t7 33
q2 15 11 18z" />
    <glyph glyph-name="kgreenlandic" unicode="&#x138;" horiz-adv-x="213" 
d="M50 467q8 4 16 0.5t8 -42.5q0 -9 -1 -64t-2 -76l42 68l61 101q8 13 20 13t12 -10q0 -1 -0.5 -4.5t-12.5 -23.5q-1 -1 -3.5 -5.5t-40.5 -66t-68 -106.5l85 -160l37 -71q9 -21 -7 -22q-6 0 -12 2.5t-15 19.5l-40 81q-6 13 -27.5 53.5t-28.5 58.5q4 -124 4 -191
q0 -11 -2.5 -17t-11.5 -6q-5 0 -10 7t-5 42l-2 183l-2 171v31.5t6 33.5z" />
    <glyph glyph-name="Lacute" unicode="&#x139;" horiz-adv-x="206" 
d="M125 809q12 -2 14 -15q1 -7 -15 -21l-57 -46q-19 -15 -25.5 -17.5t-9.5 0.5q-4 3 -5 9t12 18q43 38 53 48q2 2 14 13.5t19 10.5zM62 682q6 0 11 -7.5t5 -57.5v-182q-1 -44 -0.5 -123.5t0.5 -117.5q-2 -95 1 -165q30 -4 65 -2q2 0 20 1t28 -0.5t12 -8.5q1 -7 -1.5 -13
t-29.5 -6l-76 -1q-2 0 -11 -0.5t-16.5 0t-11.5 2.5q-9 5 -9 43q-1 54 -0.5 153.5t0.5 142.5l1 250q0 11 -0.5 21t-2 35.5t1.5 30t7 5t6 0.5z" />
    <glyph glyph-name="lacute" unicode="&#x13a;" 
d="M123 866q12 -2 14 -15q1 -7 -15 -21l-57 -46q-19 -15 -25.5 -17.5t-9.5 0.5q-4 3 -5 9t12 18q43 38 53 48q2 2 14 13.5t19 10.5zM75 684q-3 -160 -1 -612q0 -21 1.5 -33t9.5 -15q7 -2 18 5.5t17 -0.5q9 -11 -2.5 -23t-30.5 -12q-23 0 -32 16t-9.5 35.5t-0.5 38.5v255
l2 371q0 14 2 22t12 8q8 0 11 -5.5t3.5 -13t0 -20.5t-0.5 -17z" />
    <glyph glyph-name="Lcommaaccent" unicode="&#x13b;" horiz-adv-x="206" 
d="M62 682q6 0 11 -7.5t5 -57.5v-182q-1 -44 -0.5 -123.5t0.5 -117.5q-2 -95 1 -165q30 -4 65 -2q2 0 20 1t28 -0.5t12 -8.5q1 -7 -1.5 -13t-29.5 -6l-76 -1q-2 0 -11 -0.5t-16.5 0t-11.5 2.5q-9 5 -9 43q-1 54 -0.5 153.5t0.5 142.5l1 250q0 11 -0.5 21t-2 35.5t1.5 30t7 5
t6 0.5zM114 -35q4 1 10.5 -1t8.5 -5q5 -8 -1 -32l-20 -81q-7 -27 -18 -24q-5 1 -8.5 5.5t0.5 33.5q0 3 2 14t8 39t7 33q2 15 11 18z" />
    <glyph glyph-name="lcommaaccent" unicode="&#x13c;" 
d="M75 684q-3 -160 -1 -612q0 -21 1.5 -33t9.5 -15q7 -2 18 5.5t17 -0.5q9 -11 -2.5 -23t-30.5 -12q-23 0 -32 16t-9.5 35.5t-0.5 38.5v255l2 371q0 14 2 22t12 8q8 0 11 -5.5t3.5 -13t0 -20.5t-0.5 -17zM70 -35q4 1 10.5 -1t8.5 -5q5 -8 -1 -32l-20 -81q-7 -27 -18 -24
q-5 1 -8.5 5.5t0.5 33.5q0 3 2 14t8 39t7 33q2 15 11 18z" />
    <glyph glyph-name="Lcaron" unicode="&#x13d;" horiz-adv-x="206" 
d="M148 699q5 2 12 0.5t9 -4.5q1 -3 2 -8.5t-4 -25.5l-17 -74q-2 -9 -6.5 -15t-10.5 -5q-5 0 -9 6.5t3 34.5l7 47l3 27q2 14 11 17zM62 682q6 0 11 -7.5t5 -57.5v-182q-1 -44 -0.5 -123.5t0.5 -117.5q-2 -95 1 -165q30 -4 65 -2q2 0 20 1t28 -0.5t12 -8.5q1 -7 -1.5 -13
t-29.5 -6l-76 -1q-2 0 -11 -0.5t-16.5 0t-11.5 2.5q-9 5 -9 43q-1 54 -0.5 153.5t0.5 142.5l1 250q0 11 -0.5 21t-2 35.5t1.5 30t7 5t6 0.5z" />
    <glyph glyph-name="lcaron" unicode="&#x13e;" 
d="M75 684q-3 -160 -1 -612q0 -21 1.5 -33t9.5 -15q7 -2 18 5.5t17 -0.5q9 -11 -2.5 -23t-30.5 -12q-23 0 -32 16t-9.5 35.5t-0.5 38.5v255l2 371q0 14 2 22t12 8q8 0 11 -5.5t3.5 -13t0 -20.5t-0.5 -17zM137 735q5 2 12 0.5t9 -4.5q1 -3 2 -8.5t-4 -25.5l-17 -74
q-2 -9 -6.5 -15t-10.5 -5q-5 0 -9 6.5t3 34.5l7 47l3 27q2 14 11 17z" />
    <glyph glyph-name="Ldot" unicode="&#x13f;" horiz-adv-x="222" 
d="M62 682q6 0 11 -7.5t5 -57.5v-182q-1 -44 -0.5 -123.5t0.5 -117.5q-2 -95 1 -165q30 -4 65 -2q2 0 20 1t28 -0.5t12 -8.5q1 -7 -1.5 -13t-29.5 -6l-76 -1q-2 0 -11 -0.5t-16.5 0t-11.5 2.5q-9 5 -9 43q-1 54 -0.5 153.5t0.5 142.5l1 250q0 11 -0.5 21t-2 35.5t1.5 30t7 5
t6 0.5zM160 410q14 0 21 -9t7 -19q0 -11 -8.5 -21t-20.5 -10q-13 0 -21 8.5t-8 22.5q0 10 9 19t21 9z" />
    <glyph glyph-name="ldot" unicode="&#x140;" horiz-adv-x="159" 
d="M77 684q-3 -160 -1 -612q0 -21 1.5 -33t9.5 -15q7 -2 16.5 4.5t12.5 4.5t5 -4q10 -11 -2 -23t-30 -12q-23 0 -32 16t-9.5 35.5t-0.5 38.5v255l2 371q-1 13 1 21.5t13 8.5q8 0 11 -5.5t3.5 -13t0 -20.5t-0.5 -17zM136 409q14 0 21 -9t7 -20q0 -12 -7 -21t-24 -9
q-13 0 -18.5 10t-5.5 20q0 11 9.5 20t17.5 9z" />
    <glyph glyph-name="Lslash" unicode="&#x141;" horiz-adv-x="218" 
d="M216 19q1 -7 -2 -13t-30 -6l-75 -1q-33 -2 -39 2q-9 5 -9 43q-1 51 -0.5 147t0.5 137l-21 -10q-14 -7 -21.5 -8t-10.5 10q-1 4 2.5 9.5t16.5 12t14 7.5l20 12l1 229q0 11 -0.5 21t-2 35.5t1.5 30t7 5t6 0.5q6 0 11 -7.5t5 -57.5v-182l-1 -57l37 21q14 8 25.5 11t16.5 -8
q1 -4 -1 -8t-22 -16l-44 -26l-12 -8l1 -150q-2 -95 1 -165q30 -4 65 -2q2 0 20 1t28 -0.5t12 -8.5z" />
    <glyph glyph-name="lslash" unicode="&#x142;" horiz-adv-x="159" 
d="M160 413q1 -4 -6 -11.5t-55 -35.5l-13 -7v-287q0 -20 2 -32.5t10 -15.5q7 -2 16.5 4.5t12.5 4.5t5 -4q10 -11 -2 -23t-30 -12q-23 0 -32.5 16t-10 35.5t-0.5 38.5v255v4l-11 -6q-16 -8 -23.5 -8.5t-9.5 10.5q-1 4 3.5 10t29.5 20l11 6q3 282 2 335q0 14 2 22t12 8
q1 0 4.5 -0.5t8 -5.5t1.5 -50l-1 -293l33 19q22 12 29.5 13.5t11.5 -10.5z" />
    <glyph glyph-name="Nacute" unicode="&#x143;" horiz-adv-x="317" 
d="M223 797q12 -2 14 -15q1 -7 -15 -21l-57 -46q-19 -15 -25.5 -17.5t-9.5 0.5q-4 3 -5 9t12 18q43 38 53 48q2 2 14 13.5t19 10.5zM255 682q3 0 8 -2.5t4 -19.5t-1 -21q2 -48 1 -122t-1 -88q3 -145 1 -353l1 -44q2 -34 -13 -36q-6 -1 -12 2.5t-13 26.5q-42 139 -61 210
q-26 100 -45 181q-33 135 -50 196q0 -38 1.5 -87t1.5 -61v-272l1 -163q1 -19 -2.5 -26t-10.5 -6q-5 0 -10 5t-5 28l-1 286v160v148q0 37 2 47t8 11q11 2 18 -2.5t13 -23.5q22 -72 32 -115q0 -2 1.5 -6.5t31.5 -127.5t47 -184l39 -150l-3 300v155q0 9 -0.5 54t0.5 69
q0 13 3 22t14 9z" />
    <glyph glyph-name="nacute" unicode="&#x144;" horiz-adv-x="259" 
d="M194 679q4 -3 6 -8t-10 -22l-66 -96q-8 -9 -13.5 -12t-11.5 1q-3 2 -4 8t15 31l41 64l19 27q11 18 24 7zM183 475q29 0 34 -43q2 -19 1.5 -189.5t-0.5 -195.5v-15t-1.5 -23t-16.5 -10q-6 1 -10 6t-1 45v301v50q0 16 -3 28t-13 11q-8 -1 -25 -20.5t-39 -63.5t-32 -82
q-5 -21 -5 -246q0 -14 -3 -22t-15 -7q-4 0 -7 3t-4 8.5t-1.5 12t-0.5 12.5t0.5 15t0.5 11l1 159v224q0 24 14 24q6 0 11 -3.5t5 -25.5q0 -43 -4 -117q19 63 52.5 108t61.5 45z" />
    <glyph glyph-name="Ncommaaccent" unicode="&#x145;" horiz-adv-x="317" 
d="M255 682q3 0 8 -2.5t4 -19.5t-1 -21q2 -48 1 -122t-1 -88q3 -145 1 -353l1 -44q2 -34 -13 -36q-6 -1 -12 2.5t-13 26.5q-42 139 -61 210q-26 100 -45 181q-33 135 -50 196q0 -38 1.5 -87t1.5 -61v-272l1 -163q1 -19 -2.5 -26t-10.5 -6q-5 0 -10 5t-5 28l-1 286v160v148
q0 37 2 47t8 11q11 2 18 -2.5t13 -23.5q22 -72 32 -115q0 -2 1.5 -6.5t31.5 -127.5t47 -184l39 -150l-3 300v155q0 9 -0.5 54t0.5 69q0 13 3 22t14 9zM150 -23q4 1 10.5 -1t8.5 -5q5 -8 -1 -32l-20 -81q-7 -27 -18 -24q-5 1 -8.5 5.5t0.5 33.5q0 3 2 14t8 39t7 33
q2 15 11 18z" />
    <glyph glyph-name="ncommaaccent" unicode="&#x146;" horiz-adv-x="259" 
d="M183 475q29 0 34 -43q2 -19 1.5 -189.5t-0.5 -195.5v-15t-1.5 -23t-16.5 -10q-6 1 -10 6t-1 45v301v50q0 16 -3 28t-13 11q-8 -1 -25 -20.5t-39 -63.5t-32 -82q-5 -21 -5 -246q0 -14 -3 -22t-15 -7q-4 0 -7 3t-4 8.5t-1.5 12t-0.5 12.5t0.5 15t0.5 11l1 159v224
q0 24 14 24q6 0 11 -3.5t5 -25.5q0 -43 -4 -117q19 63 52.5 108t61.5 45zM123 -35q4 1 10.5 -1t8.5 -5q5 -8 -1 -32l-20 -81q-7 -27 -18 -24q-5 1 -8.5 5.5t0.5 33.5q0 3 2 14t8 39t7 33q2 15 11 18z" />
    <glyph glyph-name="Ncaron" unicode="&#x147;" horiz-adv-x="317" 
d="M249 773q3 -2 5 -7t-8 -15l-53 -44q-24 -21 -33 -21t-74 56q-14 14 -16.5 19.5t2.5 10.5q11 11 24 -1l32 -30q29 -22 33 -24q2 1 9.5 6t25.5 21t22 19q13 11 19.5 13t11.5 -3zM255 682q3 0 8 -2.5t4 -19.5t-1 -21q2 -48 1 -122t-1 -88q3 -145 1 -353l1 -44q2 -34 -13 -36
q-6 -1 -12 2.5t-13 26.5q-42 139 -61 210q-26 100 -45 181q-33 135 -50 196q0 -38 1.5 -87t1.5 -61v-272l1 -163q1 -19 -2.5 -26t-10.5 -6q-5 0 -10 5t-5 28l-1 286v160v148q0 37 2 47t8 11q11 2 18 -2.5t13 -23.5q22 -72 32 -115q0 -2 1.5 -6.5t31.5 -127.5t47 -184
l39 -150l-3 300v155q0 9 -0.5 54t0.5 69q0 13 3 22t14 9z" />
    <glyph glyph-name="ncaron" unicode="&#x148;" horiz-adv-x="259" 
d="M197 673q13 -5 2 -28q-22 -43 -45 -83q-17 -30 -29 -30q-3 0 -7 2.5t-8 7t-8.5 11t-5.5 7.5q-7 10 -27.5 45t-25.5 43q-4 7 -5 14t4 11q4 3 9.5 3t14.5 -15l37 -61l23 -33q8 13 24.5 44t19.5 36q12 21 16.5 25t10.5 1zM183 475q29 0 34 -43q2 -19 1.5 -189.5t-0.5 -195.5
v-15t-1.5 -23t-16.5 -10q-6 1 -10 6t-1 45v301v50q0 16 -3 28t-13 11q-8 -1 -25 -20.5t-39 -63.5t-32 -82q-5 -21 -5 -246q0 -14 -3 -22t-15 -7q-4 0 -7 3t-4 8.5t-1.5 12t-0.5 12.5t0.5 15t0.5 11l1 159v224q0 24 14 24q6 0 11 -3.5t5 -25.5q0 -43 -4 -117q19 63 52.5 108
t61.5 45z" />
    <glyph glyph-name="Eng" unicode="&#x14a;" horiz-adv-x="320" 
d="M258 683q16 0 12 -37l-1 -135q-2 -113 0 -170q1 -127 0 -263l-1 -67l-3 -147q-2 -42 -11.5 -69.5t-24.5 -38.5t-30 -13q-16 -2 -35 5t-32 27.5t-13 42.5q0 26 7 46.5t20 40.5q1 1 6 8t10.5 8.5t10.5 -2.5q6 -4 6 -10t-5 -14t-6 -9q-12 -22 -17 -36.5t-2 -39.5
q1 -14 12 -27t27 -13q12 0 24 10t18 34.5t7 53.5q4 97 1 131l-5 25l-16 49l-22 75q-38 139 -43 162l-35 142l-41 161q0 -23 2 -72t1 -77q0 -173 1 -199v-75v-165q-1 -15 -2.5 -20t-6.5 -6t-7 -1q-4 0 -8.5 4.5t-4.5 27.5l-1 219l1 227q-2 92 -1 147q0 3 -0.5 18t0.5 23
q0 5 3 11t9 6q7 1 15 -2t15 -24l10 -33l53 -198q3 -10 21.5 -88.5t30.5 -120.5q2 -7 16 -58.5t19 -76.5l-3 294l3 278q0 32 16 31z" />
    <glyph glyph-name="eng" unicode="&#x14b;" horiz-adv-x="262" 
d="M219 414q0 -5 0.5 -19.5t0 -40t-0.5 -35.5q0 -445 -1 -461q-6 -122 -78 -122q-14 0 -30 7t-26.5 25t-11.5 43q-2 44 26 83q5 8 11.5 12.5t13.5 -1.5q4 -3 5.5 -8t-3 -13t-5.5 -9q-23 -40 -18 -71q5 -40 39 -40q12 0 24 10t18 34.5t6 53.5q2 29 2 181l-1 331
q0 1 -0.5 23.5t-4 33.5t-10.5 11q-7 1 -17 -7.5t-17 -19.5q-43 -68 -62 -142q-7 -25 -7 -256q0 -20 -15 -20q-6 0 -9.5 2.5t-4.5 7t-0.5 15.5t0.5 16v165q1 28 1 86.5t2 93.5v59q0 12 2.5 18t11.5 7q7 1 12 -4t4 -21.5t-1 -17.5q0 -21 -4 -97q25 65 46 99q29 49 60 49
q37 0 42 -61z" />
    <glyph glyph-name="Omacron" unicode="&#x14c;" horiz-adv-x="315" 
d="M135 755h88q6 0 16 -1t10 -16q-1 -8 -8 -10t-39 -2h-90q-26 0 -26 15v2.5t2 5t9.5 5t22 1.5h15.5zM161 688q61 6 88 -71q8 -25 14.5 -64.5t8.5 -74.5q7 -88 5 -164q0 -50 -8 -132q-5 -56 -19 -99t-37.5 -66.5t-57.5 -23.5q-36 0 -64.5 34t-40.5 97q-8 38 -12.5 104.5
t-0.5 152.5q9 149 36 220q13 37 37 60.5t51 26.5zM166 658q-45 -5 -66 -67q-23 -62 -32 -181q-4 -62 -3 -127.5t7.5 -112t14.5 -72.5q25 -77 69 -77q35 0 56 45t28 114q9 85 9 139q0 88 -6.5 171t-19.5 117q-8 20 -20 35.5t-37 15.5z" />
    <glyph glyph-name="omacron" unicode="&#x14d;" horiz-adv-x="242" 
d="M91 575l88 -1q6 0 16 -1t10 -15q0 -4 -3 -7t-10.5 -4t-18.5 -1h-14h-91q-12 0 -19 2.5t-7 11.5q0 6 6 10.5t43 4.5zM124 474q17 0 33.5 -11t27 -34.5t15.5 -48.5q14 -66 14 -160q0 -165 -53 -212q-18 -15 -44 -15q-60 0 -80 95q-10 56 -10 118.5t6 107.5q8 73 31.5 116.5
t59.5 43.5zM66 339q-7 -50 -9.5 -98t3.5 -112q5 -50 20.5 -79t37.5 -29t40 29q23 38 27 129.5t-8 171.5q-9 53 -23 73.5t-32 20.5q-20 0 -35.5 -33.5t-20.5 -72.5z" />
    <glyph glyph-name="Obreve" unicode="&#x14e;" horiz-adv-x="315" 
d="M231 802q9 0 12.5 -9.5t-3.5 -27.5q-6 -17 -18 -30.5t-25 -19.5q-13 -5 -29 -5q-28 0 -47 15q-24 19 -32 52q-6 23 14 23q9 0 11.5 -9.5t3.5 -11.5q12 -41 50 -41q15 0 27.5 10t18.5 29q1 2 2.5 9.5t4.5 11.5t10 4zM161 688q61 6 88 -71q8 -25 14.5 -64.5t8.5 -74.5
q7 -88 5 -164q0 -50 -8 -132q-5 -56 -19 -99t-37.5 -66.5t-57.5 -23.5q-36 0 -64.5 34t-40.5 97q-8 38 -12.5 104.5t-0.5 152.5q9 149 36 220q13 37 37 60.5t51 26.5zM166 658q-45 -5 -66 -67q-23 -62 -32 -181q-4 -62 -3 -127.5t7.5 -112t14.5 -72.5q25 -77 69 -77
q35 0 56 45t28 114q9 85 9 139q0 88 -6.5 171t-19.5 117q-8 20 -20 35.5t-37 15.5z" />
    <glyph glyph-name="obreve" unicode="&#x14f;" horiz-adv-x="242" 
d="M175 672q6 0 11 -5t5 -36q-1 -45 -19.5 -73.5t-50.5 -28.5q-27 0 -43.5 21t-21.5 46.5t-5 44.5q0 34 19 30q3 -1 5 -4.5t2.5 -15t0.5 -14.5q1 -22 6.5 -42t16 -29t21.5 -9q20 0 31 24t11 61q0 19 2.5 24.5t8.5 5.5zM124 474q17 0 33.5 -11t27 -34.5t15.5 -48.5
q14 -66 14 -160q0 -165 -53 -212q-18 -15 -44 -15q-60 0 -80 95q-10 56 -10 118.5t6 107.5q8 73 31.5 116.5t59.5 43.5zM66 339q-7 -50 -9.5 -98t3.5 -112q5 -50 20.5 -79t37.5 -29t40 29q23 38 27 129.5t-8 171.5q-9 53 -23 73.5t-32 20.5q-20 0 -35.5 -33.5t-20.5 -72.5z
" />
    <glyph glyph-name="Ohungarumlaut" unicode="&#x150;" horiz-adv-x="315" 
d="M212 810q5 -1 9 -5.5t5 -10.5t-6.5 -12.5t-8.5 -7.5l-57 -47q-22 -17 -27.5 -18t-7.5 1q-4 3 -5 9t12 18q43 38 53 48l14.5 14.5t18.5 10.5zM308 807q5 -1 9 -5.5t5 -10.5q1 -8 -16 -20l-57 -46q-2 -1 -11 -8t-15.5 -9.5t-9.5 0.5q-11 12 8 27q6 5 23 19t31 28l14.5 14.5
t18.5 10.5zM161 688q61 6 88 -71q8 -25 14.5 -64.5t8.5 -74.5q7 -88 5 -164q0 -50 -8 -132q-5 -56 -19 -99t-37.5 -66.5t-57.5 -23.5q-36 0 -64.5 34t-40.5 97q-8 38 -12.5 104.5t-0.5 152.5q9 149 36 220q13 37 37 60.5t51 26.5zM166 658q-45 -5 -66 -67q-23 -62 -32 -181
q-4 -62 -3 -127.5t7.5 -112t14.5 -72.5q25 -77 69 -77q35 0 56 45t28 114q9 85 9 139q0 88 -6.5 171t-19.5 117q-8 20 -20 35.5t-37 15.5z" />
    <glyph glyph-name="ohungarumlaut" unicode="&#x151;" horiz-adv-x="242" 
d="M174 680q4 -3 6 -8.5t-10 -21.5l-67 -95q-10 -14 -15 -14.5t-9 2.5q-3 2 -4 7t15 32l60 92q12 17 24 6zM256 678q4 -3 5.5 -8.5t-9.5 -21.5l-69 -95q-7 -9 -12.5 -12t-11.5 1q-3 3 -3.5 9t15.5 30l61 91q12 17 24 6zM124 474q17 0 33.5 -11t27 -34.5t15.5 -48.5
q14 -66 14 -160q0 -165 -53 -212q-18 -15 -44 -15q-60 0 -80 95q-10 56 -10 118.5t6 107.5q8 73 31.5 116.5t59.5 43.5zM66 339q-7 -50 -9.5 -98t3.5 -112q5 -50 20.5 -79t37.5 -29t40 29q23 38 27 129.5t-8 171.5q-9 53 -23 73.5t-32 20.5q-20 0 -35.5 -33.5t-20.5 -72.5z
" />
    <glyph glyph-name="OE" unicode="&#x152;" horiz-adv-x="381" 
d="M169 688q14 -1 27 -10.5t20 -20.5q-1 24 13 24l112 1q21 0 28.5 -3.5t7.5 -11.5q0 -3 -1 -5.5t-4 -4.5t-7 -3t-10.5 -1.5t-7.5 -0.5h-52t-56 -1q-2 -138 -5 -204l77 2q25 0 27 -12q0 -3 -3 -9t-14.5 -7.5t-36.5 -1.5q-43 0 -50 -1l-1 -203q0 -24 -2 -88t-1 -97l93 1
q19 0 26 -3.5t7 -11.5v-2.5t-1 -5t-4.5 -5.5t-7.5 -2h-8.5h-5.5q-4 0 -27.5 0.5t-38.5 -0.5q-49 -3 -55 3q-1 1 -2.5 3.5t-1.5 2t-2 23.5q-10 -17 -25 -28t-35 -11q-47 0 -73 61.5t-32 191.5q-3 92 5 203q4 46 13.5 91.5t24.5 76t30 45.5q27 27 59 25zM144 655
q-49 -32 -65 -142q-17 -117 -14 -254q2 -78 13.5 -133t28 -79t36.5 -24q9 0 20 3.5t24 24.5q8 10 12.5 25.5t4.5 61.5v258q0 32 3 94t2 97q-2 39 -15 57q-10 14 -25.5 15.5t-24.5 -4.5z" />
    <glyph glyph-name="oe" unicode="&#x153;" horiz-adv-x="360" 
d="M125 475q57 0 67 -122q14 61 34.5 91t46.5 30q27 0 44 -32t22 -93q3 -31 2.5 -64t-8.5 -39q-1 -1 -4.5 -2.5t-32.5 -1.5l-94 -1q-3 -41 0 -84t12.5 -71.5t20.5 -42.5q5 -8 14.5 -13.5t17.5 -2.5q16 4 25.5 31t7.5 50q-1 12 0.5 18.5t9.5 8.5q21 5 19 -43q0 -3 -1 -11
t-6 -27.5t-20.5 -38.5t-37.5 -20q-15 -1 -32 10t-29.5 37.5t-18.5 58.5q-10 -81 -43 -100q-11 -8 -26 -8q-18 0 -34 11.5t-26 31.5q-18 39 -24.5 105t-2.5 125q5 72 20.5 123t36 68.5t40.5 17.5zM124 445q-19 0 -32.5 -25t-22 -65t-11.5 -82q-3 -44 -2 -85t6.5 -74.5t18 -61
t32.5 -29.5q23 -1 35 32q14 41 19.5 115t3.5 142q-4 73 -15.5 103t-31.5 30zM272 445q-8 0 -18 -10t-18 -31q-30 -71 -34 -132h108q5 35 -3 97q-4 30 -13 53t-22 23z" />
    <glyph glyph-name="Racute" unicode="&#x154;" horiz-adv-x="256" 
d="M179 807q12 -2 14 -15q1 -7 -15 -21l-57 -46q-19 -15 -25.5 -17.5t-9.5 0.5q-4 3 -5 9t12 18q43 38 53 48q2 2 14 13.5t19 10.5zM65 682l18 1q23 0 48 -10t43 -30q20 -22 33 -61t13 -80q0 -83 -43 -123q-14 -14 -37.5 -23t-50.5 -10q35 -76 47 -99l82 -165q13 -25 29 -52
q16 -29 -6 -30q-5 0 -9 1.5t-14 17.5q-25 47 -56.5 111t-42.5 89q-18 34 -46 101q4 -56 6 -237q0 -49 2 -62q3 -22 -18 -22q-8 0 -12 5.5t-2.5 20.5t1.5 17v128q1 44 -0.5 144.5t-1.5 125.5v177q0 4 -1 22t2.5 29.5t15.5 13.5zM80 653q-4 -4 -4 -50l1 -144l1 -84q17 -1 35 3
t30 11q24 14 36.5 47.5t11 69t-8.5 60.5q-12 42 -39.5 66.5t-62.5 20.5z" />
    <glyph glyph-name="racute" unicode="&#x155;" horiz-adv-x="196" 
d="M172 679q4 -3 6 -8t-10 -22l-66 -96q-8 -9 -13.5 -12t-11.5 1q-3 2 -4 8t15 31l41 64l19 27q11 18 24 7zM141 473q22 3 34 -10t16 -38.5t-2 -54.5q-5 -21 -7.5 -27t-6.5 -7.5t-6 -1.5q-8 1 -11 8.5t2 31.5q5 20 4 38.5t-8.5 24.5t-16.5 4q-3 -1 -7.5 -4.5t-9.5 -12
t-10 -21t-9.5 -26t-5.5 -15.5q-11 -34 -17 -62t-7 -83v-171q-1 -25 -2.5 -32.5t-5.5 -11.5t-10 -4q-16 1 -14 30q1 9 1.5 27.5t0.5 169.5l1 119v93q0 16 3 22.5t12 7.5q7 1 11 -5t4 -25q0 -5 -2.5 -37.5t-1.5 -53.5q16 65 31.5 94.5t39.5 32.5z" />
    <glyph glyph-name="Rcommaaccent" unicode="&#x156;" horiz-adv-x="256" 
d="M65 682l18 1q23 0 48 -10t43 -30q20 -22 33 -61t13 -80q0 -83 -43 -123q-14 -14 -37.5 -23t-50.5 -10q35 -76 47 -99l82 -165q13 -25 29 -52q16 -29 -6 -30q-5 0 -9 1.5t-14 17.5q-25 47 -56.5 111t-42.5 89q-18 34 -46 101q4 -56 6 -237q0 -49 2 -62q3 -22 -18 -22
q-8 0 -12 5.5t-2.5 20.5t1.5 17v128q1 44 -0.5 144.5t-1.5 125.5v177q0 4 -1 22t2.5 29.5t15.5 13.5zM80 653q-4 -4 -4 -50l1 -144l1 -84q17 -1 35 3t30 11q24 14 36.5 47.5t11 69t-8.5 60.5q-12 42 -39.5 66.5t-62.5 20.5zM134 -29q4 1 10.5 -1t8.5 -5q5 -8 -1 -32l-20 -81
q-7 -27 -18 -24q-5 1 -8.5 5.5t0.5 33.5q0 3 2 14t8 39t7 33q2 15 11 18z" />
    <glyph glyph-name="rcommaaccent" unicode="&#x157;" horiz-adv-x="196" 
d="M141 473q22 3 34 -10t16 -38.5t-2 -54.5q-5 -21 -7.5 -27t-6.5 -7.5t-6 -1.5q-8 1 -11 8.5t2 31.5q5 20 4 38.5t-8.5 24.5t-16.5 4q-3 -1 -7.5 -4.5t-9.5 -12t-10 -21t-9.5 -26t-5.5 -15.5q-11 -34 -17 -62t-7 -83v-171q-1 -25 -2.5 -32.5t-5.5 -11.5t-10 -4
q-16 1 -14 30q1 9 1.5 27.5t0.5 169.5l1 119v93q0 16 3 22.5t12 7.5q7 1 11 -5t4 -25q0 -5 -2.5 -37.5t-1.5 -53.5q16 65 31.5 94.5t39.5 32.5zM50 -35q4 1 10.5 -1t8.5 -5q5 -8 -1 -32l-20 -81q-7 -27 -18 -24q-5 1 -8.5 5.5t0.5 33.5q0 3 2 14t8 39t7 33q2 15 11 18z" />
    <glyph glyph-name="Rcaron" unicode="&#x158;" horiz-adv-x="256" 
d="M204 794q3 -2 5 -7t-8 -15q-17 -16 -53 -45q-25 -21 -33 -21q-10 0 -74 57q-13 12 -16 18.5t2 11.5q2 2 8 4.5t16 -6.5l32 -29q20 -18 33 -25q2 1 8.5 5.5t48.5 41.5q13 11 19.5 13t11.5 -3zM65 682l18 1q23 0 48 -10t43 -30q20 -22 33 -61t13 -80q0 -83 -43 -123
q-14 -14 -37.5 -23t-50.5 -10q35 -76 47 -99l82 -165q13 -25 29 -52q16 -29 -6 -30q-5 0 -9 1.5t-14 17.5q-25 47 -56.5 111t-42.5 89q-18 34 -46 101q4 -56 6 -237q0 -49 2 -62q3 -22 -18 -22q-8 0 -12 5.5t-2.5 20.5t1.5 17v128q1 44 -0.5 144.5t-1.5 125.5v177q0 4 -1 22
t2.5 29.5t15.5 13.5zM80 653q-4 -4 -4 -50l1 -144l1 -84q17 -1 35 3t30 11q24 14 36.5 47.5t11 69t-8.5 60.5q-12 42 -39.5 66.5t-62.5 20.5z" />
    <glyph glyph-name="rcaron" unicode="&#x159;" horiz-adv-x="196" 
d="M175 673q13 -5 2 -28q-22 -43 -45 -83q-17 -30 -29 -30q-3 0 -7 2.5t-8 7t-8.5 11t-5.5 7.5q-7 10 -27.5 45t-25.5 43q-4 7 -5 14t4 11q4 3 9.5 3t14.5 -15l37 -61l23 -33q8 13 24.5 44t19.5 36q12 21 16.5 25t10.5 1zM141 473q22 3 34 -10t16 -38.5t-2 -54.5
q-5 -21 -7.5 -27t-6.5 -7.5t-6 -1.5q-8 1 -11 8.5t2 31.5q5 20 4 38.5t-8.5 24.5t-16.5 4q-3 -1 -7.5 -4.5t-9.5 -12t-10 -21t-9.5 -26t-5.5 -15.5q-11 -34 -17 -62t-7 -83v-171q-1 -25 -2.5 -32.5t-5.5 -11.5t-10 -4q-16 1 -14 30q1 9 1.5 27.5t0.5 169.5l1 119v93
q0 16 3 22.5t12 7.5q7 1 11 -5t4 -25q0 -5 -2.5 -37.5t-1.5 -53.5q16 65 31.5 94.5t39.5 32.5z" />
    <glyph glyph-name="Sacute" unicode="&#x15a;" horiz-adv-x="253" 
d="M189 810q12 -2 14 -15q1 -7 -15 -21l-57 -46q-19 -15 -25.5 -17.5t-9.5 0.5q-4 3 -5 9t12 18q43 38 53 48q2 2 14 13.5t19 10.5zM158 679q29 -9 44 -41t13 -73q0 -2 -0.5 -10.5t-2 -13.5t-4.5 -8q-4 -4 -13 -3.5t-12 5.5q-4 9 1 27q2 29 -6 54.5t-24 35.5q-12 7 -28 7
q-10 0 -22 -5q-14 -9 -23 -28t-7 -45.5t10 -53.5q8 -28 32 -85.5t26 -62.5q2 -4 20.5 -47t32 -80t21.5 -67t10.5 -46.5t2.5 -22.5q2 -37 -11 -67.5t-42 -46.5q-20 -10 -45 -10q-20 0 -41 9t-34 23q-13 15 -21.5 38.5t-8 51.5t5.5 51q2 11 5.5 18.5t12.5 7.5t13 -7.5t0 -20.5
q-6 -20 -6.5 -49t7.5 -46q10 -24 31.5 -37t50.5 -8q16 3 30.5 16.5t20 42t-0.5 60.5q-12 69 -81 224l-37 93q-15 37 -24.5 69t-8.5 70q0 20 10 41t23 32q22 17 51 17q17 0 29 -9z" />
    <glyph glyph-name="sacute" unicode="&#x15b;" horiz-adv-x="184" 
d="M168 679q4 -3 6 -8t-10 -22l-66 -96q-8 -9 -13.5 -12t-11.5 1q-3 2 -4 8t15 31l41 64l19 27q11 18 24 7zM86 473q38 4 56.5 -25t17.5 -67q-1 -19 -6 -25t-14 -5q-5 1 -8.5 5t0.5 25q2 26 -9.5 46.5t-33.5 17.5q-7 -1 -14.5 -9t-9.5 -15q-4 -10 -4.5 -26.5t6 -38.5t16 -42
t23.5 -46t17 -31q23 -42 33 -72q18 -55 13 -93.5t-24.5 -58t-51.5 -19.5q-19 0 -38 12t-29 41.5t-4 63.5q3 19 10.5 26.5t16.5 4.5q4 -1 6 -5.5t-1 -14t-3 -11.5q-6 -33 6 -61t38 -28q23 0 35.5 21.5t8.5 62.5q-2 17 -9 42t-42 92q-1 1 -2.5 4.5t-21.5 41t-28 72t-2 62.5
q4 19 17.5 34.5t34.5 18.5z" />
    <glyph glyph-name="Scircumflex" unicode="&#x15c;" horiz-adv-x="253" 
d="M125 784q2 0 7 -2t15.5 -10t11.5 -9l51 -45q8 -7 9 -12t-6 -11q-10 -8 -33 13q-38 33 -43.5 37.5t-10.5 7.5q-8 -4 -19 -13t-14 -11l-32 -30q-14 -13 -23 -4q-4 4 -4 10.5t18 22.5q26 24 45 39q23 17 28 17zM158 679q29 -9 44 -41t13 -73q0 -2 -0.5 -10.5t-2 -13.5
t-4.5 -8q-4 -4 -13 -3.5t-12 5.5q-4 9 1 27q2 29 -6 54.5t-24 35.5q-12 7 -28 7q-10 0 -22 -5q-14 -9 -23 -28t-7 -45.5t10 -53.5q8 -28 32 -85.5t26 -62.5q2 -4 20.5 -47t32 -80t21.5 -67t10.5 -46.5t2.5 -22.5q2 -37 -11 -67.5t-42 -46.5q-20 -10 -45 -10q-20 0 -41 9
t-34 23q-13 15 -21.5 38.5t-8 51.5t5.5 51q2 11 5.5 18.5t12.5 7.5t13 -7.5t0 -20.5q-6 -20 -6.5 -49t7.5 -46q10 -24 31.5 -37t50.5 -8q16 3 30.5 16.5t20 42t-0.5 60.5q-12 69 -81 224l-37 93q-15 37 -24.5 69t-8.5 70q0 20 10 41t23 32q22 17 51 17q17 0 29 -9z" />
    <glyph glyph-name="scircumflex" unicode="&#x15d;" horiz-adv-x="184" 
d="M99 658q12 0 29 -28q8 -12 27.5 -47.5t20.5 -37.5q13 -21 2 -28q-5 -3 -10 -2t-15 16l-32 57l-24 36q-8 -13 -26.5 -46t-19.5 -35q-14 -24 -18.5 -26t-8.5 0q-15 5 -3 28l47 83q17 30 31 30zM86 473q38 4 56.5 -25t17.5 -67q-1 -19 -6 -25t-14 -5q-5 1 -8.5 5t0.5 25
q2 26 -9.5 46.5t-33.5 17.5q-7 -1 -14.5 -9t-9.5 -15q-4 -10 -4.5 -26.5t6 -38.5t16 -42t23.5 -46t17 -31q23 -42 33 -72q18 -55 13 -93.5t-24.5 -58t-51.5 -19.5q-19 0 -38 12t-29 41.5t-4 63.5q3 19 10.5 26.5t16.5 4.5q4 -1 6 -5.5t-1 -14t-3 -11.5q-6 -33 6 -61t38 -28
q23 0 35.5 21.5t8.5 62.5q-2 17 -9 42t-42 92q-1 1 -2.5 4.5t-21.5 41t-28 72t-2 62.5q4 19 17.5 34.5t34.5 18.5z" />
    <glyph glyph-name="Scedilla" unicode="&#x15e;" horiz-adv-x="253" 
d="M176 2l-19 -7q-20 -43 -22 -52q35 -54 40 -70.5t5 -28.5q0 -27 -15.5 -42.5t-36.5 -15.5q-22 0 -35 13l-9 9t-11 20q-5 15 -2.5 27.5t15.5 11.5q8 -1 9 -10t1 -10q6 -29 25 -33q17 -3 26 10t4 33q-3 18 -43 76q-2 3 -2 6.5t1 8.5t3.5 10t5 10.5t6 13.5t4.5 10
q-19 1 -38.5 10t-31.5 22q-13 15 -21.5 38.5t-8 51.5t5.5 51q2 11 5.5 18.5t12.5 7.5t13 -7.5t0 -20.5q-6 -20 -6.5 -49t7.5 -46q10 -24 31.5 -37t50.5 -8q16 3 30.5 16.5t20 42t-0.5 60.5q-12 69 -81 224l-37 93q-15 37 -24.5 69t-8.5 70q0 20 10 41t23 32q22 17 51 17
q17 0 29 -9q29 -9 44 -41t13 -73q0 -2 -0.5 -10.5t-2 -13.5t-4.5 -8q-4 -4 -13 -3.5t-12 5.5q-4 9 1 27q2 29 -6 54.5t-24 35.5q-12 7 -28 7q-10 0 -22 -5q-14 -9 -23 -28t-7 -45.5t10 -53.5q8 -28 32 -85.5t26 -62.5q2 -4 20.5 -47t32 -80t21.5 -67t10.5 -46.5t2.5 -22.5
q2 -37 -11 -67.5t-42 -46.5z" />
    <glyph glyph-name="scedilla" unicode="&#x15f;" horiz-adv-x="184" 
d="M120 -2q-18 -37 -20 -48q35 -54 40 -70.5t5 -28.5q0 -27 -15.5 -42.5t-36.5 -15.5q-22 0 -35 13l-9 9t-11 20q-5 15 -2.5 27.5t15.5 11.5q8 -1 9 -10t1 -10q6 -29 25 -33q17 -3 26 10t4 33q-3 18 -43 76q-2 3 -2 10t18 44q-27 2 -45 22.5t-21.5 47t-0.5 47.5
q3 19 10.5 26.5t16.5 4.5q4 -1 6 -5.5t-1 -14t-3 -11.5q-6 -33 6 -61t38 -28q23 0 35.5 21.5t8.5 62.5q-2 17 -9 42t-42 92q-1 1 -2.5 4.5t-21.5 41t-28 72t-2 62.5q4 19 17.5 34.5t34.5 18.5q38 4 56.5 -25t17.5 -67q-1 -19 -6 -25t-14 -5q-5 1 -8.5 5t0.5 25
q2 26 -9.5 46.5t-33.5 17.5q-7 -1 -14.5 -9t-9.5 -15q-4 -10 -4.5 -26.5t6 -38.5t16 -42t23.5 -46t17 -31q23 -42 33 -72q20 -62 10 -108t-46 -59z" />
    <glyph glyph-name="Scaron" unicode="&#x160;" horiz-adv-x="253" 
d="M215 797q3 -2 5 -7t-8 -15q-17 -16 -53 -45q-25 -21 -33 -21q-10 0 -74 57q-13 12 -16 18.5t2 11.5q2 2 8 4.5t16 -6.5l32 -29q20 -18 33 -25q2 1 8.5 5.5t48.5 41.5q13 11 19.5 13t11.5 -3zM158 679q29 -9 44 -41t13 -73q0 -2 -0.5 -10.5t-2 -13.5t-4.5 -8
q-4 -4 -13 -3.5t-12 5.5q-4 9 1 27q2 29 -6 54.5t-24 35.5q-12 7 -28 7q-10 0 -22 -5q-14 -9 -23 -28t-7 -45.5t10 -53.5q8 -28 32 -85.5t26 -62.5q2 -4 20.5 -47t32 -80t21.5 -67t10.5 -46.5t2.5 -22.5q2 -37 -11 -67.5t-42 -46.5q-20 -10 -45 -10q-20 0 -41 9t-34 23
q-13 15 -21.5 38.5t-8 51.5t5.5 51q2 11 5.5 18.5t12.5 7.5t13 -7.5t0 -20.5q-6 -20 -6.5 -49t7.5 -46q10 -24 31.5 -37t50.5 -8q16 3 30.5 16.5t20 42t-0.5 60.5q-12 69 -81 224l-37 93q-15 37 -24.5 69t-8.5 70q0 20 10 41t23 32q22 17 51 17q17 0 29 -9z" />
    <glyph glyph-name="scaron" unicode="&#x161;" horiz-adv-x="184" 
d="M171 673q13 -5 2 -28q-22 -43 -45 -83q-17 -30 -29 -30q-3 0 -7 2.5t-8 7t-8.5 11t-5.5 7.5q-7 10 -27.5 45t-25.5 43q-4 7 -5 14t4 11q4 3 9.5 3t14.5 -15l37 -61l23 -33q8 13 24.5 44t19.5 36q12 21 16.5 25t10.5 1zM86 473q38 4 56.5 -25t17.5 -67q-1 -19 -6 -25
t-14 -5q-5 1 -8.5 5t0.5 25q2 26 -9.5 46.5t-33.5 17.5q-7 -1 -14.5 -9t-9.5 -15q-4 -10 -4.5 -26.5t6 -38.5t16 -42t23.5 -46t17 -31q23 -42 33 -72q18 -55 13 -93.5t-24.5 -58t-51.5 -19.5q-19 0 -38 12t-29 41.5t-4 63.5q3 19 10.5 26.5t16.5 4.5q4 -1 6 -5.5t-1 -14
t-3 -11.5q-6 -33 6 -61t38 -28q23 0 35.5 21.5t8.5 62.5q-2 17 -9 42t-42 92q-1 1 -2.5 4.5t-21.5 41t-28 72t-2 62.5q4 19 17.5 34.5t34.5 18.5z" />
    <glyph glyph-name="Tcommaaccent" unicode="&#x162;" horiz-adv-x="221" 
d="M220 670q0 -10 -9.5 -14t-36.5 -3h-49q1 -50 0 -171.5t1 -177.5v-269q0 -22 -2 -28l-21 -50q1 -1 23 -37t22 -64q0 -27 -15.5 -42.5t-36.5 -15.5t-35 13q-12 9 -20 29q-5 15 -2 27.5t16 11.5q8 -1 8.5 -10t0.5 -10q6 -29 25 -33q17 -3 26 10t5 33q-2 11 -10.5 25
t-19 30.5t-13.5 20.5q-3 5 -3 12.5t9.5 28t13.5 30.5v21l-1 120l-1 496q-8 1 -44 1q-33 0 -40.5 2t-8.5 8q0 18 15 18l55 -1l110 1q18 1 27.5 -1t10.5 -11z" />
    <glyph glyph-name="tcommaaccent" unicode="&#x163;" horiz-adv-x="179" 
d="M138 440l-48 -1l-1 -299q0 -8 -0.5 -31.5t0 -36t1.5 -20.5q2 -12 8 -21.5t15 -9.5q18 0 21.5 23.5t6 27t5.5 3.5q22 1 15 -38q-3 -19 -14.5 -29.5t-25.5 -12.5q-15 -35 -18 -45q35 -54 40 -70.5t5 -28.5q0 -27 -15.5 -42.5t-36.5 -15.5q-22 0 -35 13l-9 9t-11 20
q-5 15 -2.5 27.5t15.5 11.5q8 -1 9 -10t1 -10q6 -29 25 -33q17 -3 26 10t4 33q-3 18 -43 76q-2 3 -2 6.5t1 8.5t3 10t4.5 10t6 12.5t4.5 9.5q-16 7 -23 21q-4 9 -7 25.5t-3 72.5q-1 63 0 177.5t1 145.5q-5 0 -22 0.5t-24.5 4t-7.5 11.5q0 5 3.5 9t22.5 3l28 1l1 94
q-2 37 19 31q3 -1 5 -8t3 -23.5t1 -52v-41.5h66q13 0 19.5 -2t7.5 -10q1 -21 -45 -16z" />
    <glyph glyph-name="Tcaron" unicode="&#x164;" horiz-adv-x="221" 
d="M198 794q11 -10 -3 -22q-17 -16 -53 -45q-23 -21 -33 -21q-9 0 -74 56q-14 14 -16.5 20t2.5 11q2 2 8 4.5t16 -6.5l32 -29q20 -18 33 -25q2 1 9.5 6.5t25.5 21t22 18.5q21 21 31 11zM182 682q18 1 27.5 -1t10.5 -11q0 -10 -9.5 -14t-36.5 -3h-49q1 -50 0 -171.5t1 -177.5
v-269q0 -18 -1.5 -27t-11.5 -10q-9 0 -13 7t-3 32l-1 120l-1 496q-8 1 -44 1q-33 0 -40.5 2t-8.5 8q0 18 15 18l55 -1z" />
    <glyph glyph-name="tcaron" unicode="&#x165;" horiz-adv-x="179" 
d="M155 655q5 2 12 0.5t9 -4.5q1 -3 2 -8.5t-4 -25.5l-17 -74q-2 -9 -6.5 -15t-10.5 -5q-5 0 -9 6.5t3 34.5l7 47l3 27q2 14 11 17zM81 593q3 -1 5 -8t3 -23.5t1 -52v-41.5h66q13 0 19.5 -2t7.5 -10q1 -21 -45 -16l-48 -1l-1 -299q0 -8 -0.5 -31.5t0 -36t1.5 -20.5
q2 -12 8 -21.5t15 -9.5q18 0 21.5 23.5t6 27t5.5 3.5q22 1 15 -38q-2 -11 -8 -21.5t-17 -16t-23 -5.5q-13 0 -25.5 6.5t-17.5 17.5q-4 9 -7 25.5t-3 72.5q-1 63 0 177.5t1 145.5q-5 0 -22 0.5t-24.5 4t-7.5 11.5q0 5 3.5 9t22.5 3l28 1l1 94q-2 37 19 31z" />
    <glyph glyph-name="Tbar" unicode="&#x166;" horiz-adv-x="235" 
d="M181 653h-49q0 -12 0.5 -37t0 -125t-0.5 -112h54q7 0 18 -1t11 -14q0 -5 -7 -9t-47 -4h-29l1 -47v-269q0 -18 -1.5 -27t-11.5 -10q-9 0 -13 7t-3 32l-1 120v195l-51 -1q-14 0 -22 2.5t-8 12.5q0 8 12 11.5t48 2.5h21l-1 273q-8 1 -44 1q-33 0 -40.5 2t-8.5 8q0 18 15 18
l55 -1l110 1q18 1 27.5 -1t10.5 -11q0 -10 -9.5 -14t-36.5 -3z" />
    <glyph glyph-name="tbar" unicode="&#x167;" horiz-adv-x="192" 
d="M144 440l-48 -1l-1 -121h50q7 0 18.5 -1t10.5 -14q0 -5 -10 -9.5t-69 -3.5v-150q0 -76 1 -88t8 -21.5t16 -9.5q17 0 21 23.5t6 27t5 3.5q21 1 16 -38q-2 -11 -8 -21.5t-17 -16t-23 -5.5q-15 0 -26 6t-17 18q-7 15 -8.5 32t-2.5 66v174h-25q-14 0 -22.5 2.5t-8.5 12.5
q0 9 11 12.5t43 1.5h3v120q-5 0 -21.5 0.5t-24 4t-7.5 11.5q0 5 3 9t22 3l29 1v94q0 18 4 26t16 5q6 -2 7.5 -22t0.5 -103h66q13 0 20 -1.5t7 -10.5q1 -21 -45 -16z" />
    <glyph glyph-name="Utilde" unicode="&#x168;" horiz-adv-x="303" 
d="M117 798q16 1 36 -27.5t24.5 -32t7.5 -3.5q7 1 12.5 14.5t6.5 43.5q1 3 5 6t8 3q5 0 8.5 -3.5t3.5 -10.5q0 -42 -12.5 -61.5t-30.5 -19.5q-10 0 -20 9t-25.5 32t-21.5 23q-14 0 -18 -50q-1 -5 -5 -8.5t-9 -3.5t-9 3.5t-3 9.5q6 76 42 76zM65 682q11 -1 12.5 -9.5
t-0.5 -25.5q-1 -19 -1.5 -53t0 -97.5t0.5 -82.5v-14t1 -142.5t4 -166.5q6 -47 37 -63q9 -5 22.5 -7t24.5 0q58 7 63 136q1 30 0.5 228t-1.5 214q0 54 1 62.5t3.5 12.5t6.5 5q6 1 12 -3t4 -31l3 -423q0 -127 -17 -167t-43 -53q-18 -9 -44 -9q-17 0 -34.5 5t-27.5 13
q-38 28 -41 101q-2 51 -3 319v216q0 22 2.5 29t15.5 6z" />
    <glyph glyph-name="utilde" unicode="&#x169;" horiz-adv-x="262" 
d="M95 653q18 0 37 -39t23.5 -45.5t8.5 -6.5q6 1 11.5 21.5t6.5 59.5q0 5 4 9t9 4t9 -4.5t3 -11.5q0 -53 -11.5 -80t-31.5 -27q-18 -1 -38 40t-23.5 46t-6.5 5q-14 0 -19 -75q0 -6 -4.5 -9.5t-9.5 -3.5q-12 0 -11 13q4 55 14 79.5t29 24.5zM205 469q6 0 11 -2.5t5 -28.5
l-1 -159l-1 -129v-113q1 -21 -1.5 -29.5t-12.5 -8.5q-3 0 -7.5 1.5t-6 8t-1.5 38.5l3 127q-24 -76 -32.5 -95t-17.5 -36t-24.5 -33t-31.5 -16q-13 0 -23 11t-16 38.5t-7 129.5v184v83q0 26 11 28q24 3 20 -46l-1 -139q0 -2 -0.5 -79.5t2.5 -124.5q4 -36 8.5 -43t9.5 -7
q10 -1 27.5 25.5t36.5 77.5q30 85 34 136l3 158q0 30 2.5 36t10.5 7z" />
    <glyph glyph-name="Umacron" unicode="&#x16a;" horiz-adv-x="303" 
d="M119 757h88q6 0 16 -1t10 -16q-1 -8 -8 -10t-39 -2h-90q-12 0 -19 2.5t-7 12.5q0 2 2.5 7t11.5 6t35 1zM65 682q11 -1 12.5 -9.5t-0.5 -25.5q-1 -19 -1.5 -53t0 -97.5t0.5 -82.5v-14t1 -142.5t4 -166.5q6 -47 37 -63q9 -5 22.5 -7t24.5 0q58 7 63 136q1 30 0.5 228
t-1.5 214q0 54 1 62.5t3.5 12.5t6.5 5q6 1 12 -3t4 -31l3 -423q0 -127 -17 -167t-43 -53q-18 -9 -44 -9q-17 0 -34.5 5t-27.5 13q-38 28 -41 101q-2 51 -3 319v216q0 22 2.5 29t15.5 6z" />
    <glyph glyph-name="umacron" unicode="&#x16b;" horiz-adv-x="262" 
d="M96 575l88 -1q6 0 16 -1t10 -15q0 -4 -3 -7t-10.5 -4t-18.5 -1h-14h-91q-12 0 -19 2.5t-7 11.5q0 6 6 10.5t43 4.5zM205 469q6 0 11 -2.5t5 -28.5l-1 -159l-1 -129v-113q1 -21 -1.5 -29.5t-12.5 -8.5q-3 0 -7.5 1.5t-6 8t-1.5 38.5l3 127q-24 -76 -32.5 -95t-17.5 -36
t-24.5 -33t-31.5 -16q-13 0 -23 11t-16 38.5t-7 129.5v184v83q0 26 11 28q24 3 20 -46l-1 -139q0 -2 -0.5 -79.5t2.5 -124.5q4 -36 8.5 -43t9.5 -7q10 -1 27.5 25.5t36.5 77.5q30 85 34 136l3 158q0 30 2.5 36t10.5 7z" />
    <glyph glyph-name="Ubreve" unicode="&#x16c;" horiz-adv-x="303" 
d="M214 797q9 0 12.5 -9.5t-3.5 -27.5q-6 -17 -18 -30.5t-25 -19.5q-13 -5 -29 -5q-28 0 -47 15q-24 19 -32 52q-6 23 14 23q9 0 11.5 -9.5t3.5 -11.5q12 -41 50 -41q15 0 27.5 10t18.5 29q1 2 2.5 9.5t4.5 11.5t10 4zM65 682q11 -1 12.5 -9.5t-0.5 -25.5q-1 -19 -1.5 -53
t0 -97.5t0.5 -82.5v-14t1 -142.5t4 -166.5q6 -47 37 -63q9 -5 22.5 -7t24.5 0q58 7 63 136q1 30 0.5 228t-1.5 214q0 54 1 62.5t3.5 12.5t6.5 5q6 1 12 -3t4 -31l3 -423q0 -127 -17 -167t-43 -53q-18 -9 -44 -9q-17 0 -34.5 5t-27.5 13q-38 28 -41 101q-2 51 -3 319v216
q0 22 2.5 29t15.5 6z" />
    <glyph glyph-name="ubreve" unicode="&#x16d;" horiz-adv-x="262" 
d="M180 672q6 0 11 -5t5 -36q-1 -45 -19.5 -73.5t-50.5 -28.5q-27 0 -43.5 21t-21.5 46.5t-5 44.5q0 34 19 30q3 -1 5 -4.5t2.5 -15t0.5 -14.5q1 -22 6.5 -42t16 -29t21.5 -9q20 0 31 24t11 61q0 19 2.5 24.5t8.5 5.5zM205 469q6 0 11 -2.5t5 -28.5l-1 -159l-1 -129v-113
q1 -21 -1.5 -29.5t-12.5 -8.5q-3 0 -7.5 1.5t-6 8t-1.5 38.5l3 127q-24 -76 -32.5 -95t-17.5 -36t-24.5 -33t-31.5 -16q-13 0 -23 11t-16 38.5t-7 129.5v184v83q0 26 11 28q24 3 20 -46l-1 -139q0 -2 -0.5 -79.5t2.5 -124.5q4 -36 8.5 -43t9.5 -7q10 -1 27.5 25.5t36.5 77.5
q30 85 34 136l3 158q0 30 2.5 36t10.5 7z" />
    <glyph glyph-name="Uring" unicode="&#x16e;" horiz-adv-x="303" 
d="M153 810q25 0 37.5 -16.5t12.5 -37.5q0 -57 -53 -57q-22 0 -35 16.5t-13 41.5q0 21 15 37t36 16zM141 786q-12 -10 -13 -27t6 -28q6 -12 19 -12q10 0 16 9q8 11 7 29t-8 27q-4 6 -15 6q-6 0 -12 -4zM65 682q11 -1 12.5 -9.5t-0.5 -25.5q-1 -19 -1.5 -53t0 -97.5
t0.5 -82.5v-14t1 -142.5t4 -166.5q6 -47 37 -63q9 -5 22.5 -7t24.5 0q58 7 63 136q1 30 0.5 228t-1.5 214q0 54 1 62.5t3.5 12.5t6.5 5q6 1 12 -3t4 -31l3 -423q0 -127 -17 -167t-43 -53q-18 -9 -44 -9q-17 0 -34.5 5t-27.5 13q-38 28 -41 101q-2 51 -3 319v216q0 22 2.5 29
t15.5 6z" />
    <glyph glyph-name="uring" unicode="&#x16f;" horiz-adv-x="262" 
d="M132 689q43 0 48 -64q1 -22 -1.5 -43.5t-9.5 -32.5q-15 -22 -41 -22q-13 0 -24.5 8t-16.5 19q-9 19 -8.5 50t7.5 49q5 14 16 25t30 11zM120 662q-9 -8 -13 -32t-1.5 -42.5t6.5 -25.5q6 -10 16 -10.5t16 7.5q11 12 11 51q0 15 -3.5 30t-8.5 21q-5 5 -12 4.5t-11 -3.5z
M205 469q6 0 11 -2.5t5 -28.5l-1 -159l-1 -129v-113q1 -21 -1.5 -29.5t-12.5 -8.5q-3 0 -7.5 1.5t-6 8t-1.5 38.5l3 127q-24 -76 -32.5 -95t-17.5 -36t-24.5 -33t-31.5 -16q-13 0 -23 11t-16 38.5t-7 129.5v184v83q0 26 11 28q24 3 20 -46l-1 -139q0 -2 -0.5 -79.5
t2.5 -124.5q4 -36 8.5 -43t9.5 -7q10 -1 27.5 25.5t36.5 77.5q30 85 34 136l3 158q0 30 2.5 36t10.5 7z" />
    <glyph glyph-name="Uhungarumlaut" unicode="&#x170;" horiz-adv-x="303" 
d="M190 808q6 -1 10 -5.5t5 -10.5q0 -2 -0.5 -4.5t-2.5 -5t-6.5 -5.5t-5.5 -4l-57 -48q-21 -15 -27 -17.5t-9 0.5q-11 9 7 27q10 9 25.5 22t28.5 26q24 26 32 25zM287 805q11 -2 13 -16q0 -2 -1 -6t-14 -14l-58 -46q-21 -15 -26.5 -17.5t-8.5 0.5q-4 4 -5 9.5t12 18.5
q8 7 24 20t30 27q3 3 15 14t19 10zM65 682q11 -1 12.5 -9.5t-0.5 -25.5q-1 -19 -1.5 -53t0 -97.5t0.5 -82.5v-14t1 -142.5t4 -166.5q6 -47 37 -63q9 -5 22.5 -7t24.5 0q58 7 63 136q1 30 0.5 228t-1.5 214q0 54 1 62.5t3.5 12.5t6.5 5q6 1 12 -3t4 -31l3 -423
q0 -127 -17 -167t-43 -53q-18 -9 -44 -9q-17 0 -34.5 5t-27.5 13q-38 28 -41 101q-2 51 -3 319v216q0 22 2.5 29t15.5 6z" />
    <glyph glyph-name="uhungarumlaut" unicode="&#x171;" horiz-adv-x="262" 
d="M179 680q4 -3 6 -8.5t-10 -21.5l-67 -95q-10 -14 -15 -14.5t-9 2.5q-3 2 -4 7t15 32l60 92q12 17 24 6zM261 678q4 -3 5.5 -8.5t-9.5 -21.5l-69 -95q-7 -9 -12.5 -12t-11.5 1q-3 3 -3.5 9t15.5 30l61 91q12 17 24 6zM205 469q6 0 11 -2.5t5 -28.5l-1 -159l-1 -129v-113
q1 -21 -1.5 -29.5t-12.5 -8.5q-3 0 -7.5 1.5t-6 8t-1.5 38.5l3 127q-24 -76 -32.5 -95t-17.5 -36t-24.5 -33t-31.5 -16q-13 0 -23 11t-16 38.5t-7 129.5v184v83q0 26 11 28q24 3 20 -46l-1 -139q0 -2 -0.5 -79.5t2.5 -124.5q4 -36 8.5 -43t9.5 -7q10 -1 27.5 25.5t36.5 77.5
q30 85 34 136l3 158q0 30 2.5 36t10.5 7z" />
    <glyph glyph-name="Uogonek" unicode="&#x172;" horiz-adv-x="303" 
d="M170 -53q-28 -40 -31 -67q-3 -18 5.5 -30t24.5 -10q9 2 16 11t8 21q1 3 1.5 11t8.5 9q13 1 16.5 -12t-3.5 -32q-8 -18 -23 -27t-30 -9q-19 0 -34 12.5t-18 34.5q-6 43 39 105l24 31l-21 -2q-17 0 -34.5 5t-27.5 13q-38 28 -41 101q-2 51 -3 319v216q0 22 2.5 29t15.5 6
q11 -1 12.5 -9.5t-0.5 -25.5q-1 -19 -1.5 -53t0 -97.5t0.5 -82.5v-14t1 -142.5t4 -166.5q6 -47 37 -63q9 -5 22.5 -7t24.5 0q58 7 63 136q1 30 0.5 228t-1.5 214q0 54 1 62.5t3.5 12.5t6.5 5q6 1 12 -3t4 -31l3 -423q0 -93 -8.5 -134.5t-25.5 -63.5l-1 -2z" />
    <glyph glyph-name="uogonek" unicode="&#x173;" horiz-adv-x="262" 
d="M204 -114q13 1 16.5 -12.5t-4.5 -31.5q-7 -18 -22.5 -27.5t-29.5 -9.5q-19 0 -34.5 13t-17.5 35q-5 44 39 107q3 4 11 15.5t17.5 23.5t10.5 13v35l3 127q-24 -76 -32.5 -95t-17.5 -36t-24.5 -33t-31.5 -16q-13 0 -23 11t-16 38.5t-7 129.5v184v83q0 26 11 28q24 3 20 -46
l-1 -139q0 -2 -0.5 -79.5t2.5 -124.5q4 -36 8.5 -43t9.5 -7q10 -1 27.5 25.5t36.5 77.5q30 85 34 136l3 158q0 30 2.5 36t10.5 7q6 0 11 -2.5t5 -28.5l-1 -159l-1 -129v-113v-26l-1 -5q0 -1 -2 -4t-21.5 -29t-24.5 -33q-27 -40 -30 -66q-3 -18 5.5 -30.5t24.5 -9.5
q9 2 16 11t8 21q1 3 1.5 11t8.5 9z" />
    <glyph glyph-name="Wcircumflex" unicode="&#x174;" horiz-adv-x="409" 
d="M203 769q2 0 7 -2t15.5 -10t11.5 -9l51 -45q8 -7 9 -12t-6 -11q-10 -8 -33 13q-38 33 -43.5 37.5t-10.5 7.5q-8 -4 -19 -13t-14 -11l-32 -30q-14 -13 -23 -4q-4 4 -4 10.5t18 22.5q26 24 45 39q23 17 28 17zM372 683q1 -1 4 -5.5t0 -40.5l-33 -495l-9 -106
q-3 -17 -6 -26.5t-9 -10.5q-9 -2 -16.5 2.5t-11.5 24.5q-16 81 -41 238l-23 145l-20 124l-19 -110q-1 -7 -14 -87t-31 -174q-22 -120 -29 -144q-2 -7 -6 -13t-9 -6q-8 -2 -15 4t-9.5 20t-4.5 35l-10 158l-10 159l-11 158l-9 115q-2 14 -0.5 24t13.5 10q15 -1 15 -32l10 -120
q3 -31 6.5 -88t4.5 -68l18 -315l31 173q6 38 40 235l19 104q1 3 2 11t4 13t10 5q5 0 9 -2t6.5 -6t3.5 -8t2 -9.5t1 -7.5q14 -62 23 -122l22 -137l41 -252l6 100l10 170q6 111 19 297q2 39 3.5 46t4.5 10q2 6 18 4z" />
    <glyph glyph-name="wcircumflex" unicode="&#x175;" horiz-adv-x="356" 
d="M178 658q12 0 29 -28q8 -12 27.5 -47.5t20.5 -37.5q13 -21 2 -28q-5 -3 -10 -2t-15 16l-32 57l-24 36q-8 -13 -26.5 -46t-19.5 -35q-14 -24 -18.5 -26t-8.5 0q-15 5 -3 28l47 83q17 30 31 30zM320 469q9 0 12 -12t-5 -55q-2 -18 -6 -47.5t-28 -192.5q-7 -60 -23 -137
q-3 -15 -7 -22t-18 -4q-2 0 -5 1.5t-5 5t-3 7.5t-3 11.5t-2 9.5l-8 38l-19 119q-1 6 -7.5 52.5t-9.5 57.5l-13 -78q-9 -49 -21.5 -108.5t-17.5 -84.5q-6 -32 -19 -32q-5 -1 -11 1.5t-10 22.5q-3 15 -10.5 52t-25 143.5t-19.5 121.5l-15 94q-3 15 -2 25t10 11q20 2 22 -19
l7 -55l20 -132l9 -63l23 -134q14 56 32 157l23 131q2 17 6 29t14 13q12 0 17 -30l7 -44l40 -260q7 40 20 132l26 182l8 68q4 19 7 22t10 3z" />
    <glyph glyph-name="Ycircumflex" unicode="&#x176;" horiz-adv-x="268" 
d="M134 794q8 0 34 -21q29 -24 51 -44q8 -7 9 -12.5t-6 -10.5q-3 -3 -9 -3t-24 16q-34 30 -42 36t-12 8q-8 -5 -33 -24l-32 -29q-7 -7 -12.5 -8t-10.5 4q-12 12 14 32q18 18 45 39q20 17 28 17zM256 683q7 -1 9 -6.5t-4 -22.5q-8 -21 -28.5 -92t-25.5 -88q-37 -115 -58 -174
v-83l-1 -187q0 -16 -2 -23.5t-11 -7.5q-2 0 -7 2.5t-6.5 11.5t-1.5 38v190v55l-51 169q-12 46 -57 186q-2 5 -4.5 16t6.5 14q8 3 15.5 0t12.5 -22.5t5 -20.5l39 -131q21 -74 49 -167l37 120l62 205q6 19 22 18z" />
    <glyph glyph-name="ycircumflex" unicode="&#x177;" horiz-adv-x="225" 
d="M110 658q12 0 29 -28q8 -12 27.5 -47.5t20.5 -37.5q13 -21 2 -28q-5 -3 -10 -2t-15 16l-32 57l-24 36q-8 -13 -26.5 -46t-19.5 -35q-14 -24 -18.5 -26t-8.5 0q-15 5 -3 28l47 83q17 30 31 30zM191 469q8 1 14 -5.5t-1 -42.5l-36 -217l-36 -188l-40 -190l-16 -65
q-4 -11 -7.5 -16t-11.5 -4t-11.5 5.5t0.5 18.5l9 35q29 118 41 194q-9 49 -35 210l-35 208q-9 42 -5 49.5t11 7.5q9 -1 14.5 -10t7.5 -35l18 -104l41 -272q5 26 16 96t18 106q27 160 29 181q2 16 5 26.5t10 11.5z" />
    <glyph glyph-name="Ydieresis" unicode="&#x178;" horiz-adv-x="268" 
d="M115 726q0 -12 -8.5 -19t-18.5 -7q-11 0 -17.5 8.5t-6.5 18.5q0 11 8.5 19t18.5 8q11 0 17.5 -8.5t6.5 -19.5zM183 754q11 0 19 -8.5t8 -19.5q0 -9 -6.5 -17t-17.5 -8q-12 0 -19 7.5t-7 19.5q0 11 7.5 18.5t15.5 7.5zM256 683q7 -1 9 -6.5t-4 -22.5q-8 -21 -28.5 -92
t-25.5 -88q-37 -115 -58 -174v-83l-1 -187q0 -16 -2 -23.5t-11 -7.5q-2 0 -7 2.5t-6.5 11.5t-1.5 38v190v55l-51 169q-12 46 -57 186q-2 5 -4.5 16t6.5 14q8 3 15.5 0t12.5 -22.5t5 -20.5l39 -131q21 -74 49 -167l37 120l62 205q6 19 22 18z" />
    <glyph glyph-name="Zacute" unicode="&#x179;" horiz-adv-x="224" 
d="M190 811q12 -2 14 -15q1 -7 -15 -21l-57 -46q-19 -15 -25.5 -17.5t-9.5 0.5q-4 3 -5 9t12 18q43 38 53 48q2 2 14 13.5t19 10.5zM172 683h13t18 -2t11 -7q2 -6 0.5 -14.5t-4.5 -18t-4 -11.5l-34 -128q-39 -154 -66 -243l-44 -155l-21 -76q64 -5 127 0q22 2 32.5 -1
t8.5 -14q-1 -7 -4.5 -9t-28.5 -4l-62 -2l-43 2q-4 0 -20 -0.5t-24.5 2t-12.5 6.5q-3 3 -2 18t18 73l65 233q5 16 18 63t37 138.5t31 119.5q-52 3 -111 -2q-12 -1 -22.5 2.5t-11.5 13.5t6 12.5t20 1.5t14 -1z" />
    <glyph glyph-name="zacute" unicode="&#x17a;" horiz-adv-x="176" 
d="M171 679q4 -3 6 -8t-10 -22l-66 -96q-8 -9 -13.5 -12t-11.5 1q-3 2 -4 8t15 31l41 64l19 27q11 18 24 7zM103 469q38 0 50.5 -1.5t14.5 -5.5q3 -5 1 -14.5t-5.5 -20t-3.5 -11.5l-73 -239l-45 -150q22 -1 96 2q26 2 27 -9q6 -23 -36 -21q-37 2 -80 0q-30 -2 -35 8
q-2 3 -2.5 8.5t1.5 15t6 22.5t5 17l51 164l62 204q-34 3 -82 1q-13 -2 -19 0t-6 14q0 8 12 11.5t61 4.5z" />
    <glyph glyph-name="Zdotaccent" unicode="&#x17b;" horiz-adv-x="224" 
d="M112 759q5 7 12.5 7.5t11.5 -3.5q5 -6 6.5 -14.5t-3.5 -15.5q-5 -5 -13 -5.5t-14 3.5q-6 6 -6 15t6 13zM172 683h13t18 -2t11 -7q2 -6 0.5 -14.5t-4.5 -18t-4 -11.5l-34 -128q-39 -154 -66 -243l-44 -155l-21 -76q64 -5 127 0q22 2 32.5 -1t8.5 -14q-1 -7 -4.5 -9
t-28.5 -4l-62 -2l-43 2q-4 0 -20 -0.5t-24.5 2t-12.5 6.5q-3 3 -2 18t18 73l65 233q5 16 18 63t37 138.5t31 119.5q-52 3 -111 -2q-12 -1 -22.5 2.5t-11.5 13.5t6 12.5t20 1.5t14 -1z" />
    <glyph glyph-name="zdotaccent" unicode="&#x17c;" horiz-adv-x="176" 
d="M87 587q4 5 11 7t14 -4q12 -14 2 -30q-6 -5 -13.5 -5t-13.5 4q-6 6 -6 14.5t6 13.5zM103 469q38 0 50.5 -1.5t14.5 -5.5q3 -5 1 -14.5t-5.5 -20t-3.5 -11.5l-73 -239l-45 -150q22 -1 96 2q26 2 27 -9q6 -23 -36 -21q-37 2 -80 0q-30 -2 -35 8q-2 3 -2.5 8.5t1.5 15
t6 22.5t5 17l51 164l62 204q-34 3 -82 1q-13 -2 -19 0t-6 14q0 8 12 11.5t61 4.5z" />
    <glyph glyph-name="Zcaron" unicode="&#x17d;" horiz-adv-x="224" 
d="M216 798q3 -2 5 -7t-8 -15q-17 -16 -53 -45q-25 -21 -33 -21q-10 0 -74 57q-13 12 -16 18.5t2 11.5q2 2 8 4.5t16 -6.5l32 -29q20 -18 33 -25q2 1 8.5 5.5t48.5 41.5q13 11 19.5 13t11.5 -3zM172 683h13t18 -2t11 -7q2 -6 0.5 -14.5t-4.5 -18t-4 -11.5l-34 -128
q-39 -154 -66 -243l-44 -155l-21 -76q64 -5 127 0q22 2 32.5 -1t8.5 -14q-1 -7 -4.5 -9t-28.5 -4l-62 -2l-43 2q-4 0 -20 -0.5t-24.5 2t-12.5 6.5q-3 3 -2 18t18 73l65 233q5 16 18 63t37 138.5t31 119.5q-52 3 -111 -2q-12 -1 -22.5 2.5t-11.5 13.5t6 12.5t20 1.5t14 -1z
" />
    <glyph glyph-name="zcaron" unicode="&#x17e;" horiz-adv-x="176" 
d="M174 673q13 -5 2 -28q-22 -43 -45 -83q-17 -30 -29 -30q-3 0 -7 2.5t-8 7t-8.5 11t-5.5 7.5q-7 10 -27.5 45t-25.5 43q-4 7 -5 14t4 11q4 3 9.5 3t14.5 -15l37 -61l23 -33q8 13 24.5 44t19.5 36q12 21 16.5 25t10.5 1zM103 469q38 0 50.5 -1.5t14.5 -5.5q3 -5 1 -14.5
t-5.5 -20t-3.5 -11.5l-73 -239l-45 -150q22 -1 96 2q26 2 27 -9q6 -23 -36 -21q-37 2 -80 0q-30 -2 -35 8q-2 3 -2.5 8.5t1.5 15t6 22.5t5 17l51 164l62 204q-34 3 -82 1q-13 -2 -19 0t-6 14q0 8 12 11.5t61 4.5z" />
    <glyph glyph-name="florin" unicode="&#x192;" horiz-adv-x="265" 
d="M189 694q14 3 31.5 -1t24 -12t4.5 -15q0 -1 -1 -2.5t-3.5 -5t-18.5 2t-27 5.5t-23 -9t-20 -28t-11 -40q-12 -77 -15 -210l48 1q16 0 25.5 -2.5t9.5 -12.5q0 -5 -5 -10t-41 -5l-38 -1q-4 -114 -13 -210q-11 -136 -47 -189q-27 -36 -72 -34q-12 0 -27.5 8.5t-12.5 20.5
q2 7 6.5 9t15 -3t13.5 -6q14 -4 27.5 1.5t22.5 15.5q32 36 45 179q6 58 13 208q-33 0 -43 2t-10 13q0 5 7 10t47 5q3 107 11 177q6 47 13.5 75t24.5 43.5t39 19.5z" />
    <glyph glyph-name="uni01CD" unicode="&#x1cd;" horiz-adv-x="277" 
d="M66 767q-13 12 -16 18.5t2 11.5q2 2 8 4.5t16 -6.5l32 -29q20 -18 33 -25q2 1 8.5 5.5t48.5 41.5q13 11 19.5 13t11.5 -3q3 -2 5 -7t-8 -15q-17 -16 -53 -45q-25 -21 -33 -21q-10 0 -74 57zM265 27q1 -13 0 -19.5t-9 -7.5q-10 -1 -15 5.5t-8 29.5l-41 226q-35 -5 -108 -3
q-20 -113 -21 -122l-18 -106q-3 -17 -6 -24t-15 -7q-7 0 -11.5 5t2.5 35q5 23 41 226l26 172q15 92 37 209q4 25 9 33t13 8q9 0 13 -5.5t8 -28.5q15 -82 33 -210l28 -190q10 -61 27 -152zM89 290v-2q46 -6 99 3q-9 62 -25.5 184t-20.5 151q-13 -64 -22 -128z" />
    <glyph glyph-name="uni01CE" unicode="&#x1ce;" horiz-adv-x="224" 
d="M186 673q13 -5 2 -28q-22 -43 -45 -83q-17 -30 -29 -30q-3 0 -7 2.5t-8 7t-8.5 11t-5.5 7.5q-7 10 -27.5 45t-25.5 43q-4 7 -5 14t4 11q4 3 9.5 3t14.5 -15l37 -61l23 -33q8 13 24.5 44t19.5 36q12 21 16.5 25t10.5 1zM109 475q44 2 65 -36q17 -35 13 -107
q-5 -97 -5 -160l1 -158q1 -16 -13 -16q-5 0 -10 3.5t-6 27.5l2 123q-32 -94 -51 -126.5t-38 -32.5q-10 0 -19.5 8t-13.5 18q-18 41 -15 107t14 103q28 98 126 83q4 75 -6 102t-32 33q-16 4 -28.5 -6.5t-13.5 -29.5q0 -1 1 -9t-0.5 -13.5t-5.5 -6.5t-7 -1q-9 -1 -13 12t-3 27
q2 23 18.5 38t39.5 17zM158 283q-22 4 -42.5 0.5t-33.5 -18.5q-11 -13 -20.5 -44.5t-12.5 -77.5t1 -77q8 -43 21 -41q11 1 44.5 83t37.5 105q5 20 5 70z" />
    <glyph glyph-name="uni01CF" unicode="&#x1cf;" 
d="M155 796q3 -2 5 -7t-8 -15q-17 -16 -53 -45q-25 -21 -33 -21q-10 0 -74 57q-13 12 -16 18.5t2 11.5q2 2 8 4.5t16 -6.5l32 -29q20 -18 33 -25q2 1 8.5 5.5t48.5 41.5q13 11 19.5 13t11.5 -3zM65 682q7 0 11 -3.5t3.5 -15t-0.5 -13.5v-133l-1 -359l-1 -124
q0 -18 -1.5 -26.5t-10.5 -9.5q-7 0 -12 3.5t-5 26.5q0 2 0.5 13t1.5 119t0 205l1 125v162q0 12 2.5 21t11.5 9z" />
    <glyph glyph-name="uni01D0" unicode="&#x1d0;" horiz-adv-x="123" 
d="M132 673q13 -5 2 -28q-22 -43 -45 -83q-17 -30 -29 -30q-3 0 -7 2.5t-8 7t-8.5 11t-5.5 7.5q-7 10 -27.5 45t-25.5 43q-4 7 -5 14t4 11q4 3 9.5 3t14.5 -15l37 -61l23 -33q8 13 24.5 44t19.5 36q12 21 16.5 25t10.5 1zM58 468q7 1 11.5 -3.5t6.5 -22.5l-1 -110l2 -317
q0 -9 -2.5 -14t-13.5 -3q-5 1 -9.5 7.5t-4.5 40.5v279v109q-2 21 0.5 27t10.5 7z" />
    <glyph glyph-name="uni01D1" unicode="&#x1d1;" horiz-adv-x="315" 
d="M257 798q3 -2 5 -7t-8 -15q-17 -16 -53 -45q-25 -21 -33 -21q-10 0 -74 57q-13 12 -16 18.5t2 11.5q2 2 8 4.5t16 -6.5l32 -29q20 -18 33 -25q2 1 8.5 5.5t48.5 41.5q13 11 19.5 13t11.5 -3zM161 688q61 6 88 -71q8 -25 14.5 -64.5t8.5 -74.5q7 -88 5 -164q0 -50 -8 -132
q-5 -56 -19 -99t-37.5 -66.5t-57.5 -23.5q-36 0 -64.5 34t-40.5 97q-8 38 -12.5 104.5t-0.5 152.5q9 149 36 220q13 37 37 60.5t51 26.5zM166 658q-45 -5 -66 -67q-23 -62 -32 -181q-4 -62 -3 -127.5t7.5 -112t14.5 -72.5q25 -77 69 -77q35 0 56 45t28 114q9 85 9 139
q0 88 -6.5 171t-19.5 117q-8 20 -20 35.5t-37 15.5z" />
    <glyph glyph-name="uni01D2" unicode="&#x1d2;" horiz-adv-x="242" 
d="M195 673q13 -5 2 -28q-22 -43 -45 -83q-17 -30 -29 -30q-3 0 -7 2.5t-8 7t-8.5 11t-5.5 7.5q-7 10 -27.5 45t-25.5 43q-4 7 -5 14t4 11q4 3 9.5 3t14.5 -15l37 -61l23 -33q8 13 24.5 44t19.5 36q12 21 16.5 25t10.5 1zM124 474q17 0 33.5 -11t27 -34.5t15.5 -48.5
q14 -66 14 -160q0 -165 -53 -212q-18 -15 -44 -15q-60 0 -80 95q-10 56 -10 118.5t6 107.5q8 73 31.5 116.5t59.5 43.5zM66 339q-7 -50 -9.5 -98t3.5 -112q5 -50 20.5 -79t37.5 -29t40 29q23 38 27 129.5t-8 171.5q-9 53 -23 73.5t-32 20.5q-20 0 -35.5 -33.5t-20.5 -72.5z
" />
    <glyph glyph-name="uni01D3" unicode="&#x1d3;" horiz-adv-x="303" 
d="M240 782q3 -2 5 -7t-9 -15l-52 -45q-25 -20 -34 -20q-8 0 -73 56q-14 14 -16.5 19.5t2.5 10.5q11 11 23 -2l33 -29q13 -13 32 -24q17 8 57 46q15 12 21 13.5t11 -3.5zM65 682q11 -1 12.5 -9.5t-0.5 -25.5q-1 -19 -1.5 -53t0 -97.5t0.5 -82.5v-14t1 -142.5t4 -166.5
q6 -47 37 -63q9 -5 22.5 -7t24.5 0q58 7 63 136q1 30 0.5 228t-1.5 214q0 54 1 62.5t3.5 12.5t6.5 5q6 1 12 -3t4 -31l3 -423q0 -127 -17 -167t-43 -53q-18 -9 -44 -9q-17 0 -34.5 5t-27.5 13q-38 28 -41 101q-2 51 -3 319v216q0 22 2.5 29t15.5 6z" />
    <glyph glyph-name="uni01D4" unicode="&#x1d4;" horiz-adv-x="262" 
d="M200 673q13 -5 2 -28q-22 -43 -45 -83q-17 -30 -29 -30q-3 0 -7 2.5t-8 7t-8.5 11t-5.5 7.5q-7 10 -27.5 45t-25.5 43q-4 7 -5 14t4 11q4 3 9.5 3t14.5 -15l37 -61l23 -33q8 13 24.5 44t19.5 36q12 21 16.5 25t10.5 1zM205 469q6 0 11 -2.5t5 -28.5l-1 -159l-1 -129v-113
q1 -21 -1.5 -29.5t-12.5 -8.5q-3 0 -7.5 1.5t-6 8t-1.5 38.5l3 127q-24 -76 -32.5 -95t-17.5 -36t-24.5 -33t-31.5 -16q-13 0 -23 11t-16 38.5t-7 129.5v184v83q0 26 11 28q24 3 20 -46l-1 -139q0 -2 -0.5 -79.5t2.5 -124.5q4 -36 8.5 -43t9.5 -7q10 -1 27.5 25.5t36.5 77.5
q30 85 34 136l3 158q0 30 2.5 36t10.5 7z" />
    <glyph glyph-name="uni01E2" unicode="&#x1e2;" horiz-adv-x="379" 
d="M233 730q-12 0 -19 2.5t-7 11.5q0 6 6 10.5t44 4.5l88 -1q6 0 16 -1t10 -15q0 -4 -3.5 -7t-10.5 -4t-18.5 -1h-14.5h-91zM348 652q-14 0 -53 1.5t-59 0.5q-3 -64 -5 -207h87q16 0 22 -2t6 -13q0 -5 -4 -10t-25 -5l-86 -1l-4 -205l-4 -181q33 -1 110 1q17 0 26.5 -3
t10.5 -13q0 -5 -4 -10t-37 -5h-89q-32 0 -37.5 1.5t-7.5 3.5q-1 1 -2.5 5t-1.5 36q1 74 6 214h-99l-34 -106l-40 -126q-5 -15 -10 -22t-15 -7q-8 0 -11.5 5t0.5 20l47 141l66 204l42 131l42 131q13 48 38 51q14 1 42.5 0.5t31.5 -0.5t26.5 0.5t36 -1t14.5 -5.5
q6 -12 -1.5 -18t-24.5 -6zM107 289l91 1v4q5 222 9 319q-2 -5 -5 -16.5t-41 -136t-50 -160.5z" />
    <glyph glyph-name="uni01E3" unicode="&#x1e3;" horiz-adv-x="346" 
d="M154 575l88 -1q6 0 16 -1t10 -15q0 -5 -4 -8t-10 -3.5t-17.5 -0.5h-14.5h-91q-12 0 -19 2.5t-7 11.5q0 6 6 10.5t43 4.5zM119 474q17 0 32.5 -10t21.5 -24q12 -28 10 -94q11 59 32 96q8 14 22 23t27 9q31 0 46 -37t15 -143q0 -34 -6 -40q-4 -5 -71 -5l-55 2
q-5 -64 4 -128q4 -28 13.5 -53t20.5 -35.5t20 -10.5q10 0 19.5 11t13.5 28q1 6 3.5 21.5t6 20t8.5 5.5q10 1 13.5 -9t-2.5 -44q-6 -30 -23 -46t-40 -16q-15 0 -31.5 11.5t-29 40t-17.5 61.5l-4 63q-20 -77 -39 -119q-16 -32 -28.5 -45t-32.5 -13q-40 0 -45 89q-3 86 25 141
q12 24 37 38.5t76 15.5q2 100 -7 130q-9 37 -37 37q-17 0 -27.5 -10.5t-9.5 -29.5q0 -3 1.5 -16t-1 -17.5t-7.5 -5.5q-10 -2 -15.5 4t-6.5 28q-1 36 19.5 56t48.5 20zM265 445q-17 0 -31.5 -27t-25 -68t-13.5 -71q80 -1 100 0q2 62 -5.5 113.5t-24.5 52.5zM161 250
q-55 -2 -75 -22q-18 -19 -26.5 -66t-5.5 -89q1 -15 5 -30.5t11 -16.5q6 0 13 4.5t19 28.5q9 19 25.5 62.5t28.5 92.5q6 23 5 36z" />
    <glyph glyph-name="Gcaron" unicode="&#x1e6;" horiz-adv-x="275" 
d="M247 798q3 -2 5 -7t-8 -15q-17 -16 -53 -45q-25 -21 -33 -21q-10 0 -74 57q-13 12 -16 18.5t2 11.5q2 2 8 4.5t16 -6.5l32 -29q20 -18 33 -25q2 1 8.5 5.5t48.5 41.5q13 11 19.5 13t11.5 -3zM225 600q9 -61 -14 -61q-18 1 -14 31q2 30 -5.5 56t-23.5 32q-12 3 -23.5 -3.5
t-25.5 -28.5q-15 -26 -28.5 -71t-21.5 -135q-5 -65 -5 -115q1 -107 13 -170.5t29 -90.5q10 -15 24.5 -19.5t26.5 1.5q23 11 35 63q6 22 11 55.5t6 148.5v22t-3 23q-4 1 -21.5 2t-26.5 0q-14 -1 -24.5 0.5t-11.5 10.5q0 6 2 11t17 6l51 -1q2 0 12.5 0.5t15.5 -0.5t7 -2
q4 -2 7 -8.5t3 -31v-32.5q0 -66 -4 -121.5t-17 -103.5q-21 -74 -75 -74q-47 0 -71 58q-30 72 -35 218q-2 91 7 180q8 60 18.5 105.5t35.5 89.5q10 17 27.5 29.5t37.5 12.5q50 0 64 -87z" />
    <glyph glyph-name="gcaron" unicode="&#x1e7;" horiz-adv-x="229" 
d="M85 560q-7 10 -27.5 45t-25.5 43q-4 7 -5 14t4 11q4 3 9.5 3t14.5 -15l37 -61l23 -33q8 13 24.5 44t19.5 36q12 21 16.5 25t10.5 1q13 -5 2 -28q-22 -43 -45 -83q-17 -30 -29 -30q-3 0 -7 2.5t-8 7t-8.5 11t-5.5 7.5zM123 6q21 -15 40.5 -41t28 -61t5.5 -69
q-3 -28 -16 -53t-33 -35.5t-40 -10.5q-16 0 -36.5 10.5t-36 38.5t-15.5 64q0 24 8.5 53t26 54.5t33.5 38.5l-25 18q-13 10 -13.5 24t6 28.5t12.5 26.5l9 17q-33 24 -43 92t0 139q4 33 15.5 66t32.5 52t48 16q7 0 13 -3q9 3 18 12t10 19q1 3 1.5 12.5t5 12t13.5 -0.5
q6 -2 8 -10t0 -18q-1 -6 -7.5 -20.5t-25.5 -26.5q16 -22 27 -70.5t6 -122t-29 -119.5q-15 -24 -31.5 -32.5t-34.5 -6.5l-21 -41q-7 -15 -1 -24q1 -1 5 -4t19.5 -13.5t16.5 -11.5zM59 260q2 -98 32 -124q15 -13 29.5 -6t24 25.5t14.5 35.5q14 47 13 105.5t-13 102.5
q-14 50 -41 45q-32 -5 -46 -63t-13 -121zM159 -201q10 21 11.5 54t-15 69.5t-44.5 57.5q-13 -9 -29.5 -32.5t-24.5 -48.5t-8 -44q0 -18 5.5 -39.5t20.5 -36t34 -14.5q33 0 50 34z" />
    <glyph glyph-name="uni01E8" unicode="&#x1e8;" horiz-adv-x="257" 
d="M230 776q3 -2 5 -7t-8 -15q-17 -16 -53 -45q-25 -21 -33 -21q-10 0 -74 57q-13 12 -16 18.5t2 11.5q2 2 8 4.5t16 -6.5l32 -29q20 -18 33 -25q2 1 8.5 5.5t48.5 41.5q13 11 19.5 13t11.5 -3zM78 642v-111q-2 -115 -4 -138l47 85l98 191q6 13 15 13q10 0 13 -5.5t-6 -27.5
q-2 -5 -8.5 -19t-42.5 -80.5t-49 -91.5q-21 -38 -60 -101l68 -134l65 -128q12 -27 35 -67q8 -15 7 -22t-16 -7q-5 0 -9.5 2.5t-7.5 10t-4 9.5l-89 177q-31 59 -55 114v-235v-45q1 -18 -2 -25.5t-17 -7.5q-10 0 -10 25q1 29 1 165l2 194v111l-1 148q0 26 1 30.5t4 6.5t7 2.5
t5 0.5q5 0 9 -4t4 -36z" />
    <glyph glyph-name="uni01F4" unicode="&#x1f4;" horiz-adv-x="275" 
d="M221 811q12 -2 14 -15q1 -7 -15 -21l-57 -46q-19 -15 -25.5 -17.5t-9.5 0.5q-4 3 -5 9t12 18q43 38 53 48q2 2 14 13.5t19 10.5zM225 600q9 -61 -14 -61q-18 1 -14 31q2 30 -5.5 56t-23.5 32q-12 3 -23.5 -3.5t-25.5 -28.5q-15 -26 -28.5 -71t-21.5 -135q-5 -65 -5 -115
q1 -107 13 -170.5t29 -90.5q10 -15 24.5 -19.5t26.5 1.5q23 11 35 63q6 22 11 55.5t6 148.5v22t-3 23q-4 1 -21.5 2t-26.5 0q-14 -1 -24.5 0.5t-11.5 10.5q0 6 2 11t17 6l51 -1q2 0 12.5 0.5t15.5 -0.5t7 -2q4 -2 7 -8.5t3 -31v-32.5q0 -66 -4 -121.5t-17 -103.5
q-21 -74 -75 -74q-47 0 -71 58q-30 72 -35 218q-2 91 7 180q8 60 18.5 105.5t35.5 89.5q10 17 27.5 29.5t37.5 12.5q50 0 64 -87z" />
    <glyph glyph-name="uni01F5" unicode="&#x1f5;" horiz-adv-x="229" 
d="M88 542q-3 2 -4 8t15 31l41 64l19 27q11 18 24 7q4 -3 6 -8t-10 -22l-66 -96q-8 -9 -13.5 -12t-11.5 1zM123 6q21 -15 40.5 -41t28 -61t5.5 -69q-3 -28 -16 -53t-33 -35.5t-40 -10.5q-16 0 -36.5 10.5t-36 38.5t-15.5 64q0 24 8.5 53t26 54.5t33.5 38.5l-25 18
q-13 10 -13.5 24t6 28.5t12.5 26.5l9 17q-33 24 -43 92t0 139q4 33 15.5 66t32.5 52t48 16q7 0 13 -3q9 3 18 12t10 19q1 3 1.5 12.5t5 12t13.5 -0.5q6 -2 8 -10t0 -18q-1 -6 -7.5 -20.5t-25.5 -26.5q16 -22 27 -70.5t6 -122t-29 -119.5q-15 -24 -31.5 -32.5t-34.5 -6.5
l-21 -41q-7 -15 -1 -24q1 -1 5 -4t19.5 -13.5t16.5 -11.5zM59 260q2 -98 32 -124q15 -13 29.5 -6t24 25.5t14.5 35.5q14 47 13 105.5t-13 102.5q-14 50 -41 45q-32 -5 -46 -63t-13 -121zM159 -201q10 21 11.5 54t-15 69.5t-44.5 57.5q-13 -9 -29.5 -32.5t-24.5 -48.5t-8 -44
q0 -18 5.5 -39.5t20.5 -36t34 -14.5q33 0 50 34z" />
    <glyph glyph-name="uni01F8" unicode="&#x1f8;" horiz-adv-x="317" 
d="M99 797q6 0 32 -25q9 -10 53 -47q17 -18 8 -27q-7 -6 -37 17l-56 45q-16 12 -16 20q0 6 5.5 11.5t10.5 5.5zM255 682q3 0 8 -2.5t4 -19.5t-1 -21q2 -48 1 -122t-1 -88q3 -145 1 -353l1 -44q2 -34 -13 -36q-6 -1 -12 2.5t-13 26.5q-42 139 -61 210q-26 100 -45 181
q-33 135 -50 196q0 -38 1.5 -87t1.5 -61v-272l1 -163q1 -19 -2.5 -26t-10.5 -6q-5 0 -10 5t-5 28l-1 286v160v148q0 37 2 47t8 11q11 2 18 -2.5t13 -23.5q22 -72 32 -115q0 -2 1.5 -6.5t31.5 -127.5t47 -184l39 -150l-3 300v155q0 9 -0.5 54t0.5 69q0 13 3 22t14 9z" />
    <glyph glyph-name="AEacute" unicode="&#x1fc;" horiz-adv-x="379" 
d="M258 712q-4 3 -5 9t12 18q43 38 53 48q2 2 14 13.5t19 10.5q12 -2 14 -15q1 -7 -15 -21l-57 -46q-19 -15 -25.5 -17.5t-9.5 0.5zM348 652q-14 0 -53 1.5t-59 0.5q-3 -64 -5 -207h87q16 0 22 -2t6 -13q0 -5 -4 -10t-25 -5l-86 -1l-4 -205l-4 -181q33 -1 110 1
q17 0 26.5 -3t10.5 -13q0 -5 -4 -10t-37 -5h-89q-32 0 -37.5 1.5t-7.5 3.5q-1 1 -2.5 5t-1.5 36q1 74 6 214h-99l-34 -106l-40 -126q-5 -15 -10 -22t-15 -7q-8 0 -11.5 5t0.5 20l47 141l66 204l42 131l42 131q13 48 38 51q14 1 42.5 0.5t31.5 -0.5t26.5 0.5t36 -1t14.5 -5.5
q6 -12 -1.5 -18t-24.5 -6zM107 289l91 1v4q5 222 9 319q-2 -5 -5 -16.5t-41 -136t-50 -160.5z" />
    <glyph glyph-name="aeacute" unicode="&#x1fd;" horiz-adv-x="346" 
d="M255 679q4 -3 6 -8t-10 -22l-66 -96q-8 -9 -13.5 -12t-11.5 1q-3 2 -4 8t15 31l41 64l19 27q11 18 24 7zM119 474q17 0 32.5 -10t21.5 -24q12 -28 10 -94q11 59 32 96q8 14 22 23t27 9q31 0 46 -37t15 -143q0 -34 -6 -40q-4 -5 -71 -5l-55 2q-5 -64 4 -128
q4 -28 13.5 -53t20.5 -35.5t20 -10.5q10 0 19.5 11t13.5 28q1 6 3.5 21.5t6 20t8.5 5.5q10 1 13.5 -9t-2.5 -44q-6 -30 -23 -46t-40 -16q-15 0 -31.5 11.5t-29 40t-17.5 61.5l-4 63q-20 -77 -39 -119q-16 -32 -28.5 -45t-32.5 -13q-40 0 -45 89q-3 86 25 141q12 24 37 38.5
t76 15.5q2 100 -7 130q-9 37 -37 37q-17 0 -27.5 -10.5t-9.5 -29.5q0 -3 1.5 -16t-1 -17.5t-7.5 -5.5q-10 -2 -15.5 4t-6.5 28q-1 36 19.5 56t48.5 20zM265 445q-17 0 -31.5 -27t-25 -68t-13.5 -71q80 -1 100 0q2 62 -5.5 113.5t-24.5 52.5zM161 250q-55 -2 -75 -22
q-18 -19 -26.5 -66t-5.5 -89q1 -15 5 -30.5t11 -16.5q6 0 13 4.5t19 28.5q9 19 25.5 62.5t28.5 92.5q6 23 5 36z" />
    <glyph glyph-name="Oslashacute" unicode="&#x1fe;" horiz-adv-x="320" 
d="M176 727q-29 -25 -36 -18q-4 4 -5 9.5t10 17.5q38 32 53 47q3 2 10.5 10t13.5 12t11 4q4 0 9.5 -5.5t5.5 -10.5q0 -9 -18 -22zM276 478q7 -88 5 -164q-1 -63 -8 -132q-9 -94 -38.5 -142t-75.5 -47q-25 0 -45 15q-11 -61 -26 -59q-5 1 -8 4t-3 9t2.5 16t2.5 13l9 39
q-13 17 -23 43t-14 51q-8 38 -12.5 104.5t-0.5 152.5q9 148 35 220q14 37 37.5 60.5t50.5 26.5q26 3 47 -10q7 35 17 36q7 1 12.5 -3.5t0.5 -33.5l-5 -25q7 -11 17 -35q8 -25 14.5 -64.5t8.5 -74.5zM72 410q-7 -86 -2.5 -172.5t21.5 -139.5l9 -24l47 267l27 148
q6 28 14.5 75t13.5 72l2 9q-13 13 -35 13q-44 -5 -65 -67q-23 -62 -32 -181zM244 180q9 85 9 139q0 114 -8.5 187.5t-18.5 99.5l-27 -136l-50 -283l-22 -109l-7 -38q17 -19 40 -19q18 0 35.5 15.5t30 54.5t18.5 89z" />
    <glyph glyph-name="oslashacute" unicode="&#x1ff;" horiz-adv-x="244" 
d="M98 542q-3 2 -4 8t15 31l41 64l19 27q11 18 24 7q4 -3 6 -8t-10 -22l-66 -96q-8 -9 -13.5 -12t-11.5 1zM202 380q13 -68 13 -160q0 -166 -53 -212q-18 -15 -43 -15q-15 0 -31 7l-10 -45q-1 -6 -8 -6q-6 0 -11 6t-3 15l10 48q-19 24 -28 70q-10 56 -10 118.5t6 107.5
q8 73 32 116.5t60 43.5q14 0 28 -7q5 28 9 38.5t13 11.5q5 0 8.5 -4.5t0.5 -21t-3 -18.5l-6 -27q4 -5 12 -21.5t14 -44.5zM61 129q5 -39 14 -66q3 16 13 64t31.5 159.5t28.5 148.5q-12 10 -24 10q-10 0 -22 -12t-21.5 -39t-13.5 -55q-15 -111 -6 -210zM159 50
q23 38 27 129.5t-8 171.5q-7 37 -11 50q-40 -207 -73 -369q11 -11 26 -11q21 0 39 29z" />
    <glyph glyph-name="Scommaaccent" unicode="&#x218;" horiz-adv-x="253" 
d="M158 679q29 -9 44 -41t13 -73q0 -2 -0.5 -10.5t-2 -13.5t-4.5 -8q-4 -4 -13 -3.5t-12 5.5q-4 9 1 27q2 29 -6 54.5t-24 35.5q-12 7 -28 7q-10 0 -22 -5q-14 -9 -23 -28t-7 -45.5t10 -53.5q8 -28 32 -85.5t26 -62.5q2 -4 20.5 -47t32 -80t21.5 -67t10.5 -46.5t2.5 -22.5
q2 -37 -11 -67.5t-42 -46.5q-20 -10 -45 -10q-20 0 -41 9t-34 23q-13 15 -21.5 38.5t-8 51.5t5.5 51q2 11 5.5 18.5t12.5 7.5t13 -7.5t0 -20.5q-6 -20 -6.5 -49t7.5 -46q10 -24 31.5 -37t50.5 -8q16 3 30.5 16.5t20 42t-0.5 60.5q-12 69 -81 224l-37 93q-15 37 -24.5 69
t-8.5 70q0 20 10 41t23 32q22 17 51 17q17 0 29 -9zM124 -35q4 1 10.5 -1t8.5 -5q5 -8 -1 -32l-20 -81q-7 -27 -18 -24q-5 1 -8.5 5.5t0.5 33.5q0 3 2 14t8 39t7 33q2 15 11 18z" />
    <glyph glyph-name="scommaaccent" unicode="&#x219;" horiz-adv-x="184" 
d="M86 473q38 4 56.5 -25t17.5 -67q-1 -19 -6 -25t-14 -5q-5 1 -8.5 5t0.5 25q2 26 -9.5 46.5t-33.5 17.5q-7 -1 -14.5 -9t-9.5 -15q-4 -10 -4.5 -26.5t6 -38.5t16 -42t23.5 -46t17 -31q23 -42 33 -72q18 -55 13 -93.5t-24.5 -58t-51.5 -19.5q-19 0 -38 12t-29 41.5t-4 63.5
q3 19 10.5 26.5t16.5 4.5q4 -1 6 -5.5t-1 -14t-3 -11.5q-6 -33 6 -61t38 -28q23 0 35.5 21.5t8.5 62.5q-2 17 -9 42t-42 92q-1 1 -2.5 4.5t-21.5 41t-28 72t-2 62.5q4 19 17.5 34.5t34.5 18.5zM89 -35q4 1 10.5 -1t8.5 -5q5 -8 -1 -32l-20 -81q-7 -27 -18 -24q-5 1 -8.5 5.5
t0.5 33.5q0 3 2 14t8 39t7 33q2 15 11 18z" />
    <glyph glyph-name="uni021A" unicode="&#x21a;" horiz-adv-x="221" 
d="M182 682q18 1 27.5 -1t10.5 -11q0 -10 -9.5 -14t-36.5 -3h-49q1 -50 0 -171.5t1 -177.5v-269q0 -18 -1.5 -27t-11.5 -10q-9 0 -13 7t-3 32l-1 120l-1 496q-8 1 -44 1q-33 0 -40.5 2t-8.5 8q0 18 15 18l55 -1zM106 -35q4 1 10.5 -1t8.5 -5q5 -8 -1 -32l-20 -81
q-7 -27 -18 -24q-5 1 -8.5 5.5t0.5 33.5q0 3 2 14t8 39t7 33q2 15 11 18z" />
    <glyph glyph-name="uni021B" unicode="&#x21b;" horiz-adv-x="179" 
d="M81 593q3 -1 5 -8t3 -23.5t1 -52v-41.5h66q13 0 19.5 -2t7.5 -10q1 -21 -45 -16l-48 -1l-1 -299q0 -8 -0.5 -31.5t0 -36t1.5 -20.5q2 -12 8 -21.5t15 -9.5q18 0 21.5 23.5t6 27t5.5 3.5q22 1 15 -38q-2 -11 -8 -21.5t-17 -16t-23 -5.5q-13 0 -25.5 6.5t-17.5 17.5
q-4 9 -7 25.5t-3 72.5q-1 63 0 177.5t1 145.5q-5 0 -22 0.5t-24.5 4t-7.5 11.5q0 5 3.5 9t22.5 3l28 1l1 94q-2 37 19 31zM100 -35q4 1 10.5 -1t8.5 -5q5 -8 -1 -32l-20 -81q-7 -27 -18 -24q-5 1 -8.5 5.5t0.5 33.5q0 3 2 14t8 39t7 33q2 15 11 18z" />
    <glyph glyph-name="uni0237" unicode="&#x237;" horiz-adv-x="118" 
d="M60 468q3 0 8 -1.5t6 -17.5v-65v-269l-1 -245q0 -62 -15.5 -95t-49.5 -38q-34 -4 -56 17t-24 58q-1 17 6 40t20 43q5 7 10.5 11t13.5 -2q4 -3 5.5 -8t-7.5 -18q-22 -42 -18 -74q3 -19 13.5 -29.5t25.5 -10.5q20 0 33 20t14 77l2 264l-1 298q0 33 3 39.5t12 5.5z" />
    <glyph glyph-name="circumflex" unicode="&#x2c6;" horiz-adv-x="243" 
d="M123 658q12 0 29 -28q8 -12 27.5 -47.5t20.5 -37.5q13 -21 2 -28q-5 -3 -10 -2t-15 16l-32 57l-24 36q-8 -13 -26.5 -46t-19.5 -35q-14 -24 -18.5 -26t-8.5 0q-15 5 -3 28l47 83q17 30 31 30z" />
    <glyph glyph-name="caron" unicode="&#x2c7;" horiz-adv-x="276" 
d="M210 673q13 -5 2 -28q-22 -43 -45 -83q-17 -30 -29 -30q-3 0 -7 2.5t-8 7t-8.5 11t-5.5 7.5q-7 10 -27.5 45t-25.5 43q-4 7 -5 14t4 11q4 3 9.5 3t14.5 -15l37 -61l23 -33q8 13 24.5 44t19.5 36q12 21 16.5 25t10.5 1z" />
    <glyph glyph-name="breve" unicode="&#x2d8;" horiz-adv-x="260" 
d="M182 672q6 0 11 -5t5 -36q-1 -45 -19.5 -73.5t-50.5 -28.5q-27 0 -43.5 21t-21.5 46.5t-5 44.5q0 34 19 30q3 -1 5 -4.5t2.5 -15t0.5 -14.5q1 -22 6.5 -42t16 -29t21.5 -9q20 0 31 24t11 61q0 19 2.5 24.5t8.5 5.5z" />
    <glyph glyph-name="dotaccent" unicode="&#x2d9;" 
d="M50 587q4 5 11 7t14 -4q12 -14 2 -30q-6 -5 -13.5 -5t-13.5 4q-6 6 -6 14.5t6 13.5z" />
    <glyph glyph-name="ring" unicode="&#x2da;" horiz-adv-x="165" 
d="M87 689q43 0 48 -64q1 -22 -1.5 -43.5t-9.5 -32.5q-15 -22 -41 -22q-13 0 -24.5 8t-16.5 19q-9 19 -8.5 50t7.5 49q5 14 16 25t30 11zM75 662q-9 -8 -13 -32t-1.5 -42.5t6.5 -25.5q6 -10 16 -10.5t16 7.5q11 12 11 51q0 15 -3.5 30t-8.5 21q-5 5 -12 4.5t-11 -3.5z" />
    <glyph glyph-name="ogonek" unicode="&#x2db;" horiz-adv-x="346" 
d="M225 12l-47 -66q-27 -40 -30 -66q-3 -18 5.5 -30t24.5 -10q9 2 16 11t8 21q1 3 1.5 11t7.5 9q14 1 17.5 -12t-4.5 -32q-7 -18 -22.5 -27t-29.5 -9q-20 0 -35 12.5t-18 34.5q-2 13 3 36t37 70q31 44 40 52q10 10 21 9.5t5 -14.5z" />
    <glyph glyph-name="tilde" unicode="&#x2dc;" horiz-adv-x="223" 
d="M78 653q18 0 37 -39t23.5 -45.5t8.5 -6.5q6 1 11.5 21.5t6.5 59.5q0 5 4 9t9 4t9 -4.5t3 -11.5q0 -53 -11.5 -80t-31.5 -27q-18 -1 -38 40t-23.5 46t-6.5 5q-14 0 -19 -75q0 -6 -4.5 -9.5t-9.5 -3.5q-12 0 -11 13q4 55 14 79.5t29 24.5z" />
    <glyph glyph-name="hungarumlaut" unicode="&#x2dd;" horiz-adv-x="241" 
d="M137 680q4 -3 6 -8.5t-10 -21.5l-67 -95q-10 -14 -15 -14.5t-9 2.5q-3 2 -4 7t15 32l60 92q11 17 24 6zM219 678q4 -3 5.5 -8.5t-9.5 -21.5l-69 -95q-7 -9 -12.5 -12t-11.5 1q-3 3 -3.5 9t15.5 30l61 91q12 17 24 6z" />
    <glyph glyph-name="uni0315" unicode="&#x315;" horiz-adv-x="0" 
d="M142 699q5 2 12 0.5t9 -4.5q1 -3 2 -8.5t-4 -25.5l-17 -74q-2 -9 -6.5 -15t-10.5 -5q-5 0 -9 6.5t3 34.5l7 47l3 27q2 14 11 17z" />
    <glyph glyph-name="uni0326" unicode="&#x326;" horiz-adv-x="0" 
d="M84 -35q4 1 10.5 -1t8.5 -5q5 -8 -1 -32l-20 -81q-7 -27 -18 -24q-5 1 -8.5 5.5t0.5 33.5q0 3 2 14t8 39t7 33q2 15 11 18z" />
    <glyph glyph-name="Delta" unicode="&#x394;" horiz-adv-x="272" 
d="M135 686q6 1 11.5 -3t12.5 -40q3 -13 9.5 -53t16 -103t25.5 -165q3 -25 12.5 -85t16.5 -94q1 -5 13.5 -67t9.5 -69q-1 -2 -4.5 -3.5t-12 -2.5t-19.5 -1h-36l-126 1q-1 0 -26 -1t-28 7q-1 3 3 26.5t9.5 52t6.5 34.5q16 86 41 250q14 100 30 194l15 90q3 16 7 23.5t13 8.5z
M137 627l-25 -168l-25 -171q-32 -188 -46 -258h53q93 -2 137 1q-21 109 -61 360q-3 17 -7.5 50t-13.5 100t-12 86z" />
    <glyph glyph-name="Omega" unicode="&#x3a9;" horiz-adv-x="323" 
d="M165 687q64 6 95 -84q36 -118 29 -313q-4 -99 -25.5 -166.5t-49.5 -96.5l50 1q22 -1 26 -3t4 -9q0 -5 -3.5 -10.5t-27.5 -5.5h-62q-9 0 -14.5 1.5t-6.5 8.5q-2 14 11 29q29 35 47 100q10 39 16 87.5t6 90.5q0 132 -14 211q-25 143 -85 127q-14 -4 -29 -21t-27.5 -49
t-19.5 -66q-23 -110 -17 -239q9 -174 72 -245q4 -5 5.5 -15.5t-2.5 -16.5q-2 -3 -23 -3h-23q-42 0 -52.5 3t-9.5 11q0 4 2.5 9t18.5 4h57q-52 54 -68 185q-18 138 3 277q5 32 18.5 77.5t39.5 82t59 38.5z" />
    <glyph glyph-name="pi" unicode="&#x3c0;" horiz-adv-x="344" 
d="M286 469q16 0 22.5 -2t7.5 -12q0 -6 -3 -10.5t-9.5 -5t-24.5 -0.5h-40q4 -236 9 -302q4 -69 14.5 -94t28.5 -23q7 1 12 7.5t3 19.5q0 3 -1.5 13t3.5 12q12 6 19.5 -7.5t5.5 -30.5q-4 -37 -42 -41q-15 -1 -31 9t-25 36q-13 40 -18 163q-6 168 -6 238q-11 0 -40 -0.5
t-44 0.5q0 -18 -1 -74t-3 -101.5t-7 -86.5q-15 -115 -50 -166q-17 -29 -33 -10q-1 1 -2 5t7.5 16t10.5 16q14 24 24 61t18 113q3 33 5 106t1 121l-45 -1q-13 0 -17.5 2t-5.5 10q0 3 2 8.5t12 7.5t44 2l62 1q22 0 70.5 -0.5t66.5 0.5z" />
    <glyph glyph-name="Wgrave" unicode="&#x1e80;" horiz-adv-x="409" 
d="M143 795q6 0 32 -25q9 -10 53 -47q17 -18 8 -27q-7 -6 -37 17l-56 45q-16 12 -16 20q0 6 5.5 11.5t10.5 5.5zM372 683q1 -1 4 -5.5t0 -40.5l-33 -495l-9 -106q-3 -17 -6 -26.5t-9 -10.5q-9 -2 -16.5 2.5t-11.5 24.5q-16 81 -41 238l-23 145l-20 124l-19 -110
q-1 -7 -14 -87t-31 -174q-22 -120 -29 -144q-2 -7 -6 -13t-9 -6q-8 -2 -15 4t-9.5 20t-4.5 35l-10 158l-10 159l-11 158l-9 115q-2 14 -0.5 24t13.5 10q15 -1 15 -32l10 -120q3 -31 6.5 -88t4.5 -68l18 -315l31 173q6 38 40 235l19 104q1 3 2 11t4 13t10 5q5 0 9 -2t6.5 -6
t3.5 -8t2 -9.5t1 -7.5q14 -62 23 -122l22 -137l41 -252l6 100l10 170q6 111 19 297q2 39 3.5 46t4.5 10q2 6 18 4z" />
    <glyph glyph-name="wgrave" unicode="&#x1e81;" horiz-adv-x="356" 
d="M112 677q14 17 29 -4l60 -92q9 -14 13 -24t-4 -16q-10 -7 -24 13l-12 16t-29 41t-26 38q-7 11 -9 17t2 11zM320 469q9 0 12 -12t-5 -55q-2 -18 -6 -47.5t-28 -192.5q-7 -60 -23 -137q-3 -15 -7 -22t-18 -4q-2 0 -5 1.5t-5 5t-3 7.5t-3 11.5t-2 9.5l-8 38l-19 119
q-1 6 -7.5 52.5t-9.5 57.5l-13 -78q-9 -49 -21.5 -108.5t-17.5 -84.5q-6 -32 -19 -32q-5 -1 -11 1.5t-10 22.5q-3 15 -10.5 52t-25 143.5t-19.5 121.5l-15 94q-3 15 -2 25t10 11q20 2 22 -19l7 -55l20 -132l9 -63l23 -134q14 56 32 157l23 131q2 17 6 29t14 13q12 0 17 -30
l7 -44l40 -260q7 40 20 132l26 182l8 68q4 19 7 22t10 3z" />
    <glyph glyph-name="Wacute" unicode="&#x1e82;" horiz-adv-x="409" 
d="M267 795q12 -2 14 -15q1 -7 -15 -21l-57 -46q-19 -15 -25.5 -17.5t-9.5 0.5q-4 3 -5 9t12 18q43 38 53 48q2 2 14 13.5t19 10.5zM372 683q1 -1 4 -5.5t0 -40.5l-33 -495l-9 -106q-3 -17 -6 -26.5t-9 -10.5q-9 -2 -16.5 2.5t-11.5 24.5q-16 81 -41 238l-23 145l-20 124
l-19 -110q-1 -7 -14 -87t-31 -174q-22 -120 -29 -144q-2 -7 -6 -13t-9 -6q-8 -2 -15 4t-9.5 20t-4.5 35l-10 158l-10 159l-11 158l-9 115q-2 14 -0.5 24t13.5 10q15 -1 15 -32l10 -120q3 -31 6.5 -88t4.5 -68l18 -315l31 173q6 38 40 235l19 104q1 3 2 11t4 13t10 5
q5 0 9 -2t6.5 -6t3.5 -8t2 -9.5t1 -7.5q14 -62 23 -122l22 -137l41 -252l6 100l10 170q6 111 19 297q2 39 3.5 46t4.5 10q2 6 18 4z" />
    <glyph glyph-name="wacute" unicode="&#x1e83;" horiz-adv-x="356" 
d="M247 679q4 -3 6 -8t-10 -22l-66 -96q-8 -9 -13.5 -12t-11.5 1q-3 2 -4 8t15 31l41 64l19 27q11 18 24 7zM320 469q9 0 12 -12t-5 -55q-2 -18 -6 -47.5t-28 -192.5q-7 -60 -23 -137q-3 -15 -7 -22t-18 -4q-2 0 -5 1.5t-5 5t-3 7.5t-3 11.5t-2 9.5l-8 38l-19 119
q-1 6 -7.5 52.5t-9.5 57.5l-13 -78q-9 -49 -21.5 -108.5t-17.5 -84.5q-6 -32 -19 -32q-5 -1 -11 1.5t-10 22.5q-3 15 -10.5 52t-25 143.5t-19.5 121.5l-15 94q-3 15 -2 25t10 11q20 2 22 -19l7 -55l20 -132l9 -63l23 -134q14 56 32 157l23 131q2 17 6 29t14 13q12 0 17 -30
l7 -44l40 -260q7 40 20 132l26 182l8 68q4 19 7 22t10 3z" />
    <glyph glyph-name="Wdieresis" unicode="&#x1e84;" horiz-adv-x="409" 
d="M250 732q12 0 19.5 -8.5t7.5 -19.5q0 -10 -6.5 -17.5t-17.5 -7.5t-18.5 7.5t-7.5 19.5q0 11 7.5 18.5t15.5 7.5zM182 704q0 -12 -8.5 -19t-18.5 -7q-11 0 -17.5 8t-6.5 19t8.5 18.5t18.5 7.5q11 0 17.5 -8t6.5 -19zM372 683q1 -1 4 -5.5t0 -40.5l-33 -495l-9 -106
q-3 -17 -6 -26.5t-9 -10.5q-9 -2 -16.5 2.5t-11.5 24.5q-16 81 -41 238l-23 145l-20 124l-19 -110q-1 -7 -14 -87t-31 -174q-22 -120 -29 -144q-2 -7 -6 -13t-9 -6q-8 -2 -15 4t-9.5 20t-4.5 35l-10 158l-10 159l-11 158l-9 115q-2 14 -0.5 24t13.5 10q15 -1 15 -32l10 -120
q3 -31 6.5 -88t4.5 -68l18 -315l31 173q6 38 40 235l19 104q1 3 2 11t4 13t10 5q5 0 9 -2t6.5 -6t3.5 -8t2 -9.5t1 -7.5q14 -62 23 -122l22 -137l41 -252l6 100l10 170q6 111 19 297q2 39 3.5 46t4.5 10q2 6 18 4z" />
    <glyph glyph-name="wdieresis" unicode="&#x1e85;" horiz-adv-x="356" 
d="M224 602q11 0 19 -8.5t8 -19.5q0 -10 -6.5 -17.5t-17.5 -7.5q-12 0 -19 7.5t-7 19.5q0 11 7.5 18.5t15.5 7.5zM156 573q0 -11 -8.5 -18t-19.5 -7t-17.5 8t-6.5 19t8.5 18.5t19.5 7.5t17.5 -8.5t6.5 -19.5zM320 469q9 0 12 -12t-5 -55q-2 -18 -6 -47.5t-28 -192.5
q-7 -60 -23 -137q-3 -15 -7 -22t-18 -4q-2 0 -5 1.5t-5 5t-3 7.5t-3 11.5t-2 9.5l-8 38l-19 119q-1 6 -7.5 52.5t-9.5 57.5l-13 -78q-9 -49 -21.5 -108.5t-17.5 -84.5q-6 -32 -19 -32q-5 -1 -11 1.5t-10 22.5q-3 15 -10.5 52t-25 143.5t-19.5 121.5l-15 94q-3 15 -2 25
t10 11q20 2 22 -19l7 -55l20 -132l9 -63l23 -134q14 56 32 157l23 131q2 17 6 29t14 13q12 0 17 -30l7 -44l40 -260q7 40 20 132l26 182l8 68q4 19 7 22t10 3z" />
    <glyph glyph-name="uni1E9E" unicode="&#x1e9e;" horiz-adv-x="262" 
d="M236 679q21 -5 13 -31q-15 -43 -54 -135q-24 -57 -31 -85t-4 -48t11 -40.5t19 -44t14 -29.5q39 -85 46 -139q7 -60 -12 -96.5t-60 -37.5q-20 0 -38.5 13.5t-21.5 25.5t4 17q4 3 9 3.5t16 -11t19 -15t17 -2.5q22 3 31.5 29.5t6.5 59.5q-1 22 -9.5 53t-31 81t-27.5 62
q-14 32 -20 58.5t-0.5 55t36.5 103.5q33 76 51 128q-24 6 -48 6q-58 0 -78 -34q-9 -15 -14 -38t-6 -89q-1 -50 1.5 -207t0.5 -228q0 -2 1 -20.5t-1.5 -33t-14.5 -14.5q-8 1 -12.5 9t-2.5 27.5t2 21.5q2 105 -0.5 237t-1.5 198q0 3 0.5 35.5t4 62.5t19.5 57q26 43 103 43
q8 0 29 -1.5t34 -6.5z" />
    <glyph glyph-name="Ygrave" unicode="&#x1ef2;" horiz-adv-x="268" 
d="M74 789q6 0 32 -25q14 -14 29 -27t24 -21q8 -8 11 -14t-3 -12q-7 -6 -37 17l-56 45q-16 12 -16 20q0 6 5 11.5t11 5.5zM256 683q7 -1 9 -6.5t-4 -22.5q-8 -21 -28.5 -92t-25.5 -88q-37 -115 -58 -174v-83l-1 -187q0 -16 -2 -23.5t-11 -7.5q-2 0 -7 2.5t-6.5 11.5t-1.5 38
v190v55l-51 169q-12 46 -57 186q-2 5 -4.5 16t6.5 14q8 3 15.5 0t12.5 -22.5t5 -20.5l39 -131q21 -74 49 -167l37 120l62 205q6 19 22 18z" />
    <glyph glyph-name="ygrave" unicode="&#x1ef3;" horiz-adv-x="225" 
d="M44 677q14 17 29 -4l60 -92q9 -14 13 -24t-4 -16q-10 -7 -24 13l-12 16t-29 41t-26 38q-7 11 -9 17t2 11zM191 469q8 1 14 -5.5t-1 -42.5l-36 -217l-36 -188l-40 -190l-16 -65q-4 -11 -7.5 -16t-11.5 -4t-11.5 5.5t0.5 18.5l9 35q29 118 41 194q-9 49 -35 210l-35 208
q-9 42 -5 49.5t11 7.5q9 -1 14.5 -10t7.5 -35l18 -104l41 -272q5 26 16 96t18 106q27 160 29 181q2 16 5 26.5t10 11.5z" />
    <glyph glyph-name="endash" unicode="&#x2013;" horiz-adv-x="266" 
d="M54 278h60q65 0 122 -3q13 -1 18.5 -3.5t5.5 -11.5q0 -5 -7 -9t-48 -4t-99.5 1t-74.5 0q-13 1 -19 3t-6 11q0 6 6 11t42 5z" />
    <glyph glyph-name="emdash" unicode="&#x2014;" horiz-adv-x="461" 
d="M94 276q216 0 259 -2l41 -1q13 -1 18.5 -3.5t5.5 -11.5q0 -6 -6 -9t-14.5 -3.5t-20 -0.5h-14.5l-199 2l-93 -1q-25 0 -25 14q0 5 6.5 10.5t41.5 5.5z" />
    <glyph glyph-name="quoteleft" unicode="&#x2018;" horiz-adv-x="103" 
d="M41 573q-22 9 -24 43q-2 31 10 66t34 61q6 7 15 10t14 -8q3 -5 -10.5 -24.5t-17.5 -28.5q-15 -33 -15 -59q13 -1 22 -9.5t10 -21.5q0 -15 -12 -24t-26 -5z" />
    <glyph glyph-name="quoteright" unicode="&#x2019;" horiz-adv-x="103" 
d="M62 744q22 -8 24 -43q2 -31 -10 -65.5t-34 -61.5q-6 -7 -15 -10t-14 8q-3 5 10 24t18 29q16 36 15 59q-13 1 -22 9.5t-10 21.5q0 15 12 24t26 5z" />
    <glyph glyph-name="quotesinglbase" unicode="&#x201a;" horiz-adv-x="107" 
d="M59 53q22 -8 24 -42q2 -31 -10 -66t-34 -61q-6 -7 -15 -10t-14 8q-2 4 9 20.5t14.5 23t5.5 9.5q15 34 14 59q-13 1 -22 9.5t-9 20.5q0 15 11.5 24.5t25.5 4.5z" />
    <glyph glyph-name="quotedblleft" unicode="&#x201c;" horiz-adv-x="191" 
d="M41 573q-22 9 -24 43q-2 31 10 66t34 61q6 7 15 10t14 -8q3 -5 -10.5 -24.5t-17.5 -28.5q-15 -33 -15 -59q13 -1 22 -9.5t10 -21.5q0 -15 -12 -24t-26 -5zM128 573q-21 9 -23 43q-2 31 10 66t34 61q6 7 14.5 10t13.5 -8q3 -5 -10.5 -24.5t-17.5 -28.5q-15 -33 -15 -59
q13 -1 22.5 -9.5t9.5 -21.5q0 -15 -11.5 -24t-26.5 -5z" />
    <glyph glyph-name="quotedblright" unicode="&#x201d;" horiz-adv-x="192" 
d="M63 743q22 -8 24 -42q2 -31 -10 -66t-34 -61q-2 -2 -8.5 -7.5t-12 -3t-7.5 8.5q-3 4 10 23t18 30q15 32 15 58q-14 2 -23 10t-9 21q0 15 11.5 24t25.5 5zM151 743q22 -8 24 -42q2 -31 -10.5 -66t-34.5 -61q-2 -2 -8.5 -7.5t-12 -3t-7.5 8.5q-3 4 10 23t18 30q15 32 15 58
q-14 2 -23 10t-9 21q0 15 11.5 24t26.5 5z" />
    <glyph glyph-name="quotedblbase" unicode="&#x201e;" horiz-adv-x="192" 
d="M150 54q22 -8 24 -43q2 -31 -10 -65.5t-34 -60.5q-2 -2 -9 -7.5t-12.5 -3t-7.5 8.5q-3 4 10 23t18 29q15 33 15 59q-13 1 -22 9.5t-10 21.5q0 15 11.5 24t26.5 5zM63 53q22 -8 24 -42q2 -31 -10 -66t-34 -61q-6 -7 -14.5 -10t-13.5 8q-3 5 10 24.5t18 28.5q15 33 15 59
q-13 1 -22.5 9.5t-9.5 20.5q0 15 11.5 24.5t25.5 4.5z" />
    <glyph glyph-name="dagger" unicode="&#x2020;" horiz-adv-x="285" 
d="M227 613q22 2 23 -13q0 -6 -6 -11t-45 -5h-42q0 -33 -0.5 -102.5t0.5 -132.5l2 -141q0 -18 -14 -18q-6 0 -11 6.5t-5 47.5q-3 196 -1 340h-48q-45 -1 -45 12q0 6 5.5 10.5t39.5 4.5l48 1q0 80 -2 107q0 15 2.5 18.5t10.5 3.5q6 0 11 -4t5 -30l2 -95q23 -1 70 1z" />
    <glyph glyph-name="daggerdbl" unicode="&#x2021;" horiz-adv-x="274" 
d="M156 374h43q30 0 39.5 -3t9.5 -11q0 -13 -28 -13l-64 -1l2 -138q0 -18 -14 -18q-6 0 -11 6.5t-5 47.5l-1 102h-49q-23 0 -34 3t-10 13q0 4 14 8t79 4q-1 124 0 210h-48q-45 -1 -45 12q0 6 5.5 10.5t39.5 4.5l48 1q0 80 -2 107q0 15 2.5 18.5t10.5 3.5q6 0 11 -4t5 -30
l2 -95q22 -1 71 1q22 2 23 -13q0 -6 -6.5 -11t-45.5 -5h-42v-210z" />
    <glyph glyph-name="bullet" unicode="&#x2022;" horiz-adv-x="242" 
d="M111 392q40 3 61 -18t23 -55q2 -26 -12.5 -47t-35 -28t-37.5 -5q-21 3 -38.5 18.5t-22.5 34.5q-6 18 -0.5 40t21.5 40t41 20z" />
    <glyph glyph-name="ellipsis" unicode="&#x2026;" horiz-adv-x="298" 
d="M251 54q10 -3 17 -12.5t5 -24.5q-2 -9 -11.5 -15.5t-17.5 -6.5q-14 0 -21 9t-7 20q0 13 9.5 23t25.5 7zM54 54q14 0 20.5 -9t6.5 -20q0 -13 -9.5 -23t-24.5 -7q-14 4 -19 16t-3 21q1 9 10.5 15.5t18.5 6.5zM158 53q7 -1 14.5 -7.5t7.5 -19.5q0 -11 -8.5 -21t-23.5 -10
q-11 0 -20.5 10.5t-6.5 25.5q3 14 14.5 19t22.5 3z" />
    <glyph glyph-name="perthousand" unicode="&#x2030;" horiz-adv-x="513" 
d="M290 690q9 1 12.5 -4t2 -16t-13 -40.5t-14.5 -36.5q-2 -7 -8.5 -24t-29 -81.5t-48.5 -133.5q-52 -142 -62 -172q-9 -26 -28 -77t-28 -80q-5 -16 -11.5 -26.5t-16.5 -8.5q-6 1 -9 5t-2.5 10.5t6.5 24.5l82 222q1 2 4.5 12.5t38.5 108.5t84 228q33 88 41 89zM109 680
q29 -8 39 -65t2 -134q-6 -41 -17 -66t-33 -30q-18 -4 -36 6.5t-27 39.5q-9 30 -10 73.5t3 79.5q7 48 27 76.5t52 19.5zM91 651q-8 -1 -14.5 -11t-10.5 -21q-12 -42 -11 -106t16 -85q5 -8 14.5 -11t16.5 3q16 16 21 72t-1 103q-7 59 -31 56zM248 287q43 4 57 -51
q7 -27 8.5 -76t-8.5 -101q-11 -60 -56 -63q-19 -2 -34.5 11t-23 45.5t-8.5 71.5q-1 58 9 96t25 51.5t31 15.5zM414 279q42 6 61 -47q13 -42 10 -107.5t-23 -101.5q-22 -38 -61 -25q-14 5 -25.5 22.5t-16.5 53.5q-10 84 5 141t50 64zM262 255q-12 6 -22 -2t-13 -18
q-6 -13 -10 -40.5t-5 -48.5q-2 -105 23 -118q8 -4 18 -1t15 11q7 12 12 49t3 82q-2 75 -21 86zM420 248q-24 -5 -32 -51.5t-4 -93.5q2 -28 9.5 -51t20.5 -26q33 -6 43 95q2 21 0.5 46.5t-6.5 44.5q-3 14 -11 26t-20 10z" />
    <glyph glyph-name="guilsinglleft" unicode="&#x2039;" horiz-adv-x="211" 
d="M142 421q6 2 12 -4.5t3 -15.5q-2 -6 -34 -60l-55 -93l18 -35l63 -106q17 -28 3 -36q-6 -4 -12.5 0.5t-30.5 46.5q-63 109 -67.5 118.5t-4.5 11.5q0 4 25 47q32 51 55 93q18 30 25 33z" />
    <glyph glyph-name="guilsinglright" unicode="&#x203a;" horiz-adv-x="208" 
d="M57 414q5 5 11 3t10 -8l23 -40q70 -117 70 -125q0 -4 -18 -36.5t-40 -66.5q-3 -5 -20.5 -36t-23.5 -32q-5 -4 -12 3.5t-4 16.5l33 57l55 93q0 2 -8.5 17t-38 63.5t-32.5 54.5q-6 13 -8 21.5t3 14.5z" />
    <glyph glyph-name="fraction" unicode="&#x2044;" horiz-adv-x="293" 
d="M300 687q12 -1 14 -10.5t-10 -32.5q-11 -27 -76.5 -168t-66.5 -143l-31 -69l-57 -130q-20 -47 -52 -115q-1 -2 -6 -12.5t-10 -16t-11 -4.5q-11 1 -12 8t3 13q15 34 69 157.5t81 180.5q25 50 66.5 141t58.5 127q3 7 11.5 28.5t15 33.5t13.5 12z" />
    <glyph glyph-name="uni2070" unicode="&#x2070;" horiz-adv-x="226" 
d="M116 744q80 3 78 -180q-2 -112 -27 -160q-22 -40 -56 -37q-20 2 -38 20t-27 55q-13 50 -10.5 123t16.5 114q9 26 23.5 45t40.5 20zM143 699q-8 13 -21.5 14.5t-25.5 -11t-19 -41.5q-11 -51 -12 -105t9 -102q4 -20 13.5 -36t24 -19t23.5 10q14 16 22 58.5t8 95.5
q0 40 -3.5 75.5t-18.5 60.5z" />
    <glyph glyph-name="Euro" unicode="&#x20ac;" horiz-adv-x="282" 
d="M188 682q13 2 27.5 -3.5t24 -21t13.5 -34.5q7 -45 -12 -47q-6 -1 -10 2t-4.5 15t-1.5 16q-2 16 -9 29.5t-21 13.5q-64 0 -92 -229l79 1q32 0 41 -2.5t10 -9.5q0 -6 -3 -11t-32 -5l-120 -2q-51 0 -58.5 6t-7.5 12q0 5 6.5 8t27.5 3h27q5 63 19.5 121t38 95.5t57.5 42.5z
M75 334h120q18 0 26 -2t9 -9q0 -17 -28 -17l-104 -1q-2 -77 9 -148q18 -133 77 -132q17 1 29.5 25t14.5 58q0 20 15 20q9 0 11 -16t-5 -44q-8 -32 -24.5 -52t-41.5 -21q-38 -1 -64 33t-39 116q-11 72 -11 161q-40 1 -49 4t-9 11q0 5 8 9.5t56 4.5z" />
    <glyph glyph-name="afii61289" unicode="&#x2113;" horiz-adv-x="213" 
d="M158 146q20 6 23 -31q5 -59 -14 -92q-8 -13 -21.5 -21t-27.5 -8q-11 0 -24 5t-21 21.5t-9.5 37.5t-1.5 94v110q-30 -31 -39 -33.5t-12 6.5q-5 12 11 24l40 42q0 210 4 286q1 24 7 49.5t17 39.5q2 3 11.5 10t25.5 7q19 0 31 -12q16 -16 21.5 -54t3 -86t-9.5 -78
q-26 -107 -83 -171q-2 -158 0 -220q1 -23 8.5 -36.5t21.5 -12.5q21 1 29.5 28.5t3.5 64.5q0 3 -1.5 10.5t-0.5 12.5t7 7zM94 587q-2 -31 -3 -68t-0.5 -98.5t0.5 -84.5q25 37 40 80t20 81q9 67 2.5 119t-27.5 51q-27 -2 -32 -80z" />
    <glyph glyph-name="afii61352" unicode="&#x2116;" horiz-adv-x="519" 
d="M422 687q15 0 28 -9t19 -27.5t9 -42.5q4 -31 4 -77.5t-4 -81.5q-4 -43 -12 -64t-21 -29q-10 -7 -28.5 -7.5t-29.5 11.5q-8 8 -16.5 28.5t-12.5 82.5q-1 26 0.5 64.5t6.5 67.5q7 45 23 64.5t34 19.5zM255 682q3 0 8 -2.5t4 -19.5t-1 -21q2 -48 1 -122t-1 -88
q3 -145 1 -353l1 -44q2 -34 -13 -36q-6 -1 -12 2.5t-13 26.5q-42 139 -61 210q-26 100 -45 181q-33 135 -50 196q0 -38 1.5 -87t1.5 -61v-272l1 -163q1 -19 -2.5 -26t-10.5 -6q-5 0 -10 5t-5 28l-1 286v160v148q0 37 2 47t8 11q11 2 18 -2.5t13 -23.5q22 -72 32 -115
q0 -2 1.5 -6.5t31.5 -127.5t47 -184l39 -150l-3 300v155q0 9 -0.5 54t0.5 69q0 13 3 22t14 9zM421 658q-15 0 -24 -37q-5 -16 -8.5 -52.5t-2.5 -82.5q2 -109 33 -109q8 0 16.5 11.5t14.5 64.5q4 41 3.5 92.5t-6.5 82.5q-7 30 -26 30zM395 307h63q18 0 25.5 -2t7.5 -13
q0 -8 -7 -10.5t-38 -2.5l-72 1h-16t-14 12q0 5 2.5 8.5t9 5t39.5 1.5z" />
    </font>
</defs>
</svg>
